G04 #@! TF.GenerationSoftware,KiCad,Pcbnew,(5.0.1)-3*
G04 #@! TF.CreationDate,2019-12-30T10:06:07+01:00*
G04 #@! TF.ProjectId,TL494 Class D Amp,544C34393420436C617373204420416D,rev?*
G04 #@! TF.SameCoordinates,PX4c4b400PY8f0d180*
G04 #@! TF.FileFunction,Soldermask,Bot*
G04 #@! TF.FilePolarity,Negative*
%FSLAX46Y46*%
G04 Gerber Fmt 4.6, Leading zero omitted, Abs format (unit mm)*
G04 Created by KiCad (PCBNEW (5.0.1)-3) date 30/12/2019 10:06:07*
%MOMM*%
%LPD*%
G01*
G04 APERTURE LIST*
%ADD10C,1.778000*%
%ADD11C,0.010000*%
%ADD12C,0.050800*%
G04 APERTURE END LIST*
D10*
X75000000Y26000000D02*
X66000000Y26000000D01*
X75000000Y26000000D02*
X84000000Y26000000D01*
X75000000Y44000000D02*
X75000000Y26000000D01*
X12000000Y45500000D02*
X12000000Y42500000D01*
X12500000Y46000000D02*
X12000000Y45500000D01*
X36000000Y46000000D02*
X12500000Y46000000D01*
X36000000Y46000000D02*
X36000000Y42500000D01*
X61000000Y46000000D02*
X36000000Y46000000D01*
X63000000Y44000000D02*
X61000000Y46000000D01*
X77500000Y44000000D02*
X63000000Y44000000D01*
X77500000Y44000000D02*
X84000000Y44000000D01*
X77500000Y53000000D02*
X77500000Y44000000D01*
D11*
G04 #@! TO.C,G\002A\002A\002A*
G36*
X60044060Y55055435D02*
X59983660Y55020483D01*
X59965892Y55006302D01*
X59913591Y54942119D01*
X59888993Y54864971D01*
X59891460Y54780437D01*
X59920357Y54694096D01*
X59975047Y54611527D01*
X60015675Y54569935D01*
X60085413Y54514400D01*
X60153002Y54479446D01*
X60232633Y54458793D01*
X60282860Y54451697D01*
X60338272Y54450279D01*
X60363255Y54462563D01*
X60363914Y54464026D01*
X60362702Y54493557D01*
X60348950Y54546947D01*
X60325276Y54617769D01*
X60294302Y54699599D01*
X60258648Y54786011D01*
X60220934Y54870581D01*
X60183781Y54946883D01*
X60149809Y55008492D01*
X60129152Y55039664D01*
X60093497Y55062020D01*
X60044060Y55055435D01*
X60044060Y55055435D01*
G37*
X60044060Y55055435D02*
X59983660Y55020483D01*
X59965892Y55006302D01*
X59913591Y54942119D01*
X59888993Y54864971D01*
X59891460Y54780437D01*
X59920357Y54694096D01*
X59975047Y54611527D01*
X60015675Y54569935D01*
X60085413Y54514400D01*
X60153002Y54479446D01*
X60232633Y54458793D01*
X60282860Y54451697D01*
X60338272Y54450279D01*
X60363255Y54462563D01*
X60363914Y54464026D01*
X60362702Y54493557D01*
X60348950Y54546947D01*
X60325276Y54617769D01*
X60294302Y54699599D01*
X60258648Y54786011D01*
X60220934Y54870581D01*
X60183781Y54946883D01*
X60149809Y55008492D01*
X60129152Y55039664D01*
X60093497Y55062020D01*
X60044060Y55055435D01*
G36*
X59130573Y56589433D02*
X59015663Y56565317D01*
X58886138Y56527537D01*
X58780002Y56482534D01*
X58686839Y56425119D01*
X58611757Y56364192D01*
X58578474Y56329874D01*
X58538999Y56282665D01*
X58499457Y56230825D01*
X58465974Y56182612D01*
X58444675Y56146285D01*
X58440267Y56132978D01*
X58425916Y56121293D01*
X58393700Y56123488D01*
X58225069Y56151208D01*
X58067292Y56161599D01*
X57909205Y56154441D01*
X57739646Y56129518D01*
X57640091Y56108755D01*
X57494072Y56071350D01*
X57371347Y56028994D01*
X57261349Y55977212D01*
X57153509Y55911527D01*
X57120111Y55888521D01*
X56987870Y55787338D01*
X56879745Y55685604D01*
X56786943Y55574775D01*
X56762699Y55541225D01*
X56692835Y55441627D01*
X56588651Y55579918D01*
X56466164Y55727751D01*
X56329849Y55866429D01*
X56185980Y55990625D01*
X56040831Y56095009D01*
X55900674Y56174255D01*
X55874904Y56186128D01*
X55785182Y56220005D01*
X55673854Y56253306D01*
X55550994Y56283809D01*
X55426676Y56309293D01*
X55310975Y56327537D01*
X55213964Y56336318D01*
X55191756Y56336778D01*
X55090403Y56330711D01*
X54971565Y56314224D01*
X54848031Y56289845D01*
X54732589Y56260103D01*
X54638030Y56227529D01*
X54636823Y56227026D01*
X54583189Y56199580D01*
X54516003Y56158203D01*
X54444924Y56109640D01*
X54379611Y56060635D01*
X54329721Y56017932D01*
X54314134Y56001706D01*
X54299186Y55985516D01*
X54282633Y55973871D01*
X54258869Y55965879D01*
X54222288Y55960649D01*
X54167286Y55957290D01*
X54088256Y55954908D01*
X54009334Y55953218D01*
X53866273Y55949051D01*
X53747977Y55942130D01*
X53645378Y55931149D01*
X53549404Y55914803D01*
X53450986Y55891787D01*
X53341054Y55860797D01*
X53317265Y55853642D01*
X53213529Y55819846D01*
X53129712Y55785969D01*
X53052423Y55745831D01*
X52968269Y55693251D01*
X52964921Y55691035D01*
X52870029Y55626274D01*
X52796456Y55570586D01*
X52736013Y55516428D01*
X52680508Y55456258D01*
X52621751Y55382532D01*
X52603284Y55358008D01*
X52496612Y55188515D01*
X52419283Y55006703D01*
X52372801Y54817081D01*
X52358650Y54626285D01*
X52366015Y54521151D01*
X52384262Y54402683D01*
X52410833Y54282197D01*
X52443168Y54171010D01*
X52478710Y54080438D01*
X52484921Y54067839D01*
X52523968Y53991745D01*
X52451232Y53896103D01*
X52407098Y53831073D01*
X52375693Y53764820D01*
X52350480Y53682811D01*
X52344567Y53658931D01*
X52319673Y53529426D01*
X52312568Y53412857D01*
X52323262Y53294354D01*
X52344867Y53187200D01*
X52392754Y53049587D01*
X52471530Y52910696D01*
X52581734Y52769921D01*
X52723906Y52626652D01*
X52898588Y52480281D01*
X53106320Y52330200D01*
X53106383Y52330158D01*
X53245347Y52240168D01*
X53375500Y52165961D01*
X53505104Y52104032D01*
X53642421Y52050878D01*
X53795712Y52002995D01*
X53973239Y51956879D01*
X54003733Y51949599D01*
X54117154Y51923568D01*
X54207044Y51905256D01*
X54282525Y51893380D01*
X54352717Y51886660D01*
X54426738Y51883816D01*
X54474858Y51883437D01*
X54641345Y51892356D01*
X54821707Y51917660D01*
X55005482Y51956920D01*
X55182208Y52007704D01*
X55341421Y52067581D01*
X55414059Y52101628D01*
X55479922Y52140019D01*
X55561597Y52194696D01*
X55650041Y52258945D01*
X55736208Y52326052D01*
X55811052Y52389302D01*
X55847642Y52423476D01*
X55900676Y52480927D01*
X55963117Y52556338D01*
X56029334Y52642058D01*
X56093696Y52730430D01*
X56150573Y52813803D01*
X56194335Y52884523D01*
X56213277Y52920500D01*
X56233957Y52959815D01*
X56250167Y52981727D01*
X56253563Y52983398D01*
X56267541Y52970304D01*
X56296109Y52935674D01*
X56334332Y52885646D01*
X56356703Y52855144D01*
X56470257Y52715052D01*
X56606233Y52575085D01*
X56758496Y52439885D01*
X56920906Y52314096D01*
X57087327Y52202360D01*
X57251623Y52109319D01*
X57407654Y52039617D01*
X57458134Y52021930D01*
X57623753Y51972320D01*
X57766577Y51938717D01*
X57893329Y51920526D01*
X58010731Y51917153D01*
X58125506Y51928004D01*
X58244061Y51952403D01*
X58403466Y52007079D01*
X58537831Y52084514D01*
X58647464Y52185012D01*
X58732677Y52308878D01*
X58793779Y52456414D01*
X58807031Y52503661D01*
X58847495Y52663014D01*
X58811623Y52815809D01*
X58789265Y52898262D01*
X58761792Y52981350D01*
X58734265Y53050126D01*
X58727535Y53064192D01*
X58699321Y53124647D01*
X58689492Y53161728D01*
X58698424Y53180745D01*
X58726491Y53187006D01*
X58736239Y53187200D01*
X58761666Y53181730D01*
X58780830Y53160281D01*
X58799606Y53115291D01*
X58805314Y53098300D01*
X58863391Y52957569D01*
X58946289Y52809259D01*
X59048832Y52661511D01*
X59165843Y52522466D01*
X59183174Y52504064D01*
X59249492Y52441856D01*
X59333342Y52373759D01*
X59426465Y52305519D01*
X59520605Y52242880D01*
X59607504Y52191588D01*
X59678907Y52157388D01*
X59684413Y52155300D01*
X59775689Y52125049D01*
X59879142Y52096156D01*
X59985446Y52070722D01*
X60085274Y52050847D01*
X60169300Y52038630D01*
X60215257Y52035755D01*
X60276583Y52040431D01*
X60360193Y52053044D01*
X60456042Y52071444D01*
X60554086Y52093478D01*
X60644280Y52116993D01*
X60716580Y52139839D01*
X60735861Y52147304D01*
X60790992Y52173612D01*
X60841006Y52202645D01*
X60848045Y52207453D01*
X60893623Y52239832D01*
X61025845Y52133451D01*
X61193501Y52007477D01*
X61355573Y51905796D01*
X61520300Y51824734D01*
X61695922Y51760618D01*
X61890678Y51709775D01*
X62042435Y51680177D01*
X62179264Y51659683D01*
X62296047Y51650313D01*
X62404588Y51651684D01*
X62516695Y51663412D01*
X62524458Y51664534D01*
X62649890Y51686740D01*
X62776655Y51715935D01*
X62894559Y51749384D01*
X62993405Y51784356D01*
X63028523Y51799659D01*
X63188811Y51889610D01*
X63344717Y52003541D01*
X63486982Y52133716D01*
X63606348Y52272396D01*
X63625064Y52298200D01*
X63685957Y52389024D01*
X63731721Y52469684D01*
X63767377Y52551483D01*
X63797947Y52645725D01*
X63824347Y52746768D01*
X63855165Y52893111D01*
X63871482Y53027012D01*
X63872459Y53124745D01*
X63314249Y53124745D01*
X63305381Y52964984D01*
X63269565Y52812007D01*
X63211172Y52680529D01*
X63127932Y52563967D01*
X63018605Y52455663D01*
X62890899Y52361657D01*
X62752521Y52287987D01*
X62670668Y52257038D01*
X62558403Y52231668D01*
X62424455Y52218324D01*
X62278857Y52217144D01*
X62131638Y52228269D01*
X62010898Y52247884D01*
X61806352Y52308036D01*
X61611049Y52399775D01*
X61426817Y52521645D01*
X61255486Y52672190D01*
X61098884Y52849951D01*
X60958842Y53053471D01*
X60922998Y53114606D01*
X60860468Y53230620D01*
X60792140Y53366677D01*
X60722563Y53512964D01*
X60656284Y53659664D01*
X60597852Y53796964D01*
X60551815Y53915047D01*
X60550918Y53917516D01*
X60493342Y54076200D01*
X60371936Y54073842D01*
X60253076Y54060936D01*
X60159605Y54026808D01*
X60089881Y53970644D01*
X60053167Y53915521D01*
X60020884Y53821992D01*
X60021578Y53730274D01*
X60046896Y53652166D01*
X60083895Y53591427D01*
X60132373Y53539368D01*
X60183732Y53503704D01*
X60225408Y53492000D01*
X60272604Y53507759D01*
X60310547Y53550788D01*
X60333901Y53614720D01*
X60335436Y53623289D01*
X60345585Y53665580D01*
X60364603Y53684936D01*
X60402434Y53692184D01*
X60456999Y53681351D01*
X60515313Y53642037D01*
X60574013Y53578873D01*
X60629736Y53496489D01*
X60679121Y53399517D01*
X60718805Y53292586D01*
X60734388Y53235016D01*
X60753650Y53135114D01*
X60758182Y53052259D01*
X60747956Y52972989D01*
X60733778Y52918331D01*
X60686311Y52813663D01*
X60614146Y52728306D01*
X60521086Y52663279D01*
X60410934Y52619603D01*
X60287495Y52598297D01*
X60154570Y52600380D01*
X60015965Y52626871D01*
X59875482Y52678791D01*
X59862667Y52684846D01*
X59791988Y52725109D01*
X59717237Y52781084D01*
X59631856Y52857876D01*
X59598305Y52890557D01*
X59525378Y52965077D01*
X59471441Y53027032D01*
X59429540Y53085621D01*
X59392722Y53150047D01*
X59374107Y53187200D01*
X59315788Y53320480D01*
X59277898Y53442337D01*
X59257278Y53565647D01*
X59250863Y53689255D01*
X59256435Y53819916D01*
X59277471Y53926226D01*
X59315802Y54014836D01*
X59356596Y54073187D01*
X59400032Y54116261D01*
X59457099Y54160312D01*
X59518181Y54199197D01*
X59573663Y54226773D01*
X59612900Y54236908D01*
X59637959Y54248927D01*
X59642533Y54262467D01*
X59628539Y54283414D01*
X59610445Y54287867D01*
X59581273Y54295198D01*
X59531261Y54314744D01*
X59469479Y54342835D01*
X59445694Y54354538D01*
X59385703Y54383565D01*
X59338106Y54404484D01*
X59310156Y54414199D01*
X59305976Y54414153D01*
X59299601Y54394804D01*
X59290817Y54352705D01*
X59284870Y54317849D01*
X59269912Y54257340D01*
X59243919Y54182921D01*
X59212386Y54110240D01*
X59210875Y54107161D01*
X59130969Y53979875D01*
X59031475Y53878794D01*
X58915243Y53804754D01*
X58785123Y53758592D01*
X58643964Y53741144D01*
X58494616Y53753249D01*
X58339929Y53795742D01*
X58261860Y53828465D01*
X58171923Y53879280D01*
X58090587Y53941460D01*
X58023119Y54009437D01*
X57974784Y54077645D01*
X57950847Y54140518D01*
X57949200Y54158983D01*
X57962451Y54200516D01*
X58000004Y54220846D01*
X58058560Y54218394D01*
X58068508Y54216077D01*
X58117494Y54206942D01*
X58151577Y54212550D01*
X58183279Y54232161D01*
X58214841Y54264516D01*
X58230022Y54308581D01*
X58233660Y54342124D01*
X58234023Y54391819D01*
X58222335Y54425677D01*
X58191929Y54459222D01*
X58178037Y54471654D01*
X58108300Y54513658D01*
X58034521Y54525096D01*
X57961771Y54508019D01*
X57895121Y54464478D01*
X57839642Y54396524D01*
X57804939Y54320747D01*
X57787212Y54239230D01*
X57778636Y54135577D01*
X57779420Y54020318D01*
X57789770Y53903981D01*
X57795930Y53863563D01*
X57821202Y53740775D01*
X57855891Y53615973D01*
X57901845Y53484532D01*
X57960914Y53341828D01*
X58034946Y53183235D01*
X58125790Y53004127D01*
X58181369Y52899334D01*
X58229169Y52807378D01*
X58260370Y52738159D01*
X58276331Y52685703D01*
X58278411Y52644033D01*
X58267968Y52607173D01*
X58253800Y52580815D01*
X58209249Y52530150D01*
X58146177Y52497039D01*
X58059902Y52479708D01*
X57976928Y52476000D01*
X57825096Y52491442D01*
X57665076Y52536039D01*
X57500470Y52607200D01*
X57334883Y52702333D01*
X57171917Y52818846D01*
X57015175Y52954146D01*
X56868261Y53105642D01*
X56734778Y53270742D01*
X56618329Y53446854D01*
X56611793Y53458005D01*
X56584524Y53505778D01*
X56544473Y53577136D01*
X56495061Y53665925D01*
X56439709Y53765992D01*
X56381838Y53871182D01*
X56361107Y53909008D01*
X56227316Y54149069D01*
X56104944Y54359142D01*
X55992799Y54540668D01*
X55889688Y54695090D01*
X55794420Y54823851D01*
X55705804Y54928394D01*
X55622647Y55010160D01*
X55543758Y55070593D01*
X55467945Y55111135D01*
X55394016Y55133228D01*
X55345440Y55138412D01*
X55304375Y55134422D01*
X55249327Y55122374D01*
X55189384Y55105192D01*
X55133635Y55085800D01*
X55091169Y55067124D01*
X55071074Y55052085D01*
X55070533Y55049967D01*
X55082691Y55034446D01*
X55115338Y55002890D01*
X55162737Y54960688D01*
X55193300Y54934652D01*
X55335442Y54801097D01*
X55466383Y54650380D01*
X55579817Y54490783D01*
X55669437Y54330587D01*
X55692881Y54278600D01*
X55746823Y54132744D01*
X55782118Y53990798D01*
X55801030Y53840725D01*
X55805878Y53678267D01*
X55804524Y53578772D01*
X55800918Y53503586D01*
X55793855Y53443167D01*
X55782129Y53387972D01*
X55764534Y53328460D01*
X55759875Y53314200D01*
X55693513Y53159634D01*
X55598935Y53007073D01*
X55481301Y52864273D01*
X55419881Y52803076D01*
X55267394Y52680558D01*
X55100037Y52585050D01*
X54914241Y52514896D01*
X54706437Y52468445D01*
X54693198Y52466376D01*
X54486878Y52451257D01*
X54272477Y52466296D01*
X54054051Y52510036D01*
X53835658Y52581020D01*
X53621356Y52677788D01*
X53415200Y52798884D01*
X53221248Y52942850D01*
X53121336Y53031168D01*
X53027030Y53124465D01*
X52957531Y53204716D01*
X52909113Y53277119D01*
X52878049Y53346872D01*
X52867017Y53385966D01*
X52860383Y53470356D01*
X52882871Y53538085D01*
X52934069Y53588244D01*
X52966444Y53604876D01*
X53012607Y53618632D01*
X53064614Y53621668D01*
X53127637Y53612993D01*
X53206846Y53591619D01*
X53307413Y53556556D01*
X53393974Y53523063D01*
X53497444Y53483669D01*
X53579890Y53456834D01*
X53650600Y53440012D01*
X53718863Y53430655D01*
X53736217Y53429215D01*
X53901588Y53429996D01*
X54048113Y53458554D01*
X54176807Y53515236D01*
X54288684Y53600388D01*
X54314300Y53626332D01*
X54377042Y53700497D01*
X54421081Y53772484D01*
X54449815Y53851386D01*
X54466640Y53946295D01*
X54474503Y54055113D01*
X54472146Y54215412D01*
X54449227Y54352644D01*
X54404047Y54471873D01*
X54334903Y54578160D01*
X54277493Y54641529D01*
X54225701Y54686308D01*
X54161714Y54732302D01*
X54093988Y54774447D01*
X54030979Y54807678D01*
X53981145Y54826929D01*
X53963263Y54829733D01*
X53942934Y54824887D01*
X53938339Y54806827D01*
X53950132Y54770275D01*
X53977825Y54712204D01*
X54014899Y54603677D01*
X54022781Y54530733D01*
X54013479Y54399718D01*
X53976246Y54287663D01*
X53910467Y54193509D01*
X53815529Y54116198D01*
X53765948Y54088052D01*
X53714167Y54062508D01*
X53673013Y54046554D01*
X53631984Y54038311D01*
X53580584Y54035900D01*
X53508311Y54037441D01*
X53487267Y54038169D01*
X53397942Y54043067D01*
X53333020Y54051474D01*
X53283085Y54065082D01*
X53246438Y54081454D01*
X53127509Y54161353D01*
X53034140Y54262208D01*
X52968035Y54380938D01*
X52930894Y54514464D01*
X52924420Y54659704D01*
X52924683Y54663709D01*
X52950546Y54815807D01*
X53006097Y54951742D01*
X53091166Y55071337D01*
X53205583Y55174411D01*
X53349177Y55260786D01*
X53521780Y55330284D01*
X53572778Y55345970D01*
X53706028Y55373882D01*
X53860397Y55388663D01*
X54026150Y55390716D01*
X54193549Y55380448D01*
X54352858Y55358265D01*
X54494340Y55324570D01*
X54550936Y55305247D01*
X54602435Y55288681D01*
X54629667Y55291249D01*
X54638117Y55315907D01*
X54635417Y55350758D01*
X54637276Y55454169D01*
X54670810Y55547926D01*
X54734677Y55629928D01*
X54827538Y55698074D01*
X54871111Y55720343D01*
X54919451Y55741451D01*
X54961427Y55755458D01*
X55006156Y55763809D01*
X55062752Y55767950D01*
X55140330Y55769326D01*
X55180600Y55769427D01*
X55281753Y55768018D01*
X55359711Y55762850D01*
X55425053Y55752690D01*
X55488355Y55736308D01*
X55502333Y55731977D01*
X55662214Y55666334D01*
X55812965Y55572674D01*
X55959102Y55448162D01*
X55968141Y55439333D01*
X56050052Y55354903D01*
X56127081Y55266697D01*
X56201482Y55171164D01*
X56275507Y55064755D01*
X56351409Y54943921D01*
X56431440Y54805111D01*
X56517854Y54644776D01*
X56612903Y54459365D01*
X56695068Y54293867D01*
X56804125Y54077367D01*
X56904649Y53889299D01*
X56995909Y53730994D01*
X57062539Y53625495D01*
X57123804Y53537271D01*
X57190211Y53448254D01*
X57258055Y53362745D01*
X57323629Y53285043D01*
X57383226Y53219448D01*
X57433139Y53170260D01*
X57469662Y53141777D01*
X57484183Y53136400D01*
X57484187Y53150653D01*
X57469648Y53190913D01*
X57442195Y53253430D01*
X57403455Y53334455D01*
X57364671Y53411567D01*
X57314502Y53511193D01*
X57265609Y53611456D01*
X57221909Y53704091D01*
X57187324Y53780832D01*
X57170593Y53820780D01*
X57109490Y54000629D01*
X57063685Y54188993D01*
X57034178Y54378109D01*
X57021969Y54560218D01*
X57028059Y54727557D01*
X57041616Y54821267D01*
X57091545Y54992962D01*
X57169323Y55149082D01*
X57272106Y55286685D01*
X57397052Y55402828D01*
X57541316Y55494567D01*
X57702057Y55558961D01*
X57771400Y55576633D01*
X57849716Y55587989D01*
X57948834Y55594545D01*
X58057381Y55596310D01*
X58163981Y55593294D01*
X58257260Y55585506D01*
X58313267Y55576169D01*
X58479513Y55524677D01*
X58643685Y55449222D01*
X58798925Y55354340D01*
X58938373Y55244568D01*
X59055170Y55124443D01*
X59112834Y55047312D01*
X59146059Y55001683D01*
X59168155Y54985182D01*
X59183051Y54996607D01*
X59191937Y55023072D01*
X59208221Y55055627D01*
X59241297Y55102444D01*
X59284172Y55153677D01*
X59286487Y55156221D01*
X59386092Y55244440D01*
X59509872Y55320717D01*
X59648825Y55379903D01*
X59710482Y55398678D01*
X59768811Y55415681D01*
X59814290Y55431444D01*
X59836309Y55442088D01*
X59837678Y55462771D01*
X59814638Y55494729D01*
X59772541Y55533080D01*
X59716742Y55572940D01*
X59653114Y55609168D01*
X59574004Y55641115D01*
X59499629Y55657530D01*
X59437480Y55657675D01*
X59395046Y55640811D01*
X59389432Y55635149D01*
X59369839Y55600599D01*
X59356853Y55564478D01*
X59338474Y55521054D01*
X59308274Y55498518D01*
X59259836Y55494606D01*
X59191266Y55506034D01*
X59125968Y55524934D01*
X59074358Y55553059D01*
X59020998Y55599160D01*
X59013008Y55607049D01*
X58955111Y55673301D01*
X58924119Y55733246D01*
X58916562Y55795556D01*
X58921482Y55835840D01*
X58946095Y55891751D01*
X58994007Y55948352D01*
X59055973Y55996962D01*
X59122747Y56028900D01*
X59129102Y56030779D01*
X59216760Y56045323D01*
X59323820Y56048231D01*
X59438049Y56039964D01*
X59547218Y56020985D01*
X59574677Y56013963D01*
X59719485Y55964934D01*
X59851762Y55899881D01*
X59979329Y55814086D01*
X60110005Y55702836D01*
X60143571Y55670983D01*
X60317756Y55502669D01*
X60483911Y55505670D01*
X60740822Y55500335D01*
X60982727Y55475377D01*
X61207531Y55431659D01*
X61413137Y55370042D01*
X61597447Y55291388D01*
X61758366Y55196557D01*
X61893794Y55086412D01*
X62001637Y54961814D01*
X62064727Y54856225D01*
X62109977Y54735179D01*
X62131229Y54609618D01*
X62127882Y54488244D01*
X62099337Y54379761D01*
X62097786Y54376099D01*
X62036244Y54273779D01*
X61951028Y54191945D01*
X61846848Y54132608D01*
X61728413Y54097781D01*
X61600433Y54089475D01*
X61471666Y54108652D01*
X61365877Y54144484D01*
X61262122Y54195382D01*
X61165341Y54257272D01*
X61080474Y54326081D01*
X61012461Y54397733D01*
X60966243Y54468156D01*
X60946759Y54533275D01*
X60946446Y54541798D01*
X60951152Y54583370D01*
X60971091Y54611193D01*
X61008525Y54635000D01*
X61051997Y54662896D01*
X61082838Y54690075D01*
X61087172Y54695879D01*
X61096277Y54741140D01*
X61079740Y54798376D01*
X61039739Y54860246D01*
X61037686Y54862708D01*
X61000636Y54896267D01*
X60946396Y54932397D01*
X60880999Y54968559D01*
X60810476Y55002216D01*
X60740859Y55030828D01*
X60678179Y55051859D01*
X60628470Y55062768D01*
X60597761Y55061018D01*
X60590800Y55050767D01*
X60598219Y55029151D01*
X60618555Y54983692D01*
X60648930Y54920504D01*
X60686464Y54845701D01*
X60697345Y54824515D01*
X60739499Y54741418D01*
X60791388Y54636941D01*
X60848446Y54520404D01*
X60906109Y54401125D01*
X60955533Y54297474D01*
X61040320Y54123523D01*
X61116875Y53978623D01*
X61187430Y53859617D01*
X61254220Y53763347D01*
X61319479Y53686655D01*
X61385440Y53626383D01*
X61454338Y53579375D01*
X61469707Y53570720D01*
X61584785Y53521383D01*
X61692061Y53501938D01*
X61789084Y53512301D01*
X61873402Y53552385D01*
X61912606Y53586171D01*
X61952921Y53639100D01*
X61966663Y53691763D01*
X61953658Y53750704D01*
X61913730Y53822464D01*
X61905956Y53833943D01*
X61866568Y53895748D01*
X61848461Y53940575D01*
X61850620Y53976942D01*
X61872030Y54013362D01*
X61882981Y54026651D01*
X61908641Y54051280D01*
X61940122Y54066948D01*
X61987208Y54077050D01*
X62048081Y54083914D01*
X62235121Y54087773D01*
X62421753Y54065929D01*
X62600187Y54020090D01*
X62762632Y53951964D01*
X62832338Y53912039D01*
X62911435Y53854992D01*
X62996141Y53782429D01*
X63077189Y53703244D01*
X63145313Y53626331D01*
X63181414Y53576956D01*
X63252040Y53437508D01*
X63296394Y53284512D01*
X63314249Y53124745D01*
X63872459Y53124745D01*
X63872775Y53156328D01*
X63858522Y53288914D01*
X63828198Y53432627D01*
X63781281Y53595324D01*
X63764379Y53647536D01*
X63721146Y53749946D01*
X63657385Y53863445D01*
X63579280Y53978299D01*
X63493015Y54084777D01*
X63471796Y54107992D01*
X63395202Y54180738D01*
X63300665Y54256773D01*
X63194793Y54332004D01*
X63084191Y54402337D01*
X62975463Y54463679D01*
X62875217Y54511937D01*
X62790057Y54543016D01*
X62757868Y54550401D01*
X62714715Y54559988D01*
X62695507Y54576052D01*
X62690563Y54609126D01*
X62690415Y54623789D01*
X62685192Y54679958D01*
X62671273Y54757918D01*
X62651045Y54847454D01*
X62626891Y54938354D01*
X62601198Y55020405D01*
X62591542Y55047102D01*
X62524595Y55183194D01*
X62428950Y55320096D01*
X62309381Y55453463D01*
X62170662Y55578948D01*
X62017566Y55692205D01*
X61854868Y55788889D01*
X61697980Y55860567D01*
X61574428Y55903056D01*
X61429119Y55944015D01*
X61270722Y55981726D01*
X61107904Y56014470D01*
X60949335Y56040529D01*
X60803682Y56058184D01*
X60679613Y56065716D01*
X60662506Y56065867D01*
X60605629Y56067010D01*
X60565611Y56073638D01*
X60530593Y56090548D01*
X60488717Y56122536D01*
X60458230Y56148496D01*
X60286446Y56283982D01*
X60117168Y56391086D01*
X59942998Y56473811D01*
X59756538Y56536161D01*
X59727788Y56543813D01*
X59558271Y56581837D01*
X59408263Y56601933D01*
X59268714Y56604374D01*
X59130573Y56589433D01*
X59130573Y56589433D01*
G37*
X59130573Y56589433D02*
X59015663Y56565317D01*
X58886138Y56527537D01*
X58780002Y56482534D01*
X58686839Y56425119D01*
X58611757Y56364192D01*
X58578474Y56329874D01*
X58538999Y56282665D01*
X58499457Y56230825D01*
X58465974Y56182612D01*
X58444675Y56146285D01*
X58440267Y56132978D01*
X58425916Y56121293D01*
X58393700Y56123488D01*
X58225069Y56151208D01*
X58067292Y56161599D01*
X57909205Y56154441D01*
X57739646Y56129518D01*
X57640091Y56108755D01*
X57494072Y56071350D01*
X57371347Y56028994D01*
X57261349Y55977212D01*
X57153509Y55911527D01*
X57120111Y55888521D01*
X56987870Y55787338D01*
X56879745Y55685604D01*
X56786943Y55574775D01*
X56762699Y55541225D01*
X56692835Y55441627D01*
X56588651Y55579918D01*
X56466164Y55727751D01*
X56329849Y55866429D01*
X56185980Y55990625D01*
X56040831Y56095009D01*
X55900674Y56174255D01*
X55874904Y56186128D01*
X55785182Y56220005D01*
X55673854Y56253306D01*
X55550994Y56283809D01*
X55426676Y56309293D01*
X55310975Y56327537D01*
X55213964Y56336318D01*
X55191756Y56336778D01*
X55090403Y56330711D01*
X54971565Y56314224D01*
X54848031Y56289845D01*
X54732589Y56260103D01*
X54638030Y56227529D01*
X54636823Y56227026D01*
X54583189Y56199580D01*
X54516003Y56158203D01*
X54444924Y56109640D01*
X54379611Y56060635D01*
X54329721Y56017932D01*
X54314134Y56001706D01*
X54299186Y55985516D01*
X54282633Y55973871D01*
X54258869Y55965879D01*
X54222288Y55960649D01*
X54167286Y55957290D01*
X54088256Y55954908D01*
X54009334Y55953218D01*
X53866273Y55949051D01*
X53747977Y55942130D01*
X53645378Y55931149D01*
X53549404Y55914803D01*
X53450986Y55891787D01*
X53341054Y55860797D01*
X53317265Y55853642D01*
X53213529Y55819846D01*
X53129712Y55785969D01*
X53052423Y55745831D01*
X52968269Y55693251D01*
X52964921Y55691035D01*
X52870029Y55626274D01*
X52796456Y55570586D01*
X52736013Y55516428D01*
X52680508Y55456258D01*
X52621751Y55382532D01*
X52603284Y55358008D01*
X52496612Y55188515D01*
X52419283Y55006703D01*
X52372801Y54817081D01*
X52358650Y54626285D01*
X52366015Y54521151D01*
X52384262Y54402683D01*
X52410833Y54282197D01*
X52443168Y54171010D01*
X52478710Y54080438D01*
X52484921Y54067839D01*
X52523968Y53991745D01*
X52451232Y53896103D01*
X52407098Y53831073D01*
X52375693Y53764820D01*
X52350480Y53682811D01*
X52344567Y53658931D01*
X52319673Y53529426D01*
X52312568Y53412857D01*
X52323262Y53294354D01*
X52344867Y53187200D01*
X52392754Y53049587D01*
X52471530Y52910696D01*
X52581734Y52769921D01*
X52723906Y52626652D01*
X52898588Y52480281D01*
X53106320Y52330200D01*
X53106383Y52330158D01*
X53245347Y52240168D01*
X53375500Y52165961D01*
X53505104Y52104032D01*
X53642421Y52050878D01*
X53795712Y52002995D01*
X53973239Y51956879D01*
X54003733Y51949599D01*
X54117154Y51923568D01*
X54207044Y51905256D01*
X54282525Y51893380D01*
X54352717Y51886660D01*
X54426738Y51883816D01*
X54474858Y51883437D01*
X54641345Y51892356D01*
X54821707Y51917660D01*
X55005482Y51956920D01*
X55182208Y52007704D01*
X55341421Y52067581D01*
X55414059Y52101628D01*
X55479922Y52140019D01*
X55561597Y52194696D01*
X55650041Y52258945D01*
X55736208Y52326052D01*
X55811052Y52389302D01*
X55847642Y52423476D01*
X55900676Y52480927D01*
X55963117Y52556338D01*
X56029334Y52642058D01*
X56093696Y52730430D01*
X56150573Y52813803D01*
X56194335Y52884523D01*
X56213277Y52920500D01*
X56233957Y52959815D01*
X56250167Y52981727D01*
X56253563Y52983398D01*
X56267541Y52970304D01*
X56296109Y52935674D01*
X56334332Y52885646D01*
X56356703Y52855144D01*
X56470257Y52715052D01*
X56606233Y52575085D01*
X56758496Y52439885D01*
X56920906Y52314096D01*
X57087327Y52202360D01*
X57251623Y52109319D01*
X57407654Y52039617D01*
X57458134Y52021930D01*
X57623753Y51972320D01*
X57766577Y51938717D01*
X57893329Y51920526D01*
X58010731Y51917153D01*
X58125506Y51928004D01*
X58244061Y51952403D01*
X58403466Y52007079D01*
X58537831Y52084514D01*
X58647464Y52185012D01*
X58732677Y52308878D01*
X58793779Y52456414D01*
X58807031Y52503661D01*
X58847495Y52663014D01*
X58811623Y52815809D01*
X58789265Y52898262D01*
X58761792Y52981350D01*
X58734265Y53050126D01*
X58727535Y53064192D01*
X58699321Y53124647D01*
X58689492Y53161728D01*
X58698424Y53180745D01*
X58726491Y53187006D01*
X58736239Y53187200D01*
X58761666Y53181730D01*
X58780830Y53160281D01*
X58799606Y53115291D01*
X58805314Y53098300D01*
X58863391Y52957569D01*
X58946289Y52809259D01*
X59048832Y52661511D01*
X59165843Y52522466D01*
X59183174Y52504064D01*
X59249492Y52441856D01*
X59333342Y52373759D01*
X59426465Y52305519D01*
X59520605Y52242880D01*
X59607504Y52191588D01*
X59678907Y52157388D01*
X59684413Y52155300D01*
X59775689Y52125049D01*
X59879142Y52096156D01*
X59985446Y52070722D01*
X60085274Y52050847D01*
X60169300Y52038630D01*
X60215257Y52035755D01*
X60276583Y52040431D01*
X60360193Y52053044D01*
X60456042Y52071444D01*
X60554086Y52093478D01*
X60644280Y52116993D01*
X60716580Y52139839D01*
X60735861Y52147304D01*
X60790992Y52173612D01*
X60841006Y52202645D01*
X60848045Y52207453D01*
X60893623Y52239832D01*
X61025845Y52133451D01*
X61193501Y52007477D01*
X61355573Y51905796D01*
X61520300Y51824734D01*
X61695922Y51760618D01*
X61890678Y51709775D01*
X62042435Y51680177D01*
X62179264Y51659683D01*
X62296047Y51650313D01*
X62404588Y51651684D01*
X62516695Y51663412D01*
X62524458Y51664534D01*
X62649890Y51686740D01*
X62776655Y51715935D01*
X62894559Y51749384D01*
X62993405Y51784356D01*
X63028523Y51799659D01*
X63188811Y51889610D01*
X63344717Y52003541D01*
X63486982Y52133716D01*
X63606348Y52272396D01*
X63625064Y52298200D01*
X63685957Y52389024D01*
X63731721Y52469684D01*
X63767377Y52551483D01*
X63797947Y52645725D01*
X63824347Y52746768D01*
X63855165Y52893111D01*
X63871482Y53027012D01*
X63872459Y53124745D01*
X63314249Y53124745D01*
X63305381Y52964984D01*
X63269565Y52812007D01*
X63211172Y52680529D01*
X63127932Y52563967D01*
X63018605Y52455663D01*
X62890899Y52361657D01*
X62752521Y52287987D01*
X62670668Y52257038D01*
X62558403Y52231668D01*
X62424455Y52218324D01*
X62278857Y52217144D01*
X62131638Y52228269D01*
X62010898Y52247884D01*
X61806352Y52308036D01*
X61611049Y52399775D01*
X61426817Y52521645D01*
X61255486Y52672190D01*
X61098884Y52849951D01*
X60958842Y53053471D01*
X60922998Y53114606D01*
X60860468Y53230620D01*
X60792140Y53366677D01*
X60722563Y53512964D01*
X60656284Y53659664D01*
X60597852Y53796964D01*
X60551815Y53915047D01*
X60550918Y53917516D01*
X60493342Y54076200D01*
X60371936Y54073842D01*
X60253076Y54060936D01*
X60159605Y54026808D01*
X60089881Y53970644D01*
X60053167Y53915521D01*
X60020884Y53821992D01*
X60021578Y53730274D01*
X60046896Y53652166D01*
X60083895Y53591427D01*
X60132373Y53539368D01*
X60183732Y53503704D01*
X60225408Y53492000D01*
X60272604Y53507759D01*
X60310547Y53550788D01*
X60333901Y53614720D01*
X60335436Y53623289D01*
X60345585Y53665580D01*
X60364603Y53684936D01*
X60402434Y53692184D01*
X60456999Y53681351D01*
X60515313Y53642037D01*
X60574013Y53578873D01*
X60629736Y53496489D01*
X60679121Y53399517D01*
X60718805Y53292586D01*
X60734388Y53235016D01*
X60753650Y53135114D01*
X60758182Y53052259D01*
X60747956Y52972989D01*
X60733778Y52918331D01*
X60686311Y52813663D01*
X60614146Y52728306D01*
X60521086Y52663279D01*
X60410934Y52619603D01*
X60287495Y52598297D01*
X60154570Y52600380D01*
X60015965Y52626871D01*
X59875482Y52678791D01*
X59862667Y52684846D01*
X59791988Y52725109D01*
X59717237Y52781084D01*
X59631856Y52857876D01*
X59598305Y52890557D01*
X59525378Y52965077D01*
X59471441Y53027032D01*
X59429540Y53085621D01*
X59392722Y53150047D01*
X59374107Y53187200D01*
X59315788Y53320480D01*
X59277898Y53442337D01*
X59257278Y53565647D01*
X59250863Y53689255D01*
X59256435Y53819916D01*
X59277471Y53926226D01*
X59315802Y54014836D01*
X59356596Y54073187D01*
X59400032Y54116261D01*
X59457099Y54160312D01*
X59518181Y54199197D01*
X59573663Y54226773D01*
X59612900Y54236908D01*
X59637959Y54248927D01*
X59642533Y54262467D01*
X59628539Y54283414D01*
X59610445Y54287867D01*
X59581273Y54295198D01*
X59531261Y54314744D01*
X59469479Y54342835D01*
X59445694Y54354538D01*
X59385703Y54383565D01*
X59338106Y54404484D01*
X59310156Y54414199D01*
X59305976Y54414153D01*
X59299601Y54394804D01*
X59290817Y54352705D01*
X59284870Y54317849D01*
X59269912Y54257340D01*
X59243919Y54182921D01*
X59212386Y54110240D01*
X59210875Y54107161D01*
X59130969Y53979875D01*
X59031475Y53878794D01*
X58915243Y53804754D01*
X58785123Y53758592D01*
X58643964Y53741144D01*
X58494616Y53753249D01*
X58339929Y53795742D01*
X58261860Y53828465D01*
X58171923Y53879280D01*
X58090587Y53941460D01*
X58023119Y54009437D01*
X57974784Y54077645D01*
X57950847Y54140518D01*
X57949200Y54158983D01*
X57962451Y54200516D01*
X58000004Y54220846D01*
X58058560Y54218394D01*
X58068508Y54216077D01*
X58117494Y54206942D01*
X58151577Y54212550D01*
X58183279Y54232161D01*
X58214841Y54264516D01*
X58230022Y54308581D01*
X58233660Y54342124D01*
X58234023Y54391819D01*
X58222335Y54425677D01*
X58191929Y54459222D01*
X58178037Y54471654D01*
X58108300Y54513658D01*
X58034521Y54525096D01*
X57961771Y54508019D01*
X57895121Y54464478D01*
X57839642Y54396524D01*
X57804939Y54320747D01*
X57787212Y54239230D01*
X57778636Y54135577D01*
X57779420Y54020318D01*
X57789770Y53903981D01*
X57795930Y53863563D01*
X57821202Y53740775D01*
X57855891Y53615973D01*
X57901845Y53484532D01*
X57960914Y53341828D01*
X58034946Y53183235D01*
X58125790Y53004127D01*
X58181369Y52899334D01*
X58229169Y52807378D01*
X58260370Y52738159D01*
X58276331Y52685703D01*
X58278411Y52644033D01*
X58267968Y52607173D01*
X58253800Y52580815D01*
X58209249Y52530150D01*
X58146177Y52497039D01*
X58059902Y52479708D01*
X57976928Y52476000D01*
X57825096Y52491442D01*
X57665076Y52536039D01*
X57500470Y52607200D01*
X57334883Y52702333D01*
X57171917Y52818846D01*
X57015175Y52954146D01*
X56868261Y53105642D01*
X56734778Y53270742D01*
X56618329Y53446854D01*
X56611793Y53458005D01*
X56584524Y53505778D01*
X56544473Y53577136D01*
X56495061Y53665925D01*
X56439709Y53765992D01*
X56381838Y53871182D01*
X56361107Y53909008D01*
X56227316Y54149069D01*
X56104944Y54359142D01*
X55992799Y54540668D01*
X55889688Y54695090D01*
X55794420Y54823851D01*
X55705804Y54928394D01*
X55622647Y55010160D01*
X55543758Y55070593D01*
X55467945Y55111135D01*
X55394016Y55133228D01*
X55345440Y55138412D01*
X55304375Y55134422D01*
X55249327Y55122374D01*
X55189384Y55105192D01*
X55133635Y55085800D01*
X55091169Y55067124D01*
X55071074Y55052085D01*
X55070533Y55049967D01*
X55082691Y55034446D01*
X55115338Y55002890D01*
X55162737Y54960688D01*
X55193300Y54934652D01*
X55335442Y54801097D01*
X55466383Y54650380D01*
X55579817Y54490783D01*
X55669437Y54330587D01*
X55692881Y54278600D01*
X55746823Y54132744D01*
X55782118Y53990798D01*
X55801030Y53840725D01*
X55805878Y53678267D01*
X55804524Y53578772D01*
X55800918Y53503586D01*
X55793855Y53443167D01*
X55782129Y53387972D01*
X55764534Y53328460D01*
X55759875Y53314200D01*
X55693513Y53159634D01*
X55598935Y53007073D01*
X55481301Y52864273D01*
X55419881Y52803076D01*
X55267394Y52680558D01*
X55100037Y52585050D01*
X54914241Y52514896D01*
X54706437Y52468445D01*
X54693198Y52466376D01*
X54486878Y52451257D01*
X54272477Y52466296D01*
X54054051Y52510036D01*
X53835658Y52581020D01*
X53621356Y52677788D01*
X53415200Y52798884D01*
X53221248Y52942850D01*
X53121336Y53031168D01*
X53027030Y53124465D01*
X52957531Y53204716D01*
X52909113Y53277119D01*
X52878049Y53346872D01*
X52867017Y53385966D01*
X52860383Y53470356D01*
X52882871Y53538085D01*
X52934069Y53588244D01*
X52966444Y53604876D01*
X53012607Y53618632D01*
X53064614Y53621668D01*
X53127637Y53612993D01*
X53206846Y53591619D01*
X53307413Y53556556D01*
X53393974Y53523063D01*
X53497444Y53483669D01*
X53579890Y53456834D01*
X53650600Y53440012D01*
X53718863Y53430655D01*
X53736217Y53429215D01*
X53901588Y53429996D01*
X54048113Y53458554D01*
X54176807Y53515236D01*
X54288684Y53600388D01*
X54314300Y53626332D01*
X54377042Y53700497D01*
X54421081Y53772484D01*
X54449815Y53851386D01*
X54466640Y53946295D01*
X54474503Y54055113D01*
X54472146Y54215412D01*
X54449227Y54352644D01*
X54404047Y54471873D01*
X54334903Y54578160D01*
X54277493Y54641529D01*
X54225701Y54686308D01*
X54161714Y54732302D01*
X54093988Y54774447D01*
X54030979Y54807678D01*
X53981145Y54826929D01*
X53963263Y54829733D01*
X53942934Y54824887D01*
X53938339Y54806827D01*
X53950132Y54770275D01*
X53977825Y54712204D01*
X54014899Y54603677D01*
X54022781Y54530733D01*
X54013479Y54399718D01*
X53976246Y54287663D01*
X53910467Y54193509D01*
X53815529Y54116198D01*
X53765948Y54088052D01*
X53714167Y54062508D01*
X53673013Y54046554D01*
X53631984Y54038311D01*
X53580584Y54035900D01*
X53508311Y54037441D01*
X53487267Y54038169D01*
X53397942Y54043067D01*
X53333020Y54051474D01*
X53283085Y54065082D01*
X53246438Y54081454D01*
X53127509Y54161353D01*
X53034140Y54262208D01*
X52968035Y54380938D01*
X52930894Y54514464D01*
X52924420Y54659704D01*
X52924683Y54663709D01*
X52950546Y54815807D01*
X53006097Y54951742D01*
X53091166Y55071337D01*
X53205583Y55174411D01*
X53349177Y55260786D01*
X53521780Y55330284D01*
X53572778Y55345970D01*
X53706028Y55373882D01*
X53860397Y55388663D01*
X54026150Y55390716D01*
X54193549Y55380448D01*
X54352858Y55358265D01*
X54494340Y55324570D01*
X54550936Y55305247D01*
X54602435Y55288681D01*
X54629667Y55291249D01*
X54638117Y55315907D01*
X54635417Y55350758D01*
X54637276Y55454169D01*
X54670810Y55547926D01*
X54734677Y55629928D01*
X54827538Y55698074D01*
X54871111Y55720343D01*
X54919451Y55741451D01*
X54961427Y55755458D01*
X55006156Y55763809D01*
X55062752Y55767950D01*
X55140330Y55769326D01*
X55180600Y55769427D01*
X55281753Y55768018D01*
X55359711Y55762850D01*
X55425053Y55752690D01*
X55488355Y55736308D01*
X55502333Y55731977D01*
X55662214Y55666334D01*
X55812965Y55572674D01*
X55959102Y55448162D01*
X55968141Y55439333D01*
X56050052Y55354903D01*
X56127081Y55266697D01*
X56201482Y55171164D01*
X56275507Y55064755D01*
X56351409Y54943921D01*
X56431440Y54805111D01*
X56517854Y54644776D01*
X56612903Y54459365D01*
X56695068Y54293867D01*
X56804125Y54077367D01*
X56904649Y53889299D01*
X56995909Y53730994D01*
X57062539Y53625495D01*
X57123804Y53537271D01*
X57190211Y53448254D01*
X57258055Y53362745D01*
X57323629Y53285043D01*
X57383226Y53219448D01*
X57433139Y53170260D01*
X57469662Y53141777D01*
X57484183Y53136400D01*
X57484187Y53150653D01*
X57469648Y53190913D01*
X57442195Y53253430D01*
X57403455Y53334455D01*
X57364671Y53411567D01*
X57314502Y53511193D01*
X57265609Y53611456D01*
X57221909Y53704091D01*
X57187324Y53780832D01*
X57170593Y53820780D01*
X57109490Y54000629D01*
X57063685Y54188993D01*
X57034178Y54378109D01*
X57021969Y54560218D01*
X57028059Y54727557D01*
X57041616Y54821267D01*
X57091545Y54992962D01*
X57169323Y55149082D01*
X57272106Y55286685D01*
X57397052Y55402828D01*
X57541316Y55494567D01*
X57702057Y55558961D01*
X57771400Y55576633D01*
X57849716Y55587989D01*
X57948834Y55594545D01*
X58057381Y55596310D01*
X58163981Y55593294D01*
X58257260Y55585506D01*
X58313267Y55576169D01*
X58479513Y55524677D01*
X58643685Y55449222D01*
X58798925Y55354340D01*
X58938373Y55244568D01*
X59055170Y55124443D01*
X59112834Y55047312D01*
X59146059Y55001683D01*
X59168155Y54985182D01*
X59183051Y54996607D01*
X59191937Y55023072D01*
X59208221Y55055627D01*
X59241297Y55102444D01*
X59284172Y55153677D01*
X59286487Y55156221D01*
X59386092Y55244440D01*
X59509872Y55320717D01*
X59648825Y55379903D01*
X59710482Y55398678D01*
X59768811Y55415681D01*
X59814290Y55431444D01*
X59836309Y55442088D01*
X59837678Y55462771D01*
X59814638Y55494729D01*
X59772541Y55533080D01*
X59716742Y55572940D01*
X59653114Y55609168D01*
X59574004Y55641115D01*
X59499629Y55657530D01*
X59437480Y55657675D01*
X59395046Y55640811D01*
X59389432Y55635149D01*
X59369839Y55600599D01*
X59356853Y55564478D01*
X59338474Y55521054D01*
X59308274Y55498518D01*
X59259836Y55494606D01*
X59191266Y55506034D01*
X59125968Y55524934D01*
X59074358Y55553059D01*
X59020998Y55599160D01*
X59013008Y55607049D01*
X58955111Y55673301D01*
X58924119Y55733246D01*
X58916562Y55795556D01*
X58921482Y55835840D01*
X58946095Y55891751D01*
X58994007Y55948352D01*
X59055973Y55996962D01*
X59122747Y56028900D01*
X59129102Y56030779D01*
X59216760Y56045323D01*
X59323820Y56048231D01*
X59438049Y56039964D01*
X59547218Y56020985D01*
X59574677Y56013963D01*
X59719485Y55964934D01*
X59851762Y55899881D01*
X59979329Y55814086D01*
X60110005Y55702836D01*
X60143571Y55670983D01*
X60317756Y55502669D01*
X60483911Y55505670D01*
X60740822Y55500335D01*
X60982727Y55475377D01*
X61207531Y55431659D01*
X61413137Y55370042D01*
X61597447Y55291388D01*
X61758366Y55196557D01*
X61893794Y55086412D01*
X62001637Y54961814D01*
X62064727Y54856225D01*
X62109977Y54735179D01*
X62131229Y54609618D01*
X62127882Y54488244D01*
X62099337Y54379761D01*
X62097786Y54376099D01*
X62036244Y54273779D01*
X61951028Y54191945D01*
X61846848Y54132608D01*
X61728413Y54097781D01*
X61600433Y54089475D01*
X61471666Y54108652D01*
X61365877Y54144484D01*
X61262122Y54195382D01*
X61165341Y54257272D01*
X61080474Y54326081D01*
X61012461Y54397733D01*
X60966243Y54468156D01*
X60946759Y54533275D01*
X60946446Y54541798D01*
X60951152Y54583370D01*
X60971091Y54611193D01*
X61008525Y54635000D01*
X61051997Y54662896D01*
X61082838Y54690075D01*
X61087172Y54695879D01*
X61096277Y54741140D01*
X61079740Y54798376D01*
X61039739Y54860246D01*
X61037686Y54862708D01*
X61000636Y54896267D01*
X60946396Y54932397D01*
X60880999Y54968559D01*
X60810476Y55002216D01*
X60740859Y55030828D01*
X60678179Y55051859D01*
X60628470Y55062768D01*
X60597761Y55061018D01*
X60590800Y55050767D01*
X60598219Y55029151D01*
X60618555Y54983692D01*
X60648930Y54920504D01*
X60686464Y54845701D01*
X60697345Y54824515D01*
X60739499Y54741418D01*
X60791388Y54636941D01*
X60848446Y54520404D01*
X60906109Y54401125D01*
X60955533Y54297474D01*
X61040320Y54123523D01*
X61116875Y53978623D01*
X61187430Y53859617D01*
X61254220Y53763347D01*
X61319479Y53686655D01*
X61385440Y53626383D01*
X61454338Y53579375D01*
X61469707Y53570720D01*
X61584785Y53521383D01*
X61692061Y53501938D01*
X61789084Y53512301D01*
X61873402Y53552385D01*
X61912606Y53586171D01*
X61952921Y53639100D01*
X61966663Y53691763D01*
X61953658Y53750704D01*
X61913730Y53822464D01*
X61905956Y53833943D01*
X61866568Y53895748D01*
X61848461Y53940575D01*
X61850620Y53976942D01*
X61872030Y54013362D01*
X61882981Y54026651D01*
X61908641Y54051280D01*
X61940122Y54066948D01*
X61987208Y54077050D01*
X62048081Y54083914D01*
X62235121Y54087773D01*
X62421753Y54065929D01*
X62600187Y54020090D01*
X62762632Y53951964D01*
X62832338Y53912039D01*
X62911435Y53854992D01*
X62996141Y53782429D01*
X63077189Y53703244D01*
X63145313Y53626331D01*
X63181414Y53576956D01*
X63252040Y53437508D01*
X63296394Y53284512D01*
X63314249Y53124745D01*
X63872459Y53124745D01*
X63872775Y53156328D01*
X63858522Y53288914D01*
X63828198Y53432627D01*
X63781281Y53595324D01*
X63764379Y53647536D01*
X63721146Y53749946D01*
X63657385Y53863445D01*
X63579280Y53978299D01*
X63493015Y54084777D01*
X63471796Y54107992D01*
X63395202Y54180738D01*
X63300665Y54256773D01*
X63194793Y54332004D01*
X63084191Y54402337D01*
X62975463Y54463679D01*
X62875217Y54511937D01*
X62790057Y54543016D01*
X62757868Y54550401D01*
X62714715Y54559988D01*
X62695507Y54576052D01*
X62690563Y54609126D01*
X62690415Y54623789D01*
X62685192Y54679958D01*
X62671273Y54757918D01*
X62651045Y54847454D01*
X62626891Y54938354D01*
X62601198Y55020405D01*
X62591542Y55047102D01*
X62524595Y55183194D01*
X62428950Y55320096D01*
X62309381Y55453463D01*
X62170662Y55578948D01*
X62017566Y55692205D01*
X61854868Y55788889D01*
X61697980Y55860567D01*
X61574428Y55903056D01*
X61429119Y55944015D01*
X61270722Y55981726D01*
X61107904Y56014470D01*
X60949335Y56040529D01*
X60803682Y56058184D01*
X60679613Y56065716D01*
X60662506Y56065867D01*
X60605629Y56067010D01*
X60565611Y56073638D01*
X60530593Y56090548D01*
X60488717Y56122536D01*
X60458230Y56148496D01*
X60286446Y56283982D01*
X60117168Y56391086D01*
X59942998Y56473811D01*
X59756538Y56536161D01*
X59727788Y56543813D01*
X59558271Y56581837D01*
X59408263Y56601933D01*
X59268714Y56604374D01*
X59130573Y56589433D01*
D12*
G36*
X95548156Y9327206D02*
X96269140Y9183794D01*
X97060972Y8855807D01*
X97773601Y8379643D01*
X98379643Y7773601D01*
X98855807Y7060972D01*
X99183794Y6269140D01*
X99278054Y5795259D01*
X99348762Y5439790D01*
X99351000Y5428536D01*
X99351000Y4571464D01*
X99183794Y3730860D01*
X98855807Y2939028D01*
X98379643Y2226399D01*
X97773601Y1620357D01*
X97060972Y1144193D01*
X96269140Y816206D01*
X95548156Y672794D01*
X95428537Y649000D01*
X94571463Y649000D01*
X94451844Y672794D01*
X93730860Y816206D01*
X92939028Y1144193D01*
X92226399Y1620357D01*
X91620357Y2226399D01*
X91144193Y2939028D01*
X90816206Y3730860D01*
X90649000Y4571464D01*
X90649000Y5428536D01*
X90651239Y5439790D01*
X90721946Y5795259D01*
X90816206Y6269140D01*
X91144193Y7060972D01*
X91620357Y7773601D01*
X92226399Y8379643D01*
X92939028Y8855807D01*
X93730860Y9183794D01*
X94451844Y9327206D01*
X94571463Y9351000D01*
X95428537Y9351000D01*
X95548156Y9327206D01*
X95548156Y9327206D01*
G37*
G36*
X5548156Y9327206D02*
X6269140Y9183794D01*
X7060972Y8855807D01*
X7773601Y8379643D01*
X8379643Y7773601D01*
X8855807Y7060972D01*
X9183794Y6269140D01*
X9278054Y5795259D01*
X9348762Y5439790D01*
X9351000Y5428536D01*
X9351000Y4571464D01*
X9183794Y3730860D01*
X8855807Y2939028D01*
X8379643Y2226399D01*
X7773601Y1620357D01*
X7060972Y1144193D01*
X6269140Y816206D01*
X5548156Y672794D01*
X5428537Y649000D01*
X4571463Y649000D01*
X4451844Y672794D01*
X3730860Y816206D01*
X2939028Y1144193D01*
X2226399Y1620357D01*
X1620357Y2226399D01*
X1144193Y2939028D01*
X816206Y3730860D01*
X649000Y4571464D01*
X649000Y5428536D01*
X651239Y5439790D01*
X721946Y5795259D01*
X816206Y6269140D01*
X1144193Y7060972D01*
X1620357Y7773601D01*
X2226399Y8379643D01*
X2939028Y8855807D01*
X3730860Y9183794D01*
X4451844Y9327206D01*
X4571463Y9351000D01*
X5428537Y9351000D01*
X5548156Y9327206D01*
X5548156Y9327206D01*
G37*
G36*
X20851000Y2149000D02*
X19149000Y2149000D01*
X19149000Y3851000D01*
X20851000Y3851000D01*
X20851000Y2149000D01*
X20851000Y2149000D01*
G37*
G36*
X22248228Y3818297D02*
X22403100Y3754147D01*
X22542481Y3661015D01*
X22661015Y3542481D01*
X22754147Y3403100D01*
X22818297Y3248228D01*
X22851000Y3083816D01*
X22851000Y2916184D01*
X22818297Y2751772D01*
X22754147Y2596900D01*
X22661015Y2457519D01*
X22542481Y2338985D01*
X22403100Y2245853D01*
X22248228Y2181703D01*
X22083816Y2149000D01*
X21916184Y2149000D01*
X21751772Y2181703D01*
X21596900Y2245853D01*
X21457519Y2338985D01*
X21338985Y2457519D01*
X21245853Y2596900D01*
X21181703Y2751772D01*
X21149000Y2916184D01*
X21149000Y3083816D01*
X21181703Y3248228D01*
X21245853Y3403100D01*
X21338985Y3542481D01*
X21457519Y3661015D01*
X21596900Y3754147D01*
X21751772Y3818297D01*
X21916184Y3851000D01*
X22083816Y3851000D01*
X22248228Y3818297D01*
X22248228Y3818297D01*
G37*
G36*
X39248228Y3818297D02*
X39403100Y3754147D01*
X39542481Y3661015D01*
X39661015Y3542481D01*
X39754147Y3403100D01*
X39818297Y3248228D01*
X39851000Y3083816D01*
X39851000Y2916184D01*
X39818297Y2751772D01*
X39754147Y2596900D01*
X39661015Y2457519D01*
X39542481Y2338985D01*
X39403100Y2245853D01*
X39248228Y2181703D01*
X39083816Y2149000D01*
X38916184Y2149000D01*
X38751772Y2181703D01*
X38596900Y2245853D01*
X38457519Y2338985D01*
X38338985Y2457519D01*
X38245853Y2596900D01*
X38181703Y2751772D01*
X38149000Y2916184D01*
X38149000Y3083816D01*
X38181703Y3248228D01*
X38245853Y3403100D01*
X38338985Y3542481D01*
X38457519Y3661015D01*
X38596900Y3754147D01*
X38751772Y3818297D01*
X38916184Y3851000D01*
X39083816Y3851000D01*
X39248228Y3818297D01*
X39248228Y3818297D01*
G37*
G36*
X13248228Y3818297D02*
X13403100Y3754147D01*
X13542481Y3661015D01*
X13661015Y3542481D01*
X13754147Y3403100D01*
X13818297Y3248228D01*
X13851000Y3083816D01*
X13851000Y2916184D01*
X13818297Y2751772D01*
X13754147Y2596900D01*
X13661015Y2457519D01*
X13542481Y2338985D01*
X13403100Y2245853D01*
X13248228Y2181703D01*
X13083816Y2149000D01*
X12916184Y2149000D01*
X12751772Y2181703D01*
X12596900Y2245853D01*
X12457519Y2338985D01*
X12338985Y2457519D01*
X12245853Y2596900D01*
X12181703Y2751772D01*
X12149000Y2916184D01*
X12149000Y3083816D01*
X12181703Y3248228D01*
X12245853Y3403100D01*
X12338985Y3542481D01*
X12457519Y3661015D01*
X12596900Y3754147D01*
X12751772Y3818297D01*
X12916184Y3851000D01*
X13083816Y3851000D01*
X13248228Y3818297D01*
X13248228Y3818297D01*
G37*
G36*
X15851000Y2149000D02*
X14149000Y2149000D01*
X14149000Y3851000D01*
X15851000Y3851000D01*
X15851000Y2149000D01*
X15851000Y2149000D01*
G37*
G36*
X41851000Y2149000D02*
X40149000Y2149000D01*
X40149000Y3851000D01*
X41851000Y3851000D01*
X41851000Y2149000D01*
X41851000Y2149000D01*
G37*
G36*
X74301000Y2449000D02*
X73199000Y2449000D01*
X73199000Y3551000D01*
X74301000Y3551000D01*
X74301000Y2449000D01*
X74301000Y2449000D01*
G37*
G36*
X76801000Y2449000D02*
X75699000Y2449000D01*
X75699000Y3551000D01*
X76801000Y3551000D01*
X76801000Y2449000D01*
X76801000Y2449000D01*
G37*
G36*
X67495764Y4457692D02*
X67584220Y4448980D01*
X67773381Y4391599D01*
X67947712Y4298417D01*
X68100515Y4173015D01*
X68225917Y4020212D01*
X68319099Y3845881D01*
X68376480Y3656720D01*
X68395855Y3460000D01*
X68376480Y3263280D01*
X68319099Y3074119D01*
X68225917Y2899788D01*
X68100515Y2746985D01*
X67947712Y2621583D01*
X67773381Y2528401D01*
X67584220Y2471020D01*
X67495764Y2462308D01*
X67436796Y2456500D01*
X67243204Y2456500D01*
X67184236Y2462308D01*
X67095780Y2471020D01*
X66906619Y2528401D01*
X66732288Y2621583D01*
X66579485Y2746985D01*
X66454083Y2899788D01*
X66360901Y3074119D01*
X66303520Y3263280D01*
X66284145Y3460000D01*
X66303520Y3656720D01*
X66360901Y3845881D01*
X66454083Y4020212D01*
X66579485Y4173015D01*
X66732288Y4298417D01*
X66906619Y4391599D01*
X67095780Y4448980D01*
X67184236Y4457692D01*
X67243204Y4463500D01*
X67436796Y4463500D01*
X67495764Y4457692D01*
X67495764Y4457692D01*
G37*
G36*
X63711000Y2456500D02*
X61609000Y2456500D01*
X61609000Y4463500D01*
X63711000Y4463500D01*
X63711000Y2456500D01*
X63711000Y2456500D01*
G37*
G36*
X35434466Y4746435D02*
X35473137Y4734704D01*
X35508779Y4715652D01*
X35540017Y4690017D01*
X35565652Y4658779D01*
X35584704Y4623137D01*
X35596435Y4584466D01*
X35601000Y4538112D01*
X35601000Y3461888D01*
X35596435Y3415534D01*
X35584704Y3376863D01*
X35565652Y3341221D01*
X35540017Y3309983D01*
X35508779Y3284348D01*
X35473137Y3265296D01*
X35434466Y3253565D01*
X35388112Y3249000D01*
X34736888Y3249000D01*
X34690534Y3253565D01*
X34651863Y3265296D01*
X34616221Y3284348D01*
X34584983Y3309983D01*
X34559348Y3341221D01*
X34540296Y3376863D01*
X34528565Y3415534D01*
X34524000Y3461888D01*
X34524000Y4538112D01*
X34528565Y4584466D01*
X34540296Y4623137D01*
X34559348Y4658779D01*
X34584983Y4690017D01*
X34616221Y4715652D01*
X34651863Y4734704D01*
X34690534Y4746435D01*
X34736888Y4751000D01*
X35388112Y4751000D01*
X35434466Y4746435D01*
X35434466Y4746435D01*
G37*
G36*
X37309466Y4746435D02*
X37348137Y4734704D01*
X37383779Y4715652D01*
X37415017Y4690017D01*
X37440652Y4658779D01*
X37459704Y4623137D01*
X37471435Y4584466D01*
X37476000Y4538112D01*
X37476000Y3461888D01*
X37471435Y3415534D01*
X37459704Y3376863D01*
X37440652Y3341221D01*
X37415017Y3309983D01*
X37383779Y3284348D01*
X37348137Y3265296D01*
X37309466Y3253565D01*
X37263112Y3249000D01*
X36611888Y3249000D01*
X36565534Y3253565D01*
X36526863Y3265296D01*
X36491221Y3284348D01*
X36459983Y3309983D01*
X36434348Y3341221D01*
X36415296Y3376863D01*
X36403565Y3415534D01*
X36399000Y3461888D01*
X36399000Y4538112D01*
X36403565Y4584466D01*
X36415296Y4623137D01*
X36434348Y4658779D01*
X36459983Y4690017D01*
X36491221Y4715652D01*
X36526863Y4734704D01*
X36565534Y4746435D01*
X36611888Y4751000D01*
X37263112Y4751000D01*
X37309466Y4746435D01*
X37309466Y4746435D01*
G37*
G36*
X84176669Y7792314D02*
X84353058Y7774941D01*
X84520988Y7724000D01*
X84692549Y7671958D01*
X85005425Y7504721D01*
X85279661Y7279661D01*
X85504721Y7005425D01*
X85671958Y6692549D01*
X85671958Y6692548D01*
X85774941Y6353058D01*
X85809714Y6000000D01*
X85774941Y5646942D01*
X85714896Y5449000D01*
X85671958Y5307451D01*
X85504721Y4994575D01*
X85279661Y4720339D01*
X85005425Y4495279D01*
X84692549Y4328042D01*
X84594887Y4298417D01*
X84353058Y4225059D01*
X84176669Y4207686D01*
X84088476Y4199000D01*
X83911524Y4199000D01*
X83823331Y4207686D01*
X83646942Y4225059D01*
X83405113Y4298417D01*
X83307451Y4328042D01*
X82994575Y4495279D01*
X82720339Y4720339D01*
X82495279Y4994575D01*
X82328042Y5307451D01*
X82285104Y5449000D01*
X82225059Y5646942D01*
X82190286Y6000000D01*
X82225059Y6353058D01*
X82328042Y6692548D01*
X82328042Y6692549D01*
X82495279Y7005425D01*
X82720339Y7279661D01*
X82994575Y7504721D01*
X83307451Y7671958D01*
X83479012Y7724000D01*
X83646942Y7774941D01*
X83823331Y7792314D01*
X83911524Y7801000D01*
X84088476Y7801000D01*
X84176669Y7792314D01*
X84176669Y7792314D01*
G37*
G36*
X46176669Y7792314D02*
X46353058Y7774941D01*
X46520988Y7724000D01*
X46692549Y7671958D01*
X47005425Y7504721D01*
X47279661Y7279661D01*
X47504721Y7005425D01*
X47671958Y6692549D01*
X47671958Y6692548D01*
X47774941Y6353058D01*
X47809714Y6000000D01*
X47774941Y5646942D01*
X47714896Y5449000D01*
X47671958Y5307451D01*
X47504721Y4994575D01*
X47279661Y4720339D01*
X47005425Y4495279D01*
X46692549Y4328042D01*
X46594887Y4298417D01*
X46353058Y4225059D01*
X46176669Y4207686D01*
X46088476Y4199000D01*
X45911524Y4199000D01*
X45823331Y4207686D01*
X45646942Y4225059D01*
X45405113Y4298417D01*
X45307451Y4328042D01*
X44994575Y4495279D01*
X44720339Y4720339D01*
X44495279Y4994575D01*
X44328042Y5307451D01*
X44285104Y5449000D01*
X44225059Y5646942D01*
X44190286Y6000000D01*
X44225059Y6353058D01*
X44328042Y6692548D01*
X44328042Y6692549D01*
X44495279Y7005425D01*
X44720339Y7279661D01*
X44994575Y7504721D01*
X45307451Y7671958D01*
X45479012Y7724000D01*
X45646942Y7774941D01*
X45823331Y7792314D01*
X45911524Y7801000D01*
X46088476Y7801000D01*
X46176669Y7792314D01*
X46176669Y7792314D01*
G37*
G36*
X62815764Y6997692D02*
X62904220Y6988980D01*
X63093381Y6931599D01*
X63267712Y6838417D01*
X63420515Y6713015D01*
X63545917Y6560212D01*
X63639099Y6385881D01*
X63696480Y6196720D01*
X63715855Y6000000D01*
X63696480Y5803280D01*
X63639099Y5614119D01*
X63545917Y5439788D01*
X63420515Y5286985D01*
X63267712Y5161583D01*
X63093381Y5068401D01*
X62904220Y5011020D01*
X62815764Y5002308D01*
X62756796Y4996500D01*
X62563204Y4996500D01*
X62504236Y5002308D01*
X62415780Y5011020D01*
X62226619Y5068401D01*
X62052288Y5161583D01*
X61899485Y5286985D01*
X61774083Y5439788D01*
X61680901Y5614119D01*
X61623520Y5803280D01*
X61604145Y6000000D01*
X61623520Y6196720D01*
X61680901Y6385881D01*
X61774083Y6560212D01*
X61899485Y6713015D01*
X62052288Y6838417D01*
X62226619Y6931599D01*
X62415780Y6988980D01*
X62504236Y6997692D01*
X62563204Y7003500D01*
X62756796Y7003500D01*
X62815764Y6997692D01*
X62815764Y6997692D01*
G37*
G36*
X67495764Y6997692D02*
X67584220Y6988980D01*
X67773381Y6931599D01*
X67947712Y6838417D01*
X68100515Y6713015D01*
X68225917Y6560212D01*
X68319099Y6385881D01*
X68376480Y6196720D01*
X68395855Y6000000D01*
X68376480Y5803280D01*
X68319099Y5614119D01*
X68225917Y5439788D01*
X68100515Y5286985D01*
X67947712Y5161583D01*
X67773381Y5068401D01*
X67584220Y5011020D01*
X67495764Y5002308D01*
X67436796Y4996500D01*
X67243204Y4996500D01*
X67184236Y5002308D01*
X67095780Y5011020D01*
X66906619Y5068401D01*
X66732288Y5161583D01*
X66579485Y5286985D01*
X66454083Y5439788D01*
X66360901Y5614119D01*
X66303520Y5803280D01*
X66284145Y6000000D01*
X66303520Y6196720D01*
X66360901Y6385881D01*
X66454083Y6560212D01*
X66579485Y6713015D01*
X66732288Y6838417D01*
X66906619Y6931599D01*
X67095780Y6988980D01*
X67184236Y6997692D01*
X67243204Y7003500D01*
X67436796Y7003500D01*
X67495764Y6997692D01*
X67495764Y6997692D01*
G37*
G36*
X37309466Y6746435D02*
X37348137Y6734704D01*
X37383779Y6715652D01*
X37415017Y6690017D01*
X37440652Y6658779D01*
X37459704Y6623137D01*
X37471435Y6584466D01*
X37476000Y6538112D01*
X37476000Y5461888D01*
X37471435Y5415534D01*
X37459704Y5376863D01*
X37440652Y5341221D01*
X37415017Y5309983D01*
X37383779Y5284348D01*
X37348137Y5265296D01*
X37309466Y5253565D01*
X37263112Y5249000D01*
X36611888Y5249000D01*
X36565534Y5253565D01*
X36526863Y5265296D01*
X36491221Y5284348D01*
X36459983Y5309983D01*
X36434348Y5341221D01*
X36415296Y5376863D01*
X36403565Y5415534D01*
X36399000Y5461888D01*
X36399000Y6538112D01*
X36403565Y6584466D01*
X36415296Y6623137D01*
X36434348Y6658779D01*
X36459983Y6690017D01*
X36491221Y6715652D01*
X36526863Y6734704D01*
X36565534Y6746435D01*
X36611888Y6751000D01*
X37263112Y6751000D01*
X37309466Y6746435D01*
X37309466Y6746435D01*
G37*
G36*
X35434466Y6746435D02*
X35473137Y6734704D01*
X35508779Y6715652D01*
X35540017Y6690017D01*
X35565652Y6658779D01*
X35584704Y6623137D01*
X35596435Y6584466D01*
X35601000Y6538112D01*
X35601000Y5461888D01*
X35596435Y5415534D01*
X35584704Y5376863D01*
X35565652Y5341221D01*
X35540017Y5309983D01*
X35508779Y5284348D01*
X35473137Y5265296D01*
X35434466Y5253565D01*
X35388112Y5249000D01*
X34736888Y5249000D01*
X34690534Y5253565D01*
X34651863Y5265296D01*
X34616221Y5284348D01*
X34584983Y5309983D01*
X34559348Y5341221D01*
X34540296Y5376863D01*
X34528565Y5415534D01*
X34524000Y5461888D01*
X34524000Y6538112D01*
X34528565Y6584466D01*
X34540296Y6623137D01*
X34559348Y6658779D01*
X34584983Y6690017D01*
X34616221Y6715652D01*
X34651863Y6734704D01*
X34690534Y6746435D01*
X34736888Y6751000D01*
X35388112Y6751000D01*
X35434466Y6746435D01*
X35434466Y6746435D01*
G37*
G36*
X29051000Y5449000D02*
X25949000Y5449000D01*
X25949000Y8551000D01*
X29051000Y8551000D01*
X29051000Y5449000D01*
X29051000Y5449000D01*
G37*
G36*
X32932527Y8511264D02*
X33032410Y8491396D01*
X33314674Y8374479D01*
X33568705Y8204741D01*
X33784741Y7988705D01*
X33954479Y7734674D01*
X34049728Y7504721D01*
X34071396Y7452409D01*
X34131000Y7152762D01*
X34131000Y6847238D01*
X34096170Y6672139D01*
X34071396Y6547590D01*
X33954479Y6265326D01*
X33784741Y6011295D01*
X33568705Y5795259D01*
X33314674Y5625521D01*
X33032410Y5508604D01*
X32932527Y5488736D01*
X32732762Y5449000D01*
X32427238Y5449000D01*
X32227473Y5488736D01*
X32127590Y5508604D01*
X31845326Y5625521D01*
X31591295Y5795259D01*
X31375259Y6011295D01*
X31205521Y6265326D01*
X31088604Y6547590D01*
X31063830Y6672139D01*
X31029000Y6847238D01*
X31029000Y7152762D01*
X31088604Y7452409D01*
X31110272Y7504721D01*
X31205521Y7734674D01*
X31375259Y7988705D01*
X31591295Y8204741D01*
X31845326Y8374479D01*
X32127590Y8491396D01*
X32227473Y8511264D01*
X32427238Y8551000D01*
X32732762Y8551000D01*
X32932527Y8511264D01*
X32932527Y8511264D01*
G37*
G36*
X77932527Y8511264D02*
X78032410Y8491396D01*
X78314674Y8374479D01*
X78568705Y8204741D01*
X78784741Y7988705D01*
X78954479Y7734674D01*
X79049728Y7504721D01*
X79071396Y7452409D01*
X79131000Y7152762D01*
X79131000Y6847238D01*
X79096170Y6672139D01*
X79071396Y6547590D01*
X78954479Y6265326D01*
X78784741Y6011295D01*
X78568705Y5795259D01*
X78314674Y5625521D01*
X78032410Y5508604D01*
X77932527Y5488736D01*
X77732762Y5449000D01*
X77427238Y5449000D01*
X77227473Y5488736D01*
X77127590Y5508604D01*
X76845326Y5625521D01*
X76591295Y5795259D01*
X76375259Y6011295D01*
X76205521Y6265326D01*
X76088604Y6547590D01*
X76063830Y6672139D01*
X76029000Y6847238D01*
X76029000Y7152762D01*
X76088604Y7452409D01*
X76110272Y7504721D01*
X76205521Y7734674D01*
X76375259Y7988705D01*
X76591295Y8204741D01*
X76845326Y8374479D01*
X77127590Y8491396D01*
X77227473Y8511264D01*
X77427238Y8551000D01*
X77732762Y8551000D01*
X77932527Y8511264D01*
X77932527Y8511264D01*
G37*
G36*
X74051000Y5449000D02*
X70949000Y5449000D01*
X70949000Y8551000D01*
X74051000Y8551000D01*
X74051000Y5449000D01*
X74051000Y5449000D01*
G37*
G36*
X37309466Y8746435D02*
X37348137Y8734704D01*
X37383779Y8715652D01*
X37415017Y8690017D01*
X37440652Y8658779D01*
X37459704Y8623137D01*
X37471435Y8584466D01*
X37476000Y8538112D01*
X37476000Y7461888D01*
X37471435Y7415534D01*
X37459704Y7376863D01*
X37440652Y7341221D01*
X37415017Y7309983D01*
X37383779Y7284348D01*
X37348137Y7265296D01*
X37309466Y7253565D01*
X37263112Y7249000D01*
X36611888Y7249000D01*
X36565534Y7253565D01*
X36526863Y7265296D01*
X36491221Y7284348D01*
X36459983Y7309983D01*
X36434348Y7341221D01*
X36415296Y7376863D01*
X36403565Y7415534D01*
X36399000Y7461888D01*
X36399000Y8538112D01*
X36403565Y8584466D01*
X36415296Y8623137D01*
X36434348Y8658779D01*
X36459983Y8690017D01*
X36491221Y8715652D01*
X36526863Y8734704D01*
X36565534Y8746435D01*
X36611888Y8751000D01*
X37263112Y8751000D01*
X37309466Y8746435D01*
X37309466Y8746435D01*
G37*
G36*
X35434466Y8746435D02*
X35473137Y8734704D01*
X35508779Y8715652D01*
X35540017Y8690017D01*
X35565652Y8658779D01*
X35584704Y8623137D01*
X35596435Y8584466D01*
X35601000Y8538112D01*
X35601000Y7461888D01*
X35596435Y7415534D01*
X35584704Y7376863D01*
X35565652Y7341221D01*
X35540017Y7309983D01*
X35508779Y7284348D01*
X35473137Y7265296D01*
X35434466Y7253565D01*
X35388112Y7249000D01*
X34736888Y7249000D01*
X34690534Y7253565D01*
X34651863Y7265296D01*
X34616221Y7284348D01*
X34584983Y7309983D01*
X34559348Y7341221D01*
X34540296Y7376863D01*
X34528565Y7415534D01*
X34524000Y7461888D01*
X34524000Y8538112D01*
X34528565Y8584466D01*
X34540296Y8623137D01*
X34559348Y8658779D01*
X34584983Y8690017D01*
X34616221Y8715652D01*
X34651863Y8734704D01*
X34690534Y8746435D01*
X34736888Y8751000D01*
X35388112Y8751000D01*
X35434466Y8746435D01*
X35434466Y8746435D01*
G37*
G36*
X68391000Y7536500D02*
X66289000Y7536500D01*
X66289000Y9543500D01*
X68391000Y9543500D01*
X68391000Y7536500D01*
X68391000Y7536500D01*
G37*
G36*
X62815764Y9537692D02*
X62904220Y9528980D01*
X63093381Y9471599D01*
X63267712Y9378417D01*
X63420515Y9253015D01*
X63545917Y9100212D01*
X63639099Y8925881D01*
X63696480Y8736720D01*
X63715855Y8540000D01*
X63696480Y8343280D01*
X63639099Y8154119D01*
X63545917Y7979788D01*
X63420515Y7826985D01*
X63267712Y7701583D01*
X63093381Y7608401D01*
X62904220Y7551020D01*
X62815764Y7542308D01*
X62756796Y7536500D01*
X62563204Y7536500D01*
X62504236Y7542308D01*
X62415780Y7551020D01*
X62226619Y7608401D01*
X62052288Y7701583D01*
X61899485Y7826985D01*
X61774083Y7979788D01*
X61680901Y8154119D01*
X61623520Y8343280D01*
X61604145Y8540000D01*
X61623520Y8736720D01*
X61680901Y8925881D01*
X61774083Y9100212D01*
X61899485Y9253015D01*
X62052288Y9378417D01*
X62226619Y9471599D01*
X62415780Y9528980D01*
X62504236Y9537692D01*
X62563204Y9543500D01*
X62756796Y9543500D01*
X62815764Y9537692D01*
X62815764Y9537692D01*
G37*
G36*
X19205589Y9761124D02*
X19304893Y9741371D01*
X19445206Y9683252D01*
X19571484Y9598875D01*
X19678875Y9491484D01*
X19763252Y9365206D01*
X19821371Y9224893D01*
X19821371Y9224891D01*
X19846172Y9100212D01*
X19851000Y9075937D01*
X19851000Y8924063D01*
X19821371Y8775107D01*
X19763252Y8634794D01*
X19678875Y8508516D01*
X19571484Y8401125D01*
X19445206Y8316748D01*
X19304893Y8258629D01*
X19205589Y8238876D01*
X19155938Y8229000D01*
X19004062Y8229000D01*
X18954411Y8238876D01*
X18855107Y8258629D01*
X18714794Y8316748D01*
X18588516Y8401125D01*
X18481125Y8508516D01*
X18396748Y8634794D01*
X18338629Y8775107D01*
X18309000Y8924063D01*
X18309000Y9075937D01*
X18313829Y9100212D01*
X18338629Y9224891D01*
X18338629Y9224893D01*
X18396748Y9365206D01*
X18481125Y9491484D01*
X18588516Y9598875D01*
X18714794Y9683252D01*
X18855107Y9741371D01*
X18954411Y9761124D01*
X19004062Y9771000D01*
X19155938Y9771000D01*
X19205589Y9761124D01*
X19205589Y9761124D01*
G37*
G36*
X16665589Y9761124D02*
X16764893Y9741371D01*
X16905206Y9683252D01*
X17031484Y9598875D01*
X17138875Y9491484D01*
X17223252Y9365206D01*
X17281371Y9224893D01*
X17281371Y9224891D01*
X17306172Y9100212D01*
X17311000Y9075937D01*
X17311000Y8924063D01*
X17281371Y8775107D01*
X17223252Y8634794D01*
X17138875Y8508516D01*
X17031484Y8401125D01*
X16905206Y8316748D01*
X16764893Y8258629D01*
X16665589Y8238876D01*
X16615938Y8229000D01*
X16464062Y8229000D01*
X16414411Y8238876D01*
X16315107Y8258629D01*
X16174794Y8316748D01*
X16048516Y8401125D01*
X15941125Y8508516D01*
X15856748Y8634794D01*
X15798629Y8775107D01*
X15769000Y8924063D01*
X15769000Y9075937D01*
X15773829Y9100212D01*
X15798629Y9224891D01*
X15798629Y9224893D01*
X15856748Y9365206D01*
X15941125Y9491484D01*
X16048516Y9598875D01*
X16174794Y9683252D01*
X16315107Y9741371D01*
X16414411Y9761124D01*
X16464062Y9771000D01*
X16615938Y9771000D01*
X16665589Y9761124D01*
X16665589Y9761124D01*
G37*
G36*
X14125589Y9761124D02*
X14224893Y9741371D01*
X14365206Y9683252D01*
X14491484Y9598875D01*
X14598875Y9491484D01*
X14683252Y9365206D01*
X14741371Y9224893D01*
X14741371Y9224891D01*
X14766172Y9100212D01*
X14771000Y9075937D01*
X14771000Y8924063D01*
X14741371Y8775107D01*
X14683252Y8634794D01*
X14598875Y8508516D01*
X14491484Y8401125D01*
X14365206Y8316748D01*
X14224893Y8258629D01*
X14125589Y8238876D01*
X14075938Y8229000D01*
X13924062Y8229000D01*
X13874411Y8238876D01*
X13775107Y8258629D01*
X13634794Y8316748D01*
X13508516Y8401125D01*
X13401125Y8508516D01*
X13316748Y8634794D01*
X13258629Y8775107D01*
X13229000Y8924063D01*
X13229000Y9075937D01*
X13233829Y9100212D01*
X13258629Y9224891D01*
X13258629Y9224893D01*
X13316748Y9365206D01*
X13401125Y9491484D01*
X13508516Y9598875D01*
X13634794Y9683252D01*
X13775107Y9741371D01*
X13874411Y9761124D01*
X13924062Y9771000D01*
X14075938Y9771000D01*
X14125589Y9761124D01*
X14125589Y9761124D01*
G37*
G36*
X28551000Y14199000D02*
X27449000Y14199000D01*
X27449000Y15301000D01*
X28551000Y15301000D01*
X28551000Y14199000D01*
X28551000Y14199000D01*
G37*
G36*
X30551000Y14199000D02*
X29449000Y14199000D01*
X29449000Y15301000D01*
X30551000Y15301000D01*
X30551000Y14199000D01*
X30551000Y14199000D01*
G37*
G36*
X32584466Y15596435D02*
X32623137Y15584704D01*
X32658779Y15565652D01*
X32690017Y15540017D01*
X32715652Y15508779D01*
X32734704Y15473137D01*
X32746435Y15434466D01*
X32751000Y15388112D01*
X32751000Y14736888D01*
X32746435Y14690534D01*
X32734704Y14651863D01*
X32715652Y14616221D01*
X32690017Y14584983D01*
X32658779Y14559348D01*
X32623137Y14540296D01*
X32584466Y14528565D01*
X32538112Y14524000D01*
X31461888Y14524000D01*
X31415534Y14528565D01*
X31376863Y14540296D01*
X31341221Y14559348D01*
X31309983Y14584983D01*
X31284348Y14616221D01*
X31265296Y14651863D01*
X31253565Y14690534D01*
X31249000Y14736888D01*
X31249000Y15388112D01*
X31253565Y15434466D01*
X31265296Y15473137D01*
X31284348Y15508779D01*
X31309983Y15540017D01*
X31341221Y15565652D01*
X31376863Y15584704D01*
X31415534Y15596435D01*
X31461888Y15601000D01*
X32538112Y15601000D01*
X32584466Y15596435D01*
X32584466Y15596435D01*
G37*
G36*
X34584466Y15596435D02*
X34623137Y15584704D01*
X34658779Y15565652D01*
X34690017Y15540017D01*
X34715652Y15508779D01*
X34734704Y15473137D01*
X34746435Y15434466D01*
X34751000Y15388112D01*
X34751000Y14736888D01*
X34746435Y14690534D01*
X34734704Y14651863D01*
X34715652Y14616221D01*
X34690017Y14584983D01*
X34658779Y14559348D01*
X34623137Y14540296D01*
X34584466Y14528565D01*
X34538112Y14524000D01*
X33461888Y14524000D01*
X33415534Y14528565D01*
X33376863Y14540296D01*
X33341221Y14559348D01*
X33309983Y14584983D01*
X33284348Y14616221D01*
X33265296Y14651863D01*
X33253565Y14690534D01*
X33249000Y14736888D01*
X33249000Y15388112D01*
X33253565Y15434466D01*
X33265296Y15473137D01*
X33284348Y15508779D01*
X33309983Y15540017D01*
X33341221Y15565652D01*
X33376863Y15584704D01*
X33415534Y15596435D01*
X33461888Y15601000D01*
X34538112Y15601000D01*
X34584466Y15596435D01*
X34584466Y15596435D01*
G37*
G36*
X26584466Y15596435D02*
X26623137Y15584704D01*
X26658779Y15565652D01*
X26690017Y15540017D01*
X26715652Y15508779D01*
X26734704Y15473137D01*
X26746435Y15434466D01*
X26751000Y15388112D01*
X26751000Y14736888D01*
X26746435Y14690534D01*
X26734704Y14651863D01*
X26715652Y14616221D01*
X26690017Y14584983D01*
X26658779Y14559348D01*
X26623137Y14540296D01*
X26584466Y14528565D01*
X26538112Y14524000D01*
X25461888Y14524000D01*
X25415534Y14528565D01*
X25376863Y14540296D01*
X25341221Y14559348D01*
X25309983Y14584983D01*
X25284348Y14616221D01*
X25265296Y14651863D01*
X25253565Y14690534D01*
X25249000Y14736888D01*
X25249000Y15388112D01*
X25253565Y15434466D01*
X25265296Y15473137D01*
X25284348Y15508779D01*
X25309983Y15540017D01*
X25341221Y15565652D01*
X25376863Y15584704D01*
X25415534Y15596435D01*
X25461888Y15601000D01*
X26538112Y15601000D01*
X26584466Y15596435D01*
X26584466Y15596435D01*
G37*
G36*
X24584466Y15596435D02*
X24623137Y15584704D01*
X24658779Y15565652D01*
X24690017Y15540017D01*
X24715652Y15508779D01*
X24734704Y15473137D01*
X24746435Y15434466D01*
X24751000Y15388112D01*
X24751000Y14736888D01*
X24746435Y14690534D01*
X24734704Y14651863D01*
X24715652Y14616221D01*
X24690017Y14584983D01*
X24658779Y14559348D01*
X24623137Y14540296D01*
X24584466Y14528565D01*
X24538112Y14524000D01*
X23461888Y14524000D01*
X23415534Y14528565D01*
X23376863Y14540296D01*
X23341221Y14559348D01*
X23309983Y14584983D01*
X23284348Y14616221D01*
X23265296Y14651863D01*
X23253565Y14690534D01*
X23249000Y14736888D01*
X23249000Y15388112D01*
X23253565Y15434466D01*
X23265296Y15473137D01*
X23284348Y15508779D01*
X23309983Y15540017D01*
X23341221Y15565652D01*
X23376863Y15584704D01*
X23415534Y15596435D01*
X23461888Y15601000D01*
X24538112Y15601000D01*
X24584466Y15596435D01*
X24584466Y15596435D01*
G37*
G36*
X12584466Y15596435D02*
X12623137Y15584704D01*
X12658779Y15565652D01*
X12690017Y15540017D01*
X12715652Y15508779D01*
X12734704Y15473137D01*
X12746435Y15434466D01*
X12751000Y15388112D01*
X12751000Y14736888D01*
X12746435Y14690534D01*
X12734704Y14651863D01*
X12715652Y14616221D01*
X12690017Y14584983D01*
X12658779Y14559348D01*
X12623137Y14540296D01*
X12584466Y14528565D01*
X12538112Y14524000D01*
X11461888Y14524000D01*
X11415534Y14528565D01*
X11376863Y14540296D01*
X11341221Y14559348D01*
X11309983Y14584983D01*
X11284348Y14616221D01*
X11265296Y14651863D01*
X11253565Y14690534D01*
X11249000Y14736888D01*
X11249000Y15388112D01*
X11253565Y15434466D01*
X11265296Y15473137D01*
X11284348Y15508779D01*
X11309983Y15540017D01*
X11341221Y15565652D01*
X11376863Y15584704D01*
X11415534Y15596435D01*
X11461888Y15601000D01*
X12538112Y15601000D01*
X12584466Y15596435D01*
X12584466Y15596435D01*
G37*
G36*
X18248228Y17818297D02*
X18403100Y17754147D01*
X18542481Y17661015D01*
X18661015Y17542481D01*
X18754147Y17403100D01*
X18818297Y17248228D01*
X18851000Y17083816D01*
X18851000Y16916184D01*
X18818297Y16751772D01*
X18754147Y16596900D01*
X18661015Y16457519D01*
X18542481Y16338985D01*
X18403100Y16245853D01*
X18248228Y16181703D01*
X18083816Y16149000D01*
X17916184Y16149000D01*
X17751772Y16181703D01*
X17596900Y16245853D01*
X17457519Y16338985D01*
X17338985Y16457519D01*
X17245853Y16596900D01*
X17181703Y16751772D01*
X17149000Y16916184D01*
X17149000Y17083816D01*
X17181703Y17248228D01*
X17245853Y17403100D01*
X17338985Y17542481D01*
X17457519Y17661015D01*
X17596900Y17754147D01*
X17751772Y17818297D01*
X17916184Y17851000D01*
X18083816Y17851000D01*
X18248228Y17818297D01*
X18248228Y17818297D01*
G37*
G36*
X26584466Y17471435D02*
X26623137Y17459704D01*
X26658779Y17440652D01*
X26690017Y17415017D01*
X26715652Y17383779D01*
X26734704Y17348137D01*
X26746435Y17309466D01*
X26751000Y17263112D01*
X26751000Y16611888D01*
X26746435Y16565534D01*
X26734704Y16526863D01*
X26715652Y16491221D01*
X26690017Y16459983D01*
X26658779Y16434348D01*
X26623137Y16415296D01*
X26584466Y16403565D01*
X26538112Y16399000D01*
X25461888Y16399000D01*
X25415534Y16403565D01*
X25376863Y16415296D01*
X25341221Y16434348D01*
X25309983Y16459983D01*
X25284348Y16491221D01*
X25265296Y16526863D01*
X25253565Y16565534D01*
X25249000Y16611888D01*
X25249000Y17263112D01*
X25253565Y17309466D01*
X25265296Y17348137D01*
X25284348Y17383779D01*
X25309983Y17415017D01*
X25341221Y17440652D01*
X25376863Y17459704D01*
X25415534Y17471435D01*
X25461888Y17476000D01*
X26538112Y17476000D01*
X26584466Y17471435D01*
X26584466Y17471435D01*
G37*
G36*
X32584466Y17471435D02*
X32623137Y17459704D01*
X32658779Y17440652D01*
X32690017Y17415017D01*
X32715652Y17383779D01*
X32734704Y17348137D01*
X32746435Y17309466D01*
X32751000Y17263112D01*
X32751000Y16611888D01*
X32746435Y16565534D01*
X32734704Y16526863D01*
X32715652Y16491221D01*
X32690017Y16459983D01*
X32658779Y16434348D01*
X32623137Y16415296D01*
X32584466Y16403565D01*
X32538112Y16399000D01*
X31461888Y16399000D01*
X31415534Y16403565D01*
X31376863Y16415296D01*
X31341221Y16434348D01*
X31309983Y16459983D01*
X31284348Y16491221D01*
X31265296Y16526863D01*
X31253565Y16565534D01*
X31249000Y16611888D01*
X31249000Y17263112D01*
X31253565Y17309466D01*
X31265296Y17348137D01*
X31284348Y17383779D01*
X31309983Y17415017D01*
X31341221Y17440652D01*
X31376863Y17459704D01*
X31415534Y17471435D01*
X31461888Y17476000D01*
X32538112Y17476000D01*
X32584466Y17471435D01*
X32584466Y17471435D01*
G37*
G36*
X12584466Y17471435D02*
X12623137Y17459704D01*
X12658779Y17440652D01*
X12690017Y17415017D01*
X12715652Y17383779D01*
X12734704Y17348137D01*
X12746435Y17309466D01*
X12751000Y17263112D01*
X12751000Y16611888D01*
X12746435Y16565534D01*
X12734704Y16526863D01*
X12715652Y16491221D01*
X12690017Y16459983D01*
X12658779Y16434348D01*
X12623137Y16415296D01*
X12584466Y16403565D01*
X12538112Y16399000D01*
X11461888Y16399000D01*
X11415534Y16403565D01*
X11376863Y16415296D01*
X11341221Y16434348D01*
X11309983Y16459983D01*
X11284348Y16491221D01*
X11265296Y16526863D01*
X11253565Y16565534D01*
X11249000Y16611888D01*
X11249000Y17263112D01*
X11253565Y17309466D01*
X11265296Y17348137D01*
X11284348Y17383779D01*
X11309983Y17415017D01*
X11341221Y17440652D01*
X11376863Y17459704D01*
X11415534Y17471435D01*
X11461888Y17476000D01*
X12538112Y17476000D01*
X12584466Y17471435D01*
X12584466Y17471435D01*
G37*
G36*
X24584466Y17471435D02*
X24623137Y17459704D01*
X24658779Y17440652D01*
X24690017Y17415017D01*
X24715652Y17383779D01*
X24734704Y17348137D01*
X24746435Y17309466D01*
X24751000Y17263112D01*
X24751000Y16611888D01*
X24746435Y16565534D01*
X24734704Y16526863D01*
X24715652Y16491221D01*
X24690017Y16459983D01*
X24658779Y16434348D01*
X24623137Y16415296D01*
X24584466Y16403565D01*
X24538112Y16399000D01*
X23461888Y16399000D01*
X23415534Y16403565D01*
X23376863Y16415296D01*
X23341221Y16434348D01*
X23309983Y16459983D01*
X23284348Y16491221D01*
X23265296Y16526863D01*
X23253565Y16565534D01*
X23249000Y16611888D01*
X23249000Y17263112D01*
X23253565Y17309466D01*
X23265296Y17348137D01*
X23284348Y17383779D01*
X23309983Y17415017D01*
X23341221Y17440652D01*
X23376863Y17459704D01*
X23415534Y17471435D01*
X23461888Y17476000D01*
X24538112Y17476000D01*
X24584466Y17471435D01*
X24584466Y17471435D01*
G37*
G36*
X34584466Y17471435D02*
X34623137Y17459704D01*
X34658779Y17440652D01*
X34690017Y17415017D01*
X34715652Y17383779D01*
X34734704Y17348137D01*
X34746435Y17309466D01*
X34751000Y17263112D01*
X34751000Y16611888D01*
X34746435Y16565534D01*
X34734704Y16526863D01*
X34715652Y16491221D01*
X34690017Y16459983D01*
X34658779Y16434348D01*
X34623137Y16415296D01*
X34584466Y16403565D01*
X34538112Y16399000D01*
X33461888Y16399000D01*
X33415534Y16403565D01*
X33376863Y16415296D01*
X33341221Y16434348D01*
X33309983Y16459983D01*
X33284348Y16491221D01*
X33265296Y16526863D01*
X33253565Y16565534D01*
X33249000Y16611888D01*
X33249000Y17263112D01*
X33253565Y17309466D01*
X33265296Y17348137D01*
X33284348Y17383779D01*
X33309983Y17415017D01*
X33341221Y17440652D01*
X33376863Y17459704D01*
X33415534Y17471435D01*
X33461888Y17476000D01*
X34538112Y17476000D01*
X34584466Y17471435D01*
X34584466Y17471435D01*
G37*
G36*
X30551000Y16699000D02*
X29449000Y16699000D01*
X29449000Y17801000D01*
X30551000Y17801000D01*
X30551000Y16699000D01*
X30551000Y16699000D01*
G37*
G36*
X28551000Y16699000D02*
X27449000Y16699000D01*
X27449000Y17801000D01*
X28551000Y17801000D01*
X28551000Y16699000D01*
X28551000Y16699000D01*
G37*
G36*
X84183635Y19738981D02*
X84364903Y19702925D01*
X84592571Y19608622D01*
X84796542Y19472332D01*
X84797469Y19471713D01*
X84971713Y19297469D01*
X84971715Y19297466D01*
X85108622Y19092571D01*
X85202925Y18864903D01*
X85251000Y18623213D01*
X85251000Y18376787D01*
X85202925Y18135097D01*
X85108622Y17907429D01*
X85037508Y17801000D01*
X84971713Y17702531D01*
X84797469Y17528287D01*
X84797466Y17528285D01*
X84592571Y17391378D01*
X84364903Y17297075D01*
X84194159Y17263112D01*
X84123214Y17249000D01*
X83876786Y17249000D01*
X83805841Y17263112D01*
X83635097Y17297075D01*
X83407429Y17391378D01*
X83202534Y17528285D01*
X83202531Y17528287D01*
X83028287Y17702531D01*
X82962492Y17801000D01*
X82891378Y17907429D01*
X82797075Y18135097D01*
X82749000Y18376787D01*
X82749000Y18623213D01*
X82797075Y18864903D01*
X82891378Y19092571D01*
X83028285Y19297466D01*
X83028287Y19297469D01*
X83202531Y19471713D01*
X83203458Y19472332D01*
X83407429Y19608622D01*
X83635097Y19702925D01*
X83816365Y19738981D01*
X83876786Y19751000D01*
X84123214Y19751000D01*
X84183635Y19738981D01*
X84183635Y19738981D01*
G37*
G36*
X66183635Y19738981D02*
X66364903Y19702925D01*
X66592571Y19608622D01*
X66796542Y19472332D01*
X66797469Y19471713D01*
X66971713Y19297469D01*
X66971715Y19297466D01*
X67108622Y19092571D01*
X67202925Y18864903D01*
X67251000Y18623213D01*
X67251000Y18376787D01*
X67202925Y18135097D01*
X67108622Y17907429D01*
X67037508Y17801000D01*
X66971713Y17702531D01*
X66797469Y17528287D01*
X66797466Y17528285D01*
X66592571Y17391378D01*
X66364903Y17297075D01*
X66194159Y17263112D01*
X66123214Y17249000D01*
X65876786Y17249000D01*
X65805841Y17263112D01*
X65635097Y17297075D01*
X65407429Y17391378D01*
X65202534Y17528285D01*
X65202531Y17528287D01*
X65028287Y17702531D01*
X64962492Y17801000D01*
X64891378Y17907429D01*
X64797075Y18135097D01*
X64749000Y18376787D01*
X64749000Y18623213D01*
X64797075Y18864903D01*
X64891378Y19092571D01*
X65028285Y19297466D01*
X65028287Y19297469D01*
X65202531Y19471713D01*
X65203458Y19472332D01*
X65407429Y19608622D01*
X65635097Y19702925D01*
X65816365Y19738981D01*
X65876786Y19751000D01*
X66123214Y19751000D01*
X66183635Y19738981D01*
X66183635Y19738981D01*
G37*
G36*
X18851000Y18149000D02*
X17149000Y18149000D01*
X17149000Y19851000D01*
X18851000Y19851000D01*
X18851000Y18149000D01*
X18851000Y18149000D01*
G37*
G36*
X24176669Y27792314D02*
X24353058Y27774941D01*
X24579385Y27706286D01*
X24692549Y27671958D01*
X25005425Y27504721D01*
X25279661Y27279661D01*
X25504721Y27005425D01*
X25671958Y26692549D01*
X25681524Y26661014D01*
X25774941Y26353058D01*
X25809714Y26000000D01*
X25774941Y25646942D01*
X25717480Y25457519D01*
X25671958Y25307451D01*
X25504721Y24994575D01*
X25279661Y24720339D01*
X25005425Y24495279D01*
X24692549Y24328042D01*
X24579385Y24293714D01*
X24353058Y24225059D01*
X24176669Y24207686D01*
X24088476Y24199000D01*
X23911524Y24199000D01*
X23823331Y24207686D01*
X23646942Y24225059D01*
X23420615Y24293714D01*
X23307451Y24328042D01*
X22994575Y24495279D01*
X22720339Y24720339D01*
X22495279Y24994575D01*
X22328042Y25307451D01*
X22282520Y25457519D01*
X22225059Y25646942D01*
X22190286Y26000000D01*
X22225059Y26353058D01*
X22318476Y26661014D01*
X22328042Y26692549D01*
X22495279Y27005425D01*
X22720339Y27279661D01*
X22994575Y27504721D01*
X23307451Y27671958D01*
X23420615Y27706286D01*
X23646942Y27774941D01*
X23823331Y27792314D01*
X23911524Y27801000D01*
X24088476Y27801000D01*
X24176669Y27792314D01*
X24176669Y27792314D01*
G37*
G36*
X36176669Y27792314D02*
X36353058Y27774941D01*
X36579385Y27706286D01*
X36692549Y27671958D01*
X37005425Y27504721D01*
X37279661Y27279661D01*
X37504721Y27005425D01*
X37671958Y26692549D01*
X37681524Y26661014D01*
X37774941Y26353058D01*
X37809714Y26000000D01*
X37774941Y25646942D01*
X37717480Y25457519D01*
X37671958Y25307451D01*
X37504721Y24994575D01*
X37279661Y24720339D01*
X37005425Y24495279D01*
X36692549Y24328042D01*
X36579385Y24293714D01*
X36353058Y24225059D01*
X36176669Y24207686D01*
X36088476Y24199000D01*
X35911524Y24199000D01*
X35823331Y24207686D01*
X35646942Y24225059D01*
X35420615Y24293714D01*
X35307451Y24328042D01*
X34994575Y24495279D01*
X34720339Y24720339D01*
X34495279Y24994575D01*
X34328042Y25307451D01*
X34282520Y25457519D01*
X34225059Y25646942D01*
X34190286Y26000000D01*
X34225059Y26353058D01*
X34318476Y26661014D01*
X34328042Y26692549D01*
X34495279Y27005425D01*
X34720339Y27279661D01*
X34994575Y27504721D01*
X35307451Y27671958D01*
X35420615Y27706286D01*
X35646942Y27774941D01*
X35823331Y27792314D01*
X35911524Y27801000D01*
X36088476Y27801000D01*
X36176669Y27792314D01*
X36176669Y27792314D01*
G37*
G36*
X48176669Y27792314D02*
X48353058Y27774941D01*
X48579385Y27706286D01*
X48692549Y27671958D01*
X49005425Y27504721D01*
X49279661Y27279661D01*
X49504721Y27005425D01*
X49671958Y26692549D01*
X49681524Y26661014D01*
X49774941Y26353058D01*
X49809714Y26000000D01*
X49774941Y25646942D01*
X49717480Y25457519D01*
X49671958Y25307451D01*
X49504721Y24994575D01*
X49279661Y24720339D01*
X49005425Y24495279D01*
X48692549Y24328042D01*
X48579385Y24293714D01*
X48353058Y24225059D01*
X48176669Y24207686D01*
X48088476Y24199000D01*
X47911524Y24199000D01*
X47823331Y24207686D01*
X47646942Y24225059D01*
X47420615Y24293714D01*
X47307451Y24328042D01*
X46994575Y24495279D01*
X46720339Y24720339D01*
X46495279Y24994575D01*
X46328042Y25307451D01*
X46282520Y25457519D01*
X46225059Y25646942D01*
X46190286Y26000000D01*
X46225059Y26353058D01*
X46318476Y26661014D01*
X46328042Y26692549D01*
X46495279Y27005425D01*
X46720339Y27279661D01*
X46994575Y27504721D01*
X47307451Y27671958D01*
X47420615Y27706286D01*
X47646942Y27774941D01*
X47823331Y27792314D01*
X47911524Y27801000D01*
X48088476Y27801000D01*
X48176669Y27792314D01*
X48176669Y27792314D01*
G37*
G36*
X12176669Y27792314D02*
X12353058Y27774941D01*
X12579385Y27706286D01*
X12692549Y27671958D01*
X13005425Y27504721D01*
X13279661Y27279661D01*
X13504721Y27005425D01*
X13671958Y26692549D01*
X13681524Y26661014D01*
X13774941Y26353058D01*
X13809714Y26000000D01*
X13774941Y25646942D01*
X13717480Y25457519D01*
X13671958Y25307451D01*
X13504721Y24994575D01*
X13279661Y24720339D01*
X13005425Y24495279D01*
X12692549Y24328042D01*
X12579385Y24293714D01*
X12353058Y24225059D01*
X12176669Y24207686D01*
X12088476Y24199000D01*
X11911524Y24199000D01*
X11823331Y24207686D01*
X11646942Y24225059D01*
X11420615Y24293714D01*
X11307451Y24328042D01*
X10994575Y24495279D01*
X10720339Y24720339D01*
X10495279Y24994575D01*
X10328042Y25307451D01*
X10282520Y25457519D01*
X10225059Y25646942D01*
X10190286Y26000000D01*
X10225059Y26353058D01*
X10318476Y26661014D01*
X10328042Y26692549D01*
X10495279Y27005425D01*
X10720339Y27279661D01*
X10994575Y27504721D01*
X11307451Y27671958D01*
X11420615Y27706286D01*
X11646942Y27774941D01*
X11823331Y27792314D01*
X11911524Y27801000D01*
X12088476Y27801000D01*
X12176669Y27792314D01*
X12176669Y27792314D01*
G37*
G36*
X67251000Y24749000D02*
X64749000Y24749000D01*
X64749000Y27251000D01*
X67251000Y27251000D01*
X67251000Y24749000D01*
X67251000Y24749000D01*
G37*
G36*
X85251000Y24749000D02*
X82749000Y24749000D01*
X82749000Y27251000D01*
X85251000Y27251000D01*
X85251000Y24749000D01*
X85251000Y24749000D01*
G37*
G36*
X30248228Y26818297D02*
X30403100Y26754147D01*
X30542481Y26661015D01*
X30661015Y26542481D01*
X30754147Y26403100D01*
X30818297Y26248228D01*
X30851000Y26083816D01*
X30851000Y25916184D01*
X30818297Y25751772D01*
X30754147Y25596900D01*
X30661015Y25457519D01*
X30542481Y25338985D01*
X30403100Y25245853D01*
X30248228Y25181703D01*
X30083816Y25149000D01*
X29916184Y25149000D01*
X29751772Y25181703D01*
X29596900Y25245853D01*
X29457519Y25338985D01*
X29338985Y25457519D01*
X29245853Y25596900D01*
X29181703Y25751772D01*
X29149000Y25916184D01*
X29149000Y26083816D01*
X29181703Y26248228D01*
X29245853Y26403100D01*
X29338985Y26542481D01*
X29457519Y26661015D01*
X29596900Y26754147D01*
X29751772Y26818297D01*
X29916184Y26851000D01*
X30083816Y26851000D01*
X30248228Y26818297D01*
X30248228Y26818297D01*
G37*
G36*
X30851000Y27149000D02*
X29149000Y27149000D01*
X29149000Y28851000D01*
X30851000Y28851000D01*
X30851000Y27149000D01*
X30851000Y27149000D01*
G37*
G36*
X33851000Y35149000D02*
X32149000Y35149000D01*
X32149000Y36851000D01*
X33851000Y36851000D01*
X33851000Y35149000D01*
X33851000Y35149000D01*
G37*
G36*
X9851000Y35149000D02*
X8149000Y35149000D01*
X8149000Y36851000D01*
X9851000Y36851000D01*
X9851000Y35149000D01*
X9851000Y35149000D01*
G37*
G36*
X66183635Y37738981D02*
X66364903Y37702925D01*
X66592571Y37608622D01*
X66796542Y37472332D01*
X66797469Y37471713D01*
X66971713Y37297469D01*
X66971715Y37297466D01*
X67108622Y37092571D01*
X67202925Y36864903D01*
X67251000Y36623213D01*
X67251000Y36376787D01*
X67202925Y36135097D01*
X67108622Y35907429D01*
X66972332Y35703458D01*
X66971713Y35702531D01*
X66797469Y35528287D01*
X66797466Y35528285D01*
X66592571Y35391378D01*
X66364903Y35297075D01*
X66183636Y35261019D01*
X66123214Y35249000D01*
X65876786Y35249000D01*
X65816364Y35261019D01*
X65635097Y35297075D01*
X65407429Y35391378D01*
X65202534Y35528285D01*
X65202531Y35528287D01*
X65028287Y35702531D01*
X65027668Y35703458D01*
X64891378Y35907429D01*
X64797075Y36135097D01*
X64749000Y36376787D01*
X64749000Y36623213D01*
X64797075Y36864903D01*
X64891378Y37092571D01*
X65028285Y37297466D01*
X65028287Y37297469D01*
X65202531Y37471713D01*
X65203458Y37472332D01*
X65407429Y37608622D01*
X65635097Y37702925D01*
X65816365Y37738981D01*
X65876786Y37751000D01*
X66123214Y37751000D01*
X66183635Y37738981D01*
X66183635Y37738981D01*
G37*
G36*
X84183635Y37738981D02*
X84364903Y37702925D01*
X84592571Y37608622D01*
X84796542Y37472332D01*
X84797469Y37471713D01*
X84971713Y37297469D01*
X84971715Y37297466D01*
X85108622Y37092571D01*
X85202925Y36864903D01*
X85251000Y36623213D01*
X85251000Y36376787D01*
X85202925Y36135097D01*
X85108622Y35907429D01*
X84972332Y35703458D01*
X84971713Y35702531D01*
X84797469Y35528287D01*
X84797466Y35528285D01*
X84592571Y35391378D01*
X84364903Y35297075D01*
X84183636Y35261019D01*
X84123214Y35249000D01*
X83876786Y35249000D01*
X83816364Y35261019D01*
X83635097Y35297075D01*
X83407429Y35391378D01*
X83202534Y35528285D01*
X83202531Y35528287D01*
X83028287Y35702531D01*
X83027668Y35703458D01*
X82891378Y35907429D01*
X82797075Y36135097D01*
X82749000Y36376787D01*
X82749000Y36623213D01*
X82797075Y36864903D01*
X82891378Y37092571D01*
X83028285Y37297466D01*
X83028287Y37297469D01*
X83202531Y37471713D01*
X83203458Y37472332D01*
X83407429Y37608622D01*
X83635097Y37702925D01*
X83816365Y37738981D01*
X83876786Y37751000D01*
X84123214Y37751000D01*
X84183635Y37738981D01*
X84183635Y37738981D01*
G37*
G36*
X9248228Y38818297D02*
X9403100Y38754147D01*
X9542481Y38661015D01*
X9661015Y38542481D01*
X9754147Y38403100D01*
X9818297Y38248228D01*
X9851000Y38083816D01*
X9851000Y37916184D01*
X9818297Y37751772D01*
X9754147Y37596900D01*
X9661015Y37457519D01*
X9542481Y37338985D01*
X9403100Y37245853D01*
X9248228Y37181703D01*
X9083816Y37149000D01*
X8916184Y37149000D01*
X8751772Y37181703D01*
X8596900Y37245853D01*
X8457519Y37338985D01*
X8338985Y37457519D01*
X8245853Y37596900D01*
X8181703Y37751772D01*
X8149000Y37916184D01*
X8149000Y38083816D01*
X8181703Y38248228D01*
X8245853Y38403100D01*
X8338985Y38542481D01*
X8457519Y38661015D01*
X8596900Y38754147D01*
X8751772Y38818297D01*
X8916184Y38851000D01*
X9083816Y38851000D01*
X9248228Y38818297D01*
X9248228Y38818297D01*
G37*
G36*
X33248228Y38818297D02*
X33403100Y38754147D01*
X33542481Y38661015D01*
X33661015Y38542481D01*
X33754147Y38403100D01*
X33818297Y38248228D01*
X33851000Y38083816D01*
X33851000Y37916184D01*
X33818297Y37751772D01*
X33754147Y37596900D01*
X33661015Y37457519D01*
X33542481Y37338985D01*
X33403100Y37245853D01*
X33248228Y37181703D01*
X33083816Y37149000D01*
X32916184Y37149000D01*
X32751772Y37181703D01*
X32596900Y37245853D01*
X32457519Y37338985D01*
X32338985Y37457519D01*
X32245853Y37596900D01*
X32181703Y37751772D01*
X32149000Y37916184D01*
X32149000Y38083816D01*
X32181703Y38248228D01*
X32245853Y38403100D01*
X32338985Y38542481D01*
X32457519Y38661015D01*
X32596900Y38754147D01*
X32751772Y38818297D01*
X32916184Y38851000D01*
X33083816Y38851000D01*
X33248228Y38818297D01*
X33248228Y38818297D01*
G37*
G36*
X18584466Y42596435D02*
X18623137Y42584704D01*
X18658779Y42565652D01*
X18690017Y42540017D01*
X18715652Y42508779D01*
X18734704Y42473137D01*
X18746435Y42434466D01*
X18751000Y42388112D01*
X18751000Y41736888D01*
X18746435Y41690534D01*
X18734704Y41651863D01*
X18715652Y41616221D01*
X18690017Y41584983D01*
X18658779Y41559348D01*
X18623137Y41540296D01*
X18584466Y41528565D01*
X18538112Y41524000D01*
X17461888Y41524000D01*
X17415534Y41528565D01*
X17376863Y41540296D01*
X17341221Y41559348D01*
X17309983Y41584983D01*
X17284348Y41616221D01*
X17265296Y41651863D01*
X17253565Y41690534D01*
X17249000Y41736888D01*
X17249000Y42388112D01*
X17253565Y42434466D01*
X17265296Y42473137D01*
X17284348Y42508779D01*
X17309983Y42540017D01*
X17341221Y42565652D01*
X17376863Y42584704D01*
X17415534Y42596435D01*
X17461888Y42601000D01*
X18538112Y42601000D01*
X18584466Y42596435D01*
X18584466Y42596435D01*
G37*
G36*
X42584466Y42596435D02*
X42623137Y42584704D01*
X42658779Y42565652D01*
X42690017Y42540017D01*
X42715652Y42508779D01*
X42734704Y42473137D01*
X42746435Y42434466D01*
X42751000Y42388112D01*
X42751000Y41736888D01*
X42746435Y41690534D01*
X42734704Y41651863D01*
X42715652Y41616221D01*
X42690017Y41584983D01*
X42658779Y41559348D01*
X42623137Y41540296D01*
X42584466Y41528565D01*
X42538112Y41524000D01*
X41461888Y41524000D01*
X41415534Y41528565D01*
X41376863Y41540296D01*
X41341221Y41559348D01*
X41309983Y41584983D01*
X41284348Y41616221D01*
X41265296Y41651863D01*
X41253565Y41690534D01*
X41249000Y41736888D01*
X41249000Y42388112D01*
X41253565Y42434466D01*
X41265296Y42473137D01*
X41284348Y42508779D01*
X41309983Y42540017D01*
X41341221Y42565652D01*
X41376863Y42584704D01*
X41415534Y42596435D01*
X41461888Y42601000D01*
X42538112Y42601000D01*
X42584466Y42596435D01*
X42584466Y42596435D01*
G37*
G36*
X33656720Y43696480D02*
X33845881Y43639099D01*
X34020212Y43545917D01*
X34173015Y43420515D01*
X34298417Y43267712D01*
X34391599Y43093380D01*
X34448980Y42904219D01*
X34463500Y42756793D01*
X34463500Y42563206D01*
X34448980Y42415780D01*
X34391599Y42226619D01*
X34298417Y42052288D01*
X34173015Y41899485D01*
X34020212Y41774083D01*
X33845880Y41680901D01*
X33656719Y41623520D01*
X33460000Y41604145D01*
X33263280Y41623520D01*
X33074119Y41680901D01*
X32899788Y41774083D01*
X32746985Y41899485D01*
X32621583Y42052288D01*
X32528401Y42226620D01*
X32471020Y42415781D01*
X32456500Y42563207D01*
X32456500Y42756794D01*
X32471020Y42904220D01*
X32528401Y43093381D01*
X32621583Y43267712D01*
X32746985Y43420515D01*
X32899788Y43545917D01*
X33074120Y43639099D01*
X33263281Y43696480D01*
X33460000Y43715855D01*
X33656720Y43696480D01*
X33656720Y43696480D01*
G37*
G36*
X24196720Y43696480D02*
X24385881Y43639099D01*
X24560212Y43545917D01*
X24713015Y43420515D01*
X24838417Y43267712D01*
X24931599Y43093380D01*
X24988980Y42904219D01*
X25003500Y42756793D01*
X25003500Y42563206D01*
X24988980Y42415780D01*
X24931599Y42226619D01*
X24838417Y42052288D01*
X24713015Y41899485D01*
X24560212Y41774083D01*
X24385880Y41680901D01*
X24196719Y41623520D01*
X24000000Y41604145D01*
X23803280Y41623520D01*
X23614119Y41680901D01*
X23439788Y41774083D01*
X23286985Y41899485D01*
X23161583Y42052288D01*
X23068401Y42226620D01*
X23011020Y42415781D01*
X22996500Y42563207D01*
X22996500Y42756794D01*
X23011020Y42904220D01*
X23068401Y43093381D01*
X23161583Y43267712D01*
X23286985Y43420515D01*
X23439788Y43545917D01*
X23614120Y43639099D01*
X23803281Y43696480D01*
X24000000Y43715855D01*
X24196720Y43696480D01*
X24196720Y43696480D01*
G37*
G36*
X21656720Y43696480D02*
X21845881Y43639099D01*
X22020212Y43545917D01*
X22173015Y43420515D01*
X22298417Y43267712D01*
X22391599Y43093380D01*
X22448980Y42904219D01*
X22463500Y42756793D01*
X22463500Y42563206D01*
X22448980Y42415780D01*
X22391599Y42226619D01*
X22298417Y42052288D01*
X22173015Y41899485D01*
X22020212Y41774083D01*
X21845880Y41680901D01*
X21656719Y41623520D01*
X21460000Y41604145D01*
X21263280Y41623520D01*
X21074119Y41680901D01*
X20899788Y41774083D01*
X20746985Y41899485D01*
X20621583Y42052288D01*
X20528401Y42226620D01*
X20471020Y42415781D01*
X20456500Y42563207D01*
X20456500Y42756794D01*
X20471020Y42904220D01*
X20528401Y43093381D01*
X20621583Y43267712D01*
X20746985Y43420515D01*
X20899788Y43545917D01*
X21074120Y43639099D01*
X21263281Y43696480D01*
X21460000Y43715855D01*
X21656720Y43696480D01*
X21656720Y43696480D01*
G37*
G36*
X12196720Y43696480D02*
X12385881Y43639099D01*
X12560212Y43545917D01*
X12713015Y43420515D01*
X12838417Y43267712D01*
X12931599Y43093380D01*
X12988980Y42904219D01*
X13003500Y42756793D01*
X13003500Y42563206D01*
X12988980Y42415780D01*
X12931599Y42226619D01*
X12838417Y42052288D01*
X12713015Y41899485D01*
X12560212Y41774083D01*
X12385880Y41680901D01*
X12196719Y41623520D01*
X12000000Y41604145D01*
X11803280Y41623520D01*
X11614119Y41680901D01*
X11439788Y41774083D01*
X11286985Y41899485D01*
X11161583Y42052288D01*
X11068401Y42226620D01*
X11011020Y42415781D01*
X10996500Y42563207D01*
X10996500Y42756794D01*
X11011020Y42904220D01*
X11068401Y43093381D01*
X11161583Y43267712D01*
X11286985Y43420515D01*
X11439788Y43545917D01*
X11614120Y43639099D01*
X11803281Y43696480D01*
X12000000Y43715855D01*
X12196720Y43696480D01*
X12196720Y43696480D01*
G37*
G36*
X48196720Y43696480D02*
X48385881Y43639099D01*
X48560212Y43545917D01*
X48713015Y43420515D01*
X48838417Y43267712D01*
X48931599Y43093380D01*
X48988980Y42904219D01*
X49003500Y42756793D01*
X49003500Y42563206D01*
X48988980Y42415780D01*
X48931599Y42226619D01*
X48838417Y42052288D01*
X48713015Y41899485D01*
X48560212Y41774083D01*
X48385880Y41680901D01*
X48196719Y41623520D01*
X48000000Y41604145D01*
X47803280Y41623520D01*
X47614119Y41680901D01*
X47439788Y41774083D01*
X47286985Y41899485D01*
X47161583Y42052288D01*
X47068401Y42226620D01*
X47011020Y42415781D01*
X46996500Y42563207D01*
X46996500Y42756794D01*
X47011020Y42904220D01*
X47068401Y43093381D01*
X47161583Y43267712D01*
X47286985Y43420515D01*
X47439788Y43545917D01*
X47614120Y43639099D01*
X47803281Y43696480D01*
X48000000Y43715855D01*
X48196720Y43696480D01*
X48196720Y43696480D01*
G37*
G36*
X45656720Y43696480D02*
X45845881Y43639099D01*
X46020212Y43545917D01*
X46173015Y43420515D01*
X46298417Y43267712D01*
X46391599Y43093380D01*
X46448980Y42904219D01*
X46463500Y42756793D01*
X46463500Y42563206D01*
X46448980Y42415780D01*
X46391599Y42226619D01*
X46298417Y42052288D01*
X46173015Y41899485D01*
X46020212Y41774083D01*
X45845880Y41680901D01*
X45656719Y41623520D01*
X45460000Y41604145D01*
X45263280Y41623520D01*
X45074119Y41680901D01*
X44899788Y41774083D01*
X44746985Y41899485D01*
X44621583Y42052288D01*
X44528401Y42226620D01*
X44471020Y42415781D01*
X44456500Y42563207D01*
X44456500Y42756794D01*
X44471020Y42904220D01*
X44528401Y43093381D01*
X44621583Y43267712D01*
X44746985Y43420515D01*
X44899788Y43545917D01*
X45074120Y43639099D01*
X45263281Y43696480D01*
X45460000Y43715855D01*
X45656720Y43696480D01*
X45656720Y43696480D01*
G37*
G36*
X9656720Y43696480D02*
X9845881Y43639099D01*
X10020212Y43545917D01*
X10173015Y43420515D01*
X10298417Y43267712D01*
X10391599Y43093380D01*
X10448980Y42904219D01*
X10463500Y42756793D01*
X10463500Y42563206D01*
X10448980Y42415780D01*
X10391599Y42226619D01*
X10298417Y42052288D01*
X10173015Y41899485D01*
X10020212Y41774083D01*
X9845880Y41680901D01*
X9656719Y41623520D01*
X9460000Y41604145D01*
X9263280Y41623520D01*
X9074119Y41680901D01*
X8899788Y41774083D01*
X8746985Y41899485D01*
X8621583Y42052288D01*
X8528401Y42226620D01*
X8471020Y42415781D01*
X8456500Y42563207D01*
X8456500Y42756794D01*
X8471020Y42904220D01*
X8528401Y43093381D01*
X8621583Y43267712D01*
X8746985Y43420515D01*
X8899788Y43545917D01*
X9074120Y43639099D01*
X9263281Y43696480D01*
X9460000Y43715855D01*
X9656720Y43696480D01*
X9656720Y43696480D01*
G37*
G36*
X36196720Y43696480D02*
X36385881Y43639099D01*
X36560212Y43545917D01*
X36713015Y43420515D01*
X36838417Y43267712D01*
X36931599Y43093380D01*
X36988980Y42904219D01*
X37003500Y42756793D01*
X37003500Y42563206D01*
X36988980Y42415780D01*
X36931599Y42226619D01*
X36838417Y42052288D01*
X36713015Y41899485D01*
X36560212Y41774083D01*
X36385880Y41680901D01*
X36196719Y41623520D01*
X36000000Y41604145D01*
X35803280Y41623520D01*
X35614119Y41680901D01*
X35439788Y41774083D01*
X35286985Y41899485D01*
X35161583Y42052288D01*
X35068401Y42226620D01*
X35011020Y42415781D01*
X34996500Y42563207D01*
X34996500Y42756794D01*
X35011020Y42904220D01*
X35068401Y43093381D01*
X35161583Y43267712D01*
X35286985Y43420515D01*
X35439788Y43545917D01*
X35614120Y43639099D01*
X35803281Y43696480D01*
X36000000Y43715855D01*
X36196720Y43696480D01*
X36196720Y43696480D01*
G37*
G36*
X27543500Y41609000D02*
X25536500Y41609000D01*
X25536500Y43711000D01*
X27543500Y43711000D01*
X27543500Y41609000D01*
X27543500Y41609000D01*
G37*
G36*
X15543500Y41609000D02*
X13536500Y41609000D01*
X13536500Y43711000D01*
X15543500Y43711000D01*
X15543500Y41609000D01*
X15543500Y41609000D01*
G37*
G36*
X39543500Y41609000D02*
X37536500Y41609000D01*
X37536500Y43711000D01*
X39543500Y43711000D01*
X39543500Y41609000D01*
X39543500Y41609000D01*
G37*
G36*
X51543500Y41609000D02*
X49536500Y41609000D01*
X49536500Y43711000D01*
X51543500Y43711000D01*
X51543500Y41609000D01*
X51543500Y41609000D01*
G37*
G36*
X85251000Y42749000D02*
X82749000Y42749000D01*
X82749000Y45251000D01*
X85251000Y45251000D01*
X85251000Y42749000D01*
X85251000Y42749000D01*
G37*
G36*
X67251000Y42749000D02*
X64749000Y42749000D01*
X64749000Y45251000D01*
X67251000Y45251000D01*
X67251000Y42749000D01*
X67251000Y42749000D01*
G37*
G36*
X18584466Y44471435D02*
X18623137Y44459704D01*
X18658779Y44440652D01*
X18690017Y44415017D01*
X18715652Y44383779D01*
X18734704Y44348137D01*
X18746435Y44309466D01*
X18751000Y44263112D01*
X18751000Y43611888D01*
X18746435Y43565534D01*
X18734704Y43526863D01*
X18715652Y43491221D01*
X18690017Y43459983D01*
X18658779Y43434348D01*
X18623137Y43415296D01*
X18584466Y43403565D01*
X18538112Y43399000D01*
X17461888Y43399000D01*
X17415534Y43403565D01*
X17376863Y43415296D01*
X17341221Y43434348D01*
X17309983Y43459983D01*
X17284348Y43491221D01*
X17265296Y43526863D01*
X17253565Y43565534D01*
X17249000Y43611888D01*
X17249000Y44263112D01*
X17253565Y44309466D01*
X17265296Y44348137D01*
X17284348Y44383779D01*
X17309983Y44415017D01*
X17341221Y44440652D01*
X17376863Y44459704D01*
X17415534Y44471435D01*
X17461888Y44476000D01*
X18538112Y44476000D01*
X18584466Y44471435D01*
X18584466Y44471435D01*
G37*
G36*
X42584466Y44471435D02*
X42623137Y44459704D01*
X42658779Y44440652D01*
X42690017Y44415017D01*
X42715652Y44383779D01*
X42734704Y44348137D01*
X42746435Y44309466D01*
X42751000Y44263112D01*
X42751000Y43611888D01*
X42746435Y43565534D01*
X42734704Y43526863D01*
X42715652Y43491221D01*
X42690017Y43459983D01*
X42658779Y43434348D01*
X42623137Y43415296D01*
X42584466Y43403565D01*
X42538112Y43399000D01*
X41461888Y43399000D01*
X41415534Y43403565D01*
X41376863Y43415296D01*
X41341221Y43434348D01*
X41309983Y43459983D01*
X41284348Y43491221D01*
X41265296Y43526863D01*
X41253565Y43565534D01*
X41249000Y43611888D01*
X41249000Y44263112D01*
X41253565Y44309466D01*
X41265296Y44348137D01*
X41284348Y44383779D01*
X41309983Y44415017D01*
X41341221Y44440652D01*
X41376863Y44459704D01*
X41415534Y44471435D01*
X41461888Y44476000D01*
X42538112Y44476000D01*
X42584466Y44471435D01*
X42584466Y44471435D01*
G37*
G36*
X74301000Y49449000D02*
X73199000Y49449000D01*
X73199000Y50551000D01*
X74301000Y50551000D01*
X74301000Y49449000D01*
X74301000Y49449000D01*
G37*
G36*
X76801000Y49449000D02*
X75699000Y49449000D01*
X75699000Y50551000D01*
X76801000Y50551000D01*
X76801000Y49449000D01*
X76801000Y49449000D01*
G37*
G36*
X5548156Y59327206D02*
X6269140Y59183794D01*
X7060972Y58855807D01*
X7773601Y58379643D01*
X8379643Y57773601D01*
X8855807Y57060972D01*
X9183794Y56269140D01*
X9267715Y55847238D01*
X9351000Y55428537D01*
X9351000Y54571463D01*
X9336586Y54499000D01*
X9183794Y53730860D01*
X8855807Y52939028D01*
X8379643Y52226399D01*
X7773601Y51620357D01*
X7060972Y51144193D01*
X6269140Y50816206D01*
X5548156Y50672794D01*
X5428537Y50649000D01*
X4571463Y50649000D01*
X4451844Y50672794D01*
X3730860Y50816206D01*
X2939028Y51144193D01*
X2226399Y51620357D01*
X1620357Y52226399D01*
X1144193Y52939028D01*
X816206Y53730860D01*
X663414Y54499000D01*
X649000Y54571463D01*
X649000Y55428537D01*
X732285Y55847238D01*
X816206Y56269140D01*
X1144193Y57060972D01*
X1620357Y57773601D01*
X2226399Y58379643D01*
X2939028Y58855807D01*
X3730860Y59183794D01*
X4451844Y59327206D01*
X4571463Y59351000D01*
X5428537Y59351000D01*
X5548156Y59327206D01*
X5548156Y59327206D01*
G37*
G36*
X95548156Y59327206D02*
X96269140Y59183794D01*
X97060972Y58855807D01*
X97773601Y58379643D01*
X98379643Y57773601D01*
X98855807Y57060972D01*
X99183794Y56269140D01*
X99267715Y55847238D01*
X99351000Y55428537D01*
X99351000Y54571463D01*
X99336586Y54499000D01*
X99183794Y53730860D01*
X98855807Y52939028D01*
X98379643Y52226399D01*
X97773601Y51620357D01*
X97060972Y51144193D01*
X96269140Y50816206D01*
X95548156Y50672794D01*
X95428537Y50649000D01*
X94571463Y50649000D01*
X94451844Y50672794D01*
X93730860Y50816206D01*
X92939028Y51144193D01*
X92226399Y51620357D01*
X91620357Y52226399D01*
X91144193Y52939028D01*
X90816206Y53730860D01*
X90663414Y54499000D01*
X90649000Y54571463D01*
X90649000Y55428537D01*
X90732285Y55847238D01*
X90816206Y56269140D01*
X91144193Y57060972D01*
X91620357Y57773601D01*
X92226399Y58379643D01*
X92939028Y58855807D01*
X93730860Y59183794D01*
X94451844Y59327206D01*
X94571463Y59351000D01*
X95428537Y59351000D01*
X95548156Y59327206D01*
X95548156Y59327206D01*
G37*
G36*
X77897391Y54518253D02*
X78032410Y54491396D01*
X78314674Y54374479D01*
X78568705Y54204741D01*
X78784741Y53988705D01*
X78954479Y53734674D01*
X79035897Y53538112D01*
X79071396Y53452409D01*
X79121340Y53201328D01*
X79131000Y53152760D01*
X79131000Y52847240D01*
X79071396Y52547590D01*
X78954479Y52265326D01*
X78784741Y52011295D01*
X78568705Y51795259D01*
X78314674Y51625521D01*
X78032410Y51508604D01*
X77932527Y51488736D01*
X77732762Y51449000D01*
X77427238Y51449000D01*
X77227473Y51488736D01*
X77127590Y51508604D01*
X76845326Y51625521D01*
X76591295Y51795259D01*
X76375259Y52011295D01*
X76205521Y52265326D01*
X76088604Y52547590D01*
X76029000Y52847240D01*
X76029000Y53152760D01*
X76038661Y53201328D01*
X76088604Y53452409D01*
X76124103Y53538112D01*
X76205521Y53734674D01*
X76375259Y53988705D01*
X76591295Y54204741D01*
X76845326Y54374479D01*
X77127590Y54491396D01*
X77262609Y54518253D01*
X77427238Y54551000D01*
X77732762Y54551000D01*
X77897391Y54518253D01*
X77897391Y54518253D01*
G37*
G36*
X74051000Y51449000D02*
X70949000Y51449000D01*
X70949000Y54551000D01*
X74051000Y54551000D01*
X74051000Y51449000D01*
X74051000Y51449000D01*
G37*
G36*
X31309466Y53746435D02*
X31348137Y53734704D01*
X31383779Y53715652D01*
X31415017Y53690017D01*
X31440652Y53658779D01*
X31459704Y53623137D01*
X31471435Y53584466D01*
X31476000Y53538112D01*
X31476000Y52461888D01*
X31471435Y52415534D01*
X31459704Y52376863D01*
X31440652Y52341221D01*
X31415017Y52309983D01*
X31383779Y52284348D01*
X31348137Y52265296D01*
X31309466Y52253565D01*
X31263112Y52249000D01*
X30611888Y52249000D01*
X30565534Y52253565D01*
X30526863Y52265296D01*
X30491221Y52284348D01*
X30459983Y52309983D01*
X30434348Y52341221D01*
X30415296Y52376863D01*
X30403565Y52415534D01*
X30399000Y52461888D01*
X30399000Y53538112D01*
X30403565Y53584466D01*
X30415296Y53623137D01*
X30434348Y53658779D01*
X30459983Y53690017D01*
X30491221Y53715652D01*
X30526863Y53734704D01*
X30565534Y53746435D01*
X30611888Y53751000D01*
X31263112Y53751000D01*
X31309466Y53746435D01*
X31309466Y53746435D01*
G37*
G36*
X29434466Y53746435D02*
X29473137Y53734704D01*
X29508779Y53715652D01*
X29540017Y53690017D01*
X29565652Y53658779D01*
X29584704Y53623137D01*
X29596435Y53584466D01*
X29601000Y53538112D01*
X29601000Y52461888D01*
X29596435Y52415534D01*
X29584704Y52376863D01*
X29565652Y52341221D01*
X29540017Y52309983D01*
X29508779Y52284348D01*
X29473137Y52265296D01*
X29434466Y52253565D01*
X29388112Y52249000D01*
X28736888Y52249000D01*
X28690534Y52253565D01*
X28651863Y52265296D01*
X28616221Y52284348D01*
X28584983Y52309983D01*
X28559348Y52341221D01*
X28540296Y52376863D01*
X28528565Y52415534D01*
X28524000Y52461888D01*
X28524000Y53538112D01*
X28528565Y53584466D01*
X28540296Y53623137D01*
X28559348Y53658779D01*
X28584983Y53690017D01*
X28616221Y53715652D01*
X28651863Y53734704D01*
X28690534Y53746435D01*
X28736888Y53751000D01*
X29388112Y53751000D01*
X29434466Y53746435D01*
X29434466Y53746435D01*
G37*
G36*
X34051000Y54449000D02*
X30949000Y54449000D01*
X30949000Y57551000D01*
X34051000Y57551000D01*
X34051000Y54449000D01*
X34051000Y54449000D01*
G37*
G36*
X27740015Y57517731D02*
X27872410Y57491396D01*
X28154674Y57374479D01*
X28408705Y57204741D01*
X28624741Y56988705D01*
X28794479Y56734674D01*
X28911396Y56452410D01*
X28971000Y56152760D01*
X28971000Y55847240D01*
X28911396Y55547590D01*
X28794479Y55265326D01*
X28624741Y55011295D01*
X28408705Y54795259D01*
X28154674Y54625521D01*
X27872410Y54508604D01*
X27824127Y54499000D01*
X27572762Y54449000D01*
X27267238Y54449000D01*
X27015873Y54499000D01*
X26967590Y54508604D01*
X26685326Y54625521D01*
X26431295Y54795259D01*
X26215259Y55011295D01*
X26045521Y55265326D01*
X25928604Y55547590D01*
X25869000Y55847240D01*
X25869000Y56152760D01*
X25928604Y56452410D01*
X26045521Y56734674D01*
X26215259Y56988705D01*
X26431295Y57204741D01*
X26685326Y57374479D01*
X26967590Y57491396D01*
X27099985Y57517731D01*
X27267238Y57551000D01*
X27572762Y57551000D01*
X27740015Y57517731D01*
X27740015Y57517731D01*
G37*
M02*
