G04 #@! TF.GenerationSoftware,KiCad,Pcbnew,(5.0.1)-3*
G04 #@! TF.CreationDate,2019-12-30T10:06:07+01:00*
G04 #@! TF.ProjectId,TL494 Class D Amp,544C34393420436C617373204420416D,rev?*
G04 #@! TF.SameCoordinates,PX4c4b400PY8f0d180*
G04 #@! TF.FileFunction,Paste,Bot*
G04 #@! TF.FilePolarity,Positive*
%FSLAX46Y46*%
G04 Gerber Fmt 4.6, Leading zero omitted, Abs format (unit mm)*
G04 Created by KiCad (PCBNEW (5.0.1)-3) date 30/12/2019 10:06:07*
%MOMM*%
%LPD*%
G01*
G04 APERTURE LIST*
%ADD10C,0.050800*%
%ADD11C,0.975000*%
%ADD12R,1.000000X1.000000*%
G04 APERTURE END LIST*
D10*
G04 #@! TO.C,C12*
G36*
X34480142Y17423826D02*
X34503803Y17420316D01*
X34527007Y17414504D01*
X34549529Y17406446D01*
X34571153Y17396218D01*
X34591670Y17383921D01*
X34610883Y17369671D01*
X34628607Y17353607D01*
X34644671Y17335883D01*
X34658921Y17316670D01*
X34671218Y17296153D01*
X34681446Y17274529D01*
X34689504Y17252007D01*
X34695316Y17228803D01*
X34698826Y17205142D01*
X34700000Y17181250D01*
X34700000Y16693750D01*
X34698826Y16669858D01*
X34695316Y16646197D01*
X34689504Y16622993D01*
X34681446Y16600471D01*
X34671218Y16578847D01*
X34658921Y16558330D01*
X34644671Y16539117D01*
X34628607Y16521393D01*
X34610883Y16505329D01*
X34591670Y16491079D01*
X34571153Y16478782D01*
X34549529Y16468554D01*
X34527007Y16460496D01*
X34503803Y16454684D01*
X34480142Y16451174D01*
X34456250Y16450000D01*
X33543750Y16450000D01*
X33519858Y16451174D01*
X33496197Y16454684D01*
X33472993Y16460496D01*
X33450471Y16468554D01*
X33428847Y16478782D01*
X33408330Y16491079D01*
X33389117Y16505329D01*
X33371393Y16521393D01*
X33355329Y16539117D01*
X33341079Y16558330D01*
X33328782Y16578847D01*
X33318554Y16600471D01*
X33310496Y16622993D01*
X33304684Y16646197D01*
X33301174Y16669858D01*
X33300000Y16693750D01*
X33300000Y17181250D01*
X33301174Y17205142D01*
X33304684Y17228803D01*
X33310496Y17252007D01*
X33318554Y17274529D01*
X33328782Y17296153D01*
X33341079Y17316670D01*
X33355329Y17335883D01*
X33371393Y17353607D01*
X33389117Y17369671D01*
X33408330Y17383921D01*
X33428847Y17396218D01*
X33450471Y17406446D01*
X33472993Y17414504D01*
X33496197Y17420316D01*
X33519858Y17423826D01*
X33543750Y17425000D01*
X34456250Y17425000D01*
X34480142Y17423826D01*
X34480142Y17423826D01*
G37*
D11*
X34000000Y16937500D03*
D10*
G36*
X34480142Y15548826D02*
X34503803Y15545316D01*
X34527007Y15539504D01*
X34549529Y15531446D01*
X34571153Y15521218D01*
X34591670Y15508921D01*
X34610883Y15494671D01*
X34628607Y15478607D01*
X34644671Y15460883D01*
X34658921Y15441670D01*
X34671218Y15421153D01*
X34681446Y15399529D01*
X34689504Y15377007D01*
X34695316Y15353803D01*
X34698826Y15330142D01*
X34700000Y15306250D01*
X34700000Y14818750D01*
X34698826Y14794858D01*
X34695316Y14771197D01*
X34689504Y14747993D01*
X34681446Y14725471D01*
X34671218Y14703847D01*
X34658921Y14683330D01*
X34644671Y14664117D01*
X34628607Y14646393D01*
X34610883Y14630329D01*
X34591670Y14616079D01*
X34571153Y14603782D01*
X34549529Y14593554D01*
X34527007Y14585496D01*
X34503803Y14579684D01*
X34480142Y14576174D01*
X34456250Y14575000D01*
X33543750Y14575000D01*
X33519858Y14576174D01*
X33496197Y14579684D01*
X33472993Y14585496D01*
X33450471Y14593554D01*
X33428847Y14603782D01*
X33408330Y14616079D01*
X33389117Y14630329D01*
X33371393Y14646393D01*
X33355329Y14664117D01*
X33341079Y14683330D01*
X33328782Y14703847D01*
X33318554Y14725471D01*
X33310496Y14747993D01*
X33304684Y14771197D01*
X33301174Y14794858D01*
X33300000Y14818750D01*
X33300000Y15306250D01*
X33301174Y15330142D01*
X33304684Y15353803D01*
X33310496Y15377007D01*
X33318554Y15399529D01*
X33328782Y15421153D01*
X33341079Y15441670D01*
X33355329Y15460883D01*
X33371393Y15478607D01*
X33389117Y15494671D01*
X33408330Y15508921D01*
X33428847Y15521218D01*
X33450471Y15531446D01*
X33472993Y15539504D01*
X33496197Y15545316D01*
X33519858Y15548826D01*
X33543750Y15550000D01*
X34456250Y15550000D01*
X34480142Y15548826D01*
X34480142Y15548826D01*
G37*
D11*
X34000000Y15062500D03*
G04 #@! TD*
D10*
G04 #@! TO.C,C21*
G36*
X42480142Y42548826D02*
X42503803Y42545316D01*
X42527007Y42539504D01*
X42549529Y42531446D01*
X42571153Y42521218D01*
X42591670Y42508921D01*
X42610883Y42494671D01*
X42628607Y42478607D01*
X42644671Y42460883D01*
X42658921Y42441670D01*
X42671218Y42421153D01*
X42681446Y42399529D01*
X42689504Y42377007D01*
X42695316Y42353803D01*
X42698826Y42330142D01*
X42700000Y42306250D01*
X42700000Y41818750D01*
X42698826Y41794858D01*
X42695316Y41771197D01*
X42689504Y41747993D01*
X42681446Y41725471D01*
X42671218Y41703847D01*
X42658921Y41683330D01*
X42644671Y41664117D01*
X42628607Y41646393D01*
X42610883Y41630329D01*
X42591670Y41616079D01*
X42571153Y41603782D01*
X42549529Y41593554D01*
X42527007Y41585496D01*
X42503803Y41579684D01*
X42480142Y41576174D01*
X42456250Y41575000D01*
X41543750Y41575000D01*
X41519858Y41576174D01*
X41496197Y41579684D01*
X41472993Y41585496D01*
X41450471Y41593554D01*
X41428847Y41603782D01*
X41408330Y41616079D01*
X41389117Y41630329D01*
X41371393Y41646393D01*
X41355329Y41664117D01*
X41341079Y41683330D01*
X41328782Y41703847D01*
X41318554Y41725471D01*
X41310496Y41747993D01*
X41304684Y41771197D01*
X41301174Y41794858D01*
X41300000Y41818750D01*
X41300000Y42306250D01*
X41301174Y42330142D01*
X41304684Y42353803D01*
X41310496Y42377007D01*
X41318554Y42399529D01*
X41328782Y42421153D01*
X41341079Y42441670D01*
X41355329Y42460883D01*
X41371393Y42478607D01*
X41389117Y42494671D01*
X41408330Y42508921D01*
X41428847Y42521218D01*
X41450471Y42531446D01*
X41472993Y42539504D01*
X41496197Y42545316D01*
X41519858Y42548826D01*
X41543750Y42550000D01*
X42456250Y42550000D01*
X42480142Y42548826D01*
X42480142Y42548826D01*
G37*
D11*
X42000000Y42062500D03*
D10*
G36*
X42480142Y44423826D02*
X42503803Y44420316D01*
X42527007Y44414504D01*
X42549529Y44406446D01*
X42571153Y44396218D01*
X42591670Y44383921D01*
X42610883Y44369671D01*
X42628607Y44353607D01*
X42644671Y44335883D01*
X42658921Y44316670D01*
X42671218Y44296153D01*
X42681446Y44274529D01*
X42689504Y44252007D01*
X42695316Y44228803D01*
X42698826Y44205142D01*
X42700000Y44181250D01*
X42700000Y43693750D01*
X42698826Y43669858D01*
X42695316Y43646197D01*
X42689504Y43622993D01*
X42681446Y43600471D01*
X42671218Y43578847D01*
X42658921Y43558330D01*
X42644671Y43539117D01*
X42628607Y43521393D01*
X42610883Y43505329D01*
X42591670Y43491079D01*
X42571153Y43478782D01*
X42549529Y43468554D01*
X42527007Y43460496D01*
X42503803Y43454684D01*
X42480142Y43451174D01*
X42456250Y43450000D01*
X41543750Y43450000D01*
X41519858Y43451174D01*
X41496197Y43454684D01*
X41472993Y43460496D01*
X41450471Y43468554D01*
X41428847Y43478782D01*
X41408330Y43491079D01*
X41389117Y43505329D01*
X41371393Y43521393D01*
X41355329Y43539117D01*
X41341079Y43558330D01*
X41328782Y43578847D01*
X41318554Y43600471D01*
X41310496Y43622993D01*
X41304684Y43646197D01*
X41301174Y43669858D01*
X41300000Y43693750D01*
X41300000Y44181250D01*
X41301174Y44205142D01*
X41304684Y44228803D01*
X41310496Y44252007D01*
X41318554Y44274529D01*
X41328782Y44296153D01*
X41341079Y44316670D01*
X41355329Y44335883D01*
X41371393Y44353607D01*
X41389117Y44369671D01*
X41408330Y44383921D01*
X41428847Y44396218D01*
X41450471Y44406446D01*
X41472993Y44414504D01*
X41496197Y44420316D01*
X41519858Y44423826D01*
X41543750Y44425000D01*
X42456250Y44425000D01*
X42480142Y44423826D01*
X42480142Y44423826D01*
G37*
D11*
X42000000Y43937500D03*
G04 #@! TD*
D12*
G04 #@! TO.C,D1*
X73750000Y3000000D03*
X76250000Y3000000D03*
G04 #@! TD*
G04 #@! TO.C,D5*
X28000000Y17250000D03*
X28000000Y14750000D03*
G04 #@! TD*
G04 #@! TO.C,D6*
X73750000Y50000000D03*
X76250000Y50000000D03*
G04 #@! TD*
D10*
G04 #@! TO.C,R1*
G36*
X35330142Y8698826D02*
X35353803Y8695316D01*
X35377007Y8689504D01*
X35399529Y8681446D01*
X35421153Y8671218D01*
X35441670Y8658921D01*
X35460883Y8644671D01*
X35478607Y8628607D01*
X35494671Y8610883D01*
X35508921Y8591670D01*
X35521218Y8571153D01*
X35531446Y8549529D01*
X35539504Y8527007D01*
X35545316Y8503803D01*
X35548826Y8480142D01*
X35550000Y8456250D01*
X35550000Y7543750D01*
X35548826Y7519858D01*
X35545316Y7496197D01*
X35539504Y7472993D01*
X35531446Y7450471D01*
X35521218Y7428847D01*
X35508921Y7408330D01*
X35494671Y7389117D01*
X35478607Y7371393D01*
X35460883Y7355329D01*
X35441670Y7341079D01*
X35421153Y7328782D01*
X35399529Y7318554D01*
X35377007Y7310496D01*
X35353803Y7304684D01*
X35330142Y7301174D01*
X35306250Y7300000D01*
X34818750Y7300000D01*
X34794858Y7301174D01*
X34771197Y7304684D01*
X34747993Y7310496D01*
X34725471Y7318554D01*
X34703847Y7328782D01*
X34683330Y7341079D01*
X34664117Y7355329D01*
X34646393Y7371393D01*
X34630329Y7389117D01*
X34616079Y7408330D01*
X34603782Y7428847D01*
X34593554Y7450471D01*
X34585496Y7472993D01*
X34579684Y7496197D01*
X34576174Y7519858D01*
X34575000Y7543750D01*
X34575000Y8456250D01*
X34576174Y8480142D01*
X34579684Y8503803D01*
X34585496Y8527007D01*
X34593554Y8549529D01*
X34603782Y8571153D01*
X34616079Y8591670D01*
X34630329Y8610883D01*
X34646393Y8628607D01*
X34664117Y8644671D01*
X34683330Y8658921D01*
X34703847Y8671218D01*
X34725471Y8681446D01*
X34747993Y8689504D01*
X34771197Y8695316D01*
X34794858Y8698826D01*
X34818750Y8700000D01*
X35306250Y8700000D01*
X35330142Y8698826D01*
X35330142Y8698826D01*
G37*
D11*
X35062500Y8000000D03*
D10*
G36*
X37205142Y8698826D02*
X37228803Y8695316D01*
X37252007Y8689504D01*
X37274529Y8681446D01*
X37296153Y8671218D01*
X37316670Y8658921D01*
X37335883Y8644671D01*
X37353607Y8628607D01*
X37369671Y8610883D01*
X37383921Y8591670D01*
X37396218Y8571153D01*
X37406446Y8549529D01*
X37414504Y8527007D01*
X37420316Y8503803D01*
X37423826Y8480142D01*
X37425000Y8456250D01*
X37425000Y7543750D01*
X37423826Y7519858D01*
X37420316Y7496197D01*
X37414504Y7472993D01*
X37406446Y7450471D01*
X37396218Y7428847D01*
X37383921Y7408330D01*
X37369671Y7389117D01*
X37353607Y7371393D01*
X37335883Y7355329D01*
X37316670Y7341079D01*
X37296153Y7328782D01*
X37274529Y7318554D01*
X37252007Y7310496D01*
X37228803Y7304684D01*
X37205142Y7301174D01*
X37181250Y7300000D01*
X36693750Y7300000D01*
X36669858Y7301174D01*
X36646197Y7304684D01*
X36622993Y7310496D01*
X36600471Y7318554D01*
X36578847Y7328782D01*
X36558330Y7341079D01*
X36539117Y7355329D01*
X36521393Y7371393D01*
X36505329Y7389117D01*
X36491079Y7408330D01*
X36478782Y7428847D01*
X36468554Y7450471D01*
X36460496Y7472993D01*
X36454684Y7496197D01*
X36451174Y7519858D01*
X36450000Y7543750D01*
X36450000Y8456250D01*
X36451174Y8480142D01*
X36454684Y8503803D01*
X36460496Y8527007D01*
X36468554Y8549529D01*
X36478782Y8571153D01*
X36491079Y8591670D01*
X36505329Y8610883D01*
X36521393Y8628607D01*
X36539117Y8644671D01*
X36558330Y8658921D01*
X36578847Y8671218D01*
X36600471Y8681446D01*
X36622993Y8689504D01*
X36646197Y8695316D01*
X36669858Y8698826D01*
X36693750Y8700000D01*
X37181250Y8700000D01*
X37205142Y8698826D01*
X37205142Y8698826D01*
G37*
D11*
X36937500Y8000000D03*
G04 #@! TD*
D10*
G04 #@! TO.C,R2*
G36*
X35330142Y6698826D02*
X35353803Y6695316D01*
X35377007Y6689504D01*
X35399529Y6681446D01*
X35421153Y6671218D01*
X35441670Y6658921D01*
X35460883Y6644671D01*
X35478607Y6628607D01*
X35494671Y6610883D01*
X35508921Y6591670D01*
X35521218Y6571153D01*
X35531446Y6549529D01*
X35539504Y6527007D01*
X35545316Y6503803D01*
X35548826Y6480142D01*
X35550000Y6456250D01*
X35550000Y5543750D01*
X35548826Y5519858D01*
X35545316Y5496197D01*
X35539504Y5472993D01*
X35531446Y5450471D01*
X35521218Y5428847D01*
X35508921Y5408330D01*
X35494671Y5389117D01*
X35478607Y5371393D01*
X35460883Y5355329D01*
X35441670Y5341079D01*
X35421153Y5328782D01*
X35399529Y5318554D01*
X35377007Y5310496D01*
X35353803Y5304684D01*
X35330142Y5301174D01*
X35306250Y5300000D01*
X34818750Y5300000D01*
X34794858Y5301174D01*
X34771197Y5304684D01*
X34747993Y5310496D01*
X34725471Y5318554D01*
X34703847Y5328782D01*
X34683330Y5341079D01*
X34664117Y5355329D01*
X34646393Y5371393D01*
X34630329Y5389117D01*
X34616079Y5408330D01*
X34603782Y5428847D01*
X34593554Y5450471D01*
X34585496Y5472993D01*
X34579684Y5496197D01*
X34576174Y5519858D01*
X34575000Y5543750D01*
X34575000Y6456250D01*
X34576174Y6480142D01*
X34579684Y6503803D01*
X34585496Y6527007D01*
X34593554Y6549529D01*
X34603782Y6571153D01*
X34616079Y6591670D01*
X34630329Y6610883D01*
X34646393Y6628607D01*
X34664117Y6644671D01*
X34683330Y6658921D01*
X34703847Y6671218D01*
X34725471Y6681446D01*
X34747993Y6689504D01*
X34771197Y6695316D01*
X34794858Y6698826D01*
X34818750Y6700000D01*
X35306250Y6700000D01*
X35330142Y6698826D01*
X35330142Y6698826D01*
G37*
D11*
X35062500Y6000000D03*
D10*
G36*
X37205142Y6698826D02*
X37228803Y6695316D01*
X37252007Y6689504D01*
X37274529Y6681446D01*
X37296153Y6671218D01*
X37316670Y6658921D01*
X37335883Y6644671D01*
X37353607Y6628607D01*
X37369671Y6610883D01*
X37383921Y6591670D01*
X37396218Y6571153D01*
X37406446Y6549529D01*
X37414504Y6527007D01*
X37420316Y6503803D01*
X37423826Y6480142D01*
X37425000Y6456250D01*
X37425000Y5543750D01*
X37423826Y5519858D01*
X37420316Y5496197D01*
X37414504Y5472993D01*
X37406446Y5450471D01*
X37396218Y5428847D01*
X37383921Y5408330D01*
X37369671Y5389117D01*
X37353607Y5371393D01*
X37335883Y5355329D01*
X37316670Y5341079D01*
X37296153Y5328782D01*
X37274529Y5318554D01*
X37252007Y5310496D01*
X37228803Y5304684D01*
X37205142Y5301174D01*
X37181250Y5300000D01*
X36693750Y5300000D01*
X36669858Y5301174D01*
X36646197Y5304684D01*
X36622993Y5310496D01*
X36600471Y5318554D01*
X36578847Y5328782D01*
X36558330Y5341079D01*
X36539117Y5355329D01*
X36521393Y5371393D01*
X36505329Y5389117D01*
X36491079Y5408330D01*
X36478782Y5428847D01*
X36468554Y5450471D01*
X36460496Y5472993D01*
X36454684Y5496197D01*
X36451174Y5519858D01*
X36450000Y5543750D01*
X36450000Y6456250D01*
X36451174Y6480142D01*
X36454684Y6503803D01*
X36460496Y6527007D01*
X36468554Y6549529D01*
X36478782Y6571153D01*
X36491079Y6591670D01*
X36505329Y6610883D01*
X36521393Y6628607D01*
X36539117Y6644671D01*
X36558330Y6658921D01*
X36578847Y6671218D01*
X36600471Y6681446D01*
X36622993Y6689504D01*
X36646197Y6695316D01*
X36669858Y6698826D01*
X36693750Y6700000D01*
X37181250Y6700000D01*
X37205142Y6698826D01*
X37205142Y6698826D01*
G37*
D11*
X36937500Y6000000D03*
G04 #@! TD*
D10*
G04 #@! TO.C,R8*
G36*
X32480142Y17423826D02*
X32503803Y17420316D01*
X32527007Y17414504D01*
X32549529Y17406446D01*
X32571153Y17396218D01*
X32591670Y17383921D01*
X32610883Y17369671D01*
X32628607Y17353607D01*
X32644671Y17335883D01*
X32658921Y17316670D01*
X32671218Y17296153D01*
X32681446Y17274529D01*
X32689504Y17252007D01*
X32695316Y17228803D01*
X32698826Y17205142D01*
X32700000Y17181250D01*
X32700000Y16693750D01*
X32698826Y16669858D01*
X32695316Y16646197D01*
X32689504Y16622993D01*
X32681446Y16600471D01*
X32671218Y16578847D01*
X32658921Y16558330D01*
X32644671Y16539117D01*
X32628607Y16521393D01*
X32610883Y16505329D01*
X32591670Y16491079D01*
X32571153Y16478782D01*
X32549529Y16468554D01*
X32527007Y16460496D01*
X32503803Y16454684D01*
X32480142Y16451174D01*
X32456250Y16450000D01*
X31543750Y16450000D01*
X31519858Y16451174D01*
X31496197Y16454684D01*
X31472993Y16460496D01*
X31450471Y16468554D01*
X31428847Y16478782D01*
X31408330Y16491079D01*
X31389117Y16505329D01*
X31371393Y16521393D01*
X31355329Y16539117D01*
X31341079Y16558330D01*
X31328782Y16578847D01*
X31318554Y16600471D01*
X31310496Y16622993D01*
X31304684Y16646197D01*
X31301174Y16669858D01*
X31300000Y16693750D01*
X31300000Y17181250D01*
X31301174Y17205142D01*
X31304684Y17228803D01*
X31310496Y17252007D01*
X31318554Y17274529D01*
X31328782Y17296153D01*
X31341079Y17316670D01*
X31355329Y17335883D01*
X31371393Y17353607D01*
X31389117Y17369671D01*
X31408330Y17383921D01*
X31428847Y17396218D01*
X31450471Y17406446D01*
X31472993Y17414504D01*
X31496197Y17420316D01*
X31519858Y17423826D01*
X31543750Y17425000D01*
X32456250Y17425000D01*
X32480142Y17423826D01*
X32480142Y17423826D01*
G37*
D11*
X32000000Y16937500D03*
D10*
G36*
X32480142Y15548826D02*
X32503803Y15545316D01*
X32527007Y15539504D01*
X32549529Y15531446D01*
X32571153Y15521218D01*
X32591670Y15508921D01*
X32610883Y15494671D01*
X32628607Y15478607D01*
X32644671Y15460883D01*
X32658921Y15441670D01*
X32671218Y15421153D01*
X32681446Y15399529D01*
X32689504Y15377007D01*
X32695316Y15353803D01*
X32698826Y15330142D01*
X32700000Y15306250D01*
X32700000Y14818750D01*
X32698826Y14794858D01*
X32695316Y14771197D01*
X32689504Y14747993D01*
X32681446Y14725471D01*
X32671218Y14703847D01*
X32658921Y14683330D01*
X32644671Y14664117D01*
X32628607Y14646393D01*
X32610883Y14630329D01*
X32591670Y14616079D01*
X32571153Y14603782D01*
X32549529Y14593554D01*
X32527007Y14585496D01*
X32503803Y14579684D01*
X32480142Y14576174D01*
X32456250Y14575000D01*
X31543750Y14575000D01*
X31519858Y14576174D01*
X31496197Y14579684D01*
X31472993Y14585496D01*
X31450471Y14593554D01*
X31428847Y14603782D01*
X31408330Y14616079D01*
X31389117Y14630329D01*
X31371393Y14646393D01*
X31355329Y14664117D01*
X31341079Y14683330D01*
X31328782Y14703847D01*
X31318554Y14725471D01*
X31310496Y14747993D01*
X31304684Y14771197D01*
X31301174Y14794858D01*
X31300000Y14818750D01*
X31300000Y15306250D01*
X31301174Y15330142D01*
X31304684Y15353803D01*
X31310496Y15377007D01*
X31318554Y15399529D01*
X31328782Y15421153D01*
X31341079Y15441670D01*
X31355329Y15460883D01*
X31371393Y15478607D01*
X31389117Y15494671D01*
X31408330Y15508921D01*
X31428847Y15521218D01*
X31450471Y15531446D01*
X31472993Y15539504D01*
X31496197Y15545316D01*
X31519858Y15548826D01*
X31543750Y15550000D01*
X32456250Y15550000D01*
X32480142Y15548826D01*
X32480142Y15548826D01*
G37*
D11*
X32000000Y15062500D03*
G04 #@! TD*
D10*
G04 #@! TO.C,R9*
G36*
X26480142Y17423826D02*
X26503803Y17420316D01*
X26527007Y17414504D01*
X26549529Y17406446D01*
X26571153Y17396218D01*
X26591670Y17383921D01*
X26610883Y17369671D01*
X26628607Y17353607D01*
X26644671Y17335883D01*
X26658921Y17316670D01*
X26671218Y17296153D01*
X26681446Y17274529D01*
X26689504Y17252007D01*
X26695316Y17228803D01*
X26698826Y17205142D01*
X26700000Y17181250D01*
X26700000Y16693750D01*
X26698826Y16669858D01*
X26695316Y16646197D01*
X26689504Y16622993D01*
X26681446Y16600471D01*
X26671218Y16578847D01*
X26658921Y16558330D01*
X26644671Y16539117D01*
X26628607Y16521393D01*
X26610883Y16505329D01*
X26591670Y16491079D01*
X26571153Y16478782D01*
X26549529Y16468554D01*
X26527007Y16460496D01*
X26503803Y16454684D01*
X26480142Y16451174D01*
X26456250Y16450000D01*
X25543750Y16450000D01*
X25519858Y16451174D01*
X25496197Y16454684D01*
X25472993Y16460496D01*
X25450471Y16468554D01*
X25428847Y16478782D01*
X25408330Y16491079D01*
X25389117Y16505329D01*
X25371393Y16521393D01*
X25355329Y16539117D01*
X25341079Y16558330D01*
X25328782Y16578847D01*
X25318554Y16600471D01*
X25310496Y16622993D01*
X25304684Y16646197D01*
X25301174Y16669858D01*
X25300000Y16693750D01*
X25300000Y17181250D01*
X25301174Y17205142D01*
X25304684Y17228803D01*
X25310496Y17252007D01*
X25318554Y17274529D01*
X25328782Y17296153D01*
X25341079Y17316670D01*
X25355329Y17335883D01*
X25371393Y17353607D01*
X25389117Y17369671D01*
X25408330Y17383921D01*
X25428847Y17396218D01*
X25450471Y17406446D01*
X25472993Y17414504D01*
X25496197Y17420316D01*
X25519858Y17423826D01*
X25543750Y17425000D01*
X26456250Y17425000D01*
X26480142Y17423826D01*
X26480142Y17423826D01*
G37*
D11*
X26000000Y16937500D03*
D10*
G36*
X26480142Y15548826D02*
X26503803Y15545316D01*
X26527007Y15539504D01*
X26549529Y15531446D01*
X26571153Y15521218D01*
X26591670Y15508921D01*
X26610883Y15494671D01*
X26628607Y15478607D01*
X26644671Y15460883D01*
X26658921Y15441670D01*
X26671218Y15421153D01*
X26681446Y15399529D01*
X26689504Y15377007D01*
X26695316Y15353803D01*
X26698826Y15330142D01*
X26700000Y15306250D01*
X26700000Y14818750D01*
X26698826Y14794858D01*
X26695316Y14771197D01*
X26689504Y14747993D01*
X26681446Y14725471D01*
X26671218Y14703847D01*
X26658921Y14683330D01*
X26644671Y14664117D01*
X26628607Y14646393D01*
X26610883Y14630329D01*
X26591670Y14616079D01*
X26571153Y14603782D01*
X26549529Y14593554D01*
X26527007Y14585496D01*
X26503803Y14579684D01*
X26480142Y14576174D01*
X26456250Y14575000D01*
X25543750Y14575000D01*
X25519858Y14576174D01*
X25496197Y14579684D01*
X25472993Y14585496D01*
X25450471Y14593554D01*
X25428847Y14603782D01*
X25408330Y14616079D01*
X25389117Y14630329D01*
X25371393Y14646393D01*
X25355329Y14664117D01*
X25341079Y14683330D01*
X25328782Y14703847D01*
X25318554Y14725471D01*
X25310496Y14747993D01*
X25304684Y14771197D01*
X25301174Y14794858D01*
X25300000Y14818750D01*
X25300000Y15306250D01*
X25301174Y15330142D01*
X25304684Y15353803D01*
X25310496Y15377007D01*
X25318554Y15399529D01*
X25328782Y15421153D01*
X25341079Y15441670D01*
X25355329Y15460883D01*
X25371393Y15478607D01*
X25389117Y15494671D01*
X25408330Y15508921D01*
X25428847Y15521218D01*
X25450471Y15531446D01*
X25472993Y15539504D01*
X25496197Y15545316D01*
X25519858Y15548826D01*
X25543750Y15550000D01*
X26456250Y15550000D01*
X26480142Y15548826D01*
X26480142Y15548826D01*
G37*
D11*
X26000000Y15062500D03*
G04 #@! TD*
D10*
G04 #@! TO.C,C1*
G36*
X35330142Y4698826D02*
X35353803Y4695316D01*
X35377007Y4689504D01*
X35399529Y4681446D01*
X35421153Y4671218D01*
X35441670Y4658921D01*
X35460883Y4644671D01*
X35478607Y4628607D01*
X35494671Y4610883D01*
X35508921Y4591670D01*
X35521218Y4571153D01*
X35531446Y4549529D01*
X35539504Y4527007D01*
X35545316Y4503803D01*
X35548826Y4480142D01*
X35550000Y4456250D01*
X35550000Y3543750D01*
X35548826Y3519858D01*
X35545316Y3496197D01*
X35539504Y3472993D01*
X35531446Y3450471D01*
X35521218Y3428847D01*
X35508921Y3408330D01*
X35494671Y3389117D01*
X35478607Y3371393D01*
X35460883Y3355329D01*
X35441670Y3341079D01*
X35421153Y3328782D01*
X35399529Y3318554D01*
X35377007Y3310496D01*
X35353803Y3304684D01*
X35330142Y3301174D01*
X35306250Y3300000D01*
X34818750Y3300000D01*
X34794858Y3301174D01*
X34771197Y3304684D01*
X34747993Y3310496D01*
X34725471Y3318554D01*
X34703847Y3328782D01*
X34683330Y3341079D01*
X34664117Y3355329D01*
X34646393Y3371393D01*
X34630329Y3389117D01*
X34616079Y3408330D01*
X34603782Y3428847D01*
X34593554Y3450471D01*
X34585496Y3472993D01*
X34579684Y3496197D01*
X34576174Y3519858D01*
X34575000Y3543750D01*
X34575000Y4456250D01*
X34576174Y4480142D01*
X34579684Y4503803D01*
X34585496Y4527007D01*
X34593554Y4549529D01*
X34603782Y4571153D01*
X34616079Y4591670D01*
X34630329Y4610883D01*
X34646393Y4628607D01*
X34664117Y4644671D01*
X34683330Y4658921D01*
X34703847Y4671218D01*
X34725471Y4681446D01*
X34747993Y4689504D01*
X34771197Y4695316D01*
X34794858Y4698826D01*
X34818750Y4700000D01*
X35306250Y4700000D01*
X35330142Y4698826D01*
X35330142Y4698826D01*
G37*
D11*
X35062500Y4000000D03*
D10*
G36*
X37205142Y4698826D02*
X37228803Y4695316D01*
X37252007Y4689504D01*
X37274529Y4681446D01*
X37296153Y4671218D01*
X37316670Y4658921D01*
X37335883Y4644671D01*
X37353607Y4628607D01*
X37369671Y4610883D01*
X37383921Y4591670D01*
X37396218Y4571153D01*
X37406446Y4549529D01*
X37414504Y4527007D01*
X37420316Y4503803D01*
X37423826Y4480142D01*
X37425000Y4456250D01*
X37425000Y3543750D01*
X37423826Y3519858D01*
X37420316Y3496197D01*
X37414504Y3472993D01*
X37406446Y3450471D01*
X37396218Y3428847D01*
X37383921Y3408330D01*
X37369671Y3389117D01*
X37353607Y3371393D01*
X37335883Y3355329D01*
X37316670Y3341079D01*
X37296153Y3328782D01*
X37274529Y3318554D01*
X37252007Y3310496D01*
X37228803Y3304684D01*
X37205142Y3301174D01*
X37181250Y3300000D01*
X36693750Y3300000D01*
X36669858Y3301174D01*
X36646197Y3304684D01*
X36622993Y3310496D01*
X36600471Y3318554D01*
X36578847Y3328782D01*
X36558330Y3341079D01*
X36539117Y3355329D01*
X36521393Y3371393D01*
X36505329Y3389117D01*
X36491079Y3408330D01*
X36478782Y3428847D01*
X36468554Y3450471D01*
X36460496Y3472993D01*
X36454684Y3496197D01*
X36451174Y3519858D01*
X36450000Y3543750D01*
X36450000Y4456250D01*
X36451174Y4480142D01*
X36454684Y4503803D01*
X36460496Y4527007D01*
X36468554Y4549529D01*
X36478782Y4571153D01*
X36491079Y4591670D01*
X36505329Y4610883D01*
X36521393Y4628607D01*
X36539117Y4644671D01*
X36558330Y4658921D01*
X36578847Y4671218D01*
X36600471Y4681446D01*
X36622993Y4689504D01*
X36646197Y4695316D01*
X36669858Y4698826D01*
X36693750Y4700000D01*
X37181250Y4700000D01*
X37205142Y4698826D01*
X37205142Y4698826D01*
G37*
D11*
X36937500Y4000000D03*
G04 #@! TD*
D10*
G04 #@! TO.C,C9*
G36*
X12480142Y17423826D02*
X12503803Y17420316D01*
X12527007Y17414504D01*
X12549529Y17406446D01*
X12571153Y17396218D01*
X12591670Y17383921D01*
X12610883Y17369671D01*
X12628607Y17353607D01*
X12644671Y17335883D01*
X12658921Y17316670D01*
X12671218Y17296153D01*
X12681446Y17274529D01*
X12689504Y17252007D01*
X12695316Y17228803D01*
X12698826Y17205142D01*
X12700000Y17181250D01*
X12700000Y16693750D01*
X12698826Y16669858D01*
X12695316Y16646197D01*
X12689504Y16622993D01*
X12681446Y16600471D01*
X12671218Y16578847D01*
X12658921Y16558330D01*
X12644671Y16539117D01*
X12628607Y16521393D01*
X12610883Y16505329D01*
X12591670Y16491079D01*
X12571153Y16478782D01*
X12549529Y16468554D01*
X12527007Y16460496D01*
X12503803Y16454684D01*
X12480142Y16451174D01*
X12456250Y16450000D01*
X11543750Y16450000D01*
X11519858Y16451174D01*
X11496197Y16454684D01*
X11472993Y16460496D01*
X11450471Y16468554D01*
X11428847Y16478782D01*
X11408330Y16491079D01*
X11389117Y16505329D01*
X11371393Y16521393D01*
X11355329Y16539117D01*
X11341079Y16558330D01*
X11328782Y16578847D01*
X11318554Y16600471D01*
X11310496Y16622993D01*
X11304684Y16646197D01*
X11301174Y16669858D01*
X11300000Y16693750D01*
X11300000Y17181250D01*
X11301174Y17205142D01*
X11304684Y17228803D01*
X11310496Y17252007D01*
X11318554Y17274529D01*
X11328782Y17296153D01*
X11341079Y17316670D01*
X11355329Y17335883D01*
X11371393Y17353607D01*
X11389117Y17369671D01*
X11408330Y17383921D01*
X11428847Y17396218D01*
X11450471Y17406446D01*
X11472993Y17414504D01*
X11496197Y17420316D01*
X11519858Y17423826D01*
X11543750Y17425000D01*
X12456250Y17425000D01*
X12480142Y17423826D01*
X12480142Y17423826D01*
G37*
D11*
X12000000Y16937500D03*
D10*
G36*
X12480142Y15548826D02*
X12503803Y15545316D01*
X12527007Y15539504D01*
X12549529Y15531446D01*
X12571153Y15521218D01*
X12591670Y15508921D01*
X12610883Y15494671D01*
X12628607Y15478607D01*
X12644671Y15460883D01*
X12658921Y15441670D01*
X12671218Y15421153D01*
X12681446Y15399529D01*
X12689504Y15377007D01*
X12695316Y15353803D01*
X12698826Y15330142D01*
X12700000Y15306250D01*
X12700000Y14818750D01*
X12698826Y14794858D01*
X12695316Y14771197D01*
X12689504Y14747993D01*
X12681446Y14725471D01*
X12671218Y14703847D01*
X12658921Y14683330D01*
X12644671Y14664117D01*
X12628607Y14646393D01*
X12610883Y14630329D01*
X12591670Y14616079D01*
X12571153Y14603782D01*
X12549529Y14593554D01*
X12527007Y14585496D01*
X12503803Y14579684D01*
X12480142Y14576174D01*
X12456250Y14575000D01*
X11543750Y14575000D01*
X11519858Y14576174D01*
X11496197Y14579684D01*
X11472993Y14585496D01*
X11450471Y14593554D01*
X11428847Y14603782D01*
X11408330Y14616079D01*
X11389117Y14630329D01*
X11371393Y14646393D01*
X11355329Y14664117D01*
X11341079Y14683330D01*
X11328782Y14703847D01*
X11318554Y14725471D01*
X11310496Y14747993D01*
X11304684Y14771197D01*
X11301174Y14794858D01*
X11300000Y14818750D01*
X11300000Y15306250D01*
X11301174Y15330142D01*
X11304684Y15353803D01*
X11310496Y15377007D01*
X11318554Y15399529D01*
X11328782Y15421153D01*
X11341079Y15441670D01*
X11355329Y15460883D01*
X11371393Y15478607D01*
X11389117Y15494671D01*
X11408330Y15508921D01*
X11428847Y15521218D01*
X11450471Y15531446D01*
X11472993Y15539504D01*
X11496197Y15545316D01*
X11519858Y15548826D01*
X11543750Y15550000D01*
X12456250Y15550000D01*
X12480142Y15548826D01*
X12480142Y15548826D01*
G37*
D11*
X12000000Y15062500D03*
G04 #@! TD*
D10*
G04 #@! TO.C,C13*
G36*
X24480142Y17423826D02*
X24503803Y17420316D01*
X24527007Y17414504D01*
X24549529Y17406446D01*
X24571153Y17396218D01*
X24591670Y17383921D01*
X24610883Y17369671D01*
X24628607Y17353607D01*
X24644671Y17335883D01*
X24658921Y17316670D01*
X24671218Y17296153D01*
X24681446Y17274529D01*
X24689504Y17252007D01*
X24695316Y17228803D01*
X24698826Y17205142D01*
X24700000Y17181250D01*
X24700000Y16693750D01*
X24698826Y16669858D01*
X24695316Y16646197D01*
X24689504Y16622993D01*
X24681446Y16600471D01*
X24671218Y16578847D01*
X24658921Y16558330D01*
X24644671Y16539117D01*
X24628607Y16521393D01*
X24610883Y16505329D01*
X24591670Y16491079D01*
X24571153Y16478782D01*
X24549529Y16468554D01*
X24527007Y16460496D01*
X24503803Y16454684D01*
X24480142Y16451174D01*
X24456250Y16450000D01*
X23543750Y16450000D01*
X23519858Y16451174D01*
X23496197Y16454684D01*
X23472993Y16460496D01*
X23450471Y16468554D01*
X23428847Y16478782D01*
X23408330Y16491079D01*
X23389117Y16505329D01*
X23371393Y16521393D01*
X23355329Y16539117D01*
X23341079Y16558330D01*
X23328782Y16578847D01*
X23318554Y16600471D01*
X23310496Y16622993D01*
X23304684Y16646197D01*
X23301174Y16669858D01*
X23300000Y16693750D01*
X23300000Y17181250D01*
X23301174Y17205142D01*
X23304684Y17228803D01*
X23310496Y17252007D01*
X23318554Y17274529D01*
X23328782Y17296153D01*
X23341079Y17316670D01*
X23355329Y17335883D01*
X23371393Y17353607D01*
X23389117Y17369671D01*
X23408330Y17383921D01*
X23428847Y17396218D01*
X23450471Y17406446D01*
X23472993Y17414504D01*
X23496197Y17420316D01*
X23519858Y17423826D01*
X23543750Y17425000D01*
X24456250Y17425000D01*
X24480142Y17423826D01*
X24480142Y17423826D01*
G37*
D11*
X24000000Y16937500D03*
D10*
G36*
X24480142Y15548826D02*
X24503803Y15545316D01*
X24527007Y15539504D01*
X24549529Y15531446D01*
X24571153Y15521218D01*
X24591670Y15508921D01*
X24610883Y15494671D01*
X24628607Y15478607D01*
X24644671Y15460883D01*
X24658921Y15441670D01*
X24671218Y15421153D01*
X24681446Y15399529D01*
X24689504Y15377007D01*
X24695316Y15353803D01*
X24698826Y15330142D01*
X24700000Y15306250D01*
X24700000Y14818750D01*
X24698826Y14794858D01*
X24695316Y14771197D01*
X24689504Y14747993D01*
X24681446Y14725471D01*
X24671218Y14703847D01*
X24658921Y14683330D01*
X24644671Y14664117D01*
X24628607Y14646393D01*
X24610883Y14630329D01*
X24591670Y14616079D01*
X24571153Y14603782D01*
X24549529Y14593554D01*
X24527007Y14585496D01*
X24503803Y14579684D01*
X24480142Y14576174D01*
X24456250Y14575000D01*
X23543750Y14575000D01*
X23519858Y14576174D01*
X23496197Y14579684D01*
X23472993Y14585496D01*
X23450471Y14593554D01*
X23428847Y14603782D01*
X23408330Y14616079D01*
X23389117Y14630329D01*
X23371393Y14646393D01*
X23355329Y14664117D01*
X23341079Y14683330D01*
X23328782Y14703847D01*
X23318554Y14725471D01*
X23310496Y14747993D01*
X23304684Y14771197D01*
X23301174Y14794858D01*
X23300000Y14818750D01*
X23300000Y15306250D01*
X23301174Y15330142D01*
X23304684Y15353803D01*
X23310496Y15377007D01*
X23318554Y15399529D01*
X23328782Y15421153D01*
X23341079Y15441670D01*
X23355329Y15460883D01*
X23371393Y15478607D01*
X23389117Y15494671D01*
X23408330Y15508921D01*
X23428847Y15521218D01*
X23450471Y15531446D01*
X23472993Y15539504D01*
X23496197Y15545316D01*
X23519858Y15548826D01*
X23543750Y15550000D01*
X24456250Y15550000D01*
X24480142Y15548826D01*
X24480142Y15548826D01*
G37*
D11*
X24000000Y15062500D03*
G04 #@! TD*
D10*
G04 #@! TO.C,C22*
G36*
X18480142Y44423826D02*
X18503803Y44420316D01*
X18527007Y44414504D01*
X18549529Y44406446D01*
X18571153Y44396218D01*
X18591670Y44383921D01*
X18610883Y44369671D01*
X18628607Y44353607D01*
X18644671Y44335883D01*
X18658921Y44316670D01*
X18671218Y44296153D01*
X18681446Y44274529D01*
X18689504Y44252007D01*
X18695316Y44228803D01*
X18698826Y44205142D01*
X18700000Y44181250D01*
X18700000Y43693750D01*
X18698826Y43669858D01*
X18695316Y43646197D01*
X18689504Y43622993D01*
X18681446Y43600471D01*
X18671218Y43578847D01*
X18658921Y43558330D01*
X18644671Y43539117D01*
X18628607Y43521393D01*
X18610883Y43505329D01*
X18591670Y43491079D01*
X18571153Y43478782D01*
X18549529Y43468554D01*
X18527007Y43460496D01*
X18503803Y43454684D01*
X18480142Y43451174D01*
X18456250Y43450000D01*
X17543750Y43450000D01*
X17519858Y43451174D01*
X17496197Y43454684D01*
X17472993Y43460496D01*
X17450471Y43468554D01*
X17428847Y43478782D01*
X17408330Y43491079D01*
X17389117Y43505329D01*
X17371393Y43521393D01*
X17355329Y43539117D01*
X17341079Y43558330D01*
X17328782Y43578847D01*
X17318554Y43600471D01*
X17310496Y43622993D01*
X17304684Y43646197D01*
X17301174Y43669858D01*
X17300000Y43693750D01*
X17300000Y44181250D01*
X17301174Y44205142D01*
X17304684Y44228803D01*
X17310496Y44252007D01*
X17318554Y44274529D01*
X17328782Y44296153D01*
X17341079Y44316670D01*
X17355329Y44335883D01*
X17371393Y44353607D01*
X17389117Y44369671D01*
X17408330Y44383921D01*
X17428847Y44396218D01*
X17450471Y44406446D01*
X17472993Y44414504D01*
X17496197Y44420316D01*
X17519858Y44423826D01*
X17543750Y44425000D01*
X18456250Y44425000D01*
X18480142Y44423826D01*
X18480142Y44423826D01*
G37*
D11*
X18000000Y43937500D03*
D10*
G36*
X18480142Y42548826D02*
X18503803Y42545316D01*
X18527007Y42539504D01*
X18549529Y42531446D01*
X18571153Y42521218D01*
X18591670Y42508921D01*
X18610883Y42494671D01*
X18628607Y42478607D01*
X18644671Y42460883D01*
X18658921Y42441670D01*
X18671218Y42421153D01*
X18681446Y42399529D01*
X18689504Y42377007D01*
X18695316Y42353803D01*
X18698826Y42330142D01*
X18700000Y42306250D01*
X18700000Y41818750D01*
X18698826Y41794858D01*
X18695316Y41771197D01*
X18689504Y41747993D01*
X18681446Y41725471D01*
X18671218Y41703847D01*
X18658921Y41683330D01*
X18644671Y41664117D01*
X18628607Y41646393D01*
X18610883Y41630329D01*
X18591670Y41616079D01*
X18571153Y41603782D01*
X18549529Y41593554D01*
X18527007Y41585496D01*
X18503803Y41579684D01*
X18480142Y41576174D01*
X18456250Y41575000D01*
X17543750Y41575000D01*
X17519858Y41576174D01*
X17496197Y41579684D01*
X17472993Y41585496D01*
X17450471Y41593554D01*
X17428847Y41603782D01*
X17408330Y41616079D01*
X17389117Y41630329D01*
X17371393Y41646393D01*
X17355329Y41664117D01*
X17341079Y41683330D01*
X17328782Y41703847D01*
X17318554Y41725471D01*
X17310496Y41747993D01*
X17304684Y41771197D01*
X17301174Y41794858D01*
X17300000Y41818750D01*
X17300000Y42306250D01*
X17301174Y42330142D01*
X17304684Y42353803D01*
X17310496Y42377007D01*
X17318554Y42399529D01*
X17328782Y42421153D01*
X17341079Y42441670D01*
X17355329Y42460883D01*
X17371393Y42478607D01*
X17389117Y42494671D01*
X17408330Y42508921D01*
X17428847Y42521218D01*
X17450471Y42531446D01*
X17472993Y42539504D01*
X17496197Y42545316D01*
X17519858Y42548826D01*
X17543750Y42550000D01*
X18456250Y42550000D01*
X18480142Y42548826D01*
X18480142Y42548826D01*
G37*
D11*
X18000000Y42062500D03*
G04 #@! TD*
D12*
G04 #@! TO.C,D4*
X30000000Y17250000D03*
X30000000Y14750000D03*
G04 #@! TD*
D10*
G04 #@! TO.C,R18*
G36*
X31205142Y53698826D02*
X31228803Y53695316D01*
X31252007Y53689504D01*
X31274529Y53681446D01*
X31296153Y53671218D01*
X31316670Y53658921D01*
X31335883Y53644671D01*
X31353607Y53628607D01*
X31369671Y53610883D01*
X31383921Y53591670D01*
X31396218Y53571153D01*
X31406446Y53549529D01*
X31414504Y53527007D01*
X31420316Y53503803D01*
X31423826Y53480142D01*
X31425000Y53456250D01*
X31425000Y52543750D01*
X31423826Y52519858D01*
X31420316Y52496197D01*
X31414504Y52472993D01*
X31406446Y52450471D01*
X31396218Y52428847D01*
X31383921Y52408330D01*
X31369671Y52389117D01*
X31353607Y52371393D01*
X31335883Y52355329D01*
X31316670Y52341079D01*
X31296153Y52328782D01*
X31274529Y52318554D01*
X31252007Y52310496D01*
X31228803Y52304684D01*
X31205142Y52301174D01*
X31181250Y52300000D01*
X30693750Y52300000D01*
X30669858Y52301174D01*
X30646197Y52304684D01*
X30622993Y52310496D01*
X30600471Y52318554D01*
X30578847Y52328782D01*
X30558330Y52341079D01*
X30539117Y52355329D01*
X30521393Y52371393D01*
X30505329Y52389117D01*
X30491079Y52408330D01*
X30478782Y52428847D01*
X30468554Y52450471D01*
X30460496Y52472993D01*
X30454684Y52496197D01*
X30451174Y52519858D01*
X30450000Y52543750D01*
X30450000Y53456250D01*
X30451174Y53480142D01*
X30454684Y53503803D01*
X30460496Y53527007D01*
X30468554Y53549529D01*
X30478782Y53571153D01*
X30491079Y53591670D01*
X30505329Y53610883D01*
X30521393Y53628607D01*
X30539117Y53644671D01*
X30558330Y53658921D01*
X30578847Y53671218D01*
X30600471Y53681446D01*
X30622993Y53689504D01*
X30646197Y53695316D01*
X30669858Y53698826D01*
X30693750Y53700000D01*
X31181250Y53700000D01*
X31205142Y53698826D01*
X31205142Y53698826D01*
G37*
D11*
X30937500Y53000000D03*
D10*
G36*
X29330142Y53698826D02*
X29353803Y53695316D01*
X29377007Y53689504D01*
X29399529Y53681446D01*
X29421153Y53671218D01*
X29441670Y53658921D01*
X29460883Y53644671D01*
X29478607Y53628607D01*
X29494671Y53610883D01*
X29508921Y53591670D01*
X29521218Y53571153D01*
X29531446Y53549529D01*
X29539504Y53527007D01*
X29545316Y53503803D01*
X29548826Y53480142D01*
X29550000Y53456250D01*
X29550000Y52543750D01*
X29548826Y52519858D01*
X29545316Y52496197D01*
X29539504Y52472993D01*
X29531446Y52450471D01*
X29521218Y52428847D01*
X29508921Y52408330D01*
X29494671Y52389117D01*
X29478607Y52371393D01*
X29460883Y52355329D01*
X29441670Y52341079D01*
X29421153Y52328782D01*
X29399529Y52318554D01*
X29377007Y52310496D01*
X29353803Y52304684D01*
X29330142Y52301174D01*
X29306250Y52300000D01*
X28818750Y52300000D01*
X28794858Y52301174D01*
X28771197Y52304684D01*
X28747993Y52310496D01*
X28725471Y52318554D01*
X28703847Y52328782D01*
X28683330Y52341079D01*
X28664117Y52355329D01*
X28646393Y52371393D01*
X28630329Y52389117D01*
X28616079Y52408330D01*
X28603782Y52428847D01*
X28593554Y52450471D01*
X28585496Y52472993D01*
X28579684Y52496197D01*
X28576174Y52519858D01*
X28575000Y52543750D01*
X28575000Y53456250D01*
X28576174Y53480142D01*
X28579684Y53503803D01*
X28585496Y53527007D01*
X28593554Y53549529D01*
X28603782Y53571153D01*
X28616079Y53591670D01*
X28630329Y53610883D01*
X28646393Y53628607D01*
X28664117Y53644671D01*
X28683330Y53658921D01*
X28703847Y53671218D01*
X28725471Y53681446D01*
X28747993Y53689504D01*
X28771197Y53695316D01*
X28794858Y53698826D01*
X28818750Y53700000D01*
X29306250Y53700000D01*
X29330142Y53698826D01*
X29330142Y53698826D01*
G37*
D11*
X29062500Y53000000D03*
G04 #@! TD*
M02*
