M48
;DRILL file {KiCad (5.0.1)-3} date 30/12/2019 10:06:09
;FORMAT={-:-/ absolute / inch / decimal}
FMAT,2
INCH,TZ
T1C0.0236
T2C0.0315
T3C0.0433
T4C0.0472
T5C0.0598
T6C0.1693
%
G90
G05
M72
T1
X0.0787Y1.9685
X0.0787Y0.8268
X0.0787Y0.5118
X0.0787Y0.3937
X0.1575Y0.8268
X0.1575Y0.5118
X0.1969Y1.9291
X0.1969Y0.4331
X0.2362Y1.2992
X0.2756Y1.1417
X0.315Y1.9685
X0.3937Y2.2835
X0.3937Y2.0472
X0.3937Y0.7874
X0.3937Y0.0787
X0.4331Y2.1654
X0.4331Y1.1417
X0.4331Y0.1969
X0.4823Y0.6791
X0.5118Y0.5118
X0.5217Y0.7874
X0.5512Y2.0079
X0.5906Y0.9449
X0.6299Y2.0079
X0.6865Y1.063
X0.7087Y2.0079
X0.7087Y1.378
X0.748Y0.5118
X0.7874Y2.0079
X0.8661Y2.0079
X0.8661Y0.6299
X0.8661Y0.3543
X0.8661Y0.2756
X0.9154Y1.122
X0.9449Y1.4173
X1.0827Y0.7283
X1.1319Y0.7283
X1.1319Y0.5118
X1.1417Y0.9055
X1.1811Y1.6535
X1.1811Y1.5748
X1.1811Y1.4961
X1.1811Y1.4173
X1.1811Y1.3386
X1.1811Y0.7283
X1.1811Y0.5118
X1.2303Y0.7283
X1.2311Y0.8268
X1.2992Y0.0984
X1.3386Y0.8661
X1.3386Y0.7283
X1.4173Y0.5906
X1.4961Y2.0079
X1.5354Y0.9843
X1.5748Y2.0079
X1.6314Y1.063
X1.6535Y2.0079
X1.6535Y1.378
X1.7323Y2.0079
X1.811Y2.0079
X1.811Y0.7087
X1.811Y0.6299
X1.811Y0.5512
X1.811Y0.4724
X1.8602Y1.122
X1.8898Y1.4173
X1.9291Y0.6693
X1.9685Y0.8661
X2.0079Y2.2835
X2.0079Y2.2047
X2.0079Y2.126
X2.0079Y2.0472
X2.0079Y1.9685
X2.0472Y0.1181
X2.0866Y2.2835
X2.0866Y1.9685
X2.126Y1.6535
X2.126Y1.5748
X2.126Y1.4961
X2.126Y1.4173
X2.126Y1.3386
X2.126Y0.8661
X2.1654Y2.2835
X2.1654Y1.9685
X2.1654Y0.2362
X2.2441Y2.2835
X2.2441Y1.9685
X2.3228Y2.2835
X2.3228Y1.9685
X2.3228Y0.5906
X2.4016Y2.2835
X2.4016Y1.9685
X2.4803Y2.2835
X2.4803Y1.9685
X2.5591Y2.2835
X2.5591Y2.2047
X2.5591Y2.126
X2.5591Y2.0472
X2.5591Y1.9685
X2.8346Y1.5354
X2.8346Y1.4567
X2.8346Y1.378
X2.8346Y1.2992
X2.8346Y1.2205
X2.8346Y1.1417
X3.0709Y1.5354
X3.0709Y1.4567
X3.0709Y1.378
X3.0709Y1.2992
X3.0709Y1.2205
X3.0709Y1.1417
X3.5039Y2.1654
X3.5039Y0.1969
X3.5433Y2.2835
X3.5433Y2.0472
X3.5433Y0.315
X3.5433Y0.0787
X3.622Y1.9685
X3.622Y0.3937
X3.7402Y1.9291
X3.7402Y0.4331
X3.8583Y1.9685
X3.8583Y0.3937
X3.6132Y2.1654
X3.6504Y2.2551
X3.6504Y2.0756
X3.7402Y2.2923
X3.7402Y2.0384
X3.8299Y2.2551
X3.8299Y2.0756
X3.8671Y2.1654
X0.0699Y0.1969
X0.1071Y0.2866
X0.1071Y0.1071
X0.1969Y0.3238
X0.1969Y0.0699
X0.2866Y0.2866
X0.2866Y0.1071
X0.3238Y0.1969
X0.0699Y2.1654
X0.1071Y2.2551
X0.1071Y2.0756
X0.1969Y2.2923
X0.1969Y2.0384
X0.2866Y2.2551
X0.2866Y2.0756
X0.3238Y2.1654
X3.6132Y0.1969
X3.6504Y0.2866
X3.6504Y0.1071
X3.7402Y0.3238
X3.7402Y0.0699
X3.8299Y0.2866
X3.8299Y0.1071
X3.8671Y0.1969
T2
X0.5512Y0.3543
X0.6512Y0.3543
X0.7512Y0.3543
X1.2992Y1.4961
X1.2992Y1.4173
X0.3543Y1.4961
X0.3543Y1.4173
X0.5118Y0.1181
X0.5906Y0.1181
X1.1811Y1.1024
X1.1811Y1.0236
X0.7874Y0.1181
X0.8661Y0.1181
X0.7087Y0.748
X0.7087Y0.6693
X1.5354Y0.1181
X1.6142Y0.1181
T3
X2.6512Y0.3362
X2.6512Y0.2362
X2.6512Y0.1362
X2.4669Y0.3362
X2.4669Y0.2362
X2.4669Y0.1362
X1.7898Y1.6795
X1.8898Y1.6795
X1.9898Y1.6795
X0.8449Y1.6795
X0.9449Y1.6795
X1.0449Y1.6795
X1.3173Y1.6795
X1.4173Y1.6795
X1.5173Y1.6795
X0.3724Y1.6795
X0.4724Y1.6795
X0.5724Y1.6795
T4
X2.5984Y1.0236
X2.5984Y0.7283
X3.3071Y1.0236
X3.3071Y0.7283
X3.3071Y1.7323
X3.3071Y1.437
X2.5984Y1.7323
X2.5984Y1.437
T5
X1.0827Y0.2756
X1.2827Y0.2756
X1.0795Y2.2047
X1.2795Y2.2047
X2.8543Y0.2756
X3.0543Y0.2756
X2.8543Y2.0866
X3.0543Y2.0866
T6
X3.7402Y2.1654
X0.1969Y0.1969
X0.1969Y2.1654
X3.7402Y0.1969
T0
M30
