G04 #@! TF.GenerationSoftware,KiCad,Pcbnew,(5.0.1)-3*
G04 #@! TF.CreationDate,2019-12-30T10:06:07+01:00*
G04 #@! TF.ProjectId,TL494 Class D Amp,544C34393420436C617373204420416D,rev?*
G04 #@! TF.SameCoordinates,PX4c4b400PY8f0d180*
G04 #@! TF.FileFunction,Soldermask,Top*
G04 #@! TF.FilePolarity,Negative*
%FSLAX46Y46*%
G04 Gerber Fmt 4.6, Leading zero omitted, Abs format (unit mm)*
G04 Created by KiCad (PCBNEW (5.0.1)-3) date 30/12/2019 10:06:07*
%MOMM*%
%LPD*%
G01*
G04 APERTURE LIST*
%ADD10C,1.778000*%
%ADD11C,1.270000*%
%ADD12C,0.010000*%
%ADD13C,0.050800*%
G04 APERTURE END LIST*
D10*
X27000000Y50000000D02*
X27000000Y55000000D01*
X28000000Y49000000D02*
X27000000Y50000000D01*
X33000000Y50000000D02*
X33000000Y56000000D01*
X33000000Y50000000D02*
X32000000Y49000000D01*
X26000000Y55000000D02*
X27000000Y56000000D01*
X18000000Y55000000D02*
X26000000Y55000000D01*
X34000000Y55000000D02*
X33000000Y56000000D01*
X42000000Y55000000D02*
X34000000Y55000000D01*
D11*
X48000000Y45000000D02*
X48000000Y42500000D01*
X46000000Y47000000D02*
X48000000Y45000000D01*
X35500000Y47000000D02*
X46000000Y47000000D01*
X33500000Y45000000D02*
X35500000Y47000000D01*
X33500000Y42500000D02*
X33500000Y45000000D01*
X24000000Y45000000D02*
X24000000Y42500000D01*
X22000000Y47000000D02*
X24000000Y45000000D01*
X11500000Y47000000D02*
X22000000Y47000000D01*
X9500000Y45000000D02*
X11500000Y47000000D01*
X9500000Y42500000D02*
X9500000Y45000000D01*
D12*
G04 #@! TO.C,G\002A\002A\002A*
G36*
X55955940Y55055435D02*
X56016340Y55020483D01*
X56034108Y55006302D01*
X56086409Y54942119D01*
X56111007Y54864971D01*
X56108540Y54780437D01*
X56079643Y54694096D01*
X56024953Y54611527D01*
X55984325Y54569935D01*
X55914587Y54514400D01*
X55846998Y54479446D01*
X55767367Y54458793D01*
X55717140Y54451697D01*
X55661728Y54450279D01*
X55636745Y54462563D01*
X55636086Y54464026D01*
X55637298Y54493557D01*
X55651050Y54546947D01*
X55674724Y54617769D01*
X55705698Y54699599D01*
X55741352Y54786011D01*
X55779066Y54870581D01*
X55816219Y54946883D01*
X55850191Y55008492D01*
X55870848Y55039664D01*
X55906503Y55062020D01*
X55955940Y55055435D01*
X55955940Y55055435D01*
G37*
X55955940Y55055435D02*
X56016340Y55020483D01*
X56034108Y55006302D01*
X56086409Y54942119D01*
X56111007Y54864971D01*
X56108540Y54780437D01*
X56079643Y54694096D01*
X56024953Y54611527D01*
X55984325Y54569935D01*
X55914587Y54514400D01*
X55846998Y54479446D01*
X55767367Y54458793D01*
X55717140Y54451697D01*
X55661728Y54450279D01*
X55636745Y54462563D01*
X55636086Y54464026D01*
X55637298Y54493557D01*
X55651050Y54546947D01*
X55674724Y54617769D01*
X55705698Y54699599D01*
X55741352Y54786011D01*
X55779066Y54870581D01*
X55816219Y54946883D01*
X55850191Y55008492D01*
X55870848Y55039664D01*
X55906503Y55062020D01*
X55955940Y55055435D01*
G36*
X56869427Y56589433D02*
X56984337Y56565317D01*
X57113862Y56527537D01*
X57219998Y56482534D01*
X57313161Y56425119D01*
X57388243Y56364192D01*
X57421526Y56329874D01*
X57461001Y56282665D01*
X57500543Y56230825D01*
X57534026Y56182612D01*
X57555325Y56146285D01*
X57559733Y56132978D01*
X57574084Y56121293D01*
X57606300Y56123488D01*
X57774931Y56151208D01*
X57932708Y56161599D01*
X58090795Y56154441D01*
X58260354Y56129518D01*
X58359909Y56108755D01*
X58505928Y56071350D01*
X58628653Y56028994D01*
X58738651Y55977212D01*
X58846491Y55911527D01*
X58879889Y55888521D01*
X59012130Y55787338D01*
X59120255Y55685604D01*
X59213057Y55574775D01*
X59237301Y55541225D01*
X59307165Y55441627D01*
X59411349Y55579918D01*
X59533836Y55727751D01*
X59670151Y55866429D01*
X59814020Y55990625D01*
X59959169Y56095009D01*
X60099326Y56174255D01*
X60125096Y56186128D01*
X60214818Y56220005D01*
X60326146Y56253306D01*
X60449006Y56283809D01*
X60573324Y56309293D01*
X60689025Y56327537D01*
X60786036Y56336318D01*
X60808244Y56336778D01*
X60909597Y56330711D01*
X61028435Y56314224D01*
X61151969Y56289845D01*
X61267411Y56260103D01*
X61361970Y56227529D01*
X61363177Y56227026D01*
X61416811Y56199580D01*
X61483997Y56158203D01*
X61555076Y56109640D01*
X61620389Y56060635D01*
X61670279Y56017932D01*
X61685866Y56001706D01*
X61700814Y55985516D01*
X61717367Y55973871D01*
X61741131Y55965879D01*
X61777712Y55960649D01*
X61832714Y55957290D01*
X61911744Y55954908D01*
X61990666Y55953218D01*
X62133727Y55949051D01*
X62252023Y55942130D01*
X62354622Y55931149D01*
X62450596Y55914803D01*
X62549014Y55891787D01*
X62658946Y55860797D01*
X62682735Y55853642D01*
X62786471Y55819846D01*
X62870288Y55785969D01*
X62947577Y55745831D01*
X63031731Y55693251D01*
X63035079Y55691035D01*
X63129971Y55626274D01*
X63203544Y55570586D01*
X63263987Y55516428D01*
X63319492Y55456258D01*
X63378249Y55382532D01*
X63396716Y55358008D01*
X63503388Y55188515D01*
X63580717Y55006703D01*
X63627199Y54817081D01*
X63641350Y54626285D01*
X63633985Y54521151D01*
X63615738Y54402683D01*
X63589167Y54282197D01*
X63556832Y54171010D01*
X63521290Y54080438D01*
X63515079Y54067839D01*
X63476032Y53991745D01*
X63548768Y53896103D01*
X63592902Y53831073D01*
X63624307Y53764820D01*
X63649520Y53682811D01*
X63655433Y53658931D01*
X63680327Y53529426D01*
X63687432Y53412857D01*
X63676738Y53294354D01*
X63655133Y53187200D01*
X63607246Y53049587D01*
X63528470Y52910696D01*
X63418266Y52769921D01*
X63276094Y52626652D01*
X63101412Y52480281D01*
X62893680Y52330200D01*
X62893617Y52330158D01*
X62754653Y52240168D01*
X62624500Y52165961D01*
X62494896Y52104032D01*
X62357579Y52050878D01*
X62204288Y52002995D01*
X62026761Y51956879D01*
X61996267Y51949599D01*
X61882846Y51923568D01*
X61792956Y51905256D01*
X61717475Y51893380D01*
X61647283Y51886660D01*
X61573262Y51883816D01*
X61525142Y51883437D01*
X61358655Y51892356D01*
X61178293Y51917660D01*
X60994518Y51956920D01*
X60817792Y52007704D01*
X60658579Y52067581D01*
X60585941Y52101628D01*
X60520078Y52140019D01*
X60438403Y52194696D01*
X60349959Y52258945D01*
X60263792Y52326052D01*
X60188948Y52389302D01*
X60152358Y52423476D01*
X60099324Y52480927D01*
X60036883Y52556338D01*
X59970666Y52642058D01*
X59906304Y52730430D01*
X59849427Y52813803D01*
X59805665Y52884523D01*
X59786723Y52920500D01*
X59766043Y52959815D01*
X59749833Y52981727D01*
X59746437Y52983398D01*
X59732459Y52970304D01*
X59703891Y52935674D01*
X59665668Y52885646D01*
X59643297Y52855144D01*
X59529743Y52715052D01*
X59393767Y52575085D01*
X59241504Y52439885D01*
X59079094Y52314096D01*
X58912673Y52202360D01*
X58748377Y52109319D01*
X58592346Y52039617D01*
X58541866Y52021930D01*
X58376247Y51972320D01*
X58233423Y51938717D01*
X58106671Y51920526D01*
X57989269Y51917153D01*
X57874494Y51928004D01*
X57755939Y51952403D01*
X57596534Y52007079D01*
X57462169Y52084514D01*
X57352536Y52185012D01*
X57267323Y52308878D01*
X57206221Y52456414D01*
X57192969Y52503661D01*
X57152505Y52663014D01*
X57188377Y52815809D01*
X57210735Y52898262D01*
X57238208Y52981350D01*
X57265735Y53050126D01*
X57272465Y53064192D01*
X57300679Y53124647D01*
X57310508Y53161728D01*
X57301576Y53180745D01*
X57273509Y53187006D01*
X57263761Y53187200D01*
X57238334Y53181730D01*
X57219170Y53160281D01*
X57200394Y53115291D01*
X57194686Y53098300D01*
X57136609Y52957569D01*
X57053711Y52809259D01*
X56951168Y52661511D01*
X56834157Y52522466D01*
X56816826Y52504064D01*
X56750508Y52441856D01*
X56666658Y52373759D01*
X56573535Y52305519D01*
X56479395Y52242880D01*
X56392496Y52191588D01*
X56321093Y52157388D01*
X56315587Y52155300D01*
X56224311Y52125049D01*
X56120858Y52096156D01*
X56014554Y52070722D01*
X55914726Y52050847D01*
X55830700Y52038630D01*
X55784743Y52035755D01*
X55723417Y52040431D01*
X55639807Y52053044D01*
X55543958Y52071444D01*
X55445914Y52093478D01*
X55355720Y52116993D01*
X55283420Y52139839D01*
X55264139Y52147304D01*
X55209008Y52173612D01*
X55158994Y52202645D01*
X55151955Y52207453D01*
X55106377Y52239832D01*
X54974155Y52133451D01*
X54806499Y52007477D01*
X54644427Y51905796D01*
X54479700Y51824734D01*
X54304078Y51760618D01*
X54109322Y51709775D01*
X53957565Y51680177D01*
X53820736Y51659683D01*
X53703953Y51650313D01*
X53595412Y51651684D01*
X53483305Y51663412D01*
X53475542Y51664534D01*
X53350110Y51686740D01*
X53223345Y51715935D01*
X53105441Y51749384D01*
X53006595Y51784356D01*
X52971477Y51799659D01*
X52811189Y51889610D01*
X52655283Y52003541D01*
X52513018Y52133716D01*
X52393652Y52272396D01*
X52374936Y52298200D01*
X52314043Y52389024D01*
X52268279Y52469684D01*
X52232623Y52551483D01*
X52202053Y52645725D01*
X52175653Y52746768D01*
X52144835Y52893111D01*
X52128518Y53027012D01*
X52127541Y53124745D01*
X52685751Y53124745D01*
X52694619Y52964984D01*
X52730435Y52812007D01*
X52788828Y52680529D01*
X52872068Y52563967D01*
X52981395Y52455663D01*
X53109101Y52361657D01*
X53247479Y52287987D01*
X53329332Y52257038D01*
X53441597Y52231668D01*
X53575545Y52218324D01*
X53721143Y52217144D01*
X53868362Y52228269D01*
X53989102Y52247884D01*
X54193648Y52308036D01*
X54388951Y52399775D01*
X54573183Y52521645D01*
X54744514Y52672190D01*
X54901116Y52849951D01*
X55041158Y53053471D01*
X55077002Y53114606D01*
X55139532Y53230620D01*
X55207860Y53366677D01*
X55277437Y53512964D01*
X55343716Y53659664D01*
X55402148Y53796964D01*
X55448185Y53915047D01*
X55449082Y53917516D01*
X55506658Y54076200D01*
X55628064Y54073842D01*
X55746924Y54060936D01*
X55840395Y54026808D01*
X55910119Y53970644D01*
X55946833Y53915521D01*
X55979116Y53821992D01*
X55978422Y53730274D01*
X55953104Y53652166D01*
X55916105Y53591427D01*
X55867627Y53539368D01*
X55816268Y53503704D01*
X55774592Y53492000D01*
X55727396Y53507759D01*
X55689453Y53550788D01*
X55666099Y53614720D01*
X55664564Y53623289D01*
X55654415Y53665580D01*
X55635397Y53684936D01*
X55597566Y53692184D01*
X55543001Y53681351D01*
X55484687Y53642037D01*
X55425987Y53578873D01*
X55370264Y53496489D01*
X55320879Y53399517D01*
X55281195Y53292586D01*
X55265612Y53235016D01*
X55246350Y53135114D01*
X55241818Y53052259D01*
X55252044Y52972989D01*
X55266222Y52918331D01*
X55313689Y52813663D01*
X55385854Y52728306D01*
X55478914Y52663279D01*
X55589066Y52619603D01*
X55712505Y52598297D01*
X55845430Y52600380D01*
X55984035Y52626871D01*
X56124518Y52678791D01*
X56137333Y52684846D01*
X56208012Y52725109D01*
X56282763Y52781084D01*
X56368144Y52857876D01*
X56401695Y52890557D01*
X56474622Y52965077D01*
X56528559Y53027032D01*
X56570460Y53085621D01*
X56607278Y53150047D01*
X56625893Y53187200D01*
X56684212Y53320480D01*
X56722102Y53442337D01*
X56742722Y53565647D01*
X56749137Y53689255D01*
X56743565Y53819916D01*
X56722529Y53926226D01*
X56684198Y54014836D01*
X56643404Y54073187D01*
X56599968Y54116261D01*
X56542901Y54160312D01*
X56481819Y54199197D01*
X56426337Y54226773D01*
X56387100Y54236908D01*
X56362041Y54248927D01*
X56357467Y54262467D01*
X56371461Y54283414D01*
X56389555Y54287867D01*
X56418727Y54295198D01*
X56468739Y54314744D01*
X56530521Y54342835D01*
X56554306Y54354538D01*
X56614297Y54383565D01*
X56661894Y54404484D01*
X56689844Y54414199D01*
X56694024Y54414153D01*
X56700399Y54394804D01*
X56709183Y54352705D01*
X56715130Y54317849D01*
X56730088Y54257340D01*
X56756081Y54182921D01*
X56787614Y54110240D01*
X56789125Y54107161D01*
X56869031Y53979875D01*
X56968525Y53878794D01*
X57084757Y53804754D01*
X57214877Y53758592D01*
X57356036Y53741144D01*
X57505384Y53753249D01*
X57660071Y53795742D01*
X57738140Y53828465D01*
X57828077Y53879280D01*
X57909413Y53941460D01*
X57976881Y54009437D01*
X58025216Y54077645D01*
X58049153Y54140518D01*
X58050800Y54158983D01*
X58037549Y54200516D01*
X57999996Y54220846D01*
X57941440Y54218394D01*
X57931492Y54216077D01*
X57882506Y54206942D01*
X57848423Y54212550D01*
X57816721Y54232161D01*
X57785159Y54264516D01*
X57769978Y54308581D01*
X57766340Y54342124D01*
X57765977Y54391819D01*
X57777665Y54425677D01*
X57808071Y54459222D01*
X57821963Y54471654D01*
X57891700Y54513658D01*
X57965479Y54525096D01*
X58038229Y54508019D01*
X58104879Y54464478D01*
X58160358Y54396524D01*
X58195061Y54320747D01*
X58212788Y54239230D01*
X58221364Y54135577D01*
X58220580Y54020318D01*
X58210230Y53903981D01*
X58204070Y53863563D01*
X58178798Y53740775D01*
X58144109Y53615973D01*
X58098155Y53484532D01*
X58039086Y53341828D01*
X57965054Y53183235D01*
X57874210Y53004127D01*
X57818631Y52899334D01*
X57770831Y52807378D01*
X57739630Y52738159D01*
X57723669Y52685703D01*
X57721589Y52644033D01*
X57732032Y52607173D01*
X57746200Y52580815D01*
X57790751Y52530150D01*
X57853823Y52497039D01*
X57940098Y52479708D01*
X58023072Y52476000D01*
X58174904Y52491442D01*
X58334924Y52536039D01*
X58499530Y52607200D01*
X58665117Y52702333D01*
X58828083Y52818846D01*
X58984825Y52954146D01*
X59131739Y53105642D01*
X59265222Y53270742D01*
X59381671Y53446854D01*
X59388207Y53458005D01*
X59415476Y53505778D01*
X59455527Y53577136D01*
X59504939Y53665925D01*
X59560291Y53765992D01*
X59618162Y53871182D01*
X59638893Y53909008D01*
X59772684Y54149069D01*
X59895056Y54359142D01*
X60007201Y54540668D01*
X60110312Y54695090D01*
X60205580Y54823851D01*
X60294196Y54928394D01*
X60377353Y55010160D01*
X60456242Y55070593D01*
X60532055Y55111135D01*
X60605984Y55133228D01*
X60654560Y55138412D01*
X60695625Y55134422D01*
X60750673Y55122374D01*
X60810616Y55105192D01*
X60866365Y55085800D01*
X60908831Y55067124D01*
X60928926Y55052085D01*
X60929467Y55049967D01*
X60917309Y55034446D01*
X60884662Y55002890D01*
X60837263Y54960688D01*
X60806700Y54934652D01*
X60664558Y54801097D01*
X60533617Y54650380D01*
X60420183Y54490783D01*
X60330563Y54330587D01*
X60307119Y54278600D01*
X60253177Y54132744D01*
X60217882Y53990798D01*
X60198970Y53840725D01*
X60194122Y53678267D01*
X60195476Y53578772D01*
X60199082Y53503586D01*
X60206145Y53443167D01*
X60217871Y53387972D01*
X60235466Y53328460D01*
X60240125Y53314200D01*
X60306487Y53159634D01*
X60401065Y53007073D01*
X60518699Y52864273D01*
X60580119Y52803076D01*
X60732606Y52680558D01*
X60899963Y52585050D01*
X61085759Y52514896D01*
X61293563Y52468445D01*
X61306802Y52466376D01*
X61513122Y52451257D01*
X61727523Y52466296D01*
X61945949Y52510036D01*
X62164342Y52581020D01*
X62378644Y52677788D01*
X62584800Y52798884D01*
X62778752Y52942850D01*
X62878664Y53031168D01*
X62972970Y53124465D01*
X63042469Y53204716D01*
X63090887Y53277119D01*
X63121951Y53346872D01*
X63132983Y53385966D01*
X63139617Y53470356D01*
X63117129Y53538085D01*
X63065931Y53588244D01*
X63033556Y53604876D01*
X62987393Y53618632D01*
X62935386Y53621668D01*
X62872363Y53612993D01*
X62793154Y53591619D01*
X62692587Y53556556D01*
X62606026Y53523063D01*
X62502556Y53483669D01*
X62420110Y53456834D01*
X62349400Y53440012D01*
X62281137Y53430655D01*
X62263783Y53429215D01*
X62098412Y53429996D01*
X61951887Y53458554D01*
X61823193Y53515236D01*
X61711316Y53600388D01*
X61685700Y53626332D01*
X61622958Y53700497D01*
X61578919Y53772484D01*
X61550185Y53851386D01*
X61533360Y53946295D01*
X61525497Y54055113D01*
X61527854Y54215412D01*
X61550773Y54352644D01*
X61595953Y54471873D01*
X61665097Y54578160D01*
X61722507Y54641529D01*
X61774299Y54686308D01*
X61838286Y54732302D01*
X61906012Y54774447D01*
X61969021Y54807678D01*
X62018855Y54826929D01*
X62036737Y54829733D01*
X62057066Y54824887D01*
X62061661Y54806827D01*
X62049868Y54770275D01*
X62022175Y54712204D01*
X61985101Y54603677D01*
X61977219Y54530733D01*
X61986521Y54399718D01*
X62023754Y54287663D01*
X62089533Y54193509D01*
X62184471Y54116198D01*
X62234052Y54088052D01*
X62285833Y54062508D01*
X62326987Y54046554D01*
X62368016Y54038311D01*
X62419416Y54035900D01*
X62491689Y54037441D01*
X62512733Y54038169D01*
X62602058Y54043067D01*
X62666980Y54051474D01*
X62716915Y54065082D01*
X62753562Y54081454D01*
X62872491Y54161353D01*
X62965860Y54262208D01*
X63031965Y54380938D01*
X63069106Y54514464D01*
X63075580Y54659704D01*
X63075317Y54663709D01*
X63049454Y54815807D01*
X62993903Y54951742D01*
X62908834Y55071337D01*
X62794417Y55174411D01*
X62650823Y55260786D01*
X62478220Y55330284D01*
X62427222Y55345970D01*
X62293972Y55373882D01*
X62139603Y55388663D01*
X61973850Y55390716D01*
X61806451Y55380448D01*
X61647142Y55358265D01*
X61505660Y55324570D01*
X61449064Y55305247D01*
X61397565Y55288681D01*
X61370333Y55291249D01*
X61361883Y55315907D01*
X61364583Y55350758D01*
X61362724Y55454169D01*
X61329190Y55547926D01*
X61265323Y55629928D01*
X61172462Y55698074D01*
X61128889Y55720343D01*
X61080549Y55741451D01*
X61038573Y55755458D01*
X60993844Y55763809D01*
X60937248Y55767950D01*
X60859670Y55769326D01*
X60819400Y55769427D01*
X60718247Y55768018D01*
X60640289Y55762850D01*
X60574947Y55752690D01*
X60511645Y55736308D01*
X60497667Y55731977D01*
X60337786Y55666334D01*
X60187035Y55572674D01*
X60040898Y55448162D01*
X60031859Y55439333D01*
X59949948Y55354903D01*
X59872919Y55266697D01*
X59798518Y55171164D01*
X59724493Y55064755D01*
X59648591Y54943921D01*
X59568560Y54805111D01*
X59482146Y54644776D01*
X59387097Y54459365D01*
X59304932Y54293867D01*
X59195875Y54077367D01*
X59095351Y53889299D01*
X59004091Y53730994D01*
X58937461Y53625495D01*
X58876196Y53537271D01*
X58809789Y53448254D01*
X58741945Y53362745D01*
X58676371Y53285043D01*
X58616774Y53219448D01*
X58566861Y53170260D01*
X58530338Y53141777D01*
X58515817Y53136400D01*
X58515813Y53150653D01*
X58530352Y53190913D01*
X58557805Y53253430D01*
X58596545Y53334455D01*
X58635329Y53411567D01*
X58685498Y53511193D01*
X58734391Y53611456D01*
X58778091Y53704091D01*
X58812676Y53780832D01*
X58829407Y53820780D01*
X58890510Y54000629D01*
X58936315Y54188993D01*
X58965822Y54378109D01*
X58978031Y54560218D01*
X58971941Y54727557D01*
X58958384Y54821267D01*
X58908455Y54992962D01*
X58830677Y55149082D01*
X58727894Y55286685D01*
X58602948Y55402828D01*
X58458684Y55494567D01*
X58297943Y55558961D01*
X58228600Y55576633D01*
X58150284Y55587989D01*
X58051166Y55594545D01*
X57942619Y55596310D01*
X57836019Y55593294D01*
X57742740Y55585506D01*
X57686733Y55576169D01*
X57520487Y55524677D01*
X57356315Y55449222D01*
X57201075Y55354340D01*
X57061627Y55244568D01*
X56944830Y55124443D01*
X56887166Y55047312D01*
X56853941Y55001683D01*
X56831845Y54985182D01*
X56816949Y54996607D01*
X56808063Y55023072D01*
X56791779Y55055627D01*
X56758703Y55102444D01*
X56715828Y55153677D01*
X56713513Y55156221D01*
X56613908Y55244440D01*
X56490128Y55320717D01*
X56351175Y55379903D01*
X56289518Y55398678D01*
X56231189Y55415681D01*
X56185710Y55431444D01*
X56163691Y55442088D01*
X56162322Y55462771D01*
X56185362Y55494729D01*
X56227459Y55533080D01*
X56283258Y55572940D01*
X56346886Y55609168D01*
X56425996Y55641115D01*
X56500371Y55657530D01*
X56562520Y55657675D01*
X56604954Y55640811D01*
X56610568Y55635149D01*
X56630161Y55600599D01*
X56643147Y55564478D01*
X56661526Y55521054D01*
X56691726Y55498518D01*
X56740164Y55494606D01*
X56808734Y55506034D01*
X56874032Y55524934D01*
X56925642Y55553059D01*
X56979002Y55599160D01*
X56986992Y55607049D01*
X57044889Y55673301D01*
X57075881Y55733246D01*
X57083438Y55795556D01*
X57078518Y55835840D01*
X57053905Y55891751D01*
X57005993Y55948352D01*
X56944027Y55996962D01*
X56877253Y56028900D01*
X56870898Y56030779D01*
X56783240Y56045323D01*
X56676180Y56048231D01*
X56561951Y56039964D01*
X56452782Y56020985D01*
X56425323Y56013963D01*
X56280515Y55964934D01*
X56148238Y55899881D01*
X56020671Y55814086D01*
X55889995Y55702836D01*
X55856429Y55670983D01*
X55682244Y55502669D01*
X55516089Y55505670D01*
X55259178Y55500335D01*
X55017273Y55475377D01*
X54792469Y55431659D01*
X54586863Y55370042D01*
X54402553Y55291388D01*
X54241634Y55196557D01*
X54106206Y55086412D01*
X53998363Y54961814D01*
X53935273Y54856225D01*
X53890023Y54735179D01*
X53868771Y54609618D01*
X53872118Y54488244D01*
X53900663Y54379761D01*
X53902214Y54376099D01*
X53963756Y54273779D01*
X54048972Y54191945D01*
X54153152Y54132608D01*
X54271587Y54097781D01*
X54399567Y54089475D01*
X54528334Y54108652D01*
X54634123Y54144484D01*
X54737878Y54195382D01*
X54834659Y54257272D01*
X54919526Y54326081D01*
X54987539Y54397733D01*
X55033757Y54468156D01*
X55053241Y54533275D01*
X55053554Y54541798D01*
X55048848Y54583370D01*
X55028909Y54611193D01*
X54991475Y54635000D01*
X54948003Y54662896D01*
X54917162Y54690075D01*
X54912828Y54695879D01*
X54903723Y54741140D01*
X54920260Y54798376D01*
X54960261Y54860246D01*
X54962314Y54862708D01*
X54999364Y54896267D01*
X55053604Y54932397D01*
X55119001Y54968559D01*
X55189524Y55002216D01*
X55259141Y55030828D01*
X55321821Y55051859D01*
X55371530Y55062768D01*
X55402239Y55061018D01*
X55409200Y55050767D01*
X55401781Y55029151D01*
X55381445Y54983692D01*
X55351070Y54920504D01*
X55313536Y54845701D01*
X55302655Y54824515D01*
X55260501Y54741418D01*
X55208612Y54636941D01*
X55151554Y54520404D01*
X55093891Y54401125D01*
X55044467Y54297474D01*
X54959680Y54123523D01*
X54883125Y53978623D01*
X54812570Y53859617D01*
X54745780Y53763347D01*
X54680521Y53686655D01*
X54614560Y53626383D01*
X54545662Y53579375D01*
X54530293Y53570720D01*
X54415215Y53521383D01*
X54307939Y53501938D01*
X54210916Y53512301D01*
X54126598Y53552385D01*
X54087394Y53586171D01*
X54047079Y53639100D01*
X54033337Y53691763D01*
X54046342Y53750704D01*
X54086270Y53822464D01*
X54094044Y53833943D01*
X54133432Y53895748D01*
X54151539Y53940575D01*
X54149380Y53976942D01*
X54127970Y54013362D01*
X54117019Y54026651D01*
X54091359Y54051280D01*
X54059878Y54066948D01*
X54012792Y54077050D01*
X53951919Y54083914D01*
X53764879Y54087773D01*
X53578247Y54065929D01*
X53399813Y54020090D01*
X53237368Y53951964D01*
X53167662Y53912039D01*
X53088565Y53854992D01*
X53003859Y53782429D01*
X52922811Y53703244D01*
X52854687Y53626331D01*
X52818586Y53576956D01*
X52747960Y53437508D01*
X52703606Y53284512D01*
X52685751Y53124745D01*
X52127541Y53124745D01*
X52127225Y53156328D01*
X52141478Y53288914D01*
X52171802Y53432627D01*
X52218719Y53595324D01*
X52235621Y53647536D01*
X52278854Y53749946D01*
X52342615Y53863445D01*
X52420720Y53978299D01*
X52506985Y54084777D01*
X52528204Y54107992D01*
X52604798Y54180738D01*
X52699335Y54256773D01*
X52805207Y54332004D01*
X52915809Y54402337D01*
X53024537Y54463679D01*
X53124783Y54511937D01*
X53209943Y54543016D01*
X53242132Y54550401D01*
X53285285Y54559988D01*
X53304493Y54576052D01*
X53309437Y54609126D01*
X53309585Y54623789D01*
X53314808Y54679958D01*
X53328727Y54757918D01*
X53348955Y54847454D01*
X53373109Y54938354D01*
X53398802Y55020405D01*
X53408458Y55047102D01*
X53475405Y55183194D01*
X53571050Y55320096D01*
X53690619Y55453463D01*
X53829338Y55578948D01*
X53982434Y55692205D01*
X54145132Y55788889D01*
X54302020Y55860567D01*
X54425572Y55903056D01*
X54570881Y55944015D01*
X54729278Y55981726D01*
X54892096Y56014470D01*
X55050665Y56040529D01*
X55196318Y56058184D01*
X55320387Y56065716D01*
X55337494Y56065867D01*
X55394371Y56067010D01*
X55434389Y56073638D01*
X55469407Y56090548D01*
X55511283Y56122536D01*
X55541770Y56148496D01*
X55713554Y56283982D01*
X55882832Y56391086D01*
X56057002Y56473811D01*
X56243462Y56536161D01*
X56272212Y56543813D01*
X56441729Y56581837D01*
X56591737Y56601933D01*
X56731286Y56604374D01*
X56869427Y56589433D01*
X56869427Y56589433D01*
G37*
X56869427Y56589433D02*
X56984337Y56565317D01*
X57113862Y56527537D01*
X57219998Y56482534D01*
X57313161Y56425119D01*
X57388243Y56364192D01*
X57421526Y56329874D01*
X57461001Y56282665D01*
X57500543Y56230825D01*
X57534026Y56182612D01*
X57555325Y56146285D01*
X57559733Y56132978D01*
X57574084Y56121293D01*
X57606300Y56123488D01*
X57774931Y56151208D01*
X57932708Y56161599D01*
X58090795Y56154441D01*
X58260354Y56129518D01*
X58359909Y56108755D01*
X58505928Y56071350D01*
X58628653Y56028994D01*
X58738651Y55977212D01*
X58846491Y55911527D01*
X58879889Y55888521D01*
X59012130Y55787338D01*
X59120255Y55685604D01*
X59213057Y55574775D01*
X59237301Y55541225D01*
X59307165Y55441627D01*
X59411349Y55579918D01*
X59533836Y55727751D01*
X59670151Y55866429D01*
X59814020Y55990625D01*
X59959169Y56095009D01*
X60099326Y56174255D01*
X60125096Y56186128D01*
X60214818Y56220005D01*
X60326146Y56253306D01*
X60449006Y56283809D01*
X60573324Y56309293D01*
X60689025Y56327537D01*
X60786036Y56336318D01*
X60808244Y56336778D01*
X60909597Y56330711D01*
X61028435Y56314224D01*
X61151969Y56289845D01*
X61267411Y56260103D01*
X61361970Y56227529D01*
X61363177Y56227026D01*
X61416811Y56199580D01*
X61483997Y56158203D01*
X61555076Y56109640D01*
X61620389Y56060635D01*
X61670279Y56017932D01*
X61685866Y56001706D01*
X61700814Y55985516D01*
X61717367Y55973871D01*
X61741131Y55965879D01*
X61777712Y55960649D01*
X61832714Y55957290D01*
X61911744Y55954908D01*
X61990666Y55953218D01*
X62133727Y55949051D01*
X62252023Y55942130D01*
X62354622Y55931149D01*
X62450596Y55914803D01*
X62549014Y55891787D01*
X62658946Y55860797D01*
X62682735Y55853642D01*
X62786471Y55819846D01*
X62870288Y55785969D01*
X62947577Y55745831D01*
X63031731Y55693251D01*
X63035079Y55691035D01*
X63129971Y55626274D01*
X63203544Y55570586D01*
X63263987Y55516428D01*
X63319492Y55456258D01*
X63378249Y55382532D01*
X63396716Y55358008D01*
X63503388Y55188515D01*
X63580717Y55006703D01*
X63627199Y54817081D01*
X63641350Y54626285D01*
X63633985Y54521151D01*
X63615738Y54402683D01*
X63589167Y54282197D01*
X63556832Y54171010D01*
X63521290Y54080438D01*
X63515079Y54067839D01*
X63476032Y53991745D01*
X63548768Y53896103D01*
X63592902Y53831073D01*
X63624307Y53764820D01*
X63649520Y53682811D01*
X63655433Y53658931D01*
X63680327Y53529426D01*
X63687432Y53412857D01*
X63676738Y53294354D01*
X63655133Y53187200D01*
X63607246Y53049587D01*
X63528470Y52910696D01*
X63418266Y52769921D01*
X63276094Y52626652D01*
X63101412Y52480281D01*
X62893680Y52330200D01*
X62893617Y52330158D01*
X62754653Y52240168D01*
X62624500Y52165961D01*
X62494896Y52104032D01*
X62357579Y52050878D01*
X62204288Y52002995D01*
X62026761Y51956879D01*
X61996267Y51949599D01*
X61882846Y51923568D01*
X61792956Y51905256D01*
X61717475Y51893380D01*
X61647283Y51886660D01*
X61573262Y51883816D01*
X61525142Y51883437D01*
X61358655Y51892356D01*
X61178293Y51917660D01*
X60994518Y51956920D01*
X60817792Y52007704D01*
X60658579Y52067581D01*
X60585941Y52101628D01*
X60520078Y52140019D01*
X60438403Y52194696D01*
X60349959Y52258945D01*
X60263792Y52326052D01*
X60188948Y52389302D01*
X60152358Y52423476D01*
X60099324Y52480927D01*
X60036883Y52556338D01*
X59970666Y52642058D01*
X59906304Y52730430D01*
X59849427Y52813803D01*
X59805665Y52884523D01*
X59786723Y52920500D01*
X59766043Y52959815D01*
X59749833Y52981727D01*
X59746437Y52983398D01*
X59732459Y52970304D01*
X59703891Y52935674D01*
X59665668Y52885646D01*
X59643297Y52855144D01*
X59529743Y52715052D01*
X59393767Y52575085D01*
X59241504Y52439885D01*
X59079094Y52314096D01*
X58912673Y52202360D01*
X58748377Y52109319D01*
X58592346Y52039617D01*
X58541866Y52021930D01*
X58376247Y51972320D01*
X58233423Y51938717D01*
X58106671Y51920526D01*
X57989269Y51917153D01*
X57874494Y51928004D01*
X57755939Y51952403D01*
X57596534Y52007079D01*
X57462169Y52084514D01*
X57352536Y52185012D01*
X57267323Y52308878D01*
X57206221Y52456414D01*
X57192969Y52503661D01*
X57152505Y52663014D01*
X57188377Y52815809D01*
X57210735Y52898262D01*
X57238208Y52981350D01*
X57265735Y53050126D01*
X57272465Y53064192D01*
X57300679Y53124647D01*
X57310508Y53161728D01*
X57301576Y53180745D01*
X57273509Y53187006D01*
X57263761Y53187200D01*
X57238334Y53181730D01*
X57219170Y53160281D01*
X57200394Y53115291D01*
X57194686Y53098300D01*
X57136609Y52957569D01*
X57053711Y52809259D01*
X56951168Y52661511D01*
X56834157Y52522466D01*
X56816826Y52504064D01*
X56750508Y52441856D01*
X56666658Y52373759D01*
X56573535Y52305519D01*
X56479395Y52242880D01*
X56392496Y52191588D01*
X56321093Y52157388D01*
X56315587Y52155300D01*
X56224311Y52125049D01*
X56120858Y52096156D01*
X56014554Y52070722D01*
X55914726Y52050847D01*
X55830700Y52038630D01*
X55784743Y52035755D01*
X55723417Y52040431D01*
X55639807Y52053044D01*
X55543958Y52071444D01*
X55445914Y52093478D01*
X55355720Y52116993D01*
X55283420Y52139839D01*
X55264139Y52147304D01*
X55209008Y52173612D01*
X55158994Y52202645D01*
X55151955Y52207453D01*
X55106377Y52239832D01*
X54974155Y52133451D01*
X54806499Y52007477D01*
X54644427Y51905796D01*
X54479700Y51824734D01*
X54304078Y51760618D01*
X54109322Y51709775D01*
X53957565Y51680177D01*
X53820736Y51659683D01*
X53703953Y51650313D01*
X53595412Y51651684D01*
X53483305Y51663412D01*
X53475542Y51664534D01*
X53350110Y51686740D01*
X53223345Y51715935D01*
X53105441Y51749384D01*
X53006595Y51784356D01*
X52971477Y51799659D01*
X52811189Y51889610D01*
X52655283Y52003541D01*
X52513018Y52133716D01*
X52393652Y52272396D01*
X52374936Y52298200D01*
X52314043Y52389024D01*
X52268279Y52469684D01*
X52232623Y52551483D01*
X52202053Y52645725D01*
X52175653Y52746768D01*
X52144835Y52893111D01*
X52128518Y53027012D01*
X52127541Y53124745D01*
X52685751Y53124745D01*
X52694619Y52964984D01*
X52730435Y52812007D01*
X52788828Y52680529D01*
X52872068Y52563967D01*
X52981395Y52455663D01*
X53109101Y52361657D01*
X53247479Y52287987D01*
X53329332Y52257038D01*
X53441597Y52231668D01*
X53575545Y52218324D01*
X53721143Y52217144D01*
X53868362Y52228269D01*
X53989102Y52247884D01*
X54193648Y52308036D01*
X54388951Y52399775D01*
X54573183Y52521645D01*
X54744514Y52672190D01*
X54901116Y52849951D01*
X55041158Y53053471D01*
X55077002Y53114606D01*
X55139532Y53230620D01*
X55207860Y53366677D01*
X55277437Y53512964D01*
X55343716Y53659664D01*
X55402148Y53796964D01*
X55448185Y53915047D01*
X55449082Y53917516D01*
X55506658Y54076200D01*
X55628064Y54073842D01*
X55746924Y54060936D01*
X55840395Y54026808D01*
X55910119Y53970644D01*
X55946833Y53915521D01*
X55979116Y53821992D01*
X55978422Y53730274D01*
X55953104Y53652166D01*
X55916105Y53591427D01*
X55867627Y53539368D01*
X55816268Y53503704D01*
X55774592Y53492000D01*
X55727396Y53507759D01*
X55689453Y53550788D01*
X55666099Y53614720D01*
X55664564Y53623289D01*
X55654415Y53665580D01*
X55635397Y53684936D01*
X55597566Y53692184D01*
X55543001Y53681351D01*
X55484687Y53642037D01*
X55425987Y53578873D01*
X55370264Y53496489D01*
X55320879Y53399517D01*
X55281195Y53292586D01*
X55265612Y53235016D01*
X55246350Y53135114D01*
X55241818Y53052259D01*
X55252044Y52972989D01*
X55266222Y52918331D01*
X55313689Y52813663D01*
X55385854Y52728306D01*
X55478914Y52663279D01*
X55589066Y52619603D01*
X55712505Y52598297D01*
X55845430Y52600380D01*
X55984035Y52626871D01*
X56124518Y52678791D01*
X56137333Y52684846D01*
X56208012Y52725109D01*
X56282763Y52781084D01*
X56368144Y52857876D01*
X56401695Y52890557D01*
X56474622Y52965077D01*
X56528559Y53027032D01*
X56570460Y53085621D01*
X56607278Y53150047D01*
X56625893Y53187200D01*
X56684212Y53320480D01*
X56722102Y53442337D01*
X56742722Y53565647D01*
X56749137Y53689255D01*
X56743565Y53819916D01*
X56722529Y53926226D01*
X56684198Y54014836D01*
X56643404Y54073187D01*
X56599968Y54116261D01*
X56542901Y54160312D01*
X56481819Y54199197D01*
X56426337Y54226773D01*
X56387100Y54236908D01*
X56362041Y54248927D01*
X56357467Y54262467D01*
X56371461Y54283414D01*
X56389555Y54287867D01*
X56418727Y54295198D01*
X56468739Y54314744D01*
X56530521Y54342835D01*
X56554306Y54354538D01*
X56614297Y54383565D01*
X56661894Y54404484D01*
X56689844Y54414199D01*
X56694024Y54414153D01*
X56700399Y54394804D01*
X56709183Y54352705D01*
X56715130Y54317849D01*
X56730088Y54257340D01*
X56756081Y54182921D01*
X56787614Y54110240D01*
X56789125Y54107161D01*
X56869031Y53979875D01*
X56968525Y53878794D01*
X57084757Y53804754D01*
X57214877Y53758592D01*
X57356036Y53741144D01*
X57505384Y53753249D01*
X57660071Y53795742D01*
X57738140Y53828465D01*
X57828077Y53879280D01*
X57909413Y53941460D01*
X57976881Y54009437D01*
X58025216Y54077645D01*
X58049153Y54140518D01*
X58050800Y54158983D01*
X58037549Y54200516D01*
X57999996Y54220846D01*
X57941440Y54218394D01*
X57931492Y54216077D01*
X57882506Y54206942D01*
X57848423Y54212550D01*
X57816721Y54232161D01*
X57785159Y54264516D01*
X57769978Y54308581D01*
X57766340Y54342124D01*
X57765977Y54391819D01*
X57777665Y54425677D01*
X57808071Y54459222D01*
X57821963Y54471654D01*
X57891700Y54513658D01*
X57965479Y54525096D01*
X58038229Y54508019D01*
X58104879Y54464478D01*
X58160358Y54396524D01*
X58195061Y54320747D01*
X58212788Y54239230D01*
X58221364Y54135577D01*
X58220580Y54020318D01*
X58210230Y53903981D01*
X58204070Y53863563D01*
X58178798Y53740775D01*
X58144109Y53615973D01*
X58098155Y53484532D01*
X58039086Y53341828D01*
X57965054Y53183235D01*
X57874210Y53004127D01*
X57818631Y52899334D01*
X57770831Y52807378D01*
X57739630Y52738159D01*
X57723669Y52685703D01*
X57721589Y52644033D01*
X57732032Y52607173D01*
X57746200Y52580815D01*
X57790751Y52530150D01*
X57853823Y52497039D01*
X57940098Y52479708D01*
X58023072Y52476000D01*
X58174904Y52491442D01*
X58334924Y52536039D01*
X58499530Y52607200D01*
X58665117Y52702333D01*
X58828083Y52818846D01*
X58984825Y52954146D01*
X59131739Y53105642D01*
X59265222Y53270742D01*
X59381671Y53446854D01*
X59388207Y53458005D01*
X59415476Y53505778D01*
X59455527Y53577136D01*
X59504939Y53665925D01*
X59560291Y53765992D01*
X59618162Y53871182D01*
X59638893Y53909008D01*
X59772684Y54149069D01*
X59895056Y54359142D01*
X60007201Y54540668D01*
X60110312Y54695090D01*
X60205580Y54823851D01*
X60294196Y54928394D01*
X60377353Y55010160D01*
X60456242Y55070593D01*
X60532055Y55111135D01*
X60605984Y55133228D01*
X60654560Y55138412D01*
X60695625Y55134422D01*
X60750673Y55122374D01*
X60810616Y55105192D01*
X60866365Y55085800D01*
X60908831Y55067124D01*
X60928926Y55052085D01*
X60929467Y55049967D01*
X60917309Y55034446D01*
X60884662Y55002890D01*
X60837263Y54960688D01*
X60806700Y54934652D01*
X60664558Y54801097D01*
X60533617Y54650380D01*
X60420183Y54490783D01*
X60330563Y54330587D01*
X60307119Y54278600D01*
X60253177Y54132744D01*
X60217882Y53990798D01*
X60198970Y53840725D01*
X60194122Y53678267D01*
X60195476Y53578772D01*
X60199082Y53503586D01*
X60206145Y53443167D01*
X60217871Y53387972D01*
X60235466Y53328460D01*
X60240125Y53314200D01*
X60306487Y53159634D01*
X60401065Y53007073D01*
X60518699Y52864273D01*
X60580119Y52803076D01*
X60732606Y52680558D01*
X60899963Y52585050D01*
X61085759Y52514896D01*
X61293563Y52468445D01*
X61306802Y52466376D01*
X61513122Y52451257D01*
X61727523Y52466296D01*
X61945949Y52510036D01*
X62164342Y52581020D01*
X62378644Y52677788D01*
X62584800Y52798884D01*
X62778752Y52942850D01*
X62878664Y53031168D01*
X62972970Y53124465D01*
X63042469Y53204716D01*
X63090887Y53277119D01*
X63121951Y53346872D01*
X63132983Y53385966D01*
X63139617Y53470356D01*
X63117129Y53538085D01*
X63065931Y53588244D01*
X63033556Y53604876D01*
X62987393Y53618632D01*
X62935386Y53621668D01*
X62872363Y53612993D01*
X62793154Y53591619D01*
X62692587Y53556556D01*
X62606026Y53523063D01*
X62502556Y53483669D01*
X62420110Y53456834D01*
X62349400Y53440012D01*
X62281137Y53430655D01*
X62263783Y53429215D01*
X62098412Y53429996D01*
X61951887Y53458554D01*
X61823193Y53515236D01*
X61711316Y53600388D01*
X61685700Y53626332D01*
X61622958Y53700497D01*
X61578919Y53772484D01*
X61550185Y53851386D01*
X61533360Y53946295D01*
X61525497Y54055113D01*
X61527854Y54215412D01*
X61550773Y54352644D01*
X61595953Y54471873D01*
X61665097Y54578160D01*
X61722507Y54641529D01*
X61774299Y54686308D01*
X61838286Y54732302D01*
X61906012Y54774447D01*
X61969021Y54807678D01*
X62018855Y54826929D01*
X62036737Y54829733D01*
X62057066Y54824887D01*
X62061661Y54806827D01*
X62049868Y54770275D01*
X62022175Y54712204D01*
X61985101Y54603677D01*
X61977219Y54530733D01*
X61986521Y54399718D01*
X62023754Y54287663D01*
X62089533Y54193509D01*
X62184471Y54116198D01*
X62234052Y54088052D01*
X62285833Y54062508D01*
X62326987Y54046554D01*
X62368016Y54038311D01*
X62419416Y54035900D01*
X62491689Y54037441D01*
X62512733Y54038169D01*
X62602058Y54043067D01*
X62666980Y54051474D01*
X62716915Y54065082D01*
X62753562Y54081454D01*
X62872491Y54161353D01*
X62965860Y54262208D01*
X63031965Y54380938D01*
X63069106Y54514464D01*
X63075580Y54659704D01*
X63075317Y54663709D01*
X63049454Y54815807D01*
X62993903Y54951742D01*
X62908834Y55071337D01*
X62794417Y55174411D01*
X62650823Y55260786D01*
X62478220Y55330284D01*
X62427222Y55345970D01*
X62293972Y55373882D01*
X62139603Y55388663D01*
X61973850Y55390716D01*
X61806451Y55380448D01*
X61647142Y55358265D01*
X61505660Y55324570D01*
X61449064Y55305247D01*
X61397565Y55288681D01*
X61370333Y55291249D01*
X61361883Y55315907D01*
X61364583Y55350758D01*
X61362724Y55454169D01*
X61329190Y55547926D01*
X61265323Y55629928D01*
X61172462Y55698074D01*
X61128889Y55720343D01*
X61080549Y55741451D01*
X61038573Y55755458D01*
X60993844Y55763809D01*
X60937248Y55767950D01*
X60859670Y55769326D01*
X60819400Y55769427D01*
X60718247Y55768018D01*
X60640289Y55762850D01*
X60574947Y55752690D01*
X60511645Y55736308D01*
X60497667Y55731977D01*
X60337786Y55666334D01*
X60187035Y55572674D01*
X60040898Y55448162D01*
X60031859Y55439333D01*
X59949948Y55354903D01*
X59872919Y55266697D01*
X59798518Y55171164D01*
X59724493Y55064755D01*
X59648591Y54943921D01*
X59568560Y54805111D01*
X59482146Y54644776D01*
X59387097Y54459365D01*
X59304932Y54293867D01*
X59195875Y54077367D01*
X59095351Y53889299D01*
X59004091Y53730994D01*
X58937461Y53625495D01*
X58876196Y53537271D01*
X58809789Y53448254D01*
X58741945Y53362745D01*
X58676371Y53285043D01*
X58616774Y53219448D01*
X58566861Y53170260D01*
X58530338Y53141777D01*
X58515817Y53136400D01*
X58515813Y53150653D01*
X58530352Y53190913D01*
X58557805Y53253430D01*
X58596545Y53334455D01*
X58635329Y53411567D01*
X58685498Y53511193D01*
X58734391Y53611456D01*
X58778091Y53704091D01*
X58812676Y53780832D01*
X58829407Y53820780D01*
X58890510Y54000629D01*
X58936315Y54188993D01*
X58965822Y54378109D01*
X58978031Y54560218D01*
X58971941Y54727557D01*
X58958384Y54821267D01*
X58908455Y54992962D01*
X58830677Y55149082D01*
X58727894Y55286685D01*
X58602948Y55402828D01*
X58458684Y55494567D01*
X58297943Y55558961D01*
X58228600Y55576633D01*
X58150284Y55587989D01*
X58051166Y55594545D01*
X57942619Y55596310D01*
X57836019Y55593294D01*
X57742740Y55585506D01*
X57686733Y55576169D01*
X57520487Y55524677D01*
X57356315Y55449222D01*
X57201075Y55354340D01*
X57061627Y55244568D01*
X56944830Y55124443D01*
X56887166Y55047312D01*
X56853941Y55001683D01*
X56831845Y54985182D01*
X56816949Y54996607D01*
X56808063Y55023072D01*
X56791779Y55055627D01*
X56758703Y55102444D01*
X56715828Y55153677D01*
X56713513Y55156221D01*
X56613908Y55244440D01*
X56490128Y55320717D01*
X56351175Y55379903D01*
X56289518Y55398678D01*
X56231189Y55415681D01*
X56185710Y55431444D01*
X56163691Y55442088D01*
X56162322Y55462771D01*
X56185362Y55494729D01*
X56227459Y55533080D01*
X56283258Y55572940D01*
X56346886Y55609168D01*
X56425996Y55641115D01*
X56500371Y55657530D01*
X56562520Y55657675D01*
X56604954Y55640811D01*
X56610568Y55635149D01*
X56630161Y55600599D01*
X56643147Y55564478D01*
X56661526Y55521054D01*
X56691726Y55498518D01*
X56740164Y55494606D01*
X56808734Y55506034D01*
X56874032Y55524934D01*
X56925642Y55553059D01*
X56979002Y55599160D01*
X56986992Y55607049D01*
X57044889Y55673301D01*
X57075881Y55733246D01*
X57083438Y55795556D01*
X57078518Y55835840D01*
X57053905Y55891751D01*
X57005993Y55948352D01*
X56944027Y55996962D01*
X56877253Y56028900D01*
X56870898Y56030779D01*
X56783240Y56045323D01*
X56676180Y56048231D01*
X56561951Y56039964D01*
X56452782Y56020985D01*
X56425323Y56013963D01*
X56280515Y55964934D01*
X56148238Y55899881D01*
X56020671Y55814086D01*
X55889995Y55702836D01*
X55856429Y55670983D01*
X55682244Y55502669D01*
X55516089Y55505670D01*
X55259178Y55500335D01*
X55017273Y55475377D01*
X54792469Y55431659D01*
X54586863Y55370042D01*
X54402553Y55291388D01*
X54241634Y55196557D01*
X54106206Y55086412D01*
X53998363Y54961814D01*
X53935273Y54856225D01*
X53890023Y54735179D01*
X53868771Y54609618D01*
X53872118Y54488244D01*
X53900663Y54379761D01*
X53902214Y54376099D01*
X53963756Y54273779D01*
X54048972Y54191945D01*
X54153152Y54132608D01*
X54271587Y54097781D01*
X54399567Y54089475D01*
X54528334Y54108652D01*
X54634123Y54144484D01*
X54737878Y54195382D01*
X54834659Y54257272D01*
X54919526Y54326081D01*
X54987539Y54397733D01*
X55033757Y54468156D01*
X55053241Y54533275D01*
X55053554Y54541798D01*
X55048848Y54583370D01*
X55028909Y54611193D01*
X54991475Y54635000D01*
X54948003Y54662896D01*
X54917162Y54690075D01*
X54912828Y54695879D01*
X54903723Y54741140D01*
X54920260Y54798376D01*
X54960261Y54860246D01*
X54962314Y54862708D01*
X54999364Y54896267D01*
X55053604Y54932397D01*
X55119001Y54968559D01*
X55189524Y55002216D01*
X55259141Y55030828D01*
X55321821Y55051859D01*
X55371530Y55062768D01*
X55402239Y55061018D01*
X55409200Y55050767D01*
X55401781Y55029151D01*
X55381445Y54983692D01*
X55351070Y54920504D01*
X55313536Y54845701D01*
X55302655Y54824515D01*
X55260501Y54741418D01*
X55208612Y54636941D01*
X55151554Y54520404D01*
X55093891Y54401125D01*
X55044467Y54297474D01*
X54959680Y54123523D01*
X54883125Y53978623D01*
X54812570Y53859617D01*
X54745780Y53763347D01*
X54680521Y53686655D01*
X54614560Y53626383D01*
X54545662Y53579375D01*
X54530293Y53570720D01*
X54415215Y53521383D01*
X54307939Y53501938D01*
X54210916Y53512301D01*
X54126598Y53552385D01*
X54087394Y53586171D01*
X54047079Y53639100D01*
X54033337Y53691763D01*
X54046342Y53750704D01*
X54086270Y53822464D01*
X54094044Y53833943D01*
X54133432Y53895748D01*
X54151539Y53940575D01*
X54149380Y53976942D01*
X54127970Y54013362D01*
X54117019Y54026651D01*
X54091359Y54051280D01*
X54059878Y54066948D01*
X54012792Y54077050D01*
X53951919Y54083914D01*
X53764879Y54087773D01*
X53578247Y54065929D01*
X53399813Y54020090D01*
X53237368Y53951964D01*
X53167662Y53912039D01*
X53088565Y53854992D01*
X53003859Y53782429D01*
X52922811Y53703244D01*
X52854687Y53626331D01*
X52818586Y53576956D01*
X52747960Y53437508D01*
X52703606Y53284512D01*
X52685751Y53124745D01*
X52127541Y53124745D01*
X52127225Y53156328D01*
X52141478Y53288914D01*
X52171802Y53432627D01*
X52218719Y53595324D01*
X52235621Y53647536D01*
X52278854Y53749946D01*
X52342615Y53863445D01*
X52420720Y53978299D01*
X52506985Y54084777D01*
X52528204Y54107992D01*
X52604798Y54180738D01*
X52699335Y54256773D01*
X52805207Y54332004D01*
X52915809Y54402337D01*
X53024537Y54463679D01*
X53124783Y54511937D01*
X53209943Y54543016D01*
X53242132Y54550401D01*
X53285285Y54559988D01*
X53304493Y54576052D01*
X53309437Y54609126D01*
X53309585Y54623789D01*
X53314808Y54679958D01*
X53328727Y54757918D01*
X53348955Y54847454D01*
X53373109Y54938354D01*
X53398802Y55020405D01*
X53408458Y55047102D01*
X53475405Y55183194D01*
X53571050Y55320096D01*
X53690619Y55453463D01*
X53829338Y55578948D01*
X53982434Y55692205D01*
X54145132Y55788889D01*
X54302020Y55860567D01*
X54425572Y55903056D01*
X54570881Y55944015D01*
X54729278Y55981726D01*
X54892096Y56014470D01*
X55050665Y56040529D01*
X55196318Y56058184D01*
X55320387Y56065716D01*
X55337494Y56065867D01*
X55394371Y56067010D01*
X55434389Y56073638D01*
X55469407Y56090548D01*
X55511283Y56122536D01*
X55541770Y56148496D01*
X55713554Y56283982D01*
X55882832Y56391086D01*
X56057002Y56473811D01*
X56243462Y56536161D01*
X56272212Y56543813D01*
X56441729Y56581837D01*
X56591737Y56601933D01*
X56731286Y56604374D01*
X56869427Y56589433D01*
D13*
G36*
X95477699Y9341221D02*
X96269140Y9183794D01*
X97060972Y8855807D01*
X97773601Y8379643D01*
X98379643Y7773601D01*
X98855807Y7060972D01*
X99183794Y6269140D01*
X99307556Y5646944D01*
X99348762Y5439790D01*
X99351000Y5428536D01*
X99351000Y4571464D01*
X99183794Y3730860D01*
X98855807Y2939028D01*
X98379643Y2226399D01*
X97773601Y1620357D01*
X97060972Y1144193D01*
X96269140Y816206D01*
X95548156Y672794D01*
X95428537Y649000D01*
X94571463Y649000D01*
X94451844Y672794D01*
X93730860Y816206D01*
X92939028Y1144193D01*
X92226399Y1620357D01*
X91620357Y2226399D01*
X91144193Y2939028D01*
X90816206Y3730860D01*
X90649000Y4571464D01*
X90649000Y5428536D01*
X90651239Y5439790D01*
X90692444Y5646944D01*
X90816206Y6269140D01*
X91144193Y7060972D01*
X91620357Y7773601D01*
X92226399Y8379643D01*
X92939028Y8855807D01*
X93730860Y9183794D01*
X94522301Y9341221D01*
X94571463Y9351000D01*
X95428537Y9351000D01*
X95477699Y9341221D01*
X95477699Y9341221D01*
G37*
G36*
X5477699Y9341221D02*
X6269140Y9183794D01*
X7060972Y8855807D01*
X7414949Y8619287D01*
X7436542Y8607745D01*
X7459992Y8600632D01*
X7484378Y8598230D01*
X7508764Y8600632D01*
X7532213Y8607745D01*
X7553824Y8619296D01*
X7572766Y8634842D01*
X8036287Y9098363D01*
X8072298Y9127915D01*
X8107940Y9146967D01*
X8146611Y9158698D01*
X8186827Y9162658D01*
X8227043Y9158698D01*
X8265714Y9146967D01*
X8301356Y9127915D01*
X8337367Y9098363D01*
X9098363Y8337367D01*
X9127915Y8301356D01*
X9146967Y8265714D01*
X9158698Y8227043D01*
X9162658Y8186827D01*
X9158698Y8146611D01*
X9146967Y8107940D01*
X9127915Y8072298D01*
X9098363Y8036287D01*
X8634842Y7572766D01*
X8619296Y7553824D01*
X8607745Y7532213D01*
X8600632Y7508764D01*
X8598230Y7484378D01*
X8600632Y7459992D01*
X8607745Y7436543D01*
X8619287Y7414949D01*
X8855807Y7060972D01*
X9183794Y6269140D01*
X9307556Y5646944D01*
X9348762Y5439790D01*
X9351000Y5428536D01*
X9351000Y4571464D01*
X9183794Y3730860D01*
X8855807Y2939028D01*
X8379643Y2226399D01*
X7773601Y1620357D01*
X7060972Y1144193D01*
X6269140Y816206D01*
X5548156Y672794D01*
X5428537Y649000D01*
X4571463Y649000D01*
X4451844Y672794D01*
X3730860Y816206D01*
X2939028Y1144193D01*
X2226399Y1620357D01*
X1620357Y2226399D01*
X1144193Y2939028D01*
X816206Y3730860D01*
X649000Y4571464D01*
X649000Y5428536D01*
X651239Y5439790D01*
X692444Y5646944D01*
X816206Y6269140D01*
X1144193Y7060972D01*
X1620357Y7773601D01*
X2226399Y8379643D01*
X2939028Y8855807D01*
X3730860Y9183794D01*
X4522301Y9341221D01*
X4571463Y9351000D01*
X5428537Y9351000D01*
X5477699Y9341221D01*
X5477699Y9341221D01*
G37*
G36*
X20851000Y2149000D02*
X19149000Y2149000D01*
X19149000Y3851000D01*
X20851000Y3851000D01*
X20851000Y2149000D01*
X20851000Y2149000D01*
G37*
G36*
X15851000Y2149000D02*
X14149000Y2149000D01*
X14149000Y3851000D01*
X15851000Y3851000D01*
X15851000Y2149000D01*
X15851000Y2149000D01*
G37*
G36*
X13248228Y3818297D02*
X13403100Y3754147D01*
X13542481Y3661015D01*
X13661015Y3542481D01*
X13754147Y3403100D01*
X13818297Y3248228D01*
X13851000Y3083816D01*
X13851000Y2916184D01*
X13818297Y2751772D01*
X13754147Y2596900D01*
X13661015Y2457519D01*
X13542481Y2338985D01*
X13403100Y2245853D01*
X13248228Y2181703D01*
X13083816Y2149000D01*
X12916184Y2149000D01*
X12751772Y2181703D01*
X12596900Y2245853D01*
X12457519Y2338985D01*
X12338985Y2457519D01*
X12245853Y2596900D01*
X12181703Y2751772D01*
X12149000Y2916184D01*
X12149000Y3083816D01*
X12181703Y3248228D01*
X12245853Y3403100D01*
X12338985Y3542481D01*
X12457519Y3661015D01*
X12596900Y3754147D01*
X12751772Y3818297D01*
X12916184Y3851000D01*
X13083816Y3851000D01*
X13248228Y3818297D01*
X13248228Y3818297D01*
G37*
G36*
X39248228Y3818297D02*
X39403100Y3754147D01*
X39542481Y3661015D01*
X39661015Y3542481D01*
X39754147Y3403100D01*
X39818297Y3248228D01*
X39851000Y3083816D01*
X39851000Y2916184D01*
X39818297Y2751772D01*
X39754147Y2596900D01*
X39661015Y2457519D01*
X39542481Y2338985D01*
X39403100Y2245853D01*
X39248228Y2181703D01*
X39083816Y2149000D01*
X38916184Y2149000D01*
X38751772Y2181703D01*
X38596900Y2245853D01*
X38457519Y2338985D01*
X38338985Y2457519D01*
X38245853Y2596900D01*
X38181703Y2751772D01*
X38149000Y2916184D01*
X38149000Y3083816D01*
X38181703Y3248228D01*
X38245853Y3403100D01*
X38338985Y3542481D01*
X38457519Y3661015D01*
X38596900Y3754147D01*
X38751772Y3818297D01*
X38916184Y3851000D01*
X39083816Y3851000D01*
X39248228Y3818297D01*
X39248228Y3818297D01*
G37*
G36*
X41851000Y2149000D02*
X40149000Y2149000D01*
X40149000Y3851000D01*
X41851000Y3851000D01*
X41851000Y2149000D01*
X41851000Y2149000D01*
G37*
G36*
X22248228Y3818297D02*
X22403100Y3754147D01*
X22542481Y3661015D01*
X22661015Y3542481D01*
X22754147Y3403100D01*
X22818297Y3248228D01*
X22851000Y3083816D01*
X22851000Y2916184D01*
X22818297Y2751772D01*
X22754147Y2596900D01*
X22661015Y2457519D01*
X22542481Y2338985D01*
X22403100Y2245853D01*
X22248228Y2181703D01*
X22083816Y2149000D01*
X21916184Y2149000D01*
X21751772Y2181703D01*
X21596900Y2245853D01*
X21457519Y2338985D01*
X21338985Y2457519D01*
X21245853Y2596900D01*
X21181703Y2751772D01*
X21149000Y2916184D01*
X21149000Y3083816D01*
X21181703Y3248228D01*
X21245853Y3403100D01*
X21338985Y3542481D01*
X21457519Y3661015D01*
X21596900Y3754147D01*
X21751772Y3818297D01*
X21916184Y3851000D01*
X22083816Y3851000D01*
X22248228Y3818297D01*
X22248228Y3818297D01*
G37*
G36*
X63711000Y2456500D02*
X61609000Y2456500D01*
X61609000Y4463500D01*
X63711000Y4463500D01*
X63711000Y2456500D01*
X63711000Y2456500D01*
G37*
G36*
X67495764Y4457692D02*
X67584220Y4448980D01*
X67773381Y4391599D01*
X67947712Y4298417D01*
X68100515Y4173015D01*
X68225917Y4020212D01*
X68319099Y3845881D01*
X68376480Y3656720D01*
X68395855Y3460000D01*
X68376480Y3263280D01*
X68319099Y3074119D01*
X68225917Y2899788D01*
X68100515Y2746985D01*
X67947712Y2621583D01*
X67773381Y2528401D01*
X67584220Y2471020D01*
X67495764Y2462308D01*
X67436796Y2456500D01*
X67243204Y2456500D01*
X67184236Y2462308D01*
X67095780Y2471020D01*
X66906619Y2528401D01*
X66732288Y2621583D01*
X66579485Y2746985D01*
X66454083Y2899788D01*
X66360901Y3074119D01*
X66303520Y3263280D01*
X66284145Y3460000D01*
X66303520Y3656720D01*
X66360901Y3845881D01*
X66454083Y4020212D01*
X66579485Y4173015D01*
X66732288Y4298417D01*
X66906619Y4391599D01*
X67095780Y4448980D01*
X67184236Y4457692D01*
X67243204Y4463500D01*
X67436796Y4463500D01*
X67495764Y4457692D01*
X67495764Y4457692D01*
G37*
G36*
X84176669Y7792314D02*
X84353058Y7774941D01*
X84520988Y7724000D01*
X84692549Y7671958D01*
X85005425Y7504721D01*
X85279661Y7279661D01*
X85504721Y7005425D01*
X85671958Y6692549D01*
X85671958Y6692548D01*
X85774941Y6353058D01*
X85809714Y6000000D01*
X85774941Y5646942D01*
X85730670Y5501000D01*
X85671958Y5307451D01*
X85504721Y4994575D01*
X85279661Y4720339D01*
X85005425Y4495279D01*
X84692549Y4328042D01*
X84594887Y4298417D01*
X84353058Y4225059D01*
X84176669Y4207686D01*
X84088476Y4199000D01*
X83911524Y4199000D01*
X83823331Y4207686D01*
X83646942Y4225059D01*
X83405113Y4298417D01*
X83307451Y4328042D01*
X82994575Y4495279D01*
X82720339Y4720339D01*
X82495279Y4994575D01*
X82328042Y5307451D01*
X82269330Y5501000D01*
X82225059Y5646942D01*
X82190286Y6000000D01*
X82225059Y6353058D01*
X82328042Y6692548D01*
X82328042Y6692549D01*
X82495279Y7005425D01*
X82720339Y7279661D01*
X82994575Y7504721D01*
X83307451Y7671958D01*
X83479012Y7724000D01*
X83646942Y7774941D01*
X83823331Y7792314D01*
X83911524Y7801000D01*
X84088476Y7801000D01*
X84176669Y7792314D01*
X84176669Y7792314D01*
G37*
G36*
X58551000Y4199000D02*
X57449000Y4199000D01*
X57449000Y5301000D01*
X58551000Y5301000D01*
X58551000Y4199000D01*
X58551000Y4199000D01*
G37*
G36*
X65551000Y4199000D02*
X64449000Y4199000D01*
X64449000Y5301000D01*
X65551000Y5301000D01*
X65551000Y4199000D01*
X65551000Y4199000D01*
G37*
G36*
X46176669Y7792314D02*
X46353058Y7774941D01*
X46520988Y7724000D01*
X46692549Y7671958D01*
X47005425Y7504721D01*
X47279661Y7279661D01*
X47504721Y7005425D01*
X47671958Y6692549D01*
X47671958Y6692548D01*
X47774941Y6353058D01*
X47809714Y6000000D01*
X47774941Y5646942D01*
X47730670Y5501000D01*
X47671958Y5307451D01*
X47504721Y4994575D01*
X47279661Y4720339D01*
X47005425Y4495279D01*
X46692549Y4328042D01*
X46594887Y4298417D01*
X46353058Y4225059D01*
X46176669Y4207686D01*
X46088476Y4199000D01*
X45911524Y4199000D01*
X45823331Y4207686D01*
X45646942Y4225059D01*
X45405113Y4298417D01*
X45307451Y4328042D01*
X44994575Y4495279D01*
X44720339Y4720339D01*
X44495279Y4994575D01*
X44328042Y5307451D01*
X44269330Y5501000D01*
X44225059Y5646942D01*
X44190286Y6000000D01*
X44225059Y6353058D01*
X44328042Y6692548D01*
X44328042Y6692549D01*
X44495279Y7005425D01*
X44720339Y7279661D01*
X44994575Y7504721D01*
X45307451Y7671958D01*
X45479012Y7724000D01*
X45646942Y7774941D01*
X45823331Y7792314D01*
X45911524Y7801000D01*
X46088476Y7801000D01*
X46176669Y7792314D01*
X46176669Y7792314D01*
G37*
G36*
X67495764Y6997692D02*
X67584220Y6988980D01*
X67773381Y6931599D01*
X67947712Y6838417D01*
X68100515Y6713015D01*
X68225917Y6560212D01*
X68319099Y6385881D01*
X68376480Y6196720D01*
X68395855Y6000000D01*
X68376480Y5803280D01*
X68319099Y5614119D01*
X68225917Y5439788D01*
X68100515Y5286985D01*
X67947712Y5161583D01*
X67773381Y5068401D01*
X67584220Y5011020D01*
X67495764Y5002308D01*
X67436796Y4996500D01*
X67243204Y4996500D01*
X67184236Y5002308D01*
X67095780Y5011020D01*
X66906619Y5068401D01*
X66732288Y5161583D01*
X66579485Y5286985D01*
X66454083Y5439788D01*
X66360901Y5614119D01*
X66303520Y5803280D01*
X66284145Y6000000D01*
X66303520Y6196720D01*
X66360901Y6385881D01*
X66454083Y6560212D01*
X66579485Y6713015D01*
X66732288Y6838417D01*
X66906619Y6931599D01*
X67095780Y6988980D01*
X67184236Y6997692D01*
X67243204Y7003500D01*
X67436796Y7003500D01*
X67495764Y6997692D01*
X67495764Y6997692D01*
G37*
G36*
X62815764Y6997692D02*
X62904220Y6988980D01*
X63093381Y6931599D01*
X63267712Y6838417D01*
X63420515Y6713015D01*
X63545917Y6560212D01*
X63639099Y6385881D01*
X63696480Y6196720D01*
X63715855Y6000000D01*
X63696480Y5803280D01*
X63639099Y5614119D01*
X63545917Y5439788D01*
X63420515Y5286985D01*
X63267712Y5161583D01*
X63093381Y5068401D01*
X62904220Y5011020D01*
X62815764Y5002308D01*
X62756796Y4996500D01*
X62563204Y4996500D01*
X62504236Y5002308D01*
X62415780Y5011020D01*
X62226619Y5068401D01*
X62052288Y5161583D01*
X61899485Y5286985D01*
X61774083Y5439788D01*
X61680901Y5614119D01*
X61623520Y5803280D01*
X61604145Y6000000D01*
X61623520Y6196720D01*
X61680901Y6385881D01*
X61774083Y6560212D01*
X61899485Y6713015D01*
X62052288Y6838417D01*
X62226619Y6931599D01*
X62415780Y6988980D01*
X62504236Y6997692D01*
X62563204Y7003500D01*
X62756796Y7003500D01*
X62815764Y6997692D01*
X62815764Y6997692D01*
G37*
G36*
X77932527Y8511264D02*
X78032410Y8491396D01*
X78314674Y8374479D01*
X78568705Y8204741D01*
X78784741Y7988705D01*
X78954479Y7734674D01*
X79065882Y7465722D01*
X79071396Y7452409D01*
X79131000Y7152762D01*
X79131000Y6847238D01*
X79117510Y6779419D01*
X79071396Y6547590D01*
X78954479Y6265326D01*
X78784741Y6011295D01*
X78568705Y5795259D01*
X78314674Y5625521D01*
X78032410Y5508604D01*
X77932527Y5488736D01*
X77732762Y5449000D01*
X77427238Y5449000D01*
X77227473Y5488736D01*
X77127590Y5508604D01*
X76845326Y5625521D01*
X76591295Y5795259D01*
X76375259Y6011295D01*
X76205521Y6265326D01*
X76088604Y6547590D01*
X76042490Y6779419D01*
X76029000Y6847238D01*
X76029000Y7152762D01*
X76088604Y7452409D01*
X76094118Y7465722D01*
X76205521Y7734674D01*
X76375259Y7988705D01*
X76591295Y8204741D01*
X76845326Y8374479D01*
X77127590Y8491396D01*
X77227473Y8511264D01*
X77427238Y8551000D01*
X77732762Y8551000D01*
X77932527Y8511264D01*
X77932527Y8511264D01*
G37*
G36*
X74051000Y5449000D02*
X70949000Y5449000D01*
X70949000Y8551000D01*
X74051000Y8551000D01*
X74051000Y5449000D01*
X74051000Y5449000D01*
G37*
G36*
X32932527Y8511264D02*
X33032410Y8491396D01*
X33314674Y8374479D01*
X33568705Y8204741D01*
X33784741Y7988705D01*
X33954479Y7734674D01*
X34065882Y7465722D01*
X34071396Y7452409D01*
X34131000Y7152762D01*
X34131000Y6847238D01*
X34117510Y6779419D01*
X34071396Y6547590D01*
X33954479Y6265326D01*
X33784741Y6011295D01*
X33568705Y5795259D01*
X33314674Y5625521D01*
X33032410Y5508604D01*
X32932527Y5488736D01*
X32732762Y5449000D01*
X32427238Y5449000D01*
X32227473Y5488736D01*
X32127590Y5508604D01*
X31845326Y5625521D01*
X31591295Y5795259D01*
X31375259Y6011295D01*
X31205521Y6265326D01*
X31088604Y6547590D01*
X31042490Y6779419D01*
X31029000Y6847238D01*
X31029000Y7152762D01*
X31088604Y7452409D01*
X31094118Y7465722D01*
X31205521Y7734674D01*
X31375259Y7988705D01*
X31591295Y8204741D01*
X31845326Y8374479D01*
X32127590Y8491396D01*
X32227473Y8511264D01*
X32427238Y8551000D01*
X32732762Y8551000D01*
X32932527Y8511264D01*
X32932527Y8511264D01*
G37*
G36*
X29051000Y5449000D02*
X25949000Y5449000D01*
X25949000Y8551000D01*
X29051000Y8551000D01*
X29051000Y5449000D01*
X29051000Y5449000D01*
G37*
G36*
X60584466Y6596435D02*
X60623137Y6584704D01*
X60658779Y6565652D01*
X60690017Y6540017D01*
X60715652Y6508779D01*
X60734704Y6473137D01*
X60746435Y6434466D01*
X60751000Y6388112D01*
X60751000Y5736888D01*
X60746435Y5690534D01*
X60734704Y5651863D01*
X60715652Y5616221D01*
X60690017Y5584983D01*
X60658779Y5559348D01*
X60623137Y5540296D01*
X60584466Y5528565D01*
X60538112Y5524000D01*
X59461888Y5524000D01*
X59415534Y5528565D01*
X59376863Y5540296D01*
X59341221Y5559348D01*
X59309983Y5584983D01*
X59284348Y5616221D01*
X59265296Y5651863D01*
X59253565Y5690534D01*
X59249000Y5736888D01*
X59249000Y6388112D01*
X59253565Y6434466D01*
X59265296Y6473137D01*
X59284348Y6508779D01*
X59309983Y6540017D01*
X59341221Y6565652D01*
X59376863Y6584704D01*
X59415534Y6596435D01*
X59461888Y6601000D01*
X60538112Y6601000D01*
X60584466Y6596435D01*
X60584466Y6596435D01*
G37*
G36*
X65551000Y6699000D02*
X64449000Y6699000D01*
X64449000Y7801000D01*
X65551000Y7801000D01*
X65551000Y6699000D01*
X65551000Y6699000D01*
G37*
G36*
X58551000Y6699000D02*
X57449000Y6699000D01*
X57449000Y7801000D01*
X58551000Y7801000D01*
X58551000Y6699000D01*
X58551000Y6699000D01*
G37*
G36*
X41309466Y8746435D02*
X41348137Y8734704D01*
X41383779Y8715652D01*
X41415017Y8690017D01*
X41440652Y8658779D01*
X41459704Y8623137D01*
X41471435Y8584466D01*
X41476000Y8538112D01*
X41476000Y7461888D01*
X41471435Y7415534D01*
X41459704Y7376863D01*
X41440652Y7341221D01*
X41415017Y7309983D01*
X41383779Y7284348D01*
X41348137Y7265296D01*
X41309466Y7253565D01*
X41263112Y7249000D01*
X40611888Y7249000D01*
X40565534Y7253565D01*
X40526863Y7265296D01*
X40491221Y7284348D01*
X40459983Y7309983D01*
X40434348Y7341221D01*
X40415296Y7376863D01*
X40403565Y7415534D01*
X40399000Y7461888D01*
X40399000Y8538112D01*
X40403565Y8584466D01*
X40415296Y8623137D01*
X40434348Y8658779D01*
X40459983Y8690017D01*
X40491221Y8715652D01*
X40526863Y8734704D01*
X40565534Y8746435D01*
X40611888Y8751000D01*
X41263112Y8751000D01*
X41309466Y8746435D01*
X41309466Y8746435D01*
G37*
G36*
X39434466Y8746435D02*
X39473137Y8734704D01*
X39508779Y8715652D01*
X39540017Y8690017D01*
X39565652Y8658779D01*
X39584704Y8623137D01*
X39596435Y8584466D01*
X39601000Y8538112D01*
X39601000Y7461888D01*
X39596435Y7415534D01*
X39584704Y7376863D01*
X39565652Y7341221D01*
X39540017Y7309983D01*
X39508779Y7284348D01*
X39473137Y7265296D01*
X39434466Y7253565D01*
X39388112Y7249000D01*
X38736888Y7249000D01*
X38690534Y7253565D01*
X38651863Y7265296D01*
X38616221Y7284348D01*
X38584983Y7309983D01*
X38559348Y7341221D01*
X38540296Y7376863D01*
X38528565Y7415534D01*
X38524000Y7461888D01*
X38524000Y8538112D01*
X38528565Y8584466D01*
X38540296Y8623137D01*
X38559348Y8658779D01*
X38584983Y8690017D01*
X38616221Y8715652D01*
X38651863Y8734704D01*
X38690534Y8746435D01*
X38736888Y8751000D01*
X39388112Y8751000D01*
X39434466Y8746435D01*
X39434466Y8746435D01*
G37*
G36*
X60584466Y8471435D02*
X60623137Y8459704D01*
X60658779Y8440652D01*
X60690017Y8415017D01*
X60715652Y8383779D01*
X60734704Y8348137D01*
X60746435Y8309466D01*
X60751000Y8263112D01*
X60751000Y7611888D01*
X60746435Y7565534D01*
X60734704Y7526863D01*
X60715652Y7491221D01*
X60690017Y7459983D01*
X60658779Y7434348D01*
X60623137Y7415296D01*
X60584466Y7403565D01*
X60538112Y7399000D01*
X59461888Y7399000D01*
X59415534Y7403565D01*
X59376863Y7415296D01*
X59341221Y7434348D01*
X59309983Y7459983D01*
X59284348Y7491221D01*
X59265296Y7526863D01*
X59253565Y7565534D01*
X59249000Y7611888D01*
X59249000Y8263112D01*
X59253565Y8309466D01*
X59265296Y8348137D01*
X59284348Y8383779D01*
X59309983Y8415017D01*
X59341221Y8440652D01*
X59376863Y8459704D01*
X59415534Y8471435D01*
X59461888Y8476000D01*
X60538112Y8476000D01*
X60584466Y8471435D01*
X60584466Y8471435D01*
G37*
G36*
X68391000Y7536500D02*
X66289000Y7536500D01*
X66289000Y9543500D01*
X68391000Y9543500D01*
X68391000Y7536500D01*
X68391000Y7536500D01*
G37*
G36*
X62815764Y9537692D02*
X62904220Y9528980D01*
X63093381Y9471599D01*
X63267712Y9378417D01*
X63420515Y9253015D01*
X63545917Y9100212D01*
X63639099Y8925881D01*
X63696480Y8736720D01*
X63715855Y8540000D01*
X63696480Y8343280D01*
X63639099Y8154119D01*
X63545917Y7979788D01*
X63420515Y7826985D01*
X63267712Y7701583D01*
X63093381Y7608401D01*
X62904220Y7551020D01*
X62815764Y7542308D01*
X62756796Y7536500D01*
X62563204Y7536500D01*
X62504236Y7542308D01*
X62415780Y7551020D01*
X62226619Y7608401D01*
X62052288Y7701583D01*
X61899485Y7826985D01*
X61774083Y7979788D01*
X61680901Y8154119D01*
X61623520Y8343280D01*
X61604145Y8540000D01*
X61623520Y8736720D01*
X61680901Y8925881D01*
X61774083Y9100212D01*
X61899485Y9253015D01*
X62052288Y9378417D01*
X62226619Y9471599D01*
X62415780Y9528980D01*
X62504236Y9537692D01*
X62563204Y9543500D01*
X62756796Y9543500D01*
X62815764Y9537692D01*
X62815764Y9537692D01*
G37*
G36*
X19205589Y9761124D02*
X19304893Y9741371D01*
X19445206Y9683252D01*
X19571484Y9598875D01*
X19678875Y9491484D01*
X19763252Y9365206D01*
X19821371Y9224893D01*
X19821371Y9224891D01*
X19851000Y9075938D01*
X19851000Y8924062D01*
X19846539Y8901637D01*
X19821371Y8775107D01*
X19763252Y8634794D01*
X19678875Y8508516D01*
X19571484Y8401125D01*
X19445206Y8316748D01*
X19304893Y8258629D01*
X19207995Y8239355D01*
X19155938Y8229000D01*
X19004062Y8229000D01*
X18952005Y8239355D01*
X18855107Y8258629D01*
X18714794Y8316748D01*
X18588516Y8401125D01*
X18481125Y8508516D01*
X18396748Y8634794D01*
X18338629Y8775107D01*
X18313461Y8901637D01*
X18309000Y8924062D01*
X18309000Y9075938D01*
X18338629Y9224891D01*
X18338629Y9224893D01*
X18396748Y9365206D01*
X18481125Y9491484D01*
X18588516Y9598875D01*
X18714794Y9683252D01*
X18855107Y9741371D01*
X18954411Y9761124D01*
X19004062Y9771000D01*
X19155938Y9771000D01*
X19205589Y9761124D01*
X19205589Y9761124D01*
G37*
G36*
X16665589Y9761124D02*
X16764893Y9741371D01*
X16905206Y9683252D01*
X17031484Y9598875D01*
X17138875Y9491484D01*
X17223252Y9365206D01*
X17281371Y9224893D01*
X17281371Y9224891D01*
X17311000Y9075938D01*
X17311000Y8924062D01*
X17306539Y8901637D01*
X17281371Y8775107D01*
X17223252Y8634794D01*
X17138875Y8508516D01*
X17031484Y8401125D01*
X16905206Y8316748D01*
X16764893Y8258629D01*
X16667995Y8239355D01*
X16615938Y8229000D01*
X16464062Y8229000D01*
X16412005Y8239355D01*
X16315107Y8258629D01*
X16174794Y8316748D01*
X16048516Y8401125D01*
X15941125Y8508516D01*
X15856748Y8634794D01*
X15798629Y8775107D01*
X15773461Y8901637D01*
X15769000Y8924062D01*
X15769000Y9075938D01*
X15798629Y9224891D01*
X15798629Y9224893D01*
X15856748Y9365206D01*
X15941125Y9491484D01*
X16048516Y9598875D01*
X16174794Y9683252D01*
X16315107Y9741371D01*
X16414411Y9761124D01*
X16464062Y9771000D01*
X16615938Y9771000D01*
X16665589Y9761124D01*
X16665589Y9761124D01*
G37*
G36*
X14125589Y9761124D02*
X14224893Y9741371D01*
X14365206Y9683252D01*
X14491484Y9598875D01*
X14598875Y9491484D01*
X14683252Y9365206D01*
X14741371Y9224893D01*
X14741371Y9224891D01*
X14771000Y9075938D01*
X14771000Y8924062D01*
X14766539Y8901637D01*
X14741371Y8775107D01*
X14683252Y8634794D01*
X14598875Y8508516D01*
X14491484Y8401125D01*
X14365206Y8316748D01*
X14224893Y8258629D01*
X14127995Y8239355D01*
X14075938Y8229000D01*
X13924062Y8229000D01*
X13872005Y8239355D01*
X13775107Y8258629D01*
X13634794Y8316748D01*
X13508516Y8401125D01*
X13401125Y8508516D01*
X13316748Y8634794D01*
X13258629Y8775107D01*
X13233461Y8901637D01*
X13229000Y8924062D01*
X13229000Y9075938D01*
X13258629Y9224891D01*
X13258629Y9224893D01*
X13316748Y9365206D01*
X13401125Y9491484D01*
X13508516Y9598875D01*
X13634794Y9683252D01*
X13775107Y9741371D01*
X13874411Y9761124D01*
X13924062Y9771000D01*
X14075938Y9771000D01*
X14125589Y9761124D01*
X14125589Y9761124D01*
G37*
G36*
X65584466Y9596435D02*
X65623137Y9584704D01*
X65658779Y9565652D01*
X65690017Y9540017D01*
X65715652Y9508779D01*
X65734704Y9473137D01*
X65746435Y9434466D01*
X65751000Y9388112D01*
X65751000Y8736888D01*
X65746435Y8690534D01*
X65734704Y8651863D01*
X65715652Y8616221D01*
X65690017Y8584983D01*
X65658779Y8559348D01*
X65623137Y8540296D01*
X65584466Y8528565D01*
X65538112Y8524000D01*
X64461888Y8524000D01*
X64415534Y8528565D01*
X64376863Y8540296D01*
X64341221Y8559348D01*
X64309983Y8584983D01*
X64284348Y8616221D01*
X64265296Y8651863D01*
X64253565Y8690534D01*
X64249000Y8736888D01*
X64249000Y9388112D01*
X64253565Y9434466D01*
X64265296Y9473137D01*
X64284348Y9508779D01*
X64309983Y9540017D01*
X64341221Y9565652D01*
X64376863Y9584704D01*
X64415534Y9596435D01*
X64461888Y9601000D01*
X65538112Y9601000D01*
X65584466Y9596435D01*
X65584466Y9596435D01*
G37*
G36*
X9552869Y10484524D02*
X9591540Y10472793D01*
X9627182Y10453741D01*
X9663193Y10424189D01*
X10424189Y9663193D01*
X10453741Y9627182D01*
X10472793Y9591540D01*
X10484524Y9552869D01*
X10488484Y9512653D01*
X10484524Y9472437D01*
X10472793Y9433766D01*
X10453741Y9398124D01*
X10424189Y9362113D01*
X9963713Y8901637D01*
X9927702Y8872085D01*
X9892060Y8853033D01*
X9853389Y8841302D01*
X9813173Y8837342D01*
X9772957Y8841302D01*
X9734286Y8853033D01*
X9698644Y8872085D01*
X9662633Y8901637D01*
X8901637Y9662633D01*
X8872085Y9698644D01*
X8853033Y9734286D01*
X8841302Y9772957D01*
X8837342Y9813173D01*
X8841302Y9853389D01*
X8853033Y9892060D01*
X8872085Y9927702D01*
X8901637Y9963713D01*
X9362113Y10424189D01*
X9398124Y10453741D01*
X9433766Y10472793D01*
X9472437Y10484524D01*
X9512653Y10488484D01*
X9552869Y10484524D01*
X9552869Y10484524D01*
G37*
G36*
X39434466Y10746435D02*
X39473137Y10734704D01*
X39508779Y10715652D01*
X39540017Y10690017D01*
X39565652Y10658779D01*
X39584704Y10623137D01*
X39596435Y10584466D01*
X39601000Y10538112D01*
X39601000Y9461888D01*
X39596435Y9415534D01*
X39584704Y9376863D01*
X39565652Y9341221D01*
X39540017Y9309983D01*
X39508779Y9284348D01*
X39473137Y9265296D01*
X39434466Y9253565D01*
X39388112Y9249000D01*
X38736888Y9249000D01*
X38690534Y9253565D01*
X38651863Y9265296D01*
X38616221Y9284348D01*
X38584983Y9309983D01*
X38559348Y9341221D01*
X38540296Y9376863D01*
X38528565Y9415534D01*
X38524000Y9461888D01*
X38524000Y10538112D01*
X38528565Y10584466D01*
X38540296Y10623137D01*
X38559348Y10658779D01*
X38584983Y10690017D01*
X38616221Y10715652D01*
X38651863Y10734704D01*
X38690534Y10746435D01*
X38736888Y10751000D01*
X39388112Y10751000D01*
X39434466Y10746435D01*
X39434466Y10746435D01*
G37*
G36*
X41309466Y10746435D02*
X41348137Y10734704D01*
X41383779Y10715652D01*
X41415017Y10690017D01*
X41440652Y10658779D01*
X41459704Y10623137D01*
X41471435Y10584466D01*
X41476000Y10538112D01*
X41476000Y9461888D01*
X41471435Y9415534D01*
X41459704Y9376863D01*
X41440652Y9341221D01*
X41415017Y9309983D01*
X41383779Y9284348D01*
X41348137Y9265296D01*
X41309466Y9253565D01*
X41263112Y9249000D01*
X40611888Y9249000D01*
X40565534Y9253565D01*
X40526863Y9265296D01*
X40491221Y9284348D01*
X40459983Y9309983D01*
X40434348Y9341221D01*
X40415296Y9376863D01*
X40403565Y9415534D01*
X40399000Y9461888D01*
X40399000Y10538112D01*
X40403565Y10584466D01*
X40415296Y10623137D01*
X40434348Y10658779D01*
X40459983Y10690017D01*
X40491221Y10715652D01*
X40526863Y10734704D01*
X40565534Y10746435D01*
X40611888Y10751000D01*
X41263112Y10751000D01*
X41309466Y10746435D01*
X41309466Y10746435D01*
G37*
G36*
X65584466Y11471435D02*
X65623137Y11459704D01*
X65658779Y11440652D01*
X65690017Y11415017D01*
X65715652Y11383779D01*
X65734704Y11348137D01*
X65746435Y11309466D01*
X65751000Y11263112D01*
X65751000Y10611888D01*
X65746435Y10565534D01*
X65734704Y10526863D01*
X65715652Y10491221D01*
X65690017Y10459983D01*
X65658779Y10434348D01*
X65623137Y10415296D01*
X65584466Y10403565D01*
X65538112Y10399000D01*
X64461888Y10399000D01*
X64415534Y10403565D01*
X64376863Y10415296D01*
X64341221Y10434348D01*
X64309983Y10459983D01*
X64284348Y10491221D01*
X64265296Y10526863D01*
X64253565Y10565534D01*
X64249000Y10611888D01*
X64249000Y11263112D01*
X64253565Y11309466D01*
X64265296Y11348137D01*
X64284348Y11383779D01*
X64309983Y11415017D01*
X64341221Y11440652D01*
X64376863Y11459704D01*
X64415534Y11471435D01*
X64461888Y11476000D01*
X65538112Y11476000D01*
X65584466Y11471435D01*
X65584466Y11471435D01*
G37*
G36*
X49584466Y11596435D02*
X49623137Y11584704D01*
X49658779Y11565652D01*
X49690017Y11540017D01*
X49715652Y11508779D01*
X49734704Y11473137D01*
X49746435Y11434466D01*
X49751000Y11388112D01*
X49751000Y10736888D01*
X49746435Y10690534D01*
X49734704Y10651863D01*
X49715652Y10616221D01*
X49690017Y10584983D01*
X49658779Y10559348D01*
X49623137Y10540296D01*
X49584466Y10528565D01*
X49538112Y10524000D01*
X48461888Y10524000D01*
X48415534Y10528565D01*
X48376863Y10540296D01*
X48341221Y10559348D01*
X48309983Y10584983D01*
X48284348Y10616221D01*
X48265296Y10651863D01*
X48253565Y10690534D01*
X48249000Y10736888D01*
X48249000Y11388112D01*
X48253565Y11434466D01*
X48265296Y11473137D01*
X48284348Y11508779D01*
X48309983Y11540017D01*
X48341221Y11565652D01*
X48376863Y11584704D01*
X48415534Y11596435D01*
X48461888Y11601000D01*
X49538112Y11601000D01*
X49584466Y11596435D01*
X49584466Y11596435D01*
G37*
G36*
X44164928Y13548236D02*
X44186011Y13541840D01*
X44205442Y13531454D01*
X44222475Y13517475D01*
X44236454Y13500442D01*
X44246840Y13481011D01*
X44253236Y13459928D01*
X44256000Y13431860D01*
X44256000Y11618140D01*
X44253236Y11590072D01*
X44246840Y11568989D01*
X44236454Y11549558D01*
X44222475Y11532525D01*
X44205442Y11518546D01*
X44186011Y11508160D01*
X44164928Y11501764D01*
X44136860Y11499000D01*
X43673140Y11499000D01*
X43645072Y11501764D01*
X43623989Y11508160D01*
X43604558Y11518546D01*
X43587525Y11532525D01*
X43573546Y11549558D01*
X43563160Y11568989D01*
X43556764Y11590072D01*
X43554000Y11618140D01*
X43554000Y13431860D01*
X43556764Y13459928D01*
X43563160Y13481011D01*
X43573546Y13500442D01*
X43587525Y13517475D01*
X43604558Y13531454D01*
X43623989Y13541840D01*
X43645072Y13548236D01*
X43673140Y13551000D01*
X44136860Y13551000D01*
X44164928Y13548236D01*
X44164928Y13548236D01*
G37*
G36*
X42894928Y13548236D02*
X42916011Y13541840D01*
X42935442Y13531454D01*
X42952475Y13517475D01*
X42966454Y13500442D01*
X42976840Y13481011D01*
X42983236Y13459928D01*
X42986000Y13431860D01*
X42986000Y11618140D01*
X42983236Y11590072D01*
X42976840Y11568989D01*
X42966454Y11549558D01*
X42952475Y11532525D01*
X42935442Y11518546D01*
X42916011Y11508160D01*
X42894928Y11501764D01*
X42866860Y11499000D01*
X42403140Y11499000D01*
X42375072Y11501764D01*
X42353989Y11508160D01*
X42334558Y11518546D01*
X42317525Y11532525D01*
X42303546Y11549558D01*
X42293160Y11568989D01*
X42286764Y11590072D01*
X42284000Y11618140D01*
X42284000Y13431860D01*
X42286764Y13459928D01*
X42293160Y13481011D01*
X42303546Y13500442D01*
X42317525Y13517475D01*
X42334558Y13531454D01*
X42353989Y13541840D01*
X42375072Y13548236D01*
X42403140Y13551000D01*
X42866860Y13551000D01*
X42894928Y13548236D01*
X42894928Y13548236D01*
G37*
G36*
X41624928Y13548236D02*
X41646011Y13541840D01*
X41665442Y13531454D01*
X41682475Y13517475D01*
X41696454Y13500442D01*
X41706840Y13481011D01*
X41713236Y13459928D01*
X41716000Y13431860D01*
X41716000Y11618140D01*
X41713236Y11590072D01*
X41706840Y11568989D01*
X41696454Y11549558D01*
X41682475Y11532525D01*
X41665442Y11518546D01*
X41646011Y11508160D01*
X41624928Y11501764D01*
X41596860Y11499000D01*
X41133140Y11499000D01*
X41105072Y11501764D01*
X41083989Y11508160D01*
X41064558Y11518546D01*
X41047525Y11532525D01*
X41033546Y11549558D01*
X41023160Y11568989D01*
X41016764Y11590072D01*
X41014000Y11618140D01*
X41014000Y13431860D01*
X41016764Y13459928D01*
X41023160Y13481011D01*
X41033546Y13500442D01*
X41047525Y13517475D01*
X41064558Y13531454D01*
X41083989Y13541840D01*
X41105072Y13548236D01*
X41133140Y13551000D01*
X41596860Y13551000D01*
X41624928Y13548236D01*
X41624928Y13548236D01*
G37*
G36*
X40354928Y13548236D02*
X40376011Y13541840D01*
X40395442Y13531454D01*
X40412475Y13517475D01*
X40426454Y13500442D01*
X40436840Y13481011D01*
X40443236Y13459928D01*
X40446000Y13431860D01*
X40446000Y11618140D01*
X40443236Y11590072D01*
X40436840Y11568989D01*
X40426454Y11549558D01*
X40412475Y11532525D01*
X40395442Y11518546D01*
X40376011Y11508160D01*
X40354928Y11501764D01*
X40326860Y11499000D01*
X39863140Y11499000D01*
X39835072Y11501764D01*
X39813989Y11508160D01*
X39794558Y11518546D01*
X39777525Y11532525D01*
X39763546Y11549558D01*
X39753160Y11568989D01*
X39746764Y11590072D01*
X39744000Y11618140D01*
X39744000Y13431860D01*
X39746764Y13459928D01*
X39753160Y13481011D01*
X39763546Y13500442D01*
X39777525Y13517475D01*
X39794558Y13531454D01*
X39813989Y13541840D01*
X39835072Y13548236D01*
X39863140Y13551000D01*
X40326860Y13551000D01*
X40354928Y13548236D01*
X40354928Y13548236D01*
G37*
G36*
X38584466Y12596435D02*
X38623137Y12584704D01*
X38658779Y12565652D01*
X38690017Y12540017D01*
X38715652Y12508779D01*
X38734704Y12473137D01*
X38746435Y12434466D01*
X38751000Y12388112D01*
X38751000Y11736888D01*
X38746435Y11690534D01*
X38734704Y11651863D01*
X38715652Y11616221D01*
X38690017Y11584983D01*
X38658779Y11559348D01*
X38623137Y11540296D01*
X38584466Y11528565D01*
X38538112Y11524000D01*
X37461888Y11524000D01*
X37415534Y11528565D01*
X37376863Y11540296D01*
X37341221Y11559348D01*
X37309983Y11584983D01*
X37284348Y11616221D01*
X37265296Y11651863D01*
X37253565Y11690534D01*
X37249000Y11736888D01*
X37249000Y12388112D01*
X37253565Y12434466D01*
X37265296Y12473137D01*
X37284348Y12508779D01*
X37309983Y12540017D01*
X37341221Y12565652D01*
X37376863Y12584704D01*
X37415534Y12596435D01*
X37461888Y12601000D01*
X38538112Y12601000D01*
X38584466Y12596435D01*
X38584466Y12596435D01*
G37*
G36*
X49584466Y13471435D02*
X49623137Y13459704D01*
X49658779Y13440652D01*
X49690017Y13415017D01*
X49715652Y13383779D01*
X49734704Y13348137D01*
X49746435Y13309466D01*
X49751000Y13263112D01*
X49751000Y12611888D01*
X49746435Y12565534D01*
X49734704Y12526863D01*
X49715652Y12491221D01*
X49690017Y12459983D01*
X49658779Y12434348D01*
X49623137Y12415296D01*
X49584466Y12403565D01*
X49538112Y12399000D01*
X48461888Y12399000D01*
X48415534Y12403565D01*
X48376863Y12415296D01*
X48341221Y12434348D01*
X48309983Y12459983D01*
X48284348Y12491221D01*
X48265296Y12526863D01*
X48253565Y12565534D01*
X48249000Y12611888D01*
X48249000Y13263112D01*
X48253565Y13309466D01*
X48265296Y13348137D01*
X48284348Y13383779D01*
X48309983Y13415017D01*
X48341221Y13440652D01*
X48376863Y13459704D01*
X48415534Y13471435D01*
X48461888Y13476000D01*
X49538112Y13476000D01*
X49584466Y13471435D01*
X49584466Y13471435D01*
G37*
G36*
X34069928Y14548236D02*
X34091011Y14541840D01*
X34110442Y14531454D01*
X34127475Y14517475D01*
X34141454Y14500442D01*
X34151840Y14481011D01*
X34158236Y14459928D01*
X34161000Y14431860D01*
X34161000Y12618140D01*
X34158236Y12590072D01*
X34151840Y12568989D01*
X34141454Y12549558D01*
X34127475Y12532525D01*
X34110442Y12518546D01*
X34091011Y12508160D01*
X34069928Y12501764D01*
X34041860Y12499000D01*
X33578140Y12499000D01*
X33550072Y12501764D01*
X33528989Y12508160D01*
X33509558Y12518546D01*
X33492525Y12532525D01*
X33478546Y12549558D01*
X33468160Y12568989D01*
X33461764Y12590072D01*
X33459000Y12618140D01*
X33459000Y14431860D01*
X33461764Y14459928D01*
X33468160Y14481011D01*
X33478546Y14500442D01*
X33492525Y14517475D01*
X33509558Y14531454D01*
X33528989Y14541840D01*
X33550072Y14548236D01*
X33578140Y14551000D01*
X34041860Y14551000D01*
X34069928Y14548236D01*
X34069928Y14548236D01*
G37*
G36*
X32799928Y14548236D02*
X32821011Y14541840D01*
X32840442Y14531454D01*
X32857475Y14517475D01*
X32871454Y14500442D01*
X32881840Y14481011D01*
X32888236Y14459928D01*
X32891000Y14431860D01*
X32891000Y12618140D01*
X32888236Y12590072D01*
X32881840Y12568989D01*
X32871454Y12549558D01*
X32857475Y12532525D01*
X32840442Y12518546D01*
X32821011Y12508160D01*
X32799928Y12501764D01*
X32771860Y12499000D01*
X32308140Y12499000D01*
X32280072Y12501764D01*
X32258989Y12508160D01*
X32239558Y12518546D01*
X32222525Y12532525D01*
X32208546Y12549558D01*
X32198160Y12568989D01*
X32191764Y12590072D01*
X32189000Y12618140D01*
X32189000Y14431860D01*
X32191764Y14459928D01*
X32198160Y14481011D01*
X32208546Y14500442D01*
X32222525Y14517475D01*
X32239558Y14531454D01*
X32258989Y14541840D01*
X32280072Y14548236D01*
X32308140Y14551000D01*
X32771860Y14551000D01*
X32799928Y14548236D01*
X32799928Y14548236D01*
G37*
G36*
X30259928Y14548236D02*
X30281011Y14541840D01*
X30300442Y14531454D01*
X30317475Y14517475D01*
X30331454Y14500442D01*
X30341840Y14481011D01*
X30348236Y14459928D01*
X30351000Y14431860D01*
X30351000Y12618140D01*
X30348236Y12590072D01*
X30341840Y12568989D01*
X30331454Y12549558D01*
X30317475Y12532525D01*
X30300442Y12518546D01*
X30281011Y12508160D01*
X30259928Y12501764D01*
X30231860Y12499000D01*
X29768140Y12499000D01*
X29740072Y12501764D01*
X29718989Y12508160D01*
X29699558Y12518546D01*
X29682525Y12532525D01*
X29668546Y12549558D01*
X29658160Y12568989D01*
X29651764Y12590072D01*
X29649000Y12618140D01*
X29649000Y14431860D01*
X29651764Y14459928D01*
X29658160Y14481011D01*
X29668546Y14500442D01*
X29682525Y14517475D01*
X29699558Y14531454D01*
X29718989Y14541840D01*
X29740072Y14548236D01*
X29768140Y14551000D01*
X30231860Y14551000D01*
X30259928Y14548236D01*
X30259928Y14548236D01*
G37*
G36*
X26449928Y14548236D02*
X26471011Y14541840D01*
X26490442Y14531454D01*
X26507475Y14517475D01*
X26521454Y14500442D01*
X26531840Y14481011D01*
X26538236Y14459928D01*
X26541000Y14431860D01*
X26541000Y12618140D01*
X26538236Y12590072D01*
X26531840Y12568989D01*
X26521454Y12549558D01*
X26507475Y12532525D01*
X26490442Y12518546D01*
X26471011Y12508160D01*
X26449928Y12501764D01*
X26421860Y12499000D01*
X25958140Y12499000D01*
X25930072Y12501764D01*
X25908989Y12508160D01*
X25889558Y12518546D01*
X25872525Y12532525D01*
X25858546Y12549558D01*
X25848160Y12568989D01*
X25841764Y12590072D01*
X25839000Y12618140D01*
X25839000Y14431860D01*
X25841764Y14459928D01*
X25848160Y14481011D01*
X25858546Y14500442D01*
X25872525Y14517475D01*
X25889558Y14531454D01*
X25908989Y14541840D01*
X25930072Y14548236D01*
X25958140Y14551000D01*
X26421860Y14551000D01*
X26449928Y14548236D01*
X26449928Y14548236D01*
G37*
G36*
X27719928Y14548236D02*
X27741011Y14541840D01*
X27760442Y14531454D01*
X27777475Y14517475D01*
X27791454Y14500442D01*
X27801840Y14481011D01*
X27808236Y14459928D01*
X27811000Y14431860D01*
X27811000Y12618140D01*
X27808236Y12590072D01*
X27801840Y12568989D01*
X27791454Y12549558D01*
X27777475Y12532525D01*
X27760442Y12518546D01*
X27741011Y12508160D01*
X27719928Y12501764D01*
X27691860Y12499000D01*
X27228140Y12499000D01*
X27200072Y12501764D01*
X27178989Y12508160D01*
X27159558Y12518546D01*
X27142525Y12532525D01*
X27128546Y12549558D01*
X27118160Y12568989D01*
X27111764Y12590072D01*
X27109000Y12618140D01*
X27109000Y14431860D01*
X27111764Y14459928D01*
X27118160Y14481011D01*
X27128546Y14500442D01*
X27142525Y14517475D01*
X27159558Y14531454D01*
X27178989Y14541840D01*
X27200072Y14548236D01*
X27228140Y14551000D01*
X27691860Y14551000D01*
X27719928Y14548236D01*
X27719928Y14548236D01*
G37*
G36*
X28989928Y14548236D02*
X29011011Y14541840D01*
X29030442Y14531454D01*
X29047475Y14517475D01*
X29061454Y14500442D01*
X29071840Y14481011D01*
X29078236Y14459928D01*
X29081000Y14431860D01*
X29081000Y12618140D01*
X29078236Y12590072D01*
X29071840Y12568989D01*
X29061454Y12549558D01*
X29047475Y12532525D01*
X29030442Y12518546D01*
X29011011Y12508160D01*
X28989928Y12501764D01*
X28961860Y12499000D01*
X28498140Y12499000D01*
X28470072Y12501764D01*
X28448989Y12508160D01*
X28429558Y12518546D01*
X28412525Y12532525D01*
X28398546Y12549558D01*
X28388160Y12568989D01*
X28381764Y12590072D01*
X28379000Y12618140D01*
X28379000Y14431860D01*
X28381764Y14459928D01*
X28388160Y14481011D01*
X28398546Y14500442D01*
X28412525Y14517475D01*
X28429558Y14531454D01*
X28448989Y14541840D01*
X28470072Y14548236D01*
X28498140Y14551000D01*
X28961860Y14551000D01*
X28989928Y14548236D01*
X28989928Y14548236D01*
G37*
G36*
X31529928Y14548236D02*
X31551011Y14541840D01*
X31570442Y14531454D01*
X31587475Y14517475D01*
X31601454Y14500442D01*
X31611840Y14481011D01*
X31618236Y14459928D01*
X31621000Y14431860D01*
X31621000Y12618140D01*
X31618236Y12590072D01*
X31611840Y12568989D01*
X31601454Y12549558D01*
X31587475Y12532525D01*
X31570442Y12518546D01*
X31551011Y12508160D01*
X31529928Y12501764D01*
X31501860Y12499000D01*
X31038140Y12499000D01*
X31010072Y12501764D01*
X30988989Y12508160D01*
X30969558Y12518546D01*
X30952525Y12532525D01*
X30938546Y12549558D01*
X30928160Y12568989D01*
X30921764Y12590072D01*
X30919000Y12618140D01*
X30919000Y14431860D01*
X30921764Y14459928D01*
X30928160Y14481011D01*
X30938546Y14500442D01*
X30952525Y14517475D01*
X30969558Y14531454D01*
X30988989Y14541840D01*
X31010072Y14548236D01*
X31038140Y14551000D01*
X31501860Y14551000D01*
X31529928Y14548236D01*
X31529928Y14548236D01*
G37*
G36*
X24584466Y13596435D02*
X24623137Y13584704D01*
X24658779Y13565652D01*
X24690017Y13540017D01*
X24715652Y13508779D01*
X24734704Y13473137D01*
X24746435Y13434466D01*
X24751000Y13388112D01*
X24751000Y12736888D01*
X24746435Y12690534D01*
X24734704Y12651863D01*
X24715652Y12616221D01*
X24690017Y12584983D01*
X24658779Y12559348D01*
X24623137Y12540296D01*
X24584466Y12528565D01*
X24538112Y12524000D01*
X23461888Y12524000D01*
X23415534Y12528565D01*
X23376863Y12540296D01*
X23341221Y12559348D01*
X23309983Y12584983D01*
X23284348Y12616221D01*
X23265296Y12651863D01*
X23253565Y12690534D01*
X23249000Y12736888D01*
X23249000Y13388112D01*
X23253565Y13434466D01*
X23265296Y13473137D01*
X23284348Y13508779D01*
X23309983Y13540017D01*
X23341221Y13565652D01*
X23376863Y13584704D01*
X23415534Y13596435D01*
X23461888Y13601000D01*
X24538112Y13601000D01*
X24584466Y13596435D01*
X24584466Y13596435D01*
G37*
G36*
X22584466Y13596435D02*
X22623137Y13584704D01*
X22658779Y13565652D01*
X22690017Y13540017D01*
X22715652Y13508779D01*
X22734704Y13473137D01*
X22746435Y13434466D01*
X22751000Y13388112D01*
X22751000Y12736888D01*
X22746435Y12690534D01*
X22734704Y12651863D01*
X22715652Y12616221D01*
X22690017Y12584983D01*
X22658779Y12559348D01*
X22623137Y12540296D01*
X22584466Y12528565D01*
X22538112Y12524000D01*
X21461888Y12524000D01*
X21415534Y12528565D01*
X21376863Y12540296D01*
X21341221Y12559348D01*
X21309983Y12584983D01*
X21284348Y12616221D01*
X21265296Y12651863D01*
X21253565Y12690534D01*
X21249000Y12736888D01*
X21249000Y13388112D01*
X21253565Y13434466D01*
X21265296Y13473137D01*
X21284348Y13508779D01*
X21309983Y13540017D01*
X21341221Y13565652D01*
X21376863Y13584704D01*
X21415534Y13596435D01*
X21461888Y13601000D01*
X22538112Y13601000D01*
X22584466Y13596435D01*
X22584466Y13596435D01*
G37*
G36*
X7509928Y13903236D02*
X7531011Y13896840D01*
X7550442Y13886454D01*
X7567475Y13872475D01*
X7581454Y13855442D01*
X7591840Y13836011D01*
X7598236Y13814928D01*
X7601000Y13786860D01*
X7601000Y13323140D01*
X7598236Y13295072D01*
X7591840Y13273989D01*
X7581454Y13254558D01*
X7567475Y13237525D01*
X7550442Y13223546D01*
X7531011Y13213160D01*
X7509928Y13206764D01*
X7481860Y13204000D01*
X6018140Y13204000D01*
X5990072Y13206764D01*
X5968989Y13213160D01*
X5949558Y13223546D01*
X5932525Y13237525D01*
X5918546Y13254558D01*
X5908160Y13273989D01*
X5901764Y13295072D01*
X5899000Y13323140D01*
X5899000Y13786860D01*
X5901764Y13814928D01*
X5908160Y13836011D01*
X5918546Y13855442D01*
X5932525Y13872475D01*
X5949558Y13886454D01*
X5968989Y13896840D01*
X5990072Y13903236D01*
X6018140Y13906000D01*
X7481860Y13906000D01*
X7509928Y13903236D01*
X7509928Y13903236D01*
G37*
G36*
X14009928Y13903236D02*
X14031011Y13896840D01*
X14050442Y13886454D01*
X14067475Y13872475D01*
X14081454Y13855442D01*
X14091840Y13836011D01*
X14098236Y13814928D01*
X14101000Y13786860D01*
X14101000Y13323140D01*
X14098236Y13295072D01*
X14091840Y13273989D01*
X14081454Y13254558D01*
X14067475Y13237525D01*
X14050442Y13223546D01*
X14031011Y13213160D01*
X14009928Y13206764D01*
X13981860Y13204000D01*
X12518140Y13204000D01*
X12490072Y13206764D01*
X12468989Y13213160D01*
X12449558Y13223546D01*
X12432525Y13237525D01*
X12418546Y13254558D01*
X12408160Y13273989D01*
X12401764Y13295072D01*
X12399000Y13323140D01*
X12399000Y13786860D01*
X12401764Y13814928D01*
X12408160Y13836011D01*
X12418546Y13855442D01*
X12432525Y13872475D01*
X12449558Y13886454D01*
X12468989Y13896840D01*
X12490072Y13903236D01*
X12518140Y13906000D01*
X13981860Y13906000D01*
X14009928Y13903236D01*
X14009928Y13903236D01*
G37*
G36*
X38584466Y14471435D02*
X38623137Y14459704D01*
X38658779Y14440652D01*
X38690017Y14415017D01*
X38715652Y14383779D01*
X38734704Y14348137D01*
X38746435Y14309466D01*
X38751000Y14263112D01*
X38751000Y13611888D01*
X38746435Y13565534D01*
X38734704Y13526863D01*
X38715652Y13491221D01*
X38690017Y13459983D01*
X38658779Y13434348D01*
X38623137Y13415296D01*
X38584466Y13403565D01*
X38538112Y13399000D01*
X37461888Y13399000D01*
X37415534Y13403565D01*
X37376863Y13415296D01*
X37341221Y13434348D01*
X37309983Y13459983D01*
X37284348Y13491221D01*
X37265296Y13526863D01*
X37253565Y13565534D01*
X37249000Y13611888D01*
X37249000Y14263112D01*
X37253565Y14309466D01*
X37265296Y14348137D01*
X37284348Y14383779D01*
X37309983Y14415017D01*
X37341221Y14440652D01*
X37376863Y14459704D01*
X37415534Y14471435D01*
X37461888Y14476000D01*
X38538112Y14476000D01*
X38584466Y14471435D01*
X38584466Y14471435D01*
G37*
G36*
X24584466Y15471435D02*
X24623137Y15459704D01*
X24658779Y15440652D01*
X24690017Y15415017D01*
X24715652Y15383779D01*
X24734704Y15348137D01*
X24746435Y15309466D01*
X24751000Y15263112D01*
X24751000Y14611888D01*
X24746435Y14565534D01*
X24734704Y14526863D01*
X24715652Y14491221D01*
X24690017Y14459983D01*
X24658779Y14434348D01*
X24623137Y14415296D01*
X24584466Y14403565D01*
X24538112Y14399000D01*
X23461888Y14399000D01*
X23415534Y14403565D01*
X23376863Y14415296D01*
X23341221Y14434348D01*
X23309983Y14459983D01*
X23284348Y14491221D01*
X23265296Y14526863D01*
X23253565Y14565534D01*
X23249000Y14611888D01*
X23249000Y15263112D01*
X23253565Y15309466D01*
X23265296Y15348137D01*
X23284348Y15383779D01*
X23309983Y15415017D01*
X23341221Y15440652D01*
X23376863Y15459704D01*
X23415534Y15471435D01*
X23461888Y15476000D01*
X24538112Y15476000D01*
X24584466Y15471435D01*
X24584466Y15471435D01*
G37*
G36*
X22584466Y15471435D02*
X22623137Y15459704D01*
X22658779Y15440652D01*
X22690017Y15415017D01*
X22715652Y15383779D01*
X22734704Y15348137D01*
X22746435Y15309466D01*
X22751000Y15263112D01*
X22751000Y14611888D01*
X22746435Y14565534D01*
X22734704Y14526863D01*
X22715652Y14491221D01*
X22690017Y14459983D01*
X22658779Y14434348D01*
X22623137Y14415296D01*
X22584466Y14403565D01*
X22538112Y14399000D01*
X21461888Y14399000D01*
X21415534Y14403565D01*
X21376863Y14415296D01*
X21341221Y14434348D01*
X21309983Y14459983D01*
X21284348Y14491221D01*
X21265296Y14526863D01*
X21253565Y14565534D01*
X21249000Y14611888D01*
X21249000Y15263112D01*
X21253565Y15309466D01*
X21265296Y15348137D01*
X21284348Y15383779D01*
X21309983Y15415017D01*
X21341221Y15440652D01*
X21376863Y15459704D01*
X21415534Y15471435D01*
X21461888Y15476000D01*
X22538112Y15476000D01*
X22584466Y15471435D01*
X22584466Y15471435D01*
G37*
G36*
X49584466Y15533935D02*
X49623137Y15522204D01*
X49658779Y15503152D01*
X49690017Y15477517D01*
X49715652Y15446279D01*
X49734704Y15410637D01*
X49746435Y15371966D01*
X49751000Y15325612D01*
X49751000Y14674388D01*
X49746435Y14628034D01*
X49734704Y14589363D01*
X49715652Y14553721D01*
X49690017Y14522483D01*
X49658779Y14496848D01*
X49623137Y14477796D01*
X49584466Y14466065D01*
X49538112Y14461500D01*
X48461888Y14461500D01*
X48415534Y14466065D01*
X48376863Y14477796D01*
X48341221Y14496848D01*
X48309983Y14522483D01*
X48284348Y14553721D01*
X48265296Y14589363D01*
X48253565Y14628034D01*
X48249000Y14674388D01*
X48249000Y15325612D01*
X48253565Y15371966D01*
X48265296Y15410637D01*
X48284348Y15446279D01*
X48309983Y15477517D01*
X48341221Y15503152D01*
X48376863Y15522204D01*
X48415534Y15533935D01*
X48461888Y15538500D01*
X49538112Y15538500D01*
X49584466Y15533935D01*
X49584466Y15533935D01*
G37*
G36*
X7509928Y15173236D02*
X7531011Y15166840D01*
X7550442Y15156454D01*
X7567475Y15142475D01*
X7581454Y15125442D01*
X7591840Y15106011D01*
X7598236Y15084928D01*
X7601000Y15056860D01*
X7601000Y14593140D01*
X7598236Y14565072D01*
X7591840Y14543989D01*
X7581454Y14524558D01*
X7567475Y14507525D01*
X7550442Y14493546D01*
X7531011Y14483160D01*
X7509928Y14476764D01*
X7481860Y14474000D01*
X6018140Y14474000D01*
X5990072Y14476764D01*
X5968989Y14483160D01*
X5949558Y14493546D01*
X5932525Y14507525D01*
X5918546Y14524558D01*
X5908160Y14543989D01*
X5901764Y14565072D01*
X5899000Y14593140D01*
X5899000Y15056860D01*
X5901764Y15084928D01*
X5908160Y15106011D01*
X5918546Y15125442D01*
X5932525Y15142475D01*
X5949558Y15156454D01*
X5968989Y15166840D01*
X5990072Y15173236D01*
X6018140Y15176000D01*
X7481860Y15176000D01*
X7509928Y15173236D01*
X7509928Y15173236D01*
G37*
G36*
X14009928Y15173236D02*
X14031011Y15166840D01*
X14050442Y15156454D01*
X14067475Y15142475D01*
X14081454Y15125442D01*
X14091840Y15106011D01*
X14098236Y15084928D01*
X14101000Y15056860D01*
X14101000Y14593140D01*
X14098236Y14565072D01*
X14091840Y14543989D01*
X14081454Y14524558D01*
X14067475Y14507525D01*
X14050442Y14493546D01*
X14031011Y14483160D01*
X14009928Y14476764D01*
X13981860Y14474000D01*
X12518140Y14474000D01*
X12490072Y14476764D01*
X12468989Y14483160D01*
X12449558Y14493546D01*
X12432525Y14507525D01*
X12418546Y14524558D01*
X12408160Y14543989D01*
X12401764Y14565072D01*
X12399000Y14593140D01*
X12399000Y15056860D01*
X12401764Y15084928D01*
X12408160Y15106011D01*
X12418546Y15125442D01*
X12432525Y15142475D01*
X12449558Y15156454D01*
X12468989Y15166840D01*
X12490072Y15173236D01*
X12518140Y15176000D01*
X13981860Y15176000D01*
X14009928Y15173236D01*
X14009928Y15173236D01*
G37*
G36*
X4309466Y16746435D02*
X4348137Y16734704D01*
X4383779Y16715652D01*
X4415017Y16690017D01*
X4440652Y16658779D01*
X4459704Y16623137D01*
X4471435Y16584466D01*
X4476000Y16538112D01*
X4476000Y15461888D01*
X4471435Y15415534D01*
X4459704Y15376863D01*
X4440652Y15341221D01*
X4415017Y15309983D01*
X4383779Y15284348D01*
X4348137Y15265296D01*
X4309466Y15253565D01*
X4263112Y15249000D01*
X3611888Y15249000D01*
X3565534Y15253565D01*
X3526863Y15265296D01*
X3491221Y15284348D01*
X3459983Y15309983D01*
X3434348Y15341221D01*
X3415296Y15376863D01*
X3403565Y15415534D01*
X3399000Y15461888D01*
X3399000Y16538112D01*
X3403565Y16584466D01*
X3415296Y16623137D01*
X3434348Y16658779D01*
X3459983Y16690017D01*
X3491221Y16715652D01*
X3526863Y16734704D01*
X3565534Y16746435D01*
X3611888Y16751000D01*
X4263112Y16751000D01*
X4309466Y16746435D01*
X4309466Y16746435D01*
G37*
G36*
X2434466Y16746435D02*
X2473137Y16734704D01*
X2508779Y16715652D01*
X2540017Y16690017D01*
X2565652Y16658779D01*
X2584704Y16623137D01*
X2596435Y16584466D01*
X2601000Y16538112D01*
X2601000Y15461888D01*
X2596435Y15415534D01*
X2584704Y15376863D01*
X2565652Y15341221D01*
X2540017Y15309983D01*
X2508779Y15284348D01*
X2473137Y15265296D01*
X2434466Y15253565D01*
X2388112Y15249000D01*
X1736888Y15249000D01*
X1690534Y15253565D01*
X1651863Y15265296D01*
X1616221Y15284348D01*
X1584983Y15309983D01*
X1559348Y15341221D01*
X1540296Y15376863D01*
X1528565Y15415534D01*
X1524000Y15461888D01*
X1524000Y16538112D01*
X1528565Y16584466D01*
X1540296Y16623137D01*
X1559348Y16658779D01*
X1584983Y16690017D01*
X1616221Y16715652D01*
X1651863Y16734704D01*
X1690534Y16746435D01*
X1736888Y16751000D01*
X2388112Y16751000D01*
X2434466Y16746435D01*
X2434466Y16746435D01*
G37*
G36*
X38584466Y16596435D02*
X38623137Y16584704D01*
X38658779Y16565652D01*
X38690017Y16540017D01*
X38715652Y16508779D01*
X38734704Y16473137D01*
X38746435Y16434466D01*
X38751000Y16388112D01*
X38751000Y15736888D01*
X38746435Y15690534D01*
X38734704Y15651863D01*
X38715652Y15616221D01*
X38690017Y15584983D01*
X38658779Y15559348D01*
X38623137Y15540296D01*
X38584466Y15528565D01*
X38538112Y15524000D01*
X37461888Y15524000D01*
X37415534Y15528565D01*
X37376863Y15540296D01*
X37341221Y15559348D01*
X37309983Y15584983D01*
X37284348Y15616221D01*
X37265296Y15651863D01*
X37253565Y15690534D01*
X37249000Y15736888D01*
X37249000Y16388112D01*
X37253565Y16434466D01*
X37265296Y16473137D01*
X37284348Y16508779D01*
X37309983Y16540017D01*
X37341221Y16565652D01*
X37376863Y16584704D01*
X37415534Y16596435D01*
X37461888Y16601000D01*
X38538112Y16601000D01*
X38584466Y16596435D01*
X38584466Y16596435D01*
G37*
G36*
X14009928Y16443236D02*
X14031011Y16436840D01*
X14050442Y16426454D01*
X14067475Y16412475D01*
X14081454Y16395442D01*
X14091840Y16376011D01*
X14098236Y16354928D01*
X14101000Y16326860D01*
X14101000Y15863140D01*
X14098236Y15835072D01*
X14091840Y15813989D01*
X14081454Y15794558D01*
X14067475Y15777525D01*
X14050442Y15763546D01*
X14031011Y15753160D01*
X14009928Y15746764D01*
X13981860Y15744000D01*
X12518140Y15744000D01*
X12490072Y15746764D01*
X12468989Y15753160D01*
X12449558Y15763546D01*
X12432525Y15777525D01*
X12418546Y15794558D01*
X12408160Y15813989D01*
X12401764Y15835072D01*
X12399000Y15863140D01*
X12399000Y16326860D01*
X12401764Y16354928D01*
X12408160Y16376011D01*
X12418546Y16395442D01*
X12432525Y16412475D01*
X12449558Y16426454D01*
X12468989Y16436840D01*
X12490072Y16443236D01*
X12518140Y16446000D01*
X13981860Y16446000D01*
X14009928Y16443236D01*
X14009928Y16443236D01*
G37*
G36*
X7509928Y16443236D02*
X7531011Y16436840D01*
X7550442Y16426454D01*
X7567475Y16412475D01*
X7581454Y16395442D01*
X7591840Y16376011D01*
X7598236Y16354928D01*
X7601000Y16326860D01*
X7601000Y15863140D01*
X7598236Y15835072D01*
X7591840Y15813989D01*
X7581454Y15794558D01*
X7567475Y15777525D01*
X7550442Y15763546D01*
X7531011Y15753160D01*
X7509928Y15746764D01*
X7481860Y15744000D01*
X6018140Y15744000D01*
X5990072Y15746764D01*
X5968989Y15753160D01*
X5949558Y15763546D01*
X5932525Y15777525D01*
X5918546Y15794558D01*
X5908160Y15813989D01*
X5901764Y15835072D01*
X5899000Y15863140D01*
X5899000Y16326860D01*
X5901764Y16354928D01*
X5908160Y16376011D01*
X5918546Y16395442D01*
X5932525Y16412475D01*
X5949558Y16426454D01*
X5968989Y16436840D01*
X5990072Y16443236D01*
X6018140Y16446000D01*
X7481860Y16446000D01*
X7509928Y16443236D01*
X7509928Y16443236D01*
G37*
G36*
X18248228Y17818297D02*
X18403100Y17754147D01*
X18542481Y17661015D01*
X18661015Y17542481D01*
X18754147Y17403100D01*
X18818297Y17248228D01*
X18851000Y17083816D01*
X18851000Y16916184D01*
X18818297Y16751772D01*
X18754147Y16596900D01*
X18661015Y16457519D01*
X18542481Y16338985D01*
X18403100Y16245853D01*
X18248228Y16181703D01*
X18083816Y16149000D01*
X17916184Y16149000D01*
X17751772Y16181703D01*
X17596900Y16245853D01*
X17457519Y16338985D01*
X17338985Y16457519D01*
X17245853Y16596900D01*
X17181703Y16751772D01*
X17149000Y16916184D01*
X17149000Y17083816D01*
X17181703Y17248228D01*
X17245853Y17403100D01*
X17338985Y17542481D01*
X17457519Y17661015D01*
X17596900Y17754147D01*
X17751772Y17818297D01*
X17916184Y17851000D01*
X18083816Y17851000D01*
X18248228Y17818297D01*
X18248228Y17818297D01*
G37*
G36*
X22551000Y16199000D02*
X21449000Y16199000D01*
X21449000Y17301000D01*
X22551000Y17301000D01*
X22551000Y16199000D01*
X22551000Y16199000D01*
G37*
G36*
X49584466Y17408935D02*
X49623137Y17397204D01*
X49658779Y17378152D01*
X49690017Y17352517D01*
X49715652Y17321279D01*
X49734704Y17285637D01*
X49746435Y17246966D01*
X49751000Y17200612D01*
X49751000Y16549388D01*
X49746435Y16503034D01*
X49734704Y16464363D01*
X49715652Y16428721D01*
X49690017Y16397483D01*
X49658779Y16371848D01*
X49623137Y16352796D01*
X49584466Y16341065D01*
X49538112Y16336500D01*
X48461888Y16336500D01*
X48415534Y16341065D01*
X48376863Y16352796D01*
X48341221Y16371848D01*
X48309983Y16397483D01*
X48284348Y16428721D01*
X48265296Y16464363D01*
X48253565Y16503034D01*
X48249000Y16549388D01*
X48249000Y17200612D01*
X48253565Y17246966D01*
X48265296Y17285637D01*
X48284348Y17321279D01*
X48309983Y17352517D01*
X48341221Y17378152D01*
X48376863Y17397204D01*
X48415534Y17408935D01*
X48461888Y17413500D01*
X49538112Y17413500D01*
X49584466Y17408935D01*
X49584466Y17408935D01*
G37*
G36*
X44164928Y18498236D02*
X44186011Y18491840D01*
X44205442Y18481454D01*
X44222475Y18467475D01*
X44236454Y18450442D01*
X44246840Y18431011D01*
X44253236Y18409928D01*
X44256000Y18381860D01*
X44256000Y16568140D01*
X44253236Y16540072D01*
X44246840Y16518989D01*
X44236454Y16499558D01*
X44222475Y16482525D01*
X44205442Y16468546D01*
X44186011Y16458160D01*
X44164928Y16451764D01*
X44136860Y16449000D01*
X43673140Y16449000D01*
X43645072Y16451764D01*
X43623989Y16458160D01*
X43604558Y16468546D01*
X43587525Y16482525D01*
X43573546Y16499558D01*
X43563160Y16518989D01*
X43556764Y16540072D01*
X43554000Y16568140D01*
X43554000Y18381860D01*
X43556764Y18409928D01*
X43563160Y18431011D01*
X43573546Y18450442D01*
X43587525Y18467475D01*
X43604558Y18481454D01*
X43623989Y18491840D01*
X43645072Y18498236D01*
X43673140Y18501000D01*
X44136860Y18501000D01*
X44164928Y18498236D01*
X44164928Y18498236D01*
G37*
G36*
X42894928Y18498236D02*
X42916011Y18491840D01*
X42935442Y18481454D01*
X42952475Y18467475D01*
X42966454Y18450442D01*
X42976840Y18431011D01*
X42983236Y18409928D01*
X42986000Y18381860D01*
X42986000Y16568140D01*
X42983236Y16540072D01*
X42976840Y16518989D01*
X42966454Y16499558D01*
X42952475Y16482525D01*
X42935442Y16468546D01*
X42916011Y16458160D01*
X42894928Y16451764D01*
X42866860Y16449000D01*
X42403140Y16449000D01*
X42375072Y16451764D01*
X42353989Y16458160D01*
X42334558Y16468546D01*
X42317525Y16482525D01*
X42303546Y16499558D01*
X42293160Y16518989D01*
X42286764Y16540072D01*
X42284000Y16568140D01*
X42284000Y18381860D01*
X42286764Y18409928D01*
X42293160Y18431011D01*
X42303546Y18450442D01*
X42317525Y18467475D01*
X42334558Y18481454D01*
X42353989Y18491840D01*
X42375072Y18498236D01*
X42403140Y18501000D01*
X42866860Y18501000D01*
X42894928Y18498236D01*
X42894928Y18498236D01*
G37*
G36*
X40354928Y18498236D02*
X40376011Y18491840D01*
X40395442Y18481454D01*
X40412475Y18467475D01*
X40426454Y18450442D01*
X40436840Y18431011D01*
X40443236Y18409928D01*
X40446000Y18381860D01*
X40446000Y16568140D01*
X40443236Y16540072D01*
X40436840Y16518989D01*
X40426454Y16499558D01*
X40412475Y16482525D01*
X40395442Y16468546D01*
X40376011Y16458160D01*
X40354928Y16451764D01*
X40326860Y16449000D01*
X39863140Y16449000D01*
X39835072Y16451764D01*
X39813989Y16458160D01*
X39794558Y16468546D01*
X39777525Y16482525D01*
X39763546Y16499558D01*
X39753160Y16518989D01*
X39746764Y16540072D01*
X39744000Y16568140D01*
X39744000Y18381860D01*
X39746764Y18409928D01*
X39753160Y18431011D01*
X39763546Y18450442D01*
X39777525Y18467475D01*
X39794558Y18481454D01*
X39813989Y18491840D01*
X39835072Y18498236D01*
X39863140Y18501000D01*
X40326860Y18501000D01*
X40354928Y18498236D01*
X40354928Y18498236D01*
G37*
G36*
X41624928Y18498236D02*
X41646011Y18491840D01*
X41665442Y18481454D01*
X41682475Y18467475D01*
X41696454Y18450442D01*
X41706840Y18431011D01*
X41713236Y18409928D01*
X41716000Y18381860D01*
X41716000Y16568140D01*
X41713236Y16540072D01*
X41706840Y16518989D01*
X41696454Y16499558D01*
X41682475Y16482525D01*
X41665442Y16468546D01*
X41646011Y16458160D01*
X41624928Y16451764D01*
X41596860Y16449000D01*
X41133140Y16449000D01*
X41105072Y16451764D01*
X41083989Y16458160D01*
X41064558Y16468546D01*
X41047525Y16482525D01*
X41033546Y16499558D01*
X41023160Y16518989D01*
X41016764Y16540072D01*
X41014000Y16568140D01*
X41014000Y18381860D01*
X41016764Y18409928D01*
X41023160Y18431011D01*
X41033546Y18450442D01*
X41047525Y18467475D01*
X41064558Y18481454D01*
X41083989Y18491840D01*
X41105072Y18498236D01*
X41133140Y18501000D01*
X41596860Y18501000D01*
X41624928Y18498236D01*
X41624928Y18498236D01*
G37*
G36*
X24584466Y17596435D02*
X24623137Y17584704D01*
X24658779Y17565652D01*
X24690017Y17540017D01*
X24715652Y17508779D01*
X24734704Y17473137D01*
X24746435Y17434466D01*
X24751000Y17388112D01*
X24751000Y16736888D01*
X24746435Y16690534D01*
X24734704Y16651863D01*
X24715652Y16616221D01*
X24690017Y16584983D01*
X24658779Y16559348D01*
X24623137Y16540296D01*
X24584466Y16528565D01*
X24538112Y16524000D01*
X23461888Y16524000D01*
X23415534Y16528565D01*
X23376863Y16540296D01*
X23341221Y16559348D01*
X23309983Y16584983D01*
X23284348Y16616221D01*
X23265296Y16651863D01*
X23253565Y16690534D01*
X23249000Y16736888D01*
X23249000Y17388112D01*
X23253565Y17434466D01*
X23265296Y17473137D01*
X23284348Y17508779D01*
X23309983Y17540017D01*
X23341221Y17565652D01*
X23376863Y17584704D01*
X23415534Y17596435D01*
X23461888Y17601000D01*
X24538112Y17601000D01*
X24584466Y17596435D01*
X24584466Y17596435D01*
G37*
G36*
X14009928Y17713236D02*
X14031011Y17706840D01*
X14050442Y17696454D01*
X14067475Y17682475D01*
X14081454Y17665442D01*
X14091840Y17646011D01*
X14098236Y17624928D01*
X14101000Y17596860D01*
X14101000Y17133140D01*
X14098236Y17105072D01*
X14091840Y17083989D01*
X14081454Y17064558D01*
X14067475Y17047525D01*
X14050442Y17033546D01*
X14031011Y17023160D01*
X14009928Y17016764D01*
X13981860Y17014000D01*
X12518140Y17014000D01*
X12490072Y17016764D01*
X12468989Y17023160D01*
X12449558Y17033546D01*
X12432525Y17047525D01*
X12418546Y17064558D01*
X12408160Y17083989D01*
X12401764Y17105072D01*
X12399000Y17133140D01*
X12399000Y17596860D01*
X12401764Y17624928D01*
X12408160Y17646011D01*
X12418546Y17665442D01*
X12432525Y17682475D01*
X12449558Y17696454D01*
X12468989Y17706840D01*
X12490072Y17713236D01*
X12518140Y17716000D01*
X13981860Y17716000D01*
X14009928Y17713236D01*
X14009928Y17713236D01*
G37*
G36*
X7509928Y17713236D02*
X7531011Y17706840D01*
X7550442Y17696454D01*
X7567475Y17682475D01*
X7581454Y17665442D01*
X7591840Y17646011D01*
X7598236Y17624928D01*
X7601000Y17596860D01*
X7601000Y17133140D01*
X7598236Y17105072D01*
X7591840Y17083989D01*
X7581454Y17064558D01*
X7567475Y17047525D01*
X7550442Y17033546D01*
X7531011Y17023160D01*
X7509928Y17016764D01*
X7481860Y17014000D01*
X6018140Y17014000D01*
X5990072Y17016764D01*
X5968989Y17023160D01*
X5949558Y17033546D01*
X5932525Y17047525D01*
X5918546Y17064558D01*
X5908160Y17083989D01*
X5901764Y17105072D01*
X5899000Y17133140D01*
X5899000Y17596860D01*
X5901764Y17624928D01*
X5908160Y17646011D01*
X5918546Y17665442D01*
X5932525Y17682475D01*
X5949558Y17696454D01*
X5968989Y17706840D01*
X5990072Y17713236D01*
X6018140Y17716000D01*
X7481860Y17716000D01*
X7509928Y17713236D01*
X7509928Y17713236D01*
G37*
G36*
X84183635Y19738981D02*
X84364903Y19702925D01*
X84592571Y19608622D01*
X84767347Y19491840D01*
X84797469Y19471713D01*
X84971713Y19297469D01*
X84971715Y19297466D01*
X85108622Y19092571D01*
X85202925Y18864903D01*
X85251000Y18623213D01*
X85251000Y18376787D01*
X85202925Y18135097D01*
X85108622Y17907429D01*
X85006202Y17754147D01*
X84971713Y17702531D01*
X84797469Y17528287D01*
X84797466Y17528285D01*
X84592571Y17391378D01*
X84364903Y17297075D01*
X84183635Y17261019D01*
X84123214Y17249000D01*
X83876786Y17249000D01*
X83816365Y17261019D01*
X83635097Y17297075D01*
X83407429Y17391378D01*
X83202534Y17528285D01*
X83202531Y17528287D01*
X83028287Y17702531D01*
X82993798Y17754147D01*
X82891378Y17907429D01*
X82797075Y18135097D01*
X82749000Y18376787D01*
X82749000Y18623213D01*
X82797075Y18864903D01*
X82891378Y19092571D01*
X83028285Y19297466D01*
X83028287Y19297469D01*
X83202531Y19471713D01*
X83232653Y19491840D01*
X83407429Y19608622D01*
X83635097Y19702925D01*
X83816365Y19738981D01*
X83876786Y19751000D01*
X84123214Y19751000D01*
X84183635Y19738981D01*
X84183635Y19738981D01*
G37*
G36*
X4309466Y18746435D02*
X4348137Y18734704D01*
X4383779Y18715652D01*
X4415017Y18690017D01*
X4440652Y18658779D01*
X4459704Y18623137D01*
X4471435Y18584466D01*
X4476000Y18538112D01*
X4476000Y17461888D01*
X4471435Y17415534D01*
X4459704Y17376863D01*
X4440652Y17341221D01*
X4415017Y17309983D01*
X4383779Y17284348D01*
X4348137Y17265296D01*
X4309466Y17253565D01*
X4263112Y17249000D01*
X3611888Y17249000D01*
X3565534Y17253565D01*
X3526863Y17265296D01*
X3491221Y17284348D01*
X3459983Y17309983D01*
X3434348Y17341221D01*
X3415296Y17376863D01*
X3403565Y17415534D01*
X3399000Y17461888D01*
X3399000Y18538112D01*
X3403565Y18584466D01*
X3415296Y18623137D01*
X3434348Y18658779D01*
X3459983Y18690017D01*
X3491221Y18715652D01*
X3526863Y18734704D01*
X3565534Y18746435D01*
X3611888Y18751000D01*
X4263112Y18751000D01*
X4309466Y18746435D01*
X4309466Y18746435D01*
G37*
G36*
X2434466Y18746435D02*
X2473137Y18734704D01*
X2508779Y18715652D01*
X2540017Y18690017D01*
X2565652Y18658779D01*
X2584704Y18623137D01*
X2596435Y18584466D01*
X2601000Y18538112D01*
X2601000Y17461888D01*
X2596435Y17415534D01*
X2584704Y17376863D01*
X2565652Y17341221D01*
X2540017Y17309983D01*
X2508779Y17284348D01*
X2473137Y17265296D01*
X2434466Y17253565D01*
X2388112Y17249000D01*
X1736888Y17249000D01*
X1690534Y17253565D01*
X1651863Y17265296D01*
X1616221Y17284348D01*
X1584983Y17309983D01*
X1559348Y17341221D01*
X1540296Y17376863D01*
X1528565Y17415534D01*
X1524000Y17461888D01*
X1524000Y18538112D01*
X1528565Y18584466D01*
X1540296Y18623137D01*
X1559348Y18658779D01*
X1584983Y18690017D01*
X1616221Y18715652D01*
X1651863Y18734704D01*
X1690534Y18746435D01*
X1736888Y18751000D01*
X2388112Y18751000D01*
X2434466Y18746435D01*
X2434466Y18746435D01*
G37*
G36*
X66183635Y19738981D02*
X66364903Y19702925D01*
X66592571Y19608622D01*
X66767347Y19491840D01*
X66797469Y19471713D01*
X66971713Y19297469D01*
X66971715Y19297466D01*
X67108622Y19092571D01*
X67202925Y18864903D01*
X67251000Y18623213D01*
X67251000Y18376787D01*
X67202925Y18135097D01*
X67108622Y17907429D01*
X67006202Y17754147D01*
X66971713Y17702531D01*
X66797469Y17528287D01*
X66797466Y17528285D01*
X66592571Y17391378D01*
X66364903Y17297075D01*
X66183635Y17261019D01*
X66123214Y17249000D01*
X65876786Y17249000D01*
X65816365Y17261019D01*
X65635097Y17297075D01*
X65407429Y17391378D01*
X65202534Y17528285D01*
X65202531Y17528287D01*
X65028287Y17702531D01*
X64993798Y17754147D01*
X64891378Y17907429D01*
X64797075Y18135097D01*
X64749000Y18376787D01*
X64749000Y18623213D01*
X64797075Y18864903D01*
X64891378Y19092571D01*
X65028285Y19297466D01*
X65028287Y19297469D01*
X65202531Y19471713D01*
X65232653Y19491840D01*
X65407429Y19608622D01*
X65635097Y19702925D01*
X65816365Y19738981D01*
X65876786Y19751000D01*
X66123214Y19751000D01*
X66183635Y19738981D01*
X66183635Y19738981D01*
G37*
G36*
X38584466Y18471435D02*
X38623137Y18459704D01*
X38658779Y18440652D01*
X38690017Y18415017D01*
X38715652Y18383779D01*
X38734704Y18348137D01*
X38746435Y18309466D01*
X38751000Y18263112D01*
X38751000Y17611888D01*
X38746435Y17565534D01*
X38734704Y17526863D01*
X38715652Y17491221D01*
X38690017Y17459983D01*
X38658779Y17434348D01*
X38623137Y17415296D01*
X38584466Y17403565D01*
X38538112Y17399000D01*
X37461888Y17399000D01*
X37415534Y17403565D01*
X37376863Y17415296D01*
X37341221Y17434348D01*
X37309983Y17459983D01*
X37284348Y17491221D01*
X37265296Y17526863D01*
X37253565Y17565534D01*
X37249000Y17611888D01*
X37249000Y18263112D01*
X37253565Y18309466D01*
X37265296Y18348137D01*
X37284348Y18383779D01*
X37309983Y18415017D01*
X37341221Y18440652D01*
X37376863Y18459704D01*
X37415534Y18471435D01*
X37461888Y18476000D01*
X38538112Y18476000D01*
X38584466Y18471435D01*
X38584466Y18471435D01*
G37*
G36*
X28989928Y19498236D02*
X29011011Y19491840D01*
X29030442Y19481454D01*
X29047475Y19467475D01*
X29061454Y19450442D01*
X29071840Y19431011D01*
X29078236Y19409928D01*
X29081000Y19381860D01*
X29081000Y17568140D01*
X29078236Y17540072D01*
X29071840Y17518989D01*
X29061454Y17499558D01*
X29047475Y17482525D01*
X29030442Y17468546D01*
X29011011Y17458160D01*
X28989928Y17451764D01*
X28961860Y17449000D01*
X28498140Y17449000D01*
X28470072Y17451764D01*
X28448989Y17458160D01*
X28429558Y17468546D01*
X28412525Y17482525D01*
X28398546Y17499558D01*
X28388160Y17518989D01*
X28381764Y17540072D01*
X28379000Y17568140D01*
X28379000Y19381860D01*
X28381764Y19409928D01*
X28388160Y19431011D01*
X28398546Y19450442D01*
X28412525Y19467475D01*
X28429558Y19481454D01*
X28448989Y19491840D01*
X28470072Y19498236D01*
X28498140Y19501000D01*
X28961860Y19501000D01*
X28989928Y19498236D01*
X28989928Y19498236D01*
G37*
G36*
X34069928Y19498236D02*
X34091011Y19491840D01*
X34110442Y19481454D01*
X34127475Y19467475D01*
X34141454Y19450442D01*
X34151840Y19431011D01*
X34158236Y19409928D01*
X34161000Y19381860D01*
X34161000Y17568140D01*
X34158236Y17540072D01*
X34151840Y17518989D01*
X34141454Y17499558D01*
X34127475Y17482525D01*
X34110442Y17468546D01*
X34091011Y17458160D01*
X34069928Y17451764D01*
X34041860Y17449000D01*
X33578140Y17449000D01*
X33550072Y17451764D01*
X33528989Y17458160D01*
X33509558Y17468546D01*
X33492525Y17482525D01*
X33478546Y17499558D01*
X33468160Y17518989D01*
X33461764Y17540072D01*
X33459000Y17568140D01*
X33459000Y19381860D01*
X33461764Y19409928D01*
X33468160Y19431011D01*
X33478546Y19450442D01*
X33492525Y19467475D01*
X33509558Y19481454D01*
X33528989Y19491840D01*
X33550072Y19498236D01*
X33578140Y19501000D01*
X34041860Y19501000D01*
X34069928Y19498236D01*
X34069928Y19498236D01*
G37*
G36*
X32799928Y19498236D02*
X32821011Y19491840D01*
X32840442Y19481454D01*
X32857475Y19467475D01*
X32871454Y19450442D01*
X32881840Y19431011D01*
X32888236Y19409928D01*
X32891000Y19381860D01*
X32891000Y17568140D01*
X32888236Y17540072D01*
X32881840Y17518989D01*
X32871454Y17499558D01*
X32857475Y17482525D01*
X32840442Y17468546D01*
X32821011Y17458160D01*
X32799928Y17451764D01*
X32771860Y17449000D01*
X32308140Y17449000D01*
X32280072Y17451764D01*
X32258989Y17458160D01*
X32239558Y17468546D01*
X32222525Y17482525D01*
X32208546Y17499558D01*
X32198160Y17518989D01*
X32191764Y17540072D01*
X32189000Y17568140D01*
X32189000Y19381860D01*
X32191764Y19409928D01*
X32198160Y19431011D01*
X32208546Y19450442D01*
X32222525Y19467475D01*
X32239558Y19481454D01*
X32258989Y19491840D01*
X32280072Y19498236D01*
X32308140Y19501000D01*
X32771860Y19501000D01*
X32799928Y19498236D01*
X32799928Y19498236D01*
G37*
G36*
X31529928Y19498236D02*
X31551011Y19491840D01*
X31570442Y19481454D01*
X31587475Y19467475D01*
X31601454Y19450442D01*
X31611840Y19431011D01*
X31618236Y19409928D01*
X31621000Y19381860D01*
X31621000Y17568140D01*
X31618236Y17540072D01*
X31611840Y17518989D01*
X31601454Y17499558D01*
X31587475Y17482525D01*
X31570442Y17468546D01*
X31551011Y17458160D01*
X31529928Y17451764D01*
X31501860Y17449000D01*
X31038140Y17449000D01*
X31010072Y17451764D01*
X30988989Y17458160D01*
X30969558Y17468546D01*
X30952525Y17482525D01*
X30938546Y17499558D01*
X30928160Y17518989D01*
X30921764Y17540072D01*
X30919000Y17568140D01*
X30919000Y19381860D01*
X30921764Y19409928D01*
X30928160Y19431011D01*
X30938546Y19450442D01*
X30952525Y19467475D01*
X30969558Y19481454D01*
X30988989Y19491840D01*
X31010072Y19498236D01*
X31038140Y19501000D01*
X31501860Y19501000D01*
X31529928Y19498236D01*
X31529928Y19498236D01*
G37*
G36*
X30259928Y19498236D02*
X30281011Y19491840D01*
X30300442Y19481454D01*
X30317475Y19467475D01*
X30331454Y19450442D01*
X30341840Y19431011D01*
X30348236Y19409928D01*
X30351000Y19381860D01*
X30351000Y17568140D01*
X30348236Y17540072D01*
X30341840Y17518989D01*
X30331454Y17499558D01*
X30317475Y17482525D01*
X30300442Y17468546D01*
X30281011Y17458160D01*
X30259928Y17451764D01*
X30231860Y17449000D01*
X29768140Y17449000D01*
X29740072Y17451764D01*
X29718989Y17458160D01*
X29699558Y17468546D01*
X29682525Y17482525D01*
X29668546Y17499558D01*
X29658160Y17518989D01*
X29651764Y17540072D01*
X29649000Y17568140D01*
X29649000Y19381860D01*
X29651764Y19409928D01*
X29658160Y19431011D01*
X29668546Y19450442D01*
X29682525Y19467475D01*
X29699558Y19481454D01*
X29718989Y19491840D01*
X29740072Y19498236D01*
X29768140Y19501000D01*
X30231860Y19501000D01*
X30259928Y19498236D01*
X30259928Y19498236D01*
G37*
G36*
X27719928Y19498236D02*
X27741011Y19491840D01*
X27760442Y19481454D01*
X27777475Y19467475D01*
X27791454Y19450442D01*
X27801840Y19431011D01*
X27808236Y19409928D01*
X27811000Y19381860D01*
X27811000Y17568140D01*
X27808236Y17540072D01*
X27801840Y17518989D01*
X27791454Y17499558D01*
X27777475Y17482525D01*
X27760442Y17468546D01*
X27741011Y17458160D01*
X27719928Y17451764D01*
X27691860Y17449000D01*
X27228140Y17449000D01*
X27200072Y17451764D01*
X27178989Y17458160D01*
X27159558Y17468546D01*
X27142525Y17482525D01*
X27128546Y17499558D01*
X27118160Y17518989D01*
X27111764Y17540072D01*
X27109000Y17568140D01*
X27109000Y19381860D01*
X27111764Y19409928D01*
X27118160Y19431011D01*
X27128546Y19450442D01*
X27142525Y19467475D01*
X27159558Y19481454D01*
X27178989Y19491840D01*
X27200072Y19498236D01*
X27228140Y19501000D01*
X27691860Y19501000D01*
X27719928Y19498236D01*
X27719928Y19498236D01*
G37*
G36*
X26449928Y19498236D02*
X26471011Y19491840D01*
X26490442Y19481454D01*
X26507475Y19467475D01*
X26521454Y19450442D01*
X26531840Y19431011D01*
X26538236Y19409928D01*
X26541000Y19381860D01*
X26541000Y17568140D01*
X26538236Y17540072D01*
X26531840Y17518989D01*
X26521454Y17499558D01*
X26507475Y17482525D01*
X26490442Y17468546D01*
X26471011Y17458160D01*
X26449928Y17451764D01*
X26421860Y17449000D01*
X25958140Y17449000D01*
X25930072Y17451764D01*
X25908989Y17458160D01*
X25889558Y17468546D01*
X25872525Y17482525D01*
X25858546Y17499558D01*
X25848160Y17518989D01*
X25841764Y17540072D01*
X25839000Y17568140D01*
X25839000Y19381860D01*
X25841764Y19409928D01*
X25848160Y19431011D01*
X25858546Y19450442D01*
X25872525Y19467475D01*
X25889558Y19481454D01*
X25908989Y19491840D01*
X25930072Y19498236D01*
X25958140Y19501000D01*
X26421860Y19501000D01*
X26449928Y19498236D01*
X26449928Y19498236D01*
G37*
G36*
X18851000Y18149000D02*
X17149000Y18149000D01*
X17149000Y19851000D01*
X18851000Y19851000D01*
X18851000Y18149000D01*
X18851000Y18149000D01*
G37*
G36*
X14009928Y18983236D02*
X14031011Y18976840D01*
X14050442Y18966454D01*
X14067475Y18952475D01*
X14081454Y18935442D01*
X14091840Y18916011D01*
X14098236Y18894928D01*
X14101000Y18866860D01*
X14101000Y18403140D01*
X14098236Y18375072D01*
X14091840Y18353989D01*
X14081454Y18334558D01*
X14067475Y18317525D01*
X14050442Y18303546D01*
X14031011Y18293160D01*
X14009928Y18286764D01*
X13981860Y18284000D01*
X12518140Y18284000D01*
X12490072Y18286764D01*
X12468989Y18293160D01*
X12449558Y18303546D01*
X12432525Y18317525D01*
X12418546Y18334558D01*
X12408160Y18353989D01*
X12401764Y18375072D01*
X12399000Y18403140D01*
X12399000Y18866860D01*
X12401764Y18894928D01*
X12408160Y18916011D01*
X12418546Y18935442D01*
X12432525Y18952475D01*
X12449558Y18966454D01*
X12468989Y18976840D01*
X12490072Y18983236D01*
X12518140Y18986000D01*
X13981860Y18986000D01*
X14009928Y18983236D01*
X14009928Y18983236D01*
G37*
G36*
X7509928Y18983236D02*
X7531011Y18976840D01*
X7550442Y18966454D01*
X7567475Y18952475D01*
X7581454Y18935442D01*
X7591840Y18916011D01*
X7598236Y18894928D01*
X7601000Y18866860D01*
X7601000Y18403140D01*
X7598236Y18375072D01*
X7591840Y18353989D01*
X7581454Y18334558D01*
X7567475Y18317525D01*
X7550442Y18303546D01*
X7531011Y18293160D01*
X7509928Y18286764D01*
X7481860Y18284000D01*
X6018140Y18284000D01*
X5990072Y18286764D01*
X5968989Y18293160D01*
X5949558Y18303546D01*
X5932525Y18317525D01*
X5918546Y18334558D01*
X5908160Y18353989D01*
X5901764Y18375072D01*
X5899000Y18403140D01*
X5899000Y18866860D01*
X5901764Y18894928D01*
X5908160Y18916011D01*
X5918546Y18935442D01*
X5932525Y18952475D01*
X5949558Y18966454D01*
X5968989Y18976840D01*
X5990072Y18983236D01*
X6018140Y18986000D01*
X7481860Y18986000D01*
X7509928Y18983236D01*
X7509928Y18983236D01*
G37*
G36*
X24584466Y19471435D02*
X24623137Y19459704D01*
X24658779Y19440652D01*
X24690017Y19415017D01*
X24715652Y19383779D01*
X24734704Y19348137D01*
X24746435Y19309466D01*
X24751000Y19263112D01*
X24751000Y18611888D01*
X24746435Y18565534D01*
X24734704Y18526863D01*
X24715652Y18491221D01*
X24690017Y18459983D01*
X24658779Y18434348D01*
X24623137Y18415296D01*
X24584466Y18403565D01*
X24538112Y18399000D01*
X23461888Y18399000D01*
X23415534Y18403565D01*
X23376863Y18415296D01*
X23341221Y18434348D01*
X23309983Y18459983D01*
X23284348Y18491221D01*
X23265296Y18526863D01*
X23253565Y18565534D01*
X23249000Y18611888D01*
X23249000Y19263112D01*
X23253565Y19309466D01*
X23265296Y19348137D01*
X23284348Y19383779D01*
X23309983Y19415017D01*
X23341221Y19440652D01*
X23376863Y19459704D01*
X23415534Y19471435D01*
X23461888Y19476000D01*
X24538112Y19476000D01*
X24584466Y19471435D01*
X24584466Y19471435D01*
G37*
G36*
X22551000Y18699000D02*
X21449000Y18699000D01*
X21449000Y19801000D01*
X22551000Y19801000D01*
X22551000Y18699000D01*
X22551000Y18699000D01*
G37*
G36*
X14009928Y20253236D02*
X14031011Y20246840D01*
X14050442Y20236454D01*
X14067475Y20222475D01*
X14081454Y20205442D01*
X14091840Y20186011D01*
X14098236Y20164928D01*
X14101000Y20136860D01*
X14101000Y19673140D01*
X14098236Y19645072D01*
X14091840Y19623989D01*
X14081454Y19604558D01*
X14067475Y19587525D01*
X14050442Y19573546D01*
X14031011Y19563160D01*
X14009928Y19556764D01*
X13981860Y19554000D01*
X12518140Y19554000D01*
X12490072Y19556764D01*
X12468989Y19563160D01*
X12449558Y19573546D01*
X12432525Y19587525D01*
X12418546Y19604558D01*
X12408160Y19623989D01*
X12401764Y19645072D01*
X12399000Y19673140D01*
X12399000Y20136860D01*
X12401764Y20164928D01*
X12408160Y20186011D01*
X12418546Y20205442D01*
X12432525Y20222475D01*
X12449558Y20236454D01*
X12468989Y20246840D01*
X12490072Y20253236D01*
X12518140Y20256000D01*
X13981860Y20256000D01*
X14009928Y20253236D01*
X14009928Y20253236D01*
G37*
G36*
X7509928Y20253236D02*
X7531011Y20246840D01*
X7550442Y20236454D01*
X7567475Y20222475D01*
X7581454Y20205442D01*
X7591840Y20186011D01*
X7598236Y20164928D01*
X7601000Y20136860D01*
X7601000Y19673140D01*
X7598236Y19645072D01*
X7591840Y19623989D01*
X7581454Y19604558D01*
X7567475Y19587525D01*
X7550442Y19573546D01*
X7531011Y19563160D01*
X7509928Y19556764D01*
X7481860Y19554000D01*
X6018140Y19554000D01*
X5990072Y19556764D01*
X5968989Y19563160D01*
X5949558Y19573546D01*
X5932525Y19587525D01*
X5918546Y19604558D01*
X5908160Y19623989D01*
X5901764Y19645072D01*
X5899000Y19673140D01*
X5899000Y20136860D01*
X5901764Y20164928D01*
X5908160Y20186011D01*
X5918546Y20205442D01*
X5932525Y20222475D01*
X5949558Y20236454D01*
X5968989Y20246840D01*
X5990072Y20253236D01*
X6018140Y20256000D01*
X7481860Y20256000D01*
X7509928Y20253236D01*
X7509928Y20253236D01*
G37*
G36*
X14009928Y21523236D02*
X14031011Y21516840D01*
X14050442Y21506454D01*
X14067475Y21492475D01*
X14081454Y21475442D01*
X14091840Y21456011D01*
X14098236Y21434928D01*
X14101000Y21406860D01*
X14101000Y20943140D01*
X14098236Y20915072D01*
X14091840Y20893989D01*
X14081454Y20874558D01*
X14067475Y20857525D01*
X14050442Y20843546D01*
X14031011Y20833160D01*
X14009928Y20826764D01*
X13981860Y20824000D01*
X12518140Y20824000D01*
X12490072Y20826764D01*
X12468989Y20833160D01*
X12449558Y20843546D01*
X12432525Y20857525D01*
X12418546Y20874558D01*
X12408160Y20893989D01*
X12401764Y20915072D01*
X12399000Y20943140D01*
X12399000Y21406860D01*
X12401764Y21434928D01*
X12408160Y21456011D01*
X12418546Y21475442D01*
X12432525Y21492475D01*
X12449558Y21506454D01*
X12468989Y21516840D01*
X12490072Y21523236D01*
X12518140Y21526000D01*
X13981860Y21526000D01*
X14009928Y21523236D01*
X14009928Y21523236D01*
G37*
G36*
X7509928Y21523236D02*
X7531011Y21516840D01*
X7550442Y21506454D01*
X7567475Y21492475D01*
X7581454Y21475442D01*
X7591840Y21456011D01*
X7598236Y21434928D01*
X7601000Y21406860D01*
X7601000Y20943140D01*
X7598236Y20915072D01*
X7591840Y20893989D01*
X7581454Y20874558D01*
X7567475Y20857525D01*
X7550442Y20843546D01*
X7531011Y20833160D01*
X7509928Y20826764D01*
X7481860Y20824000D01*
X6018140Y20824000D01*
X5990072Y20826764D01*
X5968989Y20833160D01*
X5949558Y20843546D01*
X5932525Y20857525D01*
X5918546Y20874558D01*
X5908160Y20893989D01*
X5901764Y20915072D01*
X5899000Y20943140D01*
X5899000Y21406860D01*
X5901764Y21434928D01*
X5908160Y21456011D01*
X5918546Y21475442D01*
X5932525Y21492475D01*
X5949558Y21506454D01*
X5968989Y21516840D01*
X5990072Y21523236D01*
X6018140Y21526000D01*
X7481860Y21526000D01*
X7509928Y21523236D01*
X7509928Y21523236D01*
G37*
G36*
X7509928Y22793236D02*
X7531011Y22786840D01*
X7550442Y22776454D01*
X7567475Y22762475D01*
X7581454Y22745442D01*
X7591840Y22726011D01*
X7598236Y22704928D01*
X7601000Y22676860D01*
X7601000Y22213140D01*
X7598236Y22185072D01*
X7591840Y22163989D01*
X7581454Y22144558D01*
X7567475Y22127525D01*
X7550442Y22113546D01*
X7531011Y22103160D01*
X7509928Y22096764D01*
X7481860Y22094000D01*
X6018140Y22094000D01*
X5990072Y22096764D01*
X5968989Y22103160D01*
X5949558Y22113546D01*
X5932525Y22127525D01*
X5918546Y22144558D01*
X5908160Y22163989D01*
X5901764Y22185072D01*
X5899000Y22213140D01*
X5899000Y22676860D01*
X5901764Y22704928D01*
X5908160Y22726011D01*
X5918546Y22745442D01*
X5932525Y22762475D01*
X5949558Y22776454D01*
X5968989Y22786840D01*
X5990072Y22793236D01*
X6018140Y22796000D01*
X7481860Y22796000D01*
X7509928Y22793236D01*
X7509928Y22793236D01*
G37*
G36*
X14009928Y22793236D02*
X14031011Y22786840D01*
X14050442Y22776454D01*
X14067475Y22762475D01*
X14081454Y22745442D01*
X14091840Y22726011D01*
X14098236Y22704928D01*
X14101000Y22676860D01*
X14101000Y22213140D01*
X14098236Y22185072D01*
X14091840Y22163989D01*
X14081454Y22144558D01*
X14067475Y22127525D01*
X14050442Y22113546D01*
X14031011Y22103160D01*
X14009928Y22096764D01*
X13981860Y22094000D01*
X12518140Y22094000D01*
X12490072Y22096764D01*
X12468989Y22103160D01*
X12449558Y22113546D01*
X12432525Y22127525D01*
X12418546Y22144558D01*
X12408160Y22163989D01*
X12401764Y22185072D01*
X12399000Y22213140D01*
X12399000Y22676860D01*
X12401764Y22704928D01*
X12408160Y22726011D01*
X12418546Y22745442D01*
X12432525Y22762475D01*
X12449558Y22776454D01*
X12468989Y22786840D01*
X12490072Y22793236D01*
X12518140Y22796000D01*
X13981860Y22796000D01*
X14009928Y22793236D01*
X14009928Y22793236D01*
G37*
G36*
X24176669Y27792314D02*
X24353058Y27774941D01*
X24548508Y27715652D01*
X24692549Y27671958D01*
X25005425Y27504721D01*
X25279661Y27279661D01*
X25504721Y27005425D01*
X25671958Y26692549D01*
X25681524Y26661014D01*
X25774941Y26353058D01*
X25809714Y26000000D01*
X25774941Y25646942D01*
X25717480Y25457519D01*
X25671958Y25307451D01*
X25504721Y24994575D01*
X25279661Y24720339D01*
X25005425Y24495279D01*
X24692549Y24328042D01*
X24579385Y24293714D01*
X24353058Y24225059D01*
X24176669Y24207686D01*
X24088476Y24199000D01*
X23911524Y24199000D01*
X23823331Y24207686D01*
X23646942Y24225059D01*
X23420615Y24293714D01*
X23307451Y24328042D01*
X22994575Y24495279D01*
X22720339Y24720339D01*
X22495279Y24994575D01*
X22328042Y25307451D01*
X22282520Y25457519D01*
X22225059Y25646942D01*
X22190286Y26000000D01*
X22225059Y26353058D01*
X22318476Y26661014D01*
X22328042Y26692549D01*
X22495279Y27005425D01*
X22720339Y27279661D01*
X22994575Y27504721D01*
X23307451Y27671958D01*
X23451492Y27715652D01*
X23646942Y27774941D01*
X23823331Y27792314D01*
X23911524Y27801000D01*
X24088476Y27801000D01*
X24176669Y27792314D01*
X24176669Y27792314D01*
G37*
G36*
X12176669Y27792314D02*
X12353058Y27774941D01*
X12548508Y27715652D01*
X12692549Y27671958D01*
X13005425Y27504721D01*
X13279661Y27279661D01*
X13504721Y27005425D01*
X13671958Y26692549D01*
X13681524Y26661014D01*
X13774941Y26353058D01*
X13809714Y26000000D01*
X13774941Y25646942D01*
X13717480Y25457519D01*
X13671958Y25307451D01*
X13504721Y24994575D01*
X13279661Y24720339D01*
X13005425Y24495279D01*
X12692549Y24328042D01*
X12579385Y24293714D01*
X12353058Y24225059D01*
X12176669Y24207686D01*
X12088476Y24199000D01*
X11911524Y24199000D01*
X11823331Y24207686D01*
X11646942Y24225059D01*
X11420615Y24293714D01*
X11307451Y24328042D01*
X10994575Y24495279D01*
X10720339Y24720339D01*
X10495279Y24994575D01*
X10328042Y25307451D01*
X10282520Y25457519D01*
X10225059Y25646942D01*
X10190286Y26000000D01*
X10225059Y26353058D01*
X10318476Y26661014D01*
X10328042Y26692549D01*
X10495279Y27005425D01*
X10720339Y27279661D01*
X10994575Y27504721D01*
X11307451Y27671958D01*
X11451492Y27715652D01*
X11646942Y27774941D01*
X11823331Y27792314D01*
X11911524Y27801000D01*
X12088476Y27801000D01*
X12176669Y27792314D01*
X12176669Y27792314D01*
G37*
G36*
X36176669Y27792314D02*
X36353058Y27774941D01*
X36548508Y27715652D01*
X36692549Y27671958D01*
X37005425Y27504721D01*
X37279661Y27279661D01*
X37504721Y27005425D01*
X37671958Y26692549D01*
X37681524Y26661014D01*
X37774941Y26353058D01*
X37809714Y26000000D01*
X37774941Y25646942D01*
X37717480Y25457519D01*
X37671958Y25307451D01*
X37504721Y24994575D01*
X37279661Y24720339D01*
X37005425Y24495279D01*
X36692549Y24328042D01*
X36579385Y24293714D01*
X36353058Y24225059D01*
X36176669Y24207686D01*
X36088476Y24199000D01*
X35911524Y24199000D01*
X35823331Y24207686D01*
X35646942Y24225059D01*
X35420615Y24293714D01*
X35307451Y24328042D01*
X34994575Y24495279D01*
X34720339Y24720339D01*
X34495279Y24994575D01*
X34328042Y25307451D01*
X34282520Y25457519D01*
X34225059Y25646942D01*
X34190286Y26000000D01*
X34225059Y26353058D01*
X34318476Y26661014D01*
X34328042Y26692549D01*
X34495279Y27005425D01*
X34720339Y27279661D01*
X34994575Y27504721D01*
X35307451Y27671958D01*
X35451492Y27715652D01*
X35646942Y27774941D01*
X35823331Y27792314D01*
X35911524Y27801000D01*
X36088476Y27801000D01*
X36176669Y27792314D01*
X36176669Y27792314D01*
G37*
G36*
X48176669Y27792314D02*
X48353058Y27774941D01*
X48548508Y27715652D01*
X48692549Y27671958D01*
X49005425Y27504721D01*
X49279661Y27279661D01*
X49504721Y27005425D01*
X49671958Y26692549D01*
X49681524Y26661014D01*
X49774941Y26353058D01*
X49809714Y26000000D01*
X49774941Y25646942D01*
X49717480Y25457519D01*
X49671958Y25307451D01*
X49504721Y24994575D01*
X49279661Y24720339D01*
X49005425Y24495279D01*
X48692549Y24328042D01*
X48579385Y24293714D01*
X48353058Y24225059D01*
X48176669Y24207686D01*
X48088476Y24199000D01*
X47911524Y24199000D01*
X47823331Y24207686D01*
X47646942Y24225059D01*
X47420615Y24293714D01*
X47307451Y24328042D01*
X46994575Y24495279D01*
X46720339Y24720339D01*
X46495279Y24994575D01*
X46328042Y25307451D01*
X46282520Y25457519D01*
X46225059Y25646942D01*
X46190286Y26000000D01*
X46225059Y26353058D01*
X46318476Y26661014D01*
X46328042Y26692549D01*
X46495279Y27005425D01*
X46720339Y27279661D01*
X46994575Y27504721D01*
X47307451Y27671958D01*
X47451492Y27715652D01*
X47646942Y27774941D01*
X47823331Y27792314D01*
X47911524Y27801000D01*
X48088476Y27801000D01*
X48176669Y27792314D01*
X48176669Y27792314D01*
G37*
G36*
X85251000Y24749000D02*
X82749000Y24749000D01*
X82749000Y27251000D01*
X85251000Y27251000D01*
X85251000Y24749000D01*
X85251000Y24749000D01*
G37*
G36*
X67251000Y24749000D02*
X64749000Y24749000D01*
X64749000Y27251000D01*
X67251000Y27251000D01*
X67251000Y24749000D01*
X67251000Y24749000D01*
G37*
G36*
X30248228Y26818297D02*
X30403100Y26754147D01*
X30542481Y26661015D01*
X30661015Y26542481D01*
X30754147Y26403100D01*
X30818297Y26248228D01*
X30851000Y26083816D01*
X30851000Y25916184D01*
X30818297Y25751772D01*
X30754147Y25596900D01*
X30661015Y25457519D01*
X30542481Y25338985D01*
X30403100Y25245853D01*
X30248228Y25181703D01*
X30083816Y25149000D01*
X29916184Y25149000D01*
X29751772Y25181703D01*
X29596900Y25245853D01*
X29457519Y25338985D01*
X29338985Y25457519D01*
X29245853Y25596900D01*
X29181703Y25751772D01*
X29149000Y25916184D01*
X29149000Y26083816D01*
X29181703Y26248228D01*
X29245853Y26403100D01*
X29338985Y26542481D01*
X29457519Y26661015D01*
X29596900Y26754147D01*
X29751772Y26818297D01*
X29916184Y26851000D01*
X30083816Y26851000D01*
X30248228Y26818297D01*
X30248228Y26818297D01*
G37*
G36*
X15934466Y27746435D02*
X15973137Y27734704D01*
X16008779Y27715652D01*
X16040017Y27690017D01*
X16065652Y27658779D01*
X16084704Y27623137D01*
X16096435Y27584466D01*
X16101000Y27538112D01*
X16101000Y26461888D01*
X16096435Y26415534D01*
X16084704Y26376863D01*
X16065652Y26341221D01*
X16040017Y26309983D01*
X16008779Y26284348D01*
X15973137Y26265296D01*
X15934466Y26253565D01*
X15888112Y26249000D01*
X15236888Y26249000D01*
X15190534Y26253565D01*
X15151863Y26265296D01*
X15116221Y26284348D01*
X15084983Y26309983D01*
X15059348Y26341221D01*
X15040296Y26376863D01*
X15028565Y26415534D01*
X15024000Y26461888D01*
X15024000Y27538112D01*
X15028565Y27584466D01*
X15040296Y27623137D01*
X15059348Y27658779D01*
X15084983Y27690017D01*
X15116221Y27715652D01*
X15151863Y27734704D01*
X15190534Y27746435D01*
X15236888Y27751000D01*
X15888112Y27751000D01*
X15934466Y27746435D01*
X15934466Y27746435D01*
G37*
G36*
X39934466Y27746435D02*
X39973137Y27734704D01*
X40008779Y27715652D01*
X40040017Y27690017D01*
X40065652Y27658779D01*
X40084704Y27623137D01*
X40096435Y27584466D01*
X40101000Y27538112D01*
X40101000Y26461888D01*
X40096435Y26415534D01*
X40084704Y26376863D01*
X40065652Y26341221D01*
X40040017Y26309983D01*
X40008779Y26284348D01*
X39973137Y26265296D01*
X39934466Y26253565D01*
X39888112Y26249000D01*
X39236888Y26249000D01*
X39190534Y26253565D01*
X39151863Y26265296D01*
X39116221Y26284348D01*
X39084983Y26309983D01*
X39059348Y26341221D01*
X39040296Y26376863D01*
X39028565Y26415534D01*
X39024000Y26461888D01*
X39024000Y27538112D01*
X39028565Y27584466D01*
X39040296Y27623137D01*
X39059348Y27658779D01*
X39084983Y27690017D01*
X39116221Y27715652D01*
X39151863Y27734704D01*
X39190534Y27746435D01*
X39236888Y27751000D01*
X39888112Y27751000D01*
X39934466Y27746435D01*
X39934466Y27746435D01*
G37*
G36*
X41809466Y27746435D02*
X41848137Y27734704D01*
X41883779Y27715652D01*
X41915017Y27690017D01*
X41940652Y27658779D01*
X41959704Y27623137D01*
X41971435Y27584466D01*
X41976000Y27538112D01*
X41976000Y26461888D01*
X41971435Y26415534D01*
X41959704Y26376863D01*
X41940652Y26341221D01*
X41915017Y26309983D01*
X41883779Y26284348D01*
X41848137Y26265296D01*
X41809466Y26253565D01*
X41763112Y26249000D01*
X41111888Y26249000D01*
X41065534Y26253565D01*
X41026863Y26265296D01*
X40991221Y26284348D01*
X40959983Y26309983D01*
X40934348Y26341221D01*
X40915296Y26376863D01*
X40903565Y26415534D01*
X40899000Y26461888D01*
X40899000Y27538112D01*
X40903565Y27584466D01*
X40915296Y27623137D01*
X40934348Y27658779D01*
X40959983Y27690017D01*
X40991221Y27715652D01*
X41026863Y27734704D01*
X41065534Y27746435D01*
X41111888Y27751000D01*
X41763112Y27751000D01*
X41809466Y27746435D01*
X41809466Y27746435D01*
G37*
G36*
X17809466Y27746435D02*
X17848137Y27734704D01*
X17883779Y27715652D01*
X17915017Y27690017D01*
X17940652Y27658779D01*
X17959704Y27623137D01*
X17971435Y27584466D01*
X17976000Y27538112D01*
X17976000Y26461888D01*
X17971435Y26415534D01*
X17959704Y26376863D01*
X17940652Y26341221D01*
X17915017Y26309983D01*
X17883779Y26284348D01*
X17848137Y26265296D01*
X17809466Y26253565D01*
X17763112Y26249000D01*
X17111888Y26249000D01*
X17065534Y26253565D01*
X17026863Y26265296D01*
X16991221Y26284348D01*
X16959983Y26309983D01*
X16934348Y26341221D01*
X16915296Y26376863D01*
X16903565Y26415534D01*
X16899000Y26461888D01*
X16899000Y27538112D01*
X16903565Y27584466D01*
X16915296Y27623137D01*
X16934348Y27658779D01*
X16959983Y27690017D01*
X16991221Y27715652D01*
X17026863Y27734704D01*
X17065534Y27746435D01*
X17111888Y27751000D01*
X17763112Y27751000D01*
X17809466Y27746435D01*
X17809466Y27746435D01*
G37*
G36*
X30851000Y27149000D02*
X29149000Y27149000D01*
X29149000Y28851000D01*
X30851000Y28851000D01*
X30851000Y27149000D01*
X30851000Y27149000D01*
G37*
G36*
X44894928Y30923236D02*
X44916011Y30916840D01*
X44935442Y30906454D01*
X44952475Y30892475D01*
X44966454Y30875442D01*
X44976840Y30856011D01*
X44983236Y30834928D01*
X44986000Y30806860D01*
X44986000Y28893140D01*
X44983236Y28865072D01*
X44976840Y28843989D01*
X44966454Y28824558D01*
X44952475Y28807525D01*
X44935442Y28793546D01*
X44916011Y28783160D01*
X44894928Y28776764D01*
X44866860Y28774000D01*
X44403140Y28774000D01*
X44375072Y28776764D01*
X44353989Y28783160D01*
X44334558Y28793546D01*
X44317525Y28807525D01*
X44303546Y28824558D01*
X44293160Y28843989D01*
X44286764Y28865072D01*
X44284000Y28893140D01*
X44284000Y30806860D01*
X44286764Y30834928D01*
X44293160Y30856011D01*
X44303546Y30875442D01*
X44317525Y30892475D01*
X44334558Y30906454D01*
X44353989Y30916840D01*
X44375072Y30923236D01*
X44403140Y30926000D01*
X44866860Y30926000D01*
X44894928Y30923236D01*
X44894928Y30923236D01*
G37*
G36*
X46164928Y30923236D02*
X46186011Y30916840D01*
X46205442Y30906454D01*
X46222475Y30892475D01*
X46236454Y30875442D01*
X46246840Y30856011D01*
X46253236Y30834928D01*
X46256000Y30806860D01*
X46256000Y28893140D01*
X46253236Y28865072D01*
X46246840Y28843989D01*
X46236454Y28824558D01*
X46222475Y28807525D01*
X46205442Y28793546D01*
X46186011Y28783160D01*
X46164928Y28776764D01*
X46136860Y28774000D01*
X45673140Y28774000D01*
X45645072Y28776764D01*
X45623989Y28783160D01*
X45604558Y28793546D01*
X45587525Y28807525D01*
X45573546Y28824558D01*
X45563160Y28843989D01*
X45556764Y28865072D01*
X45554000Y28893140D01*
X45554000Y30806860D01*
X45556764Y30834928D01*
X45563160Y30856011D01*
X45573546Y30875442D01*
X45587525Y30892475D01*
X45604558Y30906454D01*
X45623989Y30916840D01*
X45645072Y30923236D01*
X45673140Y30926000D01*
X46136860Y30926000D01*
X46164928Y30923236D01*
X46164928Y30923236D01*
G37*
G36*
X42354928Y30923236D02*
X42376011Y30916840D01*
X42395442Y30906454D01*
X42412475Y30892475D01*
X42426454Y30875442D01*
X42436840Y30856011D01*
X42443236Y30834928D01*
X42446000Y30806860D01*
X42446000Y28893140D01*
X42443236Y28865072D01*
X42436840Y28843989D01*
X42426454Y28824558D01*
X42412475Y28807525D01*
X42395442Y28793546D01*
X42376011Y28783160D01*
X42354928Y28776764D01*
X42326860Y28774000D01*
X41863140Y28774000D01*
X41835072Y28776764D01*
X41813989Y28783160D01*
X41794558Y28793546D01*
X41777525Y28807525D01*
X41763546Y28824558D01*
X41753160Y28843989D01*
X41746764Y28865072D01*
X41744000Y28893140D01*
X41744000Y30806860D01*
X41746764Y30834928D01*
X41753160Y30856011D01*
X41763546Y30875442D01*
X41777525Y30892475D01*
X41794558Y30906454D01*
X41813989Y30916840D01*
X41835072Y30923236D01*
X41863140Y30926000D01*
X42326860Y30926000D01*
X42354928Y30923236D01*
X42354928Y30923236D01*
G37*
G36*
X43624928Y30923236D02*
X43646011Y30916840D01*
X43665442Y30906454D01*
X43682475Y30892475D01*
X43696454Y30875442D01*
X43706840Y30856011D01*
X43713236Y30834928D01*
X43716000Y30806860D01*
X43716000Y28893140D01*
X43713236Y28865072D01*
X43706840Y28843989D01*
X43696454Y28824558D01*
X43682475Y28807525D01*
X43665442Y28793546D01*
X43646011Y28783160D01*
X43624928Y28776764D01*
X43596860Y28774000D01*
X43133140Y28774000D01*
X43105072Y28776764D01*
X43083989Y28783160D01*
X43064558Y28793546D01*
X43047525Y28807525D01*
X43033546Y28824558D01*
X43023160Y28843989D01*
X43016764Y28865072D01*
X43014000Y28893140D01*
X43014000Y30806860D01*
X43016764Y30834928D01*
X43023160Y30856011D01*
X43033546Y30875442D01*
X43047525Y30892475D01*
X43064558Y30906454D01*
X43083989Y30916840D01*
X43105072Y30923236D01*
X43133140Y30926000D01*
X43596860Y30926000D01*
X43624928Y30923236D01*
X43624928Y30923236D01*
G37*
G36*
X47434928Y30923236D02*
X47456011Y30916840D01*
X47475442Y30906454D01*
X47492475Y30892475D01*
X47506454Y30875442D01*
X47516840Y30856011D01*
X47523236Y30834928D01*
X47526000Y30806860D01*
X47526000Y28893140D01*
X47523236Y28865072D01*
X47516840Y28843989D01*
X47506454Y28824558D01*
X47492475Y28807525D01*
X47475442Y28793546D01*
X47456011Y28783160D01*
X47434928Y28776764D01*
X47406860Y28774000D01*
X46943140Y28774000D01*
X46915072Y28776764D01*
X46893989Y28783160D01*
X46874558Y28793546D01*
X46857525Y28807525D01*
X46843546Y28824558D01*
X46833160Y28843989D01*
X46826764Y28865072D01*
X46824000Y28893140D01*
X46824000Y30806860D01*
X46826764Y30834928D01*
X46833160Y30856011D01*
X46843546Y30875442D01*
X46857525Y30892475D01*
X46874558Y30906454D01*
X46893989Y30916840D01*
X46915072Y30923236D01*
X46943140Y30926000D01*
X47406860Y30926000D01*
X47434928Y30923236D01*
X47434928Y30923236D01*
G37*
G36*
X17084928Y30923236D02*
X17106011Y30916840D01*
X17125442Y30906454D01*
X17142475Y30892475D01*
X17156454Y30875442D01*
X17166840Y30856011D01*
X17173236Y30834928D01*
X17176000Y30806860D01*
X17176000Y28893140D01*
X17173236Y28865072D01*
X17166840Y28843989D01*
X17156454Y28824558D01*
X17142475Y28807525D01*
X17125442Y28793546D01*
X17106011Y28783160D01*
X17084928Y28776764D01*
X17056860Y28774000D01*
X16593140Y28774000D01*
X16565072Y28776764D01*
X16543989Y28783160D01*
X16524558Y28793546D01*
X16507525Y28807525D01*
X16493546Y28824558D01*
X16483160Y28843989D01*
X16476764Y28865072D01*
X16474000Y28893140D01*
X16474000Y30806860D01*
X16476764Y30834928D01*
X16483160Y30856011D01*
X16493546Y30875442D01*
X16507525Y30892475D01*
X16524558Y30906454D01*
X16543989Y30916840D01*
X16565072Y30923236D01*
X16593140Y30926000D01*
X17056860Y30926000D01*
X17084928Y30923236D01*
X17084928Y30923236D01*
G37*
G36*
X15814928Y30923236D02*
X15836011Y30916840D01*
X15855442Y30906454D01*
X15872475Y30892475D01*
X15886454Y30875442D01*
X15896840Y30856011D01*
X15903236Y30834928D01*
X15906000Y30806860D01*
X15906000Y28893140D01*
X15903236Y28865072D01*
X15896840Y28843989D01*
X15886454Y28824558D01*
X15872475Y28807525D01*
X15855442Y28793546D01*
X15836011Y28783160D01*
X15814928Y28776764D01*
X15786860Y28774000D01*
X15323140Y28774000D01*
X15295072Y28776764D01*
X15273989Y28783160D01*
X15254558Y28793546D01*
X15237525Y28807525D01*
X15223546Y28824558D01*
X15213160Y28843989D01*
X15206764Y28865072D01*
X15204000Y28893140D01*
X15204000Y30806860D01*
X15206764Y30834928D01*
X15213160Y30856011D01*
X15223546Y30875442D01*
X15237525Y30892475D01*
X15254558Y30906454D01*
X15273989Y30916840D01*
X15295072Y30923236D01*
X15323140Y30926000D01*
X15786860Y30926000D01*
X15814928Y30923236D01*
X15814928Y30923236D01*
G37*
G36*
X18354928Y30923236D02*
X18376011Y30916840D01*
X18395442Y30906454D01*
X18412475Y30892475D01*
X18426454Y30875442D01*
X18436840Y30856011D01*
X18443236Y30834928D01*
X18446000Y30806860D01*
X18446000Y28893140D01*
X18443236Y28865072D01*
X18436840Y28843989D01*
X18426454Y28824558D01*
X18412475Y28807525D01*
X18395442Y28793546D01*
X18376011Y28783160D01*
X18354928Y28776764D01*
X18326860Y28774000D01*
X17863140Y28774000D01*
X17835072Y28776764D01*
X17813989Y28783160D01*
X17794558Y28793546D01*
X17777525Y28807525D01*
X17763546Y28824558D01*
X17753160Y28843989D01*
X17746764Y28865072D01*
X17744000Y28893140D01*
X17744000Y30806860D01*
X17746764Y30834928D01*
X17753160Y30856011D01*
X17763546Y30875442D01*
X17777525Y30892475D01*
X17794558Y30906454D01*
X17813989Y30916840D01*
X17835072Y30923236D01*
X17863140Y30926000D01*
X18326860Y30926000D01*
X18354928Y30923236D01*
X18354928Y30923236D01*
G37*
G36*
X22164928Y30923236D02*
X22186011Y30916840D01*
X22205442Y30906454D01*
X22222475Y30892475D01*
X22236454Y30875442D01*
X22246840Y30856011D01*
X22253236Y30834928D01*
X22256000Y30806860D01*
X22256000Y28893140D01*
X22253236Y28865072D01*
X22246840Y28843989D01*
X22236454Y28824558D01*
X22222475Y28807525D01*
X22205442Y28793546D01*
X22186011Y28783160D01*
X22164928Y28776764D01*
X22136860Y28774000D01*
X21673140Y28774000D01*
X21645072Y28776764D01*
X21623989Y28783160D01*
X21604558Y28793546D01*
X21587525Y28807525D01*
X21573546Y28824558D01*
X21563160Y28843989D01*
X21556764Y28865072D01*
X21554000Y28893140D01*
X21554000Y30806860D01*
X21556764Y30834928D01*
X21563160Y30856011D01*
X21573546Y30875442D01*
X21587525Y30892475D01*
X21604558Y30906454D01*
X21623989Y30916840D01*
X21645072Y30923236D01*
X21673140Y30926000D01*
X22136860Y30926000D01*
X22164928Y30923236D01*
X22164928Y30923236D01*
G37*
G36*
X24704928Y30923236D02*
X24726011Y30916840D01*
X24745442Y30906454D01*
X24762475Y30892475D01*
X24776454Y30875442D01*
X24786840Y30856011D01*
X24793236Y30834928D01*
X24796000Y30806860D01*
X24796000Y28893140D01*
X24793236Y28865072D01*
X24786840Y28843989D01*
X24776454Y28824558D01*
X24762475Y28807525D01*
X24745442Y28793546D01*
X24726011Y28783160D01*
X24704928Y28776764D01*
X24676860Y28774000D01*
X24213140Y28774000D01*
X24185072Y28776764D01*
X24163989Y28783160D01*
X24144558Y28793546D01*
X24127525Y28807525D01*
X24113546Y28824558D01*
X24103160Y28843989D01*
X24096764Y28865072D01*
X24094000Y28893140D01*
X24094000Y30806860D01*
X24096764Y30834928D01*
X24103160Y30856011D01*
X24113546Y30875442D01*
X24127525Y30892475D01*
X24144558Y30906454D01*
X24163989Y30916840D01*
X24185072Y30923236D01*
X24213140Y30926000D01*
X24676860Y30926000D01*
X24704928Y30923236D01*
X24704928Y30923236D01*
G37*
G36*
X39814928Y30923236D02*
X39836011Y30916840D01*
X39855442Y30906454D01*
X39872475Y30892475D01*
X39886454Y30875442D01*
X39896840Y30856011D01*
X39903236Y30834928D01*
X39906000Y30806860D01*
X39906000Y28893140D01*
X39903236Y28865072D01*
X39896840Y28843989D01*
X39886454Y28824558D01*
X39872475Y28807525D01*
X39855442Y28793546D01*
X39836011Y28783160D01*
X39814928Y28776764D01*
X39786860Y28774000D01*
X39323140Y28774000D01*
X39295072Y28776764D01*
X39273989Y28783160D01*
X39254558Y28793546D01*
X39237525Y28807525D01*
X39223546Y28824558D01*
X39213160Y28843989D01*
X39206764Y28865072D01*
X39204000Y28893140D01*
X39204000Y30806860D01*
X39206764Y30834928D01*
X39213160Y30856011D01*
X39223546Y30875442D01*
X39237525Y30892475D01*
X39254558Y30906454D01*
X39273989Y30916840D01*
X39295072Y30923236D01*
X39323140Y30926000D01*
X39786860Y30926000D01*
X39814928Y30923236D01*
X39814928Y30923236D01*
G37*
G36*
X41084928Y30923236D02*
X41106011Y30916840D01*
X41125442Y30906454D01*
X41142475Y30892475D01*
X41156454Y30875442D01*
X41166840Y30856011D01*
X41173236Y30834928D01*
X41176000Y30806860D01*
X41176000Y28893140D01*
X41173236Y28865072D01*
X41166840Y28843989D01*
X41156454Y28824558D01*
X41142475Y28807525D01*
X41125442Y28793546D01*
X41106011Y28783160D01*
X41084928Y28776764D01*
X41056860Y28774000D01*
X40593140Y28774000D01*
X40565072Y28776764D01*
X40543989Y28783160D01*
X40524558Y28793546D01*
X40507525Y28807525D01*
X40493546Y28824558D01*
X40483160Y28843989D01*
X40476764Y28865072D01*
X40474000Y28893140D01*
X40474000Y30806860D01*
X40476764Y30834928D01*
X40483160Y30856011D01*
X40493546Y30875442D01*
X40507525Y30892475D01*
X40524558Y30906454D01*
X40543989Y30916840D01*
X40565072Y30923236D01*
X40593140Y30926000D01*
X41056860Y30926000D01*
X41084928Y30923236D01*
X41084928Y30923236D01*
G37*
G36*
X48704928Y30923236D02*
X48726011Y30916840D01*
X48745442Y30906454D01*
X48762475Y30892475D01*
X48776454Y30875442D01*
X48786840Y30856011D01*
X48793236Y30834928D01*
X48796000Y30806860D01*
X48796000Y28893140D01*
X48793236Y28865072D01*
X48786840Y28843989D01*
X48776454Y28824558D01*
X48762475Y28807525D01*
X48745442Y28793546D01*
X48726011Y28783160D01*
X48704928Y28776764D01*
X48676860Y28774000D01*
X48213140Y28774000D01*
X48185072Y28776764D01*
X48163989Y28783160D01*
X48144558Y28793546D01*
X48127525Y28807525D01*
X48113546Y28824558D01*
X48103160Y28843989D01*
X48096764Y28865072D01*
X48094000Y28893140D01*
X48094000Y30806860D01*
X48096764Y30834928D01*
X48103160Y30856011D01*
X48113546Y30875442D01*
X48127525Y30892475D01*
X48144558Y30906454D01*
X48163989Y30916840D01*
X48185072Y30923236D01*
X48213140Y30926000D01*
X48676860Y30926000D01*
X48704928Y30923236D01*
X48704928Y30923236D01*
G37*
G36*
X23434928Y30923236D02*
X23456011Y30916840D01*
X23475442Y30906454D01*
X23492475Y30892475D01*
X23506454Y30875442D01*
X23516840Y30856011D01*
X23523236Y30834928D01*
X23526000Y30806860D01*
X23526000Y28893140D01*
X23523236Y28865072D01*
X23516840Y28843989D01*
X23506454Y28824558D01*
X23492475Y28807525D01*
X23475442Y28793546D01*
X23456011Y28783160D01*
X23434928Y28776764D01*
X23406860Y28774000D01*
X22943140Y28774000D01*
X22915072Y28776764D01*
X22893989Y28783160D01*
X22874558Y28793546D01*
X22857525Y28807525D01*
X22843546Y28824558D01*
X22833160Y28843989D01*
X22826764Y28865072D01*
X22824000Y28893140D01*
X22824000Y30806860D01*
X22826764Y30834928D01*
X22833160Y30856011D01*
X22843546Y30875442D01*
X22857525Y30892475D01*
X22874558Y30906454D01*
X22893989Y30916840D01*
X22915072Y30923236D01*
X22943140Y30926000D01*
X23406860Y30926000D01*
X23434928Y30923236D01*
X23434928Y30923236D01*
G37*
G36*
X19624928Y30923236D02*
X19646011Y30916840D01*
X19665442Y30906454D01*
X19682475Y30892475D01*
X19696454Y30875442D01*
X19706840Y30856011D01*
X19713236Y30834928D01*
X19716000Y30806860D01*
X19716000Y28893140D01*
X19713236Y28865072D01*
X19706840Y28843989D01*
X19696454Y28824558D01*
X19682475Y28807525D01*
X19665442Y28793546D01*
X19646011Y28783160D01*
X19624928Y28776764D01*
X19596860Y28774000D01*
X19133140Y28774000D01*
X19105072Y28776764D01*
X19083989Y28783160D01*
X19064558Y28793546D01*
X19047525Y28807525D01*
X19033546Y28824558D01*
X19023160Y28843989D01*
X19016764Y28865072D01*
X19014000Y28893140D01*
X19014000Y30806860D01*
X19016764Y30834928D01*
X19023160Y30856011D01*
X19033546Y30875442D01*
X19047525Y30892475D01*
X19064558Y30906454D01*
X19083989Y30916840D01*
X19105072Y30923236D01*
X19133140Y30926000D01*
X19596860Y30926000D01*
X19624928Y30923236D01*
X19624928Y30923236D01*
G37*
G36*
X20894928Y30923236D02*
X20916011Y30916840D01*
X20935442Y30906454D01*
X20952475Y30892475D01*
X20966454Y30875442D01*
X20976840Y30856011D01*
X20983236Y30834928D01*
X20986000Y30806860D01*
X20986000Y28893140D01*
X20983236Y28865072D01*
X20976840Y28843989D01*
X20966454Y28824558D01*
X20952475Y28807525D01*
X20935442Y28793546D01*
X20916011Y28783160D01*
X20894928Y28776764D01*
X20866860Y28774000D01*
X20403140Y28774000D01*
X20375072Y28776764D01*
X20353989Y28783160D01*
X20334558Y28793546D01*
X20317525Y28807525D01*
X20303546Y28824558D01*
X20293160Y28843989D01*
X20286764Y28865072D01*
X20284000Y28893140D01*
X20284000Y30806860D01*
X20286764Y30834928D01*
X20293160Y30856011D01*
X20303546Y30875442D01*
X20317525Y30892475D01*
X20334558Y30906454D01*
X20353989Y30916840D01*
X20375072Y30923236D01*
X20403140Y30926000D01*
X20866860Y30926000D01*
X20894928Y30923236D01*
X20894928Y30923236D01*
G37*
G36*
X8584466Y31596435D02*
X8623137Y31584704D01*
X8658779Y31565652D01*
X8690017Y31540017D01*
X8715652Y31508779D01*
X8734704Y31473137D01*
X8746435Y31434466D01*
X8751000Y31388112D01*
X8751000Y30736888D01*
X8746435Y30690534D01*
X8734704Y30651863D01*
X8715652Y30616221D01*
X8690017Y30584983D01*
X8658779Y30559348D01*
X8623137Y30540296D01*
X8584466Y30528565D01*
X8538112Y30524000D01*
X7461888Y30524000D01*
X7415534Y30528565D01*
X7376863Y30540296D01*
X7341221Y30559348D01*
X7309983Y30584983D01*
X7284348Y30616221D01*
X7265296Y30651863D01*
X7253565Y30690534D01*
X7249000Y30736888D01*
X7249000Y31388112D01*
X7253565Y31434466D01*
X7265296Y31473137D01*
X7284348Y31508779D01*
X7309983Y31540017D01*
X7341221Y31565652D01*
X7376863Y31584704D01*
X7415534Y31596435D01*
X7461888Y31601000D01*
X8538112Y31601000D01*
X8584466Y31596435D01*
X8584466Y31596435D01*
G37*
G36*
X32584466Y31596435D02*
X32623137Y31584704D01*
X32658779Y31565652D01*
X32690017Y31540017D01*
X32715652Y31508779D01*
X32734704Y31473137D01*
X32746435Y31434466D01*
X32751000Y31388112D01*
X32751000Y30736888D01*
X32746435Y30690534D01*
X32734704Y30651863D01*
X32715652Y30616221D01*
X32690017Y30584983D01*
X32658779Y30559348D01*
X32623137Y30540296D01*
X32584466Y30528565D01*
X32538112Y30524000D01*
X31461888Y30524000D01*
X31415534Y30528565D01*
X31376863Y30540296D01*
X31341221Y30559348D01*
X31309983Y30584983D01*
X31284348Y30616221D01*
X31265296Y30651863D01*
X31253565Y30690534D01*
X31249000Y30736888D01*
X31249000Y31388112D01*
X31253565Y31434466D01*
X31265296Y31473137D01*
X31284348Y31508779D01*
X31309983Y31540017D01*
X31341221Y31565652D01*
X31376863Y31584704D01*
X31415534Y31596435D01*
X31461888Y31601000D01*
X32538112Y31601000D01*
X32584466Y31596435D01*
X32584466Y31596435D01*
G37*
G36*
X34584466Y31596435D02*
X34623137Y31584704D01*
X34658779Y31565652D01*
X34690017Y31540017D01*
X34715652Y31508779D01*
X34734704Y31473137D01*
X34746435Y31434466D01*
X34751000Y31388112D01*
X34751000Y30736888D01*
X34746435Y30690534D01*
X34734704Y30651863D01*
X34715652Y30616221D01*
X34690017Y30584983D01*
X34658779Y30559348D01*
X34623137Y30540296D01*
X34584466Y30528565D01*
X34538112Y30524000D01*
X33461888Y30524000D01*
X33415534Y30528565D01*
X33376863Y30540296D01*
X33341221Y30559348D01*
X33309983Y30584983D01*
X33284348Y30616221D01*
X33265296Y30651863D01*
X33253565Y30690534D01*
X33249000Y30736888D01*
X33249000Y31388112D01*
X33253565Y31434466D01*
X33265296Y31473137D01*
X33284348Y31508779D01*
X33309983Y31540017D01*
X33341221Y31565652D01*
X33376863Y31584704D01*
X33415534Y31596435D01*
X33461888Y31601000D01*
X34538112Y31601000D01*
X34584466Y31596435D01*
X34584466Y31596435D01*
G37*
G36*
X10584466Y31596435D02*
X10623137Y31584704D01*
X10658779Y31565652D01*
X10690017Y31540017D01*
X10715652Y31508779D01*
X10734704Y31473137D01*
X10746435Y31434466D01*
X10751000Y31388112D01*
X10751000Y30736888D01*
X10746435Y30690534D01*
X10734704Y30651863D01*
X10715652Y30616221D01*
X10690017Y30584983D01*
X10658779Y30559348D01*
X10623137Y30540296D01*
X10584466Y30528565D01*
X10538112Y30524000D01*
X9461888Y30524000D01*
X9415534Y30528565D01*
X9376863Y30540296D01*
X9341221Y30559348D01*
X9309983Y30584983D01*
X9284348Y30616221D01*
X9265296Y30651863D01*
X9253565Y30690534D01*
X9249000Y30736888D01*
X9249000Y31388112D01*
X9253565Y31434466D01*
X9265296Y31473137D01*
X9284348Y31508779D01*
X9309983Y31540017D01*
X9341221Y31565652D01*
X9376863Y31584704D01*
X9415534Y31596435D01*
X9461888Y31601000D01*
X10538112Y31601000D01*
X10584466Y31596435D01*
X10584466Y31596435D01*
G37*
G36*
X32584466Y33471435D02*
X32623137Y33459704D01*
X32658779Y33440652D01*
X32690017Y33415017D01*
X32715652Y33383779D01*
X32734704Y33348137D01*
X32746435Y33309466D01*
X32751000Y33263112D01*
X32751000Y32611888D01*
X32746435Y32565534D01*
X32734704Y32526863D01*
X32715652Y32491221D01*
X32690017Y32459983D01*
X32658779Y32434348D01*
X32623137Y32415296D01*
X32584466Y32403565D01*
X32538112Y32399000D01*
X31461888Y32399000D01*
X31415534Y32403565D01*
X31376863Y32415296D01*
X31341221Y32434348D01*
X31309983Y32459983D01*
X31284348Y32491221D01*
X31265296Y32526863D01*
X31253565Y32565534D01*
X31249000Y32611888D01*
X31249000Y33263112D01*
X31253565Y33309466D01*
X31265296Y33348137D01*
X31284348Y33383779D01*
X31309983Y33415017D01*
X31341221Y33440652D01*
X31376863Y33459704D01*
X31415534Y33471435D01*
X31461888Y33476000D01*
X32538112Y33476000D01*
X32584466Y33471435D01*
X32584466Y33471435D01*
G37*
G36*
X34584466Y33471435D02*
X34623137Y33459704D01*
X34658779Y33440652D01*
X34690017Y33415017D01*
X34715652Y33383779D01*
X34734704Y33348137D01*
X34746435Y33309466D01*
X34751000Y33263112D01*
X34751000Y32611888D01*
X34746435Y32565534D01*
X34734704Y32526863D01*
X34715652Y32491221D01*
X34690017Y32459983D01*
X34658779Y32434348D01*
X34623137Y32415296D01*
X34584466Y32403565D01*
X34538112Y32399000D01*
X33461888Y32399000D01*
X33415534Y32403565D01*
X33376863Y32415296D01*
X33341221Y32434348D01*
X33309983Y32459983D01*
X33284348Y32491221D01*
X33265296Y32526863D01*
X33253565Y32565534D01*
X33249000Y32611888D01*
X33249000Y33263112D01*
X33253565Y33309466D01*
X33265296Y33348137D01*
X33284348Y33383779D01*
X33309983Y33415017D01*
X33341221Y33440652D01*
X33376863Y33459704D01*
X33415534Y33471435D01*
X33461888Y33476000D01*
X34538112Y33476000D01*
X34584466Y33471435D01*
X34584466Y33471435D01*
G37*
G36*
X8584466Y33471435D02*
X8623137Y33459704D01*
X8658779Y33440652D01*
X8690017Y33415017D01*
X8715652Y33383779D01*
X8734704Y33348137D01*
X8746435Y33309466D01*
X8751000Y33263112D01*
X8751000Y32611888D01*
X8746435Y32565534D01*
X8734704Y32526863D01*
X8715652Y32491221D01*
X8690017Y32459983D01*
X8658779Y32434348D01*
X8623137Y32415296D01*
X8584466Y32403565D01*
X8538112Y32399000D01*
X7461888Y32399000D01*
X7415534Y32403565D01*
X7376863Y32415296D01*
X7341221Y32434348D01*
X7309983Y32459983D01*
X7284348Y32491221D01*
X7265296Y32526863D01*
X7253565Y32565534D01*
X7249000Y32611888D01*
X7249000Y33263112D01*
X7253565Y33309466D01*
X7265296Y33348137D01*
X7284348Y33383779D01*
X7309983Y33415017D01*
X7341221Y33440652D01*
X7376863Y33459704D01*
X7415534Y33471435D01*
X7461888Y33476000D01*
X8538112Y33476000D01*
X8584466Y33471435D01*
X8584466Y33471435D01*
G37*
G36*
X10584466Y33471435D02*
X10623137Y33459704D01*
X10658779Y33440652D01*
X10690017Y33415017D01*
X10715652Y33383779D01*
X10734704Y33348137D01*
X10746435Y33309466D01*
X10751000Y33263112D01*
X10751000Y32611888D01*
X10746435Y32565534D01*
X10734704Y32526863D01*
X10715652Y32491221D01*
X10690017Y32459983D01*
X10658779Y32434348D01*
X10623137Y32415296D01*
X10584466Y32403565D01*
X10538112Y32399000D01*
X9461888Y32399000D01*
X9415534Y32403565D01*
X9376863Y32415296D01*
X9341221Y32434348D01*
X9309983Y32459983D01*
X9284348Y32491221D01*
X9265296Y32526863D01*
X9253565Y32565534D01*
X9249000Y32611888D01*
X9249000Y33263112D01*
X9253565Y33309466D01*
X9265296Y33348137D01*
X9284348Y33383779D01*
X9309983Y33415017D01*
X9341221Y33440652D01*
X9376863Y33459704D01*
X9415534Y33471435D01*
X9461888Y33476000D01*
X10538112Y33476000D01*
X10584466Y33471435D01*
X10584466Y33471435D01*
G37*
G36*
X37551000Y33199000D02*
X36449000Y33199000D01*
X36449000Y34301000D01*
X37551000Y34301000D01*
X37551000Y33199000D01*
X37551000Y33199000D01*
G37*
G36*
X13551000Y33199000D02*
X12449000Y33199000D01*
X12449000Y34301000D01*
X13551000Y34301000D01*
X13551000Y33199000D01*
X13551000Y33199000D01*
G37*
G36*
X9851000Y35149000D02*
X8149000Y35149000D01*
X8149000Y36851000D01*
X9851000Y36851000D01*
X9851000Y35149000D01*
X9851000Y35149000D01*
G37*
G36*
X33851000Y35149000D02*
X32149000Y35149000D01*
X32149000Y36851000D01*
X33851000Y36851000D01*
X33851000Y35149000D01*
X33851000Y35149000D01*
G37*
G36*
X84174884Y37740722D02*
X84364903Y37702925D01*
X84592571Y37608622D01*
X84712384Y37528565D01*
X84797469Y37471713D01*
X84971713Y37297469D01*
X84971715Y37297466D01*
X85108622Y37092571D01*
X85202925Y36864903D01*
X85251000Y36623213D01*
X85251000Y36376787D01*
X85202925Y36135097D01*
X85108622Y35907429D01*
X84972332Y35703458D01*
X84971713Y35702531D01*
X84797469Y35528287D01*
X84797466Y35528285D01*
X84592571Y35391378D01*
X84364903Y35297075D01*
X84183636Y35261019D01*
X84123214Y35249000D01*
X83876786Y35249000D01*
X83816364Y35261019D01*
X83635097Y35297075D01*
X83407429Y35391378D01*
X83202534Y35528285D01*
X83202531Y35528287D01*
X83028287Y35702531D01*
X83027668Y35703458D01*
X82891378Y35907429D01*
X82797075Y36135097D01*
X82749000Y36376787D01*
X82749000Y36623213D01*
X82797075Y36864903D01*
X82891378Y37092571D01*
X83028285Y37297466D01*
X83028287Y37297469D01*
X83202531Y37471713D01*
X83287616Y37528565D01*
X83407429Y37608622D01*
X83635097Y37702925D01*
X83825116Y37740722D01*
X83876786Y37751000D01*
X84123214Y37751000D01*
X84174884Y37740722D01*
X84174884Y37740722D01*
G37*
G36*
X66174884Y37740722D02*
X66364903Y37702925D01*
X66592571Y37608622D01*
X66712384Y37528565D01*
X66797469Y37471713D01*
X66971713Y37297469D01*
X66971715Y37297466D01*
X67108622Y37092571D01*
X67202925Y36864903D01*
X67251000Y36623213D01*
X67251000Y36376787D01*
X67202925Y36135097D01*
X67108622Y35907429D01*
X66972332Y35703458D01*
X66971713Y35702531D01*
X66797469Y35528287D01*
X66797466Y35528285D01*
X66592571Y35391378D01*
X66364903Y35297075D01*
X66183636Y35261019D01*
X66123214Y35249000D01*
X65876786Y35249000D01*
X65816364Y35261019D01*
X65635097Y35297075D01*
X65407429Y35391378D01*
X65202534Y35528285D01*
X65202531Y35528287D01*
X65028287Y35702531D01*
X65027668Y35703458D01*
X64891378Y35907429D01*
X64797075Y36135097D01*
X64749000Y36376787D01*
X64749000Y36623213D01*
X64797075Y36864903D01*
X64891378Y37092571D01*
X65028285Y37297466D01*
X65028287Y37297469D01*
X65202531Y37471713D01*
X65287616Y37528565D01*
X65407429Y37608622D01*
X65635097Y37702925D01*
X65825116Y37740722D01*
X65876786Y37751000D01*
X66123214Y37751000D01*
X66174884Y37740722D01*
X66174884Y37740722D01*
G37*
G36*
X13551000Y35699000D02*
X12449000Y35699000D01*
X12449000Y36801000D01*
X13551000Y36801000D01*
X13551000Y35699000D01*
X13551000Y35699000D01*
G37*
G36*
X37551000Y35699000D02*
X36449000Y35699000D01*
X36449000Y36801000D01*
X37551000Y36801000D01*
X37551000Y35699000D01*
X37551000Y35699000D01*
G37*
G36*
X33248228Y38818297D02*
X33403100Y38754147D01*
X33542481Y38661015D01*
X33661015Y38542481D01*
X33754147Y38403100D01*
X33818297Y38248228D01*
X33851000Y38083816D01*
X33851000Y37916184D01*
X33818297Y37751772D01*
X33754147Y37596900D01*
X33661015Y37457519D01*
X33542481Y37338985D01*
X33403100Y37245853D01*
X33248228Y37181703D01*
X33083816Y37149000D01*
X32916184Y37149000D01*
X32751772Y37181703D01*
X32596900Y37245853D01*
X32457519Y37338985D01*
X32338985Y37457519D01*
X32245853Y37596900D01*
X32181703Y37751772D01*
X32149000Y37916184D01*
X32149000Y38083816D01*
X32181703Y38248228D01*
X32245853Y38403100D01*
X32338985Y38542481D01*
X32457519Y38661015D01*
X32596900Y38754147D01*
X32751772Y38818297D01*
X32916184Y38851000D01*
X33083816Y38851000D01*
X33248228Y38818297D01*
X33248228Y38818297D01*
G37*
G36*
X9248228Y38818297D02*
X9403100Y38754147D01*
X9542481Y38661015D01*
X9661015Y38542481D01*
X9754147Y38403100D01*
X9818297Y38248228D01*
X9851000Y38083816D01*
X9851000Y37916184D01*
X9818297Y37751772D01*
X9754147Y37596900D01*
X9661015Y37457519D01*
X9542481Y37338985D01*
X9403100Y37245853D01*
X9248228Y37181703D01*
X9083816Y37149000D01*
X8916184Y37149000D01*
X8751772Y37181703D01*
X8596900Y37245853D01*
X8457519Y37338985D01*
X8338985Y37457519D01*
X8245853Y37596900D01*
X8181703Y37751772D01*
X8149000Y37916184D01*
X8149000Y38083816D01*
X8181703Y38248228D01*
X8245853Y38403100D01*
X8338985Y38542481D01*
X8457519Y38661015D01*
X8596900Y38754147D01*
X8751772Y38818297D01*
X8916184Y38851000D01*
X9083816Y38851000D01*
X9248228Y38818297D01*
X9248228Y38818297D01*
G37*
G36*
X27584466Y38596435D02*
X27623137Y38584704D01*
X27658779Y38565652D01*
X27690017Y38540017D01*
X27715652Y38508779D01*
X27734704Y38473137D01*
X27746435Y38434466D01*
X27751000Y38388112D01*
X27751000Y37736888D01*
X27746435Y37690534D01*
X27734704Y37651863D01*
X27715652Y37616221D01*
X27690017Y37584983D01*
X27658779Y37559348D01*
X27623137Y37540296D01*
X27584466Y37528565D01*
X27538112Y37524000D01*
X26461888Y37524000D01*
X26415534Y37528565D01*
X26376863Y37540296D01*
X26341221Y37559348D01*
X26309983Y37584983D01*
X26284348Y37616221D01*
X26265296Y37651863D01*
X26253565Y37690534D01*
X26249000Y37736888D01*
X26249000Y38388112D01*
X26253565Y38434466D01*
X26265296Y38473137D01*
X26284348Y38508779D01*
X26309983Y38540017D01*
X26341221Y38565652D01*
X26376863Y38584704D01*
X26415534Y38596435D01*
X26461888Y38601000D01*
X27538112Y38601000D01*
X27584466Y38596435D01*
X27584466Y38596435D01*
G37*
G36*
X37584466Y38596435D02*
X37623137Y38584704D01*
X37658779Y38565652D01*
X37690017Y38540017D01*
X37715652Y38508779D01*
X37734704Y38473137D01*
X37746435Y38434466D01*
X37751000Y38388112D01*
X37751000Y37736888D01*
X37746435Y37690534D01*
X37734704Y37651863D01*
X37715652Y37616221D01*
X37690017Y37584983D01*
X37658779Y37559348D01*
X37623137Y37540296D01*
X37584466Y37528565D01*
X37538112Y37524000D01*
X36461888Y37524000D01*
X36415534Y37528565D01*
X36376863Y37540296D01*
X36341221Y37559348D01*
X36309983Y37584983D01*
X36284348Y37616221D01*
X36265296Y37651863D01*
X36253565Y37690534D01*
X36249000Y37736888D01*
X36249000Y38388112D01*
X36253565Y38434466D01*
X36265296Y38473137D01*
X36284348Y38508779D01*
X36309983Y38540017D01*
X36341221Y38565652D01*
X36376863Y38584704D01*
X36415534Y38596435D01*
X36461888Y38601000D01*
X37538112Y38601000D01*
X37584466Y38596435D01*
X37584466Y38596435D01*
G37*
G36*
X51584466Y38596435D02*
X51623137Y38584704D01*
X51658779Y38565652D01*
X51690017Y38540017D01*
X51715652Y38508779D01*
X51734704Y38473137D01*
X51746435Y38434466D01*
X51751000Y38388112D01*
X51751000Y37736888D01*
X51746435Y37690534D01*
X51734704Y37651863D01*
X51715652Y37616221D01*
X51690017Y37584983D01*
X51658779Y37559348D01*
X51623137Y37540296D01*
X51584466Y37528565D01*
X51538112Y37524000D01*
X50461888Y37524000D01*
X50415534Y37528565D01*
X50376863Y37540296D01*
X50341221Y37559348D01*
X50309983Y37584983D01*
X50284348Y37616221D01*
X50265296Y37651863D01*
X50253565Y37690534D01*
X50249000Y37736888D01*
X50249000Y38388112D01*
X50253565Y38434466D01*
X50265296Y38473137D01*
X50284348Y38508779D01*
X50309983Y38540017D01*
X50341221Y38565652D01*
X50376863Y38584704D01*
X50415534Y38596435D01*
X50461888Y38601000D01*
X51538112Y38601000D01*
X51584466Y38596435D01*
X51584466Y38596435D01*
G37*
G36*
X13584466Y38596435D02*
X13623137Y38584704D01*
X13658779Y38565652D01*
X13690017Y38540017D01*
X13715652Y38508779D01*
X13734704Y38473137D01*
X13746435Y38434466D01*
X13751000Y38388112D01*
X13751000Y37736888D01*
X13746435Y37690534D01*
X13734704Y37651863D01*
X13715652Y37616221D01*
X13690017Y37584983D01*
X13658779Y37559348D01*
X13623137Y37540296D01*
X13584466Y37528565D01*
X13538112Y37524000D01*
X12461888Y37524000D01*
X12415534Y37528565D01*
X12376863Y37540296D01*
X12341221Y37559348D01*
X12309983Y37584983D01*
X12284348Y37616221D01*
X12265296Y37651863D01*
X12253565Y37690534D01*
X12249000Y37736888D01*
X12249000Y38388112D01*
X12253565Y38434466D01*
X12265296Y38473137D01*
X12284348Y38508779D01*
X12309983Y38540017D01*
X12341221Y38565652D01*
X12376863Y38584704D01*
X12415534Y38596435D01*
X12461888Y38601000D01*
X13538112Y38601000D01*
X13584466Y38596435D01*
X13584466Y38596435D01*
G37*
G36*
X48704928Y40223236D02*
X48726011Y40216840D01*
X48745442Y40206454D01*
X48762475Y40192475D01*
X48776454Y40175442D01*
X48786840Y40156011D01*
X48793236Y40134928D01*
X48796000Y40106860D01*
X48796000Y38193140D01*
X48793236Y38165072D01*
X48786840Y38143989D01*
X48776454Y38124558D01*
X48762475Y38107525D01*
X48745442Y38093546D01*
X48726011Y38083160D01*
X48704928Y38076764D01*
X48676860Y38074000D01*
X48213140Y38074000D01*
X48185072Y38076764D01*
X48163989Y38083160D01*
X48144558Y38093546D01*
X48127525Y38107525D01*
X48113546Y38124558D01*
X48103160Y38143989D01*
X48096764Y38165072D01*
X48094000Y38193140D01*
X48094000Y40106860D01*
X48096764Y40134928D01*
X48103160Y40156011D01*
X48113546Y40175442D01*
X48127525Y40192475D01*
X48144558Y40206454D01*
X48163989Y40216840D01*
X48185072Y40223236D01*
X48213140Y40226000D01*
X48676860Y40226000D01*
X48704928Y40223236D01*
X48704928Y40223236D01*
G37*
G36*
X43624928Y40223236D02*
X43646011Y40216840D01*
X43665442Y40206454D01*
X43682475Y40192475D01*
X43696454Y40175442D01*
X43706840Y40156011D01*
X43713236Y40134928D01*
X43716000Y40106860D01*
X43716000Y38193140D01*
X43713236Y38165072D01*
X43706840Y38143989D01*
X43696454Y38124558D01*
X43682475Y38107525D01*
X43665442Y38093546D01*
X43646011Y38083160D01*
X43624928Y38076764D01*
X43596860Y38074000D01*
X43133140Y38074000D01*
X43105072Y38076764D01*
X43083989Y38083160D01*
X43064558Y38093546D01*
X43047525Y38107525D01*
X43033546Y38124558D01*
X43023160Y38143989D01*
X43016764Y38165072D01*
X43014000Y38193140D01*
X43014000Y40106860D01*
X43016764Y40134928D01*
X43023160Y40156011D01*
X43033546Y40175442D01*
X43047525Y40192475D01*
X43064558Y40206454D01*
X43083989Y40216840D01*
X43105072Y40223236D01*
X43133140Y40226000D01*
X43596860Y40226000D01*
X43624928Y40223236D01*
X43624928Y40223236D01*
G37*
G36*
X44894928Y40223236D02*
X44916011Y40216840D01*
X44935442Y40206454D01*
X44952475Y40192475D01*
X44966454Y40175442D01*
X44976840Y40156011D01*
X44983236Y40134928D01*
X44986000Y40106860D01*
X44986000Y38193140D01*
X44983236Y38165072D01*
X44976840Y38143989D01*
X44966454Y38124558D01*
X44952475Y38107525D01*
X44935442Y38093546D01*
X44916011Y38083160D01*
X44894928Y38076764D01*
X44866860Y38074000D01*
X44403140Y38074000D01*
X44375072Y38076764D01*
X44353989Y38083160D01*
X44334558Y38093546D01*
X44317525Y38107525D01*
X44303546Y38124558D01*
X44293160Y38143989D01*
X44286764Y38165072D01*
X44284000Y38193140D01*
X44284000Y40106860D01*
X44286764Y40134928D01*
X44293160Y40156011D01*
X44303546Y40175442D01*
X44317525Y40192475D01*
X44334558Y40206454D01*
X44353989Y40216840D01*
X44375072Y40223236D01*
X44403140Y40226000D01*
X44866860Y40226000D01*
X44894928Y40223236D01*
X44894928Y40223236D01*
G37*
G36*
X46164928Y40223236D02*
X46186011Y40216840D01*
X46205442Y40206454D01*
X46222475Y40192475D01*
X46236454Y40175442D01*
X46246840Y40156011D01*
X46253236Y40134928D01*
X46256000Y40106860D01*
X46256000Y38193140D01*
X46253236Y38165072D01*
X46246840Y38143989D01*
X46236454Y38124558D01*
X46222475Y38107525D01*
X46205442Y38093546D01*
X46186011Y38083160D01*
X46164928Y38076764D01*
X46136860Y38074000D01*
X45673140Y38074000D01*
X45645072Y38076764D01*
X45623989Y38083160D01*
X45604558Y38093546D01*
X45587525Y38107525D01*
X45573546Y38124558D01*
X45563160Y38143989D01*
X45556764Y38165072D01*
X45554000Y38193140D01*
X45554000Y40106860D01*
X45556764Y40134928D01*
X45563160Y40156011D01*
X45573546Y40175442D01*
X45587525Y40192475D01*
X45604558Y40206454D01*
X45623989Y40216840D01*
X45645072Y40223236D01*
X45673140Y40226000D01*
X46136860Y40226000D01*
X46164928Y40223236D01*
X46164928Y40223236D01*
G37*
G36*
X47434928Y40223236D02*
X47456011Y40216840D01*
X47475442Y40206454D01*
X47492475Y40192475D01*
X47506454Y40175442D01*
X47516840Y40156011D01*
X47523236Y40134928D01*
X47526000Y40106860D01*
X47526000Y38193140D01*
X47523236Y38165072D01*
X47516840Y38143989D01*
X47506454Y38124558D01*
X47492475Y38107525D01*
X47475442Y38093546D01*
X47456011Y38083160D01*
X47434928Y38076764D01*
X47406860Y38074000D01*
X46943140Y38074000D01*
X46915072Y38076764D01*
X46893989Y38083160D01*
X46874558Y38093546D01*
X46857525Y38107525D01*
X46843546Y38124558D01*
X46833160Y38143989D01*
X46826764Y38165072D01*
X46824000Y38193140D01*
X46824000Y40106860D01*
X46826764Y40134928D01*
X46833160Y40156011D01*
X46843546Y40175442D01*
X46857525Y40192475D01*
X46874558Y40206454D01*
X46893989Y40216840D01*
X46915072Y40223236D01*
X46943140Y40226000D01*
X47406860Y40226000D01*
X47434928Y40223236D01*
X47434928Y40223236D01*
G37*
G36*
X24704928Y40223236D02*
X24726011Y40216840D01*
X24745442Y40206454D01*
X24762475Y40192475D01*
X24776454Y40175442D01*
X24786840Y40156011D01*
X24793236Y40134928D01*
X24796000Y40106860D01*
X24796000Y38193140D01*
X24793236Y38165072D01*
X24786840Y38143989D01*
X24776454Y38124558D01*
X24762475Y38107525D01*
X24745442Y38093546D01*
X24726011Y38083160D01*
X24704928Y38076764D01*
X24676860Y38074000D01*
X24213140Y38074000D01*
X24185072Y38076764D01*
X24163989Y38083160D01*
X24144558Y38093546D01*
X24127525Y38107525D01*
X24113546Y38124558D01*
X24103160Y38143989D01*
X24096764Y38165072D01*
X24094000Y38193140D01*
X24094000Y40106860D01*
X24096764Y40134928D01*
X24103160Y40156011D01*
X24113546Y40175442D01*
X24127525Y40192475D01*
X24144558Y40206454D01*
X24163989Y40216840D01*
X24185072Y40223236D01*
X24213140Y40226000D01*
X24676860Y40226000D01*
X24704928Y40223236D01*
X24704928Y40223236D01*
G37*
G36*
X15814928Y40223236D02*
X15836011Y40216840D01*
X15855442Y40206454D01*
X15872475Y40192475D01*
X15886454Y40175442D01*
X15896840Y40156011D01*
X15903236Y40134928D01*
X15906000Y40106860D01*
X15906000Y38193140D01*
X15903236Y38165072D01*
X15896840Y38143989D01*
X15886454Y38124558D01*
X15872475Y38107525D01*
X15855442Y38093546D01*
X15836011Y38083160D01*
X15814928Y38076764D01*
X15786860Y38074000D01*
X15323140Y38074000D01*
X15295072Y38076764D01*
X15273989Y38083160D01*
X15254558Y38093546D01*
X15237525Y38107525D01*
X15223546Y38124558D01*
X15213160Y38143989D01*
X15206764Y38165072D01*
X15204000Y38193140D01*
X15204000Y40106860D01*
X15206764Y40134928D01*
X15213160Y40156011D01*
X15223546Y40175442D01*
X15237525Y40192475D01*
X15254558Y40206454D01*
X15273989Y40216840D01*
X15295072Y40223236D01*
X15323140Y40226000D01*
X15786860Y40226000D01*
X15814928Y40223236D01*
X15814928Y40223236D01*
G37*
G36*
X17084928Y40223236D02*
X17106011Y40216840D01*
X17125442Y40206454D01*
X17142475Y40192475D01*
X17156454Y40175442D01*
X17166840Y40156011D01*
X17173236Y40134928D01*
X17176000Y40106860D01*
X17176000Y38193140D01*
X17173236Y38165072D01*
X17166840Y38143989D01*
X17156454Y38124558D01*
X17142475Y38107525D01*
X17125442Y38093546D01*
X17106011Y38083160D01*
X17084928Y38076764D01*
X17056860Y38074000D01*
X16593140Y38074000D01*
X16565072Y38076764D01*
X16543989Y38083160D01*
X16524558Y38093546D01*
X16507525Y38107525D01*
X16493546Y38124558D01*
X16483160Y38143989D01*
X16476764Y38165072D01*
X16474000Y38193140D01*
X16474000Y40106860D01*
X16476764Y40134928D01*
X16483160Y40156011D01*
X16493546Y40175442D01*
X16507525Y40192475D01*
X16524558Y40206454D01*
X16543989Y40216840D01*
X16565072Y40223236D01*
X16593140Y40226000D01*
X17056860Y40226000D01*
X17084928Y40223236D01*
X17084928Y40223236D01*
G37*
G36*
X18354928Y40223236D02*
X18376011Y40216840D01*
X18395442Y40206454D01*
X18412475Y40192475D01*
X18426454Y40175442D01*
X18436840Y40156011D01*
X18443236Y40134928D01*
X18446000Y40106860D01*
X18446000Y38193140D01*
X18443236Y38165072D01*
X18436840Y38143989D01*
X18426454Y38124558D01*
X18412475Y38107525D01*
X18395442Y38093546D01*
X18376011Y38083160D01*
X18354928Y38076764D01*
X18326860Y38074000D01*
X17863140Y38074000D01*
X17835072Y38076764D01*
X17813989Y38083160D01*
X17794558Y38093546D01*
X17777525Y38107525D01*
X17763546Y38124558D01*
X17753160Y38143989D01*
X17746764Y38165072D01*
X17744000Y38193140D01*
X17744000Y40106860D01*
X17746764Y40134928D01*
X17753160Y40156011D01*
X17763546Y40175442D01*
X17777525Y40192475D01*
X17794558Y40206454D01*
X17813989Y40216840D01*
X17835072Y40223236D01*
X17863140Y40226000D01*
X18326860Y40226000D01*
X18354928Y40223236D01*
X18354928Y40223236D01*
G37*
G36*
X19624928Y40223236D02*
X19646011Y40216840D01*
X19665442Y40206454D01*
X19682475Y40192475D01*
X19696454Y40175442D01*
X19706840Y40156011D01*
X19713236Y40134928D01*
X19716000Y40106860D01*
X19716000Y38193140D01*
X19713236Y38165072D01*
X19706840Y38143989D01*
X19696454Y38124558D01*
X19682475Y38107525D01*
X19665442Y38093546D01*
X19646011Y38083160D01*
X19624928Y38076764D01*
X19596860Y38074000D01*
X19133140Y38074000D01*
X19105072Y38076764D01*
X19083989Y38083160D01*
X19064558Y38093546D01*
X19047525Y38107525D01*
X19033546Y38124558D01*
X19023160Y38143989D01*
X19016764Y38165072D01*
X19014000Y38193140D01*
X19014000Y40106860D01*
X19016764Y40134928D01*
X19023160Y40156011D01*
X19033546Y40175442D01*
X19047525Y40192475D01*
X19064558Y40206454D01*
X19083989Y40216840D01*
X19105072Y40223236D01*
X19133140Y40226000D01*
X19596860Y40226000D01*
X19624928Y40223236D01*
X19624928Y40223236D01*
G37*
G36*
X20894928Y40223236D02*
X20916011Y40216840D01*
X20935442Y40206454D01*
X20952475Y40192475D01*
X20966454Y40175442D01*
X20976840Y40156011D01*
X20983236Y40134928D01*
X20986000Y40106860D01*
X20986000Y38193140D01*
X20983236Y38165072D01*
X20976840Y38143989D01*
X20966454Y38124558D01*
X20952475Y38107525D01*
X20935442Y38093546D01*
X20916011Y38083160D01*
X20894928Y38076764D01*
X20866860Y38074000D01*
X20403140Y38074000D01*
X20375072Y38076764D01*
X20353989Y38083160D01*
X20334558Y38093546D01*
X20317525Y38107525D01*
X20303546Y38124558D01*
X20293160Y38143989D01*
X20286764Y38165072D01*
X20284000Y38193140D01*
X20284000Y40106860D01*
X20286764Y40134928D01*
X20293160Y40156011D01*
X20303546Y40175442D01*
X20317525Y40192475D01*
X20334558Y40206454D01*
X20353989Y40216840D01*
X20375072Y40223236D01*
X20403140Y40226000D01*
X20866860Y40226000D01*
X20894928Y40223236D01*
X20894928Y40223236D01*
G37*
G36*
X22164928Y40223236D02*
X22186011Y40216840D01*
X22205442Y40206454D01*
X22222475Y40192475D01*
X22236454Y40175442D01*
X22246840Y40156011D01*
X22253236Y40134928D01*
X22256000Y40106860D01*
X22256000Y38193140D01*
X22253236Y38165072D01*
X22246840Y38143989D01*
X22236454Y38124558D01*
X22222475Y38107525D01*
X22205442Y38093546D01*
X22186011Y38083160D01*
X22164928Y38076764D01*
X22136860Y38074000D01*
X21673140Y38074000D01*
X21645072Y38076764D01*
X21623989Y38083160D01*
X21604558Y38093546D01*
X21587525Y38107525D01*
X21573546Y38124558D01*
X21563160Y38143989D01*
X21556764Y38165072D01*
X21554000Y38193140D01*
X21554000Y40106860D01*
X21556764Y40134928D01*
X21563160Y40156011D01*
X21573546Y40175442D01*
X21587525Y40192475D01*
X21604558Y40206454D01*
X21623989Y40216840D01*
X21645072Y40223236D01*
X21673140Y40226000D01*
X22136860Y40226000D01*
X22164928Y40223236D01*
X22164928Y40223236D01*
G37*
G36*
X23434928Y40223236D02*
X23456011Y40216840D01*
X23475442Y40206454D01*
X23492475Y40192475D01*
X23506454Y40175442D01*
X23516840Y40156011D01*
X23523236Y40134928D01*
X23526000Y40106860D01*
X23526000Y38193140D01*
X23523236Y38165072D01*
X23516840Y38143989D01*
X23506454Y38124558D01*
X23492475Y38107525D01*
X23475442Y38093546D01*
X23456011Y38083160D01*
X23434928Y38076764D01*
X23406860Y38074000D01*
X22943140Y38074000D01*
X22915072Y38076764D01*
X22893989Y38083160D01*
X22874558Y38093546D01*
X22857525Y38107525D01*
X22843546Y38124558D01*
X22833160Y38143989D01*
X22826764Y38165072D01*
X22824000Y38193140D01*
X22824000Y40106860D01*
X22826764Y40134928D01*
X22833160Y40156011D01*
X22843546Y40175442D01*
X22857525Y40192475D01*
X22874558Y40206454D01*
X22893989Y40216840D01*
X22915072Y40223236D01*
X22943140Y40226000D01*
X23406860Y40226000D01*
X23434928Y40223236D01*
X23434928Y40223236D01*
G37*
G36*
X39814928Y40223236D02*
X39836011Y40216840D01*
X39855442Y40206454D01*
X39872475Y40192475D01*
X39886454Y40175442D01*
X39896840Y40156011D01*
X39903236Y40134928D01*
X39906000Y40106860D01*
X39906000Y38193140D01*
X39903236Y38165072D01*
X39896840Y38143989D01*
X39886454Y38124558D01*
X39872475Y38107525D01*
X39855442Y38093546D01*
X39836011Y38083160D01*
X39814928Y38076764D01*
X39786860Y38074000D01*
X39323140Y38074000D01*
X39295072Y38076764D01*
X39273989Y38083160D01*
X39254558Y38093546D01*
X39237525Y38107525D01*
X39223546Y38124558D01*
X39213160Y38143989D01*
X39206764Y38165072D01*
X39204000Y38193140D01*
X39204000Y40106860D01*
X39206764Y40134928D01*
X39213160Y40156011D01*
X39223546Y40175442D01*
X39237525Y40192475D01*
X39254558Y40206454D01*
X39273989Y40216840D01*
X39295072Y40223236D01*
X39323140Y40226000D01*
X39786860Y40226000D01*
X39814928Y40223236D01*
X39814928Y40223236D01*
G37*
G36*
X42354928Y40223236D02*
X42376011Y40216840D01*
X42395442Y40206454D01*
X42412475Y40192475D01*
X42426454Y40175442D01*
X42436840Y40156011D01*
X42443236Y40134928D01*
X42446000Y40106860D01*
X42446000Y38193140D01*
X42443236Y38165072D01*
X42436840Y38143989D01*
X42426454Y38124558D01*
X42412475Y38107525D01*
X42395442Y38093546D01*
X42376011Y38083160D01*
X42354928Y38076764D01*
X42326860Y38074000D01*
X41863140Y38074000D01*
X41835072Y38076764D01*
X41813989Y38083160D01*
X41794558Y38093546D01*
X41777525Y38107525D01*
X41763546Y38124558D01*
X41753160Y38143989D01*
X41746764Y38165072D01*
X41744000Y38193140D01*
X41744000Y40106860D01*
X41746764Y40134928D01*
X41753160Y40156011D01*
X41763546Y40175442D01*
X41777525Y40192475D01*
X41794558Y40206454D01*
X41813989Y40216840D01*
X41835072Y40223236D01*
X41863140Y40226000D01*
X42326860Y40226000D01*
X42354928Y40223236D01*
X42354928Y40223236D01*
G37*
G36*
X41084928Y40223236D02*
X41106011Y40216840D01*
X41125442Y40206454D01*
X41142475Y40192475D01*
X41156454Y40175442D01*
X41166840Y40156011D01*
X41173236Y40134928D01*
X41176000Y40106860D01*
X41176000Y38193140D01*
X41173236Y38165072D01*
X41166840Y38143989D01*
X41156454Y38124558D01*
X41142475Y38107525D01*
X41125442Y38093546D01*
X41106011Y38083160D01*
X41084928Y38076764D01*
X41056860Y38074000D01*
X40593140Y38074000D01*
X40565072Y38076764D01*
X40543989Y38083160D01*
X40524558Y38093546D01*
X40507525Y38107525D01*
X40493546Y38124558D01*
X40483160Y38143989D01*
X40476764Y38165072D01*
X40474000Y38193140D01*
X40474000Y40106860D01*
X40476764Y40134928D01*
X40483160Y40156011D01*
X40493546Y40175442D01*
X40507525Y40192475D01*
X40524558Y40206454D01*
X40543989Y40216840D01*
X40565072Y40223236D01*
X40593140Y40226000D01*
X41056860Y40226000D01*
X41084928Y40223236D01*
X41084928Y40223236D01*
G37*
G36*
X37584466Y40471435D02*
X37623137Y40459704D01*
X37658779Y40440652D01*
X37690017Y40415017D01*
X37715652Y40383779D01*
X37734704Y40348137D01*
X37746435Y40309466D01*
X37751000Y40263112D01*
X37751000Y39611888D01*
X37746435Y39565534D01*
X37734704Y39526863D01*
X37715652Y39491221D01*
X37690017Y39459983D01*
X37658779Y39434348D01*
X37623137Y39415296D01*
X37584466Y39403565D01*
X37538112Y39399000D01*
X36461888Y39399000D01*
X36415534Y39403565D01*
X36376863Y39415296D01*
X36341221Y39434348D01*
X36309983Y39459983D01*
X36284348Y39491221D01*
X36265296Y39526863D01*
X36253565Y39565534D01*
X36249000Y39611888D01*
X36249000Y40263112D01*
X36253565Y40309466D01*
X36265296Y40348137D01*
X36284348Y40383779D01*
X36309983Y40415017D01*
X36341221Y40440652D01*
X36376863Y40459704D01*
X36415534Y40471435D01*
X36461888Y40476000D01*
X37538112Y40476000D01*
X37584466Y40471435D01*
X37584466Y40471435D01*
G37*
G36*
X13584466Y40471435D02*
X13623137Y40459704D01*
X13658779Y40440652D01*
X13690017Y40415017D01*
X13715652Y40383779D01*
X13734704Y40348137D01*
X13746435Y40309466D01*
X13751000Y40263112D01*
X13751000Y39611888D01*
X13746435Y39565534D01*
X13734704Y39526863D01*
X13715652Y39491221D01*
X13690017Y39459983D01*
X13658779Y39434348D01*
X13623137Y39415296D01*
X13584466Y39403565D01*
X13538112Y39399000D01*
X12461888Y39399000D01*
X12415534Y39403565D01*
X12376863Y39415296D01*
X12341221Y39434348D01*
X12309983Y39459983D01*
X12284348Y39491221D01*
X12265296Y39526863D01*
X12253565Y39565534D01*
X12249000Y39611888D01*
X12249000Y40263112D01*
X12253565Y40309466D01*
X12265296Y40348137D01*
X12284348Y40383779D01*
X12309983Y40415017D01*
X12341221Y40440652D01*
X12376863Y40459704D01*
X12415534Y40471435D01*
X12461888Y40476000D01*
X13538112Y40476000D01*
X13584466Y40471435D01*
X13584466Y40471435D01*
G37*
G36*
X27584466Y40471435D02*
X27623137Y40459704D01*
X27658779Y40440652D01*
X27690017Y40415017D01*
X27715652Y40383779D01*
X27734704Y40348137D01*
X27746435Y40309466D01*
X27751000Y40263112D01*
X27751000Y39611888D01*
X27746435Y39565534D01*
X27734704Y39526863D01*
X27715652Y39491221D01*
X27690017Y39459983D01*
X27658779Y39434348D01*
X27623137Y39415296D01*
X27584466Y39403565D01*
X27538112Y39399000D01*
X26461888Y39399000D01*
X26415534Y39403565D01*
X26376863Y39415296D01*
X26341221Y39434348D01*
X26309983Y39459983D01*
X26284348Y39491221D01*
X26265296Y39526863D01*
X26253565Y39565534D01*
X26249000Y39611888D01*
X26249000Y40263112D01*
X26253565Y40309466D01*
X26265296Y40348137D01*
X26284348Y40383779D01*
X26309983Y40415017D01*
X26341221Y40440652D01*
X26376863Y40459704D01*
X26415534Y40471435D01*
X26461888Y40476000D01*
X27538112Y40476000D01*
X27584466Y40471435D01*
X27584466Y40471435D01*
G37*
G36*
X51584466Y40471435D02*
X51623137Y40459704D01*
X51658779Y40440652D01*
X51690017Y40415017D01*
X51715652Y40383779D01*
X51734704Y40348137D01*
X51746435Y40309466D01*
X51751000Y40263112D01*
X51751000Y39611888D01*
X51746435Y39565534D01*
X51734704Y39526863D01*
X51715652Y39491221D01*
X51690017Y39459983D01*
X51658779Y39434348D01*
X51623137Y39415296D01*
X51584466Y39403565D01*
X51538112Y39399000D01*
X50461888Y39399000D01*
X50415534Y39403565D01*
X50376863Y39415296D01*
X50341221Y39434348D01*
X50309983Y39459983D01*
X50284348Y39491221D01*
X50265296Y39526863D01*
X50253565Y39565534D01*
X50249000Y39611888D01*
X50249000Y40263112D01*
X50253565Y40309466D01*
X50265296Y40348137D01*
X50284348Y40383779D01*
X50309983Y40415017D01*
X50341221Y40440652D01*
X50376863Y40459704D01*
X50415534Y40471435D01*
X50461888Y40476000D01*
X51538112Y40476000D01*
X51584466Y40471435D01*
X51584466Y40471435D01*
G37*
G36*
X36196720Y43696480D02*
X36385881Y43639099D01*
X36560212Y43545917D01*
X36713015Y43420515D01*
X36838417Y43267712D01*
X36931599Y43093380D01*
X36988980Y42904219D01*
X37003500Y42756793D01*
X37003500Y42563206D01*
X36988980Y42415780D01*
X36931599Y42226619D01*
X36838417Y42052288D01*
X36713015Y41899485D01*
X36560212Y41774083D01*
X36385880Y41680901D01*
X36196719Y41623520D01*
X36000000Y41604145D01*
X35803280Y41623520D01*
X35614119Y41680901D01*
X35439788Y41774083D01*
X35286985Y41899485D01*
X35161583Y42052288D01*
X35068401Y42226620D01*
X35011020Y42415781D01*
X34996500Y42563207D01*
X34996500Y42756794D01*
X35011020Y42904220D01*
X35068401Y43093381D01*
X35161583Y43267712D01*
X35286985Y43420515D01*
X35439788Y43545917D01*
X35614120Y43639099D01*
X35803281Y43696480D01*
X36000000Y43715855D01*
X36196720Y43696480D01*
X36196720Y43696480D01*
G37*
G36*
X21656720Y43696480D02*
X21845881Y43639099D01*
X22020212Y43545917D01*
X22173015Y43420515D01*
X22298417Y43267712D01*
X22391599Y43093380D01*
X22448980Y42904219D01*
X22463500Y42756793D01*
X22463500Y42563206D01*
X22448980Y42415780D01*
X22391599Y42226619D01*
X22298417Y42052288D01*
X22173015Y41899485D01*
X22020212Y41774083D01*
X21845880Y41680901D01*
X21656719Y41623520D01*
X21460000Y41604145D01*
X21263280Y41623520D01*
X21074119Y41680901D01*
X20899788Y41774083D01*
X20746985Y41899485D01*
X20621583Y42052288D01*
X20528401Y42226620D01*
X20471020Y42415781D01*
X20456500Y42563207D01*
X20456500Y42756794D01*
X20471020Y42904220D01*
X20528401Y43093381D01*
X20621583Y43267712D01*
X20746985Y43420515D01*
X20899788Y43545917D01*
X21074120Y43639099D01*
X21263281Y43696480D01*
X21460000Y43715855D01*
X21656720Y43696480D01*
X21656720Y43696480D01*
G37*
G36*
X33656720Y43696480D02*
X33845881Y43639099D01*
X34020212Y43545917D01*
X34173015Y43420515D01*
X34298417Y43267712D01*
X34391599Y43093380D01*
X34448980Y42904219D01*
X34463500Y42756793D01*
X34463500Y42563206D01*
X34448980Y42415780D01*
X34391599Y42226619D01*
X34298417Y42052288D01*
X34173015Y41899485D01*
X34020212Y41774083D01*
X33845880Y41680901D01*
X33656719Y41623520D01*
X33460000Y41604145D01*
X33263280Y41623520D01*
X33074119Y41680901D01*
X32899788Y41774083D01*
X32746985Y41899485D01*
X32621583Y42052288D01*
X32528401Y42226620D01*
X32471020Y42415781D01*
X32456500Y42563207D01*
X32456500Y42756794D01*
X32471020Y42904220D01*
X32528401Y43093381D01*
X32621583Y43267712D01*
X32746985Y43420515D01*
X32899788Y43545917D01*
X33074120Y43639099D01*
X33263281Y43696480D01*
X33460000Y43715855D01*
X33656720Y43696480D01*
X33656720Y43696480D01*
G37*
G36*
X24196720Y43696480D02*
X24385881Y43639099D01*
X24560212Y43545917D01*
X24713015Y43420515D01*
X24838417Y43267712D01*
X24931599Y43093380D01*
X24988980Y42904219D01*
X25003500Y42756793D01*
X25003500Y42563206D01*
X24988980Y42415780D01*
X24931599Y42226619D01*
X24838417Y42052288D01*
X24713015Y41899485D01*
X24560212Y41774083D01*
X24385880Y41680901D01*
X24196719Y41623520D01*
X24000000Y41604145D01*
X23803280Y41623520D01*
X23614119Y41680901D01*
X23439788Y41774083D01*
X23286985Y41899485D01*
X23161583Y42052288D01*
X23068401Y42226620D01*
X23011020Y42415781D01*
X22996500Y42563207D01*
X22996500Y42756794D01*
X23011020Y42904220D01*
X23068401Y43093381D01*
X23161583Y43267712D01*
X23286985Y43420515D01*
X23439788Y43545917D01*
X23614120Y43639099D01*
X23803281Y43696480D01*
X24000000Y43715855D01*
X24196720Y43696480D01*
X24196720Y43696480D01*
G37*
G36*
X9656720Y43696480D02*
X9845881Y43639099D01*
X10020212Y43545917D01*
X10173015Y43420515D01*
X10298417Y43267712D01*
X10391599Y43093380D01*
X10448980Y42904219D01*
X10463500Y42756793D01*
X10463500Y42563206D01*
X10448980Y42415780D01*
X10391599Y42226619D01*
X10298417Y42052288D01*
X10173015Y41899485D01*
X10020212Y41774083D01*
X9845880Y41680901D01*
X9656719Y41623520D01*
X9460000Y41604145D01*
X9263280Y41623520D01*
X9074119Y41680901D01*
X8899788Y41774083D01*
X8746985Y41899485D01*
X8621583Y42052288D01*
X8528401Y42226620D01*
X8471020Y42415781D01*
X8456500Y42563207D01*
X8456500Y42756794D01*
X8471020Y42904220D01*
X8528401Y43093381D01*
X8621583Y43267712D01*
X8746985Y43420515D01*
X8899788Y43545917D01*
X9074120Y43639099D01*
X9263281Y43696480D01*
X9460000Y43715855D01*
X9656720Y43696480D01*
X9656720Y43696480D01*
G37*
G36*
X45656720Y43696480D02*
X45845881Y43639099D01*
X46020212Y43545917D01*
X46173015Y43420515D01*
X46298417Y43267712D01*
X46391599Y43093380D01*
X46448980Y42904219D01*
X46463500Y42756793D01*
X46463500Y42563206D01*
X46448980Y42415780D01*
X46391599Y42226619D01*
X46298417Y42052288D01*
X46173015Y41899485D01*
X46020212Y41774083D01*
X45845880Y41680901D01*
X45656719Y41623520D01*
X45460000Y41604145D01*
X45263280Y41623520D01*
X45074119Y41680901D01*
X44899788Y41774083D01*
X44746985Y41899485D01*
X44621583Y42052288D01*
X44528401Y42226620D01*
X44471020Y42415781D01*
X44456500Y42563207D01*
X44456500Y42756794D01*
X44471020Y42904220D01*
X44528401Y43093381D01*
X44621583Y43267712D01*
X44746985Y43420515D01*
X44899788Y43545917D01*
X45074120Y43639099D01*
X45263281Y43696480D01*
X45460000Y43715855D01*
X45656720Y43696480D01*
X45656720Y43696480D01*
G37*
G36*
X48196720Y43696480D02*
X48385881Y43639099D01*
X48560212Y43545917D01*
X48713015Y43420515D01*
X48838417Y43267712D01*
X48931599Y43093380D01*
X48988980Y42904219D01*
X49003500Y42756793D01*
X49003500Y42563206D01*
X48988980Y42415780D01*
X48931599Y42226619D01*
X48838417Y42052288D01*
X48713015Y41899485D01*
X48560212Y41774083D01*
X48385880Y41680901D01*
X48196719Y41623520D01*
X48000000Y41604145D01*
X47803280Y41623520D01*
X47614119Y41680901D01*
X47439788Y41774083D01*
X47286985Y41899485D01*
X47161583Y42052288D01*
X47068401Y42226620D01*
X47011020Y42415781D01*
X46996500Y42563207D01*
X46996500Y42756794D01*
X47011020Y42904220D01*
X47068401Y43093381D01*
X47161583Y43267712D01*
X47286985Y43420515D01*
X47439788Y43545917D01*
X47614120Y43639099D01*
X47803281Y43696480D01*
X48000000Y43715855D01*
X48196720Y43696480D01*
X48196720Y43696480D01*
G37*
G36*
X12196720Y43696480D02*
X12385881Y43639099D01*
X12560212Y43545917D01*
X12713015Y43420515D01*
X12838417Y43267712D01*
X12931599Y43093380D01*
X12988980Y42904219D01*
X13003500Y42756793D01*
X13003500Y42563206D01*
X12988980Y42415780D01*
X12931599Y42226619D01*
X12838417Y42052288D01*
X12713015Y41899485D01*
X12560212Y41774083D01*
X12385880Y41680901D01*
X12196719Y41623520D01*
X12000000Y41604145D01*
X11803280Y41623520D01*
X11614119Y41680901D01*
X11439788Y41774083D01*
X11286985Y41899485D01*
X11161583Y42052288D01*
X11068401Y42226620D01*
X11011020Y42415781D01*
X10996500Y42563207D01*
X10996500Y42756794D01*
X11011020Y42904220D01*
X11068401Y43093381D01*
X11161583Y43267712D01*
X11286985Y43420515D01*
X11439788Y43545917D01*
X11614120Y43639099D01*
X11803281Y43696480D01*
X12000000Y43715855D01*
X12196720Y43696480D01*
X12196720Y43696480D01*
G37*
G36*
X51543500Y41609000D02*
X49536500Y41609000D01*
X49536500Y43711000D01*
X51543500Y43711000D01*
X51543500Y41609000D01*
X51543500Y41609000D01*
G37*
G36*
X39543500Y41609000D02*
X37536500Y41609000D01*
X37536500Y43711000D01*
X39543500Y43711000D01*
X39543500Y41609000D01*
X39543500Y41609000D01*
G37*
G36*
X27543500Y41609000D02*
X25536500Y41609000D01*
X25536500Y43711000D01*
X27543500Y43711000D01*
X27543500Y41609000D01*
X27543500Y41609000D01*
G37*
G36*
X15543500Y41609000D02*
X13536500Y41609000D01*
X13536500Y43711000D01*
X15543500Y43711000D01*
X15543500Y41609000D01*
X15543500Y41609000D01*
G37*
G36*
X67251000Y42749000D02*
X64749000Y42749000D01*
X64749000Y45251000D01*
X67251000Y45251000D01*
X67251000Y42749000D01*
X67251000Y42749000D01*
G37*
G36*
X85251000Y42749000D02*
X82749000Y42749000D01*
X82749000Y45251000D01*
X85251000Y45251000D01*
X85251000Y42749000D01*
X85251000Y42749000D01*
G37*
G36*
X43851000Y45449000D02*
X40149000Y45449000D01*
X40149000Y48251000D01*
X43851000Y48251000D01*
X43851000Y45449000D01*
X43851000Y45449000D01*
G37*
G36*
X19851000Y45449000D02*
X16149000Y45449000D01*
X16149000Y48251000D01*
X19851000Y48251000D01*
X19851000Y45449000D01*
X19851000Y45449000D01*
G37*
G36*
X28312308Y50746502D02*
X28350317Y50734972D01*
X28385348Y50716247D01*
X28416050Y50691050D01*
X28441247Y50660348D01*
X28459972Y50625317D01*
X28471502Y50587308D01*
X28476000Y50541638D01*
X28476000Y47458362D01*
X28471502Y47412692D01*
X28459972Y47374683D01*
X28441247Y47339652D01*
X28416050Y47308950D01*
X28385348Y47283753D01*
X28350317Y47265028D01*
X28312308Y47253498D01*
X28266638Y47249000D01*
X27458362Y47249000D01*
X27412692Y47253498D01*
X27374683Y47265028D01*
X27339652Y47283753D01*
X27308950Y47308950D01*
X27283753Y47339652D01*
X27265028Y47374683D01*
X27253498Y47412692D01*
X27249000Y47458362D01*
X27249000Y50541638D01*
X27253498Y50587308D01*
X27265028Y50625317D01*
X27283753Y50660348D01*
X27308950Y50691050D01*
X27339652Y50716247D01*
X27374683Y50734972D01*
X27412692Y50746502D01*
X27458362Y50751000D01*
X28266638Y50751000D01*
X28312308Y50746502D01*
X28312308Y50746502D01*
G37*
G36*
X32587308Y50746502D02*
X32625317Y50734972D01*
X32660348Y50716247D01*
X32691050Y50691050D01*
X32716247Y50660348D01*
X32734972Y50625317D01*
X32746502Y50587308D01*
X32751000Y50541638D01*
X32751000Y47458362D01*
X32746502Y47412692D01*
X32734972Y47374683D01*
X32716247Y47339652D01*
X32691050Y47308950D01*
X32660348Y47283753D01*
X32625317Y47265028D01*
X32587308Y47253498D01*
X32541638Y47249000D01*
X31733362Y47249000D01*
X31687692Y47253498D01*
X31649683Y47265028D01*
X31614652Y47283753D01*
X31583950Y47308950D01*
X31558753Y47339652D01*
X31540028Y47374683D01*
X31528498Y47412692D01*
X31524000Y47458362D01*
X31524000Y50541638D01*
X31528498Y50587308D01*
X31540028Y50625317D01*
X31558753Y50660348D01*
X31583950Y50691050D01*
X31614652Y50716247D01*
X31649683Y50734972D01*
X31687692Y50746502D01*
X31733362Y50751000D01*
X32541638Y50751000D01*
X32587308Y50746502D01*
X32587308Y50746502D01*
G37*
G36*
X95548156Y59327206D02*
X96269140Y59183794D01*
X97060972Y58855807D01*
X97773601Y58379643D01*
X98379643Y57773601D01*
X98855807Y57060972D01*
X99183794Y56269140D01*
X99267715Y55847238D01*
X99351000Y55428537D01*
X99351000Y54571463D01*
X99336586Y54499000D01*
X99183794Y53730860D01*
X98855807Y52939028D01*
X98379643Y52226399D01*
X97773601Y51620357D01*
X97060972Y51144193D01*
X96269140Y50816206D01*
X95639936Y50691050D01*
X95428537Y50649000D01*
X94571463Y50649000D01*
X94360064Y50691050D01*
X93730860Y50816206D01*
X92939028Y51144193D01*
X92226399Y51620357D01*
X91620357Y52226399D01*
X91144193Y52939028D01*
X90816206Y53730860D01*
X90663414Y54499000D01*
X90649000Y54571463D01*
X90649000Y55428537D01*
X90732285Y55847238D01*
X90816206Y56269140D01*
X91144193Y57060972D01*
X91620357Y57773601D01*
X92226399Y58379643D01*
X92939028Y58855807D01*
X93730860Y59183794D01*
X94451844Y59327206D01*
X94571463Y59351000D01*
X95428537Y59351000D01*
X95548156Y59327206D01*
X95548156Y59327206D01*
G37*
G36*
X5548156Y59327206D02*
X6269140Y59183794D01*
X7060972Y58855807D01*
X7773601Y58379643D01*
X8379643Y57773601D01*
X8855807Y57060972D01*
X9183794Y56269140D01*
X9267715Y55847238D01*
X9351000Y55428537D01*
X9351000Y54571463D01*
X9336586Y54499000D01*
X9183794Y53730860D01*
X8855807Y52939028D01*
X8379643Y52226399D01*
X7773601Y51620357D01*
X7060972Y51144193D01*
X6269140Y50816206D01*
X5639936Y50691050D01*
X5428537Y50649000D01*
X4571463Y50649000D01*
X4360064Y50691050D01*
X3730860Y50816206D01*
X2939028Y51144193D01*
X2226399Y51620357D01*
X1620357Y52226399D01*
X1144193Y52939028D01*
X816206Y53730860D01*
X663414Y54499000D01*
X649000Y54571463D01*
X649000Y55428537D01*
X732285Y55847238D01*
X816206Y56269140D01*
X1144193Y57060972D01*
X1620357Y57773601D01*
X2226399Y58379643D01*
X2939028Y58855807D01*
X3730860Y59183794D01*
X4451844Y59327206D01*
X4571463Y59351000D01*
X5428537Y59351000D01*
X5548156Y59327206D01*
X5548156Y59327206D01*
G37*
G36*
X74051000Y51449000D02*
X70949000Y51449000D01*
X70949000Y54551000D01*
X74051000Y54551000D01*
X74051000Y51449000D01*
X74051000Y51449000D01*
G37*
G36*
X77897391Y54518253D02*
X78032410Y54491396D01*
X78314674Y54374479D01*
X78568705Y54204741D01*
X78784741Y53988705D01*
X78954479Y53734674D01*
X79071396Y53452410D01*
X79071396Y53452409D01*
X79121340Y53201328D01*
X79131000Y53152760D01*
X79131000Y52847240D01*
X79071396Y52547590D01*
X78954479Y52265326D01*
X78784741Y52011295D01*
X78568705Y51795259D01*
X78314674Y51625521D01*
X78032410Y51508604D01*
X77932527Y51488736D01*
X77732762Y51449000D01*
X77427238Y51449000D01*
X77227473Y51488736D01*
X77127590Y51508604D01*
X76845326Y51625521D01*
X76591295Y51795259D01*
X76375259Y52011295D01*
X76205521Y52265326D01*
X76088604Y52547590D01*
X76029000Y52847240D01*
X76029000Y53152760D01*
X76038661Y53201328D01*
X76088604Y53452409D01*
X76088604Y53452410D01*
X76205521Y53734674D01*
X76375259Y53988705D01*
X76591295Y54204741D01*
X76845326Y54374479D01*
X77127590Y54491396D01*
X77262609Y54518253D01*
X77427238Y54551000D01*
X77732762Y54551000D01*
X77897391Y54518253D01*
X77897391Y54518253D01*
G37*
G36*
X43851000Y53749000D02*
X40149000Y53749000D01*
X40149000Y56551000D01*
X43851000Y56551000D01*
X43851000Y53749000D01*
X43851000Y53749000D01*
G37*
G36*
X19851000Y53749000D02*
X16149000Y53749000D01*
X16149000Y56551000D01*
X19851000Y56551000D01*
X19851000Y53749000D01*
X19851000Y53749000D01*
G37*
G36*
X34051000Y54449000D02*
X30949000Y54449000D01*
X30949000Y57551000D01*
X34051000Y57551000D01*
X34051000Y54449000D01*
X34051000Y54449000D01*
G37*
G36*
X27740015Y57517731D02*
X27872410Y57491396D01*
X28154674Y57374479D01*
X28408705Y57204741D01*
X28624741Y56988705D01*
X28794479Y56734674D01*
X28911396Y56452410D01*
X28971000Y56152760D01*
X28971000Y55847240D01*
X28911396Y55547590D01*
X28794479Y55265326D01*
X28624741Y55011295D01*
X28408705Y54795259D01*
X28154674Y54625521D01*
X27872410Y54508604D01*
X27824127Y54499000D01*
X27572762Y54449000D01*
X27267238Y54449000D01*
X27015873Y54499000D01*
X26967590Y54508604D01*
X26685326Y54625521D01*
X26431295Y54795259D01*
X26215259Y55011295D01*
X26045521Y55265326D01*
X25928604Y55547590D01*
X25869000Y55847240D01*
X25869000Y56152760D01*
X25928604Y56452410D01*
X26045521Y56734674D01*
X26215259Y56988705D01*
X26431295Y57204741D01*
X26685326Y57374479D01*
X26967590Y57491396D01*
X27099985Y57517731D01*
X27267238Y57551000D01*
X27572762Y57551000D01*
X27740015Y57517731D01*
X27740015Y57517731D01*
G37*
M02*
