G04 #@! TF.GenerationSoftware,KiCad,Pcbnew,(5.0.1)-3*
G04 #@! TF.CreationDate,2019-12-30T10:06:07+01:00*
G04 #@! TF.ProjectId,TL494 Class D Amp,544C34393420436C617373204420416D,rev?*
G04 #@! TF.SameCoordinates,PX4c4b400PY8f0d180*
G04 #@! TF.FileFunction,Legend,Top*
G04 #@! TF.FilePolarity,Positive*
%FSLAX46Y46*%
G04 Gerber Fmt 4.6, Leading zero omitted, Abs format (unit mm)*
G04 Created by KiCad (PCBNEW (5.0.1)-3) date 30/12/2019 10:06:07*
%MOMM*%
%LPD*%
G01*
G04 APERTURE LIST*
%ADD10C,0.120000*%
%ADD11C,0.150000*%
%ADD12C,0.100000*%
G04 APERTURE END LIST*
D10*
G04 #@! TO.C,C5*
X3258578Y17290000D02*
X2741422Y17290000D01*
X3258578Y18710000D02*
X2741422Y18710000D01*
G04 #@! TO.C,C6*
X65710000Y9741422D02*
X65710000Y10258578D01*
X64290000Y9741422D02*
X64290000Y10258578D01*
G04 #@! TO.C,C8*
X8710000Y31741422D02*
X8710000Y32258578D01*
X7290000Y31741422D02*
X7290000Y32258578D01*
G04 #@! TO.C,C14*
X22710000Y14258578D02*
X22710000Y13741422D01*
X21290000Y14258578D02*
X21290000Y13741422D01*
G04 #@! TO.C,D2*
X65850000Y7900000D02*
X64150000Y7900000D01*
X64150000Y7900000D02*
X64150000Y4750000D01*
X65850000Y7900000D02*
X65850000Y4750000D01*
G04 #@! TO.C,D3*
X57150000Y4100000D02*
X58850000Y4100000D01*
X58850000Y4100000D02*
X58850000Y7250000D01*
X57150000Y4100000D02*
X57150000Y7250000D01*
G04 #@! TO.C,D7*
X13850000Y36900000D02*
X13850000Y33750000D01*
X12150000Y36900000D02*
X12150000Y33750000D01*
X13850000Y36900000D02*
X12150000Y36900000D01*
G04 #@! TO.C,J1*
X24960000Y3190000D02*
X35120000Y3190000D01*
X24960000Y10810000D02*
X24960000Y3190000D01*
X35120000Y10810000D02*
X24960000Y10810000D01*
X35120000Y3190000D02*
X35120000Y10810000D01*
X35120000Y4460000D02*
X24960000Y4460000D01*
G04 #@! TO.C,J2*
X69960000Y3190000D02*
X80120000Y3190000D01*
X69960000Y10810000D02*
X69960000Y3190000D01*
X80120000Y10810000D02*
X69960000Y10810000D01*
X80120000Y3190000D02*
X80120000Y10810000D01*
X80120000Y4460000D02*
X69960000Y4460000D01*
G04 #@! TO.C,J3*
X80120000Y50460000D02*
X69960000Y50460000D01*
X80120000Y49190000D02*
X80120000Y56810000D01*
X80120000Y56810000D02*
X69960000Y56810000D01*
X69960000Y56810000D02*
X69960000Y49190000D01*
X69960000Y49190000D02*
X80120000Y49190000D01*
G04 #@! TO.C,J4*
X24880000Y58540000D02*
X35040000Y58540000D01*
X24880000Y59810000D02*
X24880000Y52190000D01*
X24880000Y52190000D02*
X35040000Y52190000D01*
X35040000Y52190000D02*
X35040000Y59810000D01*
X35040000Y59810000D02*
X24880000Y59810000D01*
G04 #@! TO.C,R3*
X39741422Y7290000D02*
X40258578Y7290000D01*
X39741422Y8710000D02*
X40258578Y8710000D01*
G04 #@! TO.C,R4*
X39741422Y9290000D02*
X40258578Y9290000D01*
X39741422Y10710000D02*
X40258578Y10710000D01*
G04 #@! TO.C,R5*
X38710000Y13258578D02*
X38710000Y12741422D01*
X37290000Y13258578D02*
X37290000Y12741422D01*
G04 #@! TO.C,R6*
X3258578Y15290000D02*
X2741422Y15290000D01*
X3258578Y16710000D02*
X2741422Y16710000D01*
G04 #@! TO.C,R7*
X23290000Y14258578D02*
X23290000Y13741422D01*
X24710000Y14258578D02*
X24710000Y13741422D01*
G04 #@! TO.C,R10*
X23290000Y17741422D02*
X23290000Y18258578D01*
X24710000Y17741422D02*
X24710000Y18258578D01*
G04 #@! TO.C,R11*
X9290000Y32258578D02*
X9290000Y31741422D01*
X10710000Y32258578D02*
X10710000Y31741422D01*
G04 #@! TO.C,R12*
X34710000Y32258578D02*
X34710000Y31741422D01*
X33290000Y32258578D02*
X33290000Y31741422D01*
G04 #@! TO.C,R13*
X13710000Y39258578D02*
X13710000Y38741422D01*
X12290000Y39258578D02*
X12290000Y38741422D01*
G04 #@! TO.C,R14*
X26290000Y39258578D02*
X26290000Y38741422D01*
X27710000Y39258578D02*
X27710000Y38741422D01*
G04 #@! TO.C,R15*
X36290000Y39258578D02*
X36290000Y38741422D01*
X37710000Y39258578D02*
X37710000Y38741422D01*
G04 #@! TO.C,RV1*
X21425000Y6470000D02*
X11655000Y6470000D01*
X21425000Y11540000D02*
X11655000Y11540000D01*
X21425000Y6470000D02*
X21425000Y11540000D01*
X11655000Y6470000D02*
X11655000Y11540000D01*
G04 #@! TO.C,C3*
X16620000Y3000000D02*
G75*
G03X16620000Y3000000I-2620000J0D01*
G01*
X14000000Y4040000D02*
X14000000Y5580000D01*
X14000000Y420000D02*
X14000000Y1960000D01*
X13960000Y4040000D02*
X13960000Y5580000D01*
X13960000Y420000D02*
X13960000Y1960000D01*
X13920000Y421000D02*
X13920000Y1960000D01*
X13920000Y4040000D02*
X13920000Y5579000D01*
X13880000Y422000D02*
X13880000Y1960000D01*
X13880000Y4040000D02*
X13880000Y5578000D01*
X13840000Y424000D02*
X13840000Y1960000D01*
X13840000Y4040000D02*
X13840000Y5576000D01*
X13800000Y427000D02*
X13800000Y1960000D01*
X13800000Y4040000D02*
X13800000Y5573000D01*
X13760000Y431000D02*
X13760000Y1960000D01*
X13760000Y4040000D02*
X13760000Y5569000D01*
X13720000Y435000D02*
X13720000Y1960000D01*
X13720000Y4040000D02*
X13720000Y5565000D01*
X13680000Y439000D02*
X13680000Y1960000D01*
X13680000Y4040000D02*
X13680000Y5561000D01*
X13640000Y444000D02*
X13640000Y1960000D01*
X13640000Y4040000D02*
X13640000Y5556000D01*
X13600000Y450000D02*
X13600000Y1960000D01*
X13600000Y4040000D02*
X13600000Y5550000D01*
X13560000Y457000D02*
X13560000Y1960000D01*
X13560000Y4040000D02*
X13560000Y5543000D01*
X13520000Y464000D02*
X13520000Y1960000D01*
X13520000Y4040000D02*
X13520000Y5536000D01*
X13480000Y472000D02*
X13480000Y1960000D01*
X13480000Y4040000D02*
X13480000Y5528000D01*
X13440000Y480000D02*
X13440000Y1960000D01*
X13440000Y4040000D02*
X13440000Y5520000D01*
X13400000Y489000D02*
X13400000Y1960000D01*
X13400000Y4040000D02*
X13400000Y5511000D01*
X13360000Y499000D02*
X13360000Y1960000D01*
X13360000Y4040000D02*
X13360000Y5501000D01*
X13320000Y509000D02*
X13320000Y1960000D01*
X13320000Y4040000D02*
X13320000Y5491000D01*
X13279000Y520000D02*
X13279000Y1960000D01*
X13279000Y4040000D02*
X13279000Y5480000D01*
X13239000Y532000D02*
X13239000Y1960000D01*
X13239000Y4040000D02*
X13239000Y5468000D01*
X13199000Y545000D02*
X13199000Y1960000D01*
X13199000Y4040000D02*
X13199000Y5455000D01*
X13159000Y558000D02*
X13159000Y1960000D01*
X13159000Y4040000D02*
X13159000Y5442000D01*
X13119000Y572000D02*
X13119000Y1960000D01*
X13119000Y4040000D02*
X13119000Y5428000D01*
X13079000Y586000D02*
X13079000Y1960000D01*
X13079000Y4040000D02*
X13079000Y5414000D01*
X13039000Y602000D02*
X13039000Y1960000D01*
X13039000Y4040000D02*
X13039000Y5398000D01*
X12999000Y618000D02*
X12999000Y1960000D01*
X12999000Y4040000D02*
X12999000Y5382000D01*
X12959000Y635000D02*
X12959000Y1960000D01*
X12959000Y4040000D02*
X12959000Y5365000D01*
X12919000Y652000D02*
X12919000Y1960000D01*
X12919000Y4040000D02*
X12919000Y5348000D01*
X12879000Y671000D02*
X12879000Y1960000D01*
X12879000Y4040000D02*
X12879000Y5329000D01*
X12839000Y690000D02*
X12839000Y1960000D01*
X12839000Y4040000D02*
X12839000Y5310000D01*
X12799000Y710000D02*
X12799000Y1960000D01*
X12799000Y4040000D02*
X12799000Y5290000D01*
X12759000Y732000D02*
X12759000Y1960000D01*
X12759000Y4040000D02*
X12759000Y5268000D01*
X12719000Y753000D02*
X12719000Y1960000D01*
X12719000Y4040000D02*
X12719000Y5247000D01*
X12679000Y776000D02*
X12679000Y1960000D01*
X12679000Y4040000D02*
X12679000Y5224000D01*
X12639000Y800000D02*
X12639000Y1960000D01*
X12639000Y4040000D02*
X12639000Y5200000D01*
X12599000Y825000D02*
X12599000Y1960000D01*
X12599000Y4040000D02*
X12599000Y5175000D01*
X12559000Y851000D02*
X12559000Y1960000D01*
X12559000Y4040000D02*
X12559000Y5149000D01*
X12519000Y878000D02*
X12519000Y1960000D01*
X12519000Y4040000D02*
X12519000Y5122000D01*
X12479000Y905000D02*
X12479000Y1960000D01*
X12479000Y4040000D02*
X12479000Y5095000D01*
X12439000Y935000D02*
X12439000Y1960000D01*
X12439000Y4040000D02*
X12439000Y5065000D01*
X12399000Y965000D02*
X12399000Y1960000D01*
X12399000Y4040000D02*
X12399000Y5035000D01*
X12359000Y996000D02*
X12359000Y1960000D01*
X12359000Y4040000D02*
X12359000Y5004000D01*
X12319000Y1029000D02*
X12319000Y1960000D01*
X12319000Y4040000D02*
X12319000Y4971000D01*
X12279000Y1063000D02*
X12279000Y1960000D01*
X12279000Y4040000D02*
X12279000Y4937000D01*
X12239000Y1099000D02*
X12239000Y1960000D01*
X12239000Y4040000D02*
X12239000Y4901000D01*
X12199000Y1136000D02*
X12199000Y1960000D01*
X12199000Y4040000D02*
X12199000Y4864000D01*
X12159000Y1174000D02*
X12159000Y1960000D01*
X12159000Y4040000D02*
X12159000Y4826000D01*
X12119000Y1215000D02*
X12119000Y1960000D01*
X12119000Y4040000D02*
X12119000Y4785000D01*
X12079000Y1257000D02*
X12079000Y1960000D01*
X12079000Y4040000D02*
X12079000Y4743000D01*
X12039000Y1301000D02*
X12039000Y1960000D01*
X12039000Y4040000D02*
X12039000Y4699000D01*
X11999000Y1347000D02*
X11999000Y1960000D01*
X11999000Y4040000D02*
X11999000Y4653000D01*
X11959000Y1395000D02*
X11959000Y4605000D01*
X11919000Y1446000D02*
X11919000Y4554000D01*
X11879000Y1500000D02*
X11879000Y4500000D01*
X11839000Y1557000D02*
X11839000Y4443000D01*
X11799000Y1617000D02*
X11799000Y4383000D01*
X11759000Y1681000D02*
X11759000Y4319000D01*
X11719000Y1749000D02*
X11719000Y4251000D01*
X11679000Y1822000D02*
X11679000Y4178000D01*
X11639000Y1902000D02*
X11639000Y4098000D01*
X11599000Y1989000D02*
X11599000Y4011000D01*
X11559000Y2085000D02*
X11559000Y3915000D01*
X11519000Y2195000D02*
X11519000Y3805000D01*
X11479000Y2323000D02*
X11479000Y3677000D01*
X11439000Y2482000D02*
X11439000Y3518000D01*
X11399000Y2716000D02*
X11399000Y3284000D01*
X16804775Y1525000D02*
X16304775Y1525000D01*
X16554775Y1275000D02*
X16554775Y1775000D01*
G04 #@! TO.C,C16*
X7275000Y34445225D02*
X7775000Y34445225D01*
X7525000Y34195225D02*
X7525000Y34695225D01*
X8716000Y39601000D02*
X9284000Y39601000D01*
X8482000Y39561000D02*
X9518000Y39561000D01*
X8323000Y39521000D02*
X9677000Y39521000D01*
X8195000Y39481000D02*
X9805000Y39481000D01*
X8085000Y39441000D02*
X9915000Y39441000D01*
X7989000Y39401000D02*
X10011000Y39401000D01*
X7902000Y39361000D02*
X10098000Y39361000D01*
X7822000Y39321000D02*
X10178000Y39321000D01*
X7749000Y39281000D02*
X10251000Y39281000D01*
X7681000Y39241000D02*
X10319000Y39241000D01*
X7617000Y39201000D02*
X10383000Y39201000D01*
X7557000Y39161000D02*
X10443000Y39161000D01*
X7500000Y39121000D02*
X10500000Y39121000D01*
X7446000Y39081000D02*
X10554000Y39081000D01*
X7395000Y39041000D02*
X10605000Y39041000D01*
X10040000Y39001000D02*
X10653000Y39001000D01*
X7347000Y39001000D02*
X7960000Y39001000D01*
X10040000Y38961000D02*
X10699000Y38961000D01*
X7301000Y38961000D02*
X7960000Y38961000D01*
X10040000Y38921000D02*
X10743000Y38921000D01*
X7257000Y38921000D02*
X7960000Y38921000D01*
X10040000Y38881000D02*
X10785000Y38881000D01*
X7215000Y38881000D02*
X7960000Y38881000D01*
X10040000Y38841000D02*
X10826000Y38841000D01*
X7174000Y38841000D02*
X7960000Y38841000D01*
X10040000Y38801000D02*
X10864000Y38801000D01*
X7136000Y38801000D02*
X7960000Y38801000D01*
X10040000Y38761000D02*
X10901000Y38761000D01*
X7099000Y38761000D02*
X7960000Y38761000D01*
X10040000Y38721000D02*
X10937000Y38721000D01*
X7063000Y38721000D02*
X7960000Y38721000D01*
X10040000Y38681000D02*
X10971000Y38681000D01*
X7029000Y38681000D02*
X7960000Y38681000D01*
X10040000Y38641000D02*
X11004000Y38641000D01*
X6996000Y38641000D02*
X7960000Y38641000D01*
X10040000Y38601000D02*
X11035000Y38601000D01*
X6965000Y38601000D02*
X7960000Y38601000D01*
X10040000Y38561000D02*
X11065000Y38561000D01*
X6935000Y38561000D02*
X7960000Y38561000D01*
X10040000Y38521000D02*
X11095000Y38521000D01*
X6905000Y38521000D02*
X7960000Y38521000D01*
X10040000Y38481000D02*
X11122000Y38481000D01*
X6878000Y38481000D02*
X7960000Y38481000D01*
X10040000Y38441000D02*
X11149000Y38441000D01*
X6851000Y38441000D02*
X7960000Y38441000D01*
X10040000Y38401000D02*
X11175000Y38401000D01*
X6825000Y38401000D02*
X7960000Y38401000D01*
X10040000Y38361000D02*
X11200000Y38361000D01*
X6800000Y38361000D02*
X7960000Y38361000D01*
X10040000Y38321000D02*
X11224000Y38321000D01*
X6776000Y38321000D02*
X7960000Y38321000D01*
X10040000Y38281000D02*
X11247000Y38281000D01*
X6753000Y38281000D02*
X7960000Y38281000D01*
X10040000Y38241000D02*
X11268000Y38241000D01*
X6732000Y38241000D02*
X7960000Y38241000D01*
X10040000Y38201000D02*
X11290000Y38201000D01*
X6710000Y38201000D02*
X7960000Y38201000D01*
X10040000Y38161000D02*
X11310000Y38161000D01*
X6690000Y38161000D02*
X7960000Y38161000D01*
X10040000Y38121000D02*
X11329000Y38121000D01*
X6671000Y38121000D02*
X7960000Y38121000D01*
X10040000Y38081000D02*
X11348000Y38081000D01*
X6652000Y38081000D02*
X7960000Y38081000D01*
X10040000Y38041000D02*
X11365000Y38041000D01*
X6635000Y38041000D02*
X7960000Y38041000D01*
X10040000Y38001000D02*
X11382000Y38001000D01*
X6618000Y38001000D02*
X7960000Y38001000D01*
X10040000Y37961000D02*
X11398000Y37961000D01*
X6602000Y37961000D02*
X7960000Y37961000D01*
X10040000Y37921000D02*
X11414000Y37921000D01*
X6586000Y37921000D02*
X7960000Y37921000D01*
X10040000Y37881000D02*
X11428000Y37881000D01*
X6572000Y37881000D02*
X7960000Y37881000D01*
X10040000Y37841000D02*
X11442000Y37841000D01*
X6558000Y37841000D02*
X7960000Y37841000D01*
X10040000Y37801000D02*
X11455000Y37801000D01*
X6545000Y37801000D02*
X7960000Y37801000D01*
X10040000Y37761000D02*
X11468000Y37761000D01*
X6532000Y37761000D02*
X7960000Y37761000D01*
X10040000Y37721000D02*
X11480000Y37721000D01*
X6520000Y37721000D02*
X7960000Y37721000D01*
X10040000Y37680000D02*
X11491000Y37680000D01*
X6509000Y37680000D02*
X7960000Y37680000D01*
X10040000Y37640000D02*
X11501000Y37640000D01*
X6499000Y37640000D02*
X7960000Y37640000D01*
X10040000Y37600000D02*
X11511000Y37600000D01*
X6489000Y37600000D02*
X7960000Y37600000D01*
X10040000Y37560000D02*
X11520000Y37560000D01*
X6480000Y37560000D02*
X7960000Y37560000D01*
X10040000Y37520000D02*
X11528000Y37520000D01*
X6472000Y37520000D02*
X7960000Y37520000D01*
X10040000Y37480000D02*
X11536000Y37480000D01*
X6464000Y37480000D02*
X7960000Y37480000D01*
X10040000Y37440000D02*
X11543000Y37440000D01*
X6457000Y37440000D02*
X7960000Y37440000D01*
X10040000Y37400000D02*
X11550000Y37400000D01*
X6450000Y37400000D02*
X7960000Y37400000D01*
X10040000Y37360000D02*
X11556000Y37360000D01*
X6444000Y37360000D02*
X7960000Y37360000D01*
X10040000Y37320000D02*
X11561000Y37320000D01*
X6439000Y37320000D02*
X7960000Y37320000D01*
X10040000Y37280000D02*
X11565000Y37280000D01*
X6435000Y37280000D02*
X7960000Y37280000D01*
X10040000Y37240000D02*
X11569000Y37240000D01*
X6431000Y37240000D02*
X7960000Y37240000D01*
X10040000Y37200000D02*
X11573000Y37200000D01*
X6427000Y37200000D02*
X7960000Y37200000D01*
X10040000Y37160000D02*
X11576000Y37160000D01*
X6424000Y37160000D02*
X7960000Y37160000D01*
X10040000Y37120000D02*
X11578000Y37120000D01*
X6422000Y37120000D02*
X7960000Y37120000D01*
X10040000Y37080000D02*
X11579000Y37080000D01*
X6421000Y37080000D02*
X7960000Y37080000D01*
X6420000Y37040000D02*
X7960000Y37040000D01*
X10040000Y37040000D02*
X11580000Y37040000D01*
X6420000Y37000000D02*
X7960000Y37000000D01*
X10040000Y37000000D02*
X11580000Y37000000D01*
X11620000Y37000000D02*
G75*
G03X11620000Y37000000I-2620000J0D01*
G01*
G04 #@! TO.C,D8*
X37850000Y36900000D02*
X36150000Y36900000D01*
X36150000Y36900000D02*
X36150000Y33750000D01*
X37850000Y36900000D02*
X37850000Y33750000D01*
G04 #@! TO.C,R16*
X51710000Y39258578D02*
X51710000Y38741422D01*
X50290000Y39258578D02*
X50290000Y38741422D01*
G04 #@! TO.C,C2*
X42554775Y1275000D02*
X42554775Y1775000D01*
X42804775Y1525000D02*
X42304775Y1525000D01*
X37399000Y2716000D02*
X37399000Y3284000D01*
X37439000Y2482000D02*
X37439000Y3518000D01*
X37479000Y2323000D02*
X37479000Y3677000D01*
X37519000Y2195000D02*
X37519000Y3805000D01*
X37559000Y2085000D02*
X37559000Y3915000D01*
X37599000Y1989000D02*
X37599000Y4011000D01*
X37639000Y1902000D02*
X37639000Y4098000D01*
X37679000Y1822000D02*
X37679000Y4178000D01*
X37719000Y1749000D02*
X37719000Y4251000D01*
X37759000Y1681000D02*
X37759000Y4319000D01*
X37799000Y1617000D02*
X37799000Y4383000D01*
X37839000Y1557000D02*
X37839000Y4443000D01*
X37879000Y1500000D02*
X37879000Y4500000D01*
X37919000Y1446000D02*
X37919000Y4554000D01*
X37959000Y1395000D02*
X37959000Y4605000D01*
X37999000Y4040000D02*
X37999000Y4653000D01*
X37999000Y1347000D02*
X37999000Y1960000D01*
X38039000Y4040000D02*
X38039000Y4699000D01*
X38039000Y1301000D02*
X38039000Y1960000D01*
X38079000Y4040000D02*
X38079000Y4743000D01*
X38079000Y1257000D02*
X38079000Y1960000D01*
X38119000Y4040000D02*
X38119000Y4785000D01*
X38119000Y1215000D02*
X38119000Y1960000D01*
X38159000Y4040000D02*
X38159000Y4826000D01*
X38159000Y1174000D02*
X38159000Y1960000D01*
X38199000Y4040000D02*
X38199000Y4864000D01*
X38199000Y1136000D02*
X38199000Y1960000D01*
X38239000Y4040000D02*
X38239000Y4901000D01*
X38239000Y1099000D02*
X38239000Y1960000D01*
X38279000Y4040000D02*
X38279000Y4937000D01*
X38279000Y1063000D02*
X38279000Y1960000D01*
X38319000Y4040000D02*
X38319000Y4971000D01*
X38319000Y1029000D02*
X38319000Y1960000D01*
X38359000Y4040000D02*
X38359000Y5004000D01*
X38359000Y996000D02*
X38359000Y1960000D01*
X38399000Y4040000D02*
X38399000Y5035000D01*
X38399000Y965000D02*
X38399000Y1960000D01*
X38439000Y4040000D02*
X38439000Y5065000D01*
X38439000Y935000D02*
X38439000Y1960000D01*
X38479000Y4040000D02*
X38479000Y5095000D01*
X38479000Y905000D02*
X38479000Y1960000D01*
X38519000Y4040000D02*
X38519000Y5122000D01*
X38519000Y878000D02*
X38519000Y1960000D01*
X38559000Y4040000D02*
X38559000Y5149000D01*
X38559000Y851000D02*
X38559000Y1960000D01*
X38599000Y4040000D02*
X38599000Y5175000D01*
X38599000Y825000D02*
X38599000Y1960000D01*
X38639000Y4040000D02*
X38639000Y5200000D01*
X38639000Y800000D02*
X38639000Y1960000D01*
X38679000Y4040000D02*
X38679000Y5224000D01*
X38679000Y776000D02*
X38679000Y1960000D01*
X38719000Y4040000D02*
X38719000Y5247000D01*
X38719000Y753000D02*
X38719000Y1960000D01*
X38759000Y4040000D02*
X38759000Y5268000D01*
X38759000Y732000D02*
X38759000Y1960000D01*
X38799000Y4040000D02*
X38799000Y5290000D01*
X38799000Y710000D02*
X38799000Y1960000D01*
X38839000Y4040000D02*
X38839000Y5310000D01*
X38839000Y690000D02*
X38839000Y1960000D01*
X38879000Y4040000D02*
X38879000Y5329000D01*
X38879000Y671000D02*
X38879000Y1960000D01*
X38919000Y4040000D02*
X38919000Y5348000D01*
X38919000Y652000D02*
X38919000Y1960000D01*
X38959000Y4040000D02*
X38959000Y5365000D01*
X38959000Y635000D02*
X38959000Y1960000D01*
X38999000Y4040000D02*
X38999000Y5382000D01*
X38999000Y618000D02*
X38999000Y1960000D01*
X39039000Y4040000D02*
X39039000Y5398000D01*
X39039000Y602000D02*
X39039000Y1960000D01*
X39079000Y4040000D02*
X39079000Y5414000D01*
X39079000Y586000D02*
X39079000Y1960000D01*
X39119000Y4040000D02*
X39119000Y5428000D01*
X39119000Y572000D02*
X39119000Y1960000D01*
X39159000Y4040000D02*
X39159000Y5442000D01*
X39159000Y558000D02*
X39159000Y1960000D01*
X39199000Y4040000D02*
X39199000Y5455000D01*
X39199000Y545000D02*
X39199000Y1960000D01*
X39239000Y4040000D02*
X39239000Y5468000D01*
X39239000Y532000D02*
X39239000Y1960000D01*
X39279000Y4040000D02*
X39279000Y5480000D01*
X39279000Y520000D02*
X39279000Y1960000D01*
X39320000Y4040000D02*
X39320000Y5491000D01*
X39320000Y509000D02*
X39320000Y1960000D01*
X39360000Y4040000D02*
X39360000Y5501000D01*
X39360000Y499000D02*
X39360000Y1960000D01*
X39400000Y4040000D02*
X39400000Y5511000D01*
X39400000Y489000D02*
X39400000Y1960000D01*
X39440000Y4040000D02*
X39440000Y5520000D01*
X39440000Y480000D02*
X39440000Y1960000D01*
X39480000Y4040000D02*
X39480000Y5528000D01*
X39480000Y472000D02*
X39480000Y1960000D01*
X39520000Y4040000D02*
X39520000Y5536000D01*
X39520000Y464000D02*
X39520000Y1960000D01*
X39560000Y4040000D02*
X39560000Y5543000D01*
X39560000Y457000D02*
X39560000Y1960000D01*
X39600000Y4040000D02*
X39600000Y5550000D01*
X39600000Y450000D02*
X39600000Y1960000D01*
X39640000Y4040000D02*
X39640000Y5556000D01*
X39640000Y444000D02*
X39640000Y1960000D01*
X39680000Y4040000D02*
X39680000Y5561000D01*
X39680000Y439000D02*
X39680000Y1960000D01*
X39720000Y4040000D02*
X39720000Y5565000D01*
X39720000Y435000D02*
X39720000Y1960000D01*
X39760000Y4040000D02*
X39760000Y5569000D01*
X39760000Y431000D02*
X39760000Y1960000D01*
X39800000Y4040000D02*
X39800000Y5573000D01*
X39800000Y427000D02*
X39800000Y1960000D01*
X39840000Y4040000D02*
X39840000Y5576000D01*
X39840000Y424000D02*
X39840000Y1960000D01*
X39880000Y4040000D02*
X39880000Y5578000D01*
X39880000Y422000D02*
X39880000Y1960000D01*
X39920000Y4040000D02*
X39920000Y5579000D01*
X39920000Y421000D02*
X39920000Y1960000D01*
X39960000Y420000D02*
X39960000Y1960000D01*
X39960000Y4040000D02*
X39960000Y5580000D01*
X40000000Y420000D02*
X40000000Y1960000D01*
X40000000Y4040000D02*
X40000000Y5580000D01*
X42620000Y3000000D02*
G75*
G03X42620000Y3000000I-2620000J0D01*
G01*
G04 #@! TO.C,C4*
X23620000Y3000000D02*
G75*
G03X23620000Y3000000I-2620000J0D01*
G01*
X21000000Y1960000D02*
X21000000Y420000D01*
X21000000Y5580000D02*
X21000000Y4040000D01*
X21040000Y1960000D02*
X21040000Y420000D01*
X21040000Y5580000D02*
X21040000Y4040000D01*
X21080000Y5579000D02*
X21080000Y4040000D01*
X21080000Y1960000D02*
X21080000Y421000D01*
X21120000Y5578000D02*
X21120000Y4040000D01*
X21120000Y1960000D02*
X21120000Y422000D01*
X21160000Y5576000D02*
X21160000Y4040000D01*
X21160000Y1960000D02*
X21160000Y424000D01*
X21200000Y5573000D02*
X21200000Y4040000D01*
X21200000Y1960000D02*
X21200000Y427000D01*
X21240000Y5569000D02*
X21240000Y4040000D01*
X21240000Y1960000D02*
X21240000Y431000D01*
X21280000Y5565000D02*
X21280000Y4040000D01*
X21280000Y1960000D02*
X21280000Y435000D01*
X21320000Y5561000D02*
X21320000Y4040000D01*
X21320000Y1960000D02*
X21320000Y439000D01*
X21360000Y5556000D02*
X21360000Y4040000D01*
X21360000Y1960000D02*
X21360000Y444000D01*
X21400000Y5550000D02*
X21400000Y4040000D01*
X21400000Y1960000D02*
X21400000Y450000D01*
X21440000Y5543000D02*
X21440000Y4040000D01*
X21440000Y1960000D02*
X21440000Y457000D01*
X21480000Y5536000D02*
X21480000Y4040000D01*
X21480000Y1960000D02*
X21480000Y464000D01*
X21520000Y5528000D02*
X21520000Y4040000D01*
X21520000Y1960000D02*
X21520000Y472000D01*
X21560000Y5520000D02*
X21560000Y4040000D01*
X21560000Y1960000D02*
X21560000Y480000D01*
X21600000Y5511000D02*
X21600000Y4040000D01*
X21600000Y1960000D02*
X21600000Y489000D01*
X21640000Y5501000D02*
X21640000Y4040000D01*
X21640000Y1960000D02*
X21640000Y499000D01*
X21680000Y5491000D02*
X21680000Y4040000D01*
X21680000Y1960000D02*
X21680000Y509000D01*
X21721000Y5480000D02*
X21721000Y4040000D01*
X21721000Y1960000D02*
X21721000Y520000D01*
X21761000Y5468000D02*
X21761000Y4040000D01*
X21761000Y1960000D02*
X21761000Y532000D01*
X21801000Y5455000D02*
X21801000Y4040000D01*
X21801000Y1960000D02*
X21801000Y545000D01*
X21841000Y5442000D02*
X21841000Y4040000D01*
X21841000Y1960000D02*
X21841000Y558000D01*
X21881000Y5428000D02*
X21881000Y4040000D01*
X21881000Y1960000D02*
X21881000Y572000D01*
X21921000Y5414000D02*
X21921000Y4040000D01*
X21921000Y1960000D02*
X21921000Y586000D01*
X21961000Y5398000D02*
X21961000Y4040000D01*
X21961000Y1960000D02*
X21961000Y602000D01*
X22001000Y5382000D02*
X22001000Y4040000D01*
X22001000Y1960000D02*
X22001000Y618000D01*
X22041000Y5365000D02*
X22041000Y4040000D01*
X22041000Y1960000D02*
X22041000Y635000D01*
X22081000Y5348000D02*
X22081000Y4040000D01*
X22081000Y1960000D02*
X22081000Y652000D01*
X22121000Y5329000D02*
X22121000Y4040000D01*
X22121000Y1960000D02*
X22121000Y671000D01*
X22161000Y5310000D02*
X22161000Y4040000D01*
X22161000Y1960000D02*
X22161000Y690000D01*
X22201000Y5290000D02*
X22201000Y4040000D01*
X22201000Y1960000D02*
X22201000Y710000D01*
X22241000Y5268000D02*
X22241000Y4040000D01*
X22241000Y1960000D02*
X22241000Y732000D01*
X22281000Y5247000D02*
X22281000Y4040000D01*
X22281000Y1960000D02*
X22281000Y753000D01*
X22321000Y5224000D02*
X22321000Y4040000D01*
X22321000Y1960000D02*
X22321000Y776000D01*
X22361000Y5200000D02*
X22361000Y4040000D01*
X22361000Y1960000D02*
X22361000Y800000D01*
X22401000Y5175000D02*
X22401000Y4040000D01*
X22401000Y1960000D02*
X22401000Y825000D01*
X22441000Y5149000D02*
X22441000Y4040000D01*
X22441000Y1960000D02*
X22441000Y851000D01*
X22481000Y5122000D02*
X22481000Y4040000D01*
X22481000Y1960000D02*
X22481000Y878000D01*
X22521000Y5095000D02*
X22521000Y4040000D01*
X22521000Y1960000D02*
X22521000Y905000D01*
X22561000Y5065000D02*
X22561000Y4040000D01*
X22561000Y1960000D02*
X22561000Y935000D01*
X22601000Y5035000D02*
X22601000Y4040000D01*
X22601000Y1960000D02*
X22601000Y965000D01*
X22641000Y5004000D02*
X22641000Y4040000D01*
X22641000Y1960000D02*
X22641000Y996000D01*
X22681000Y4971000D02*
X22681000Y4040000D01*
X22681000Y1960000D02*
X22681000Y1029000D01*
X22721000Y4937000D02*
X22721000Y4040000D01*
X22721000Y1960000D02*
X22721000Y1063000D01*
X22761000Y4901000D02*
X22761000Y4040000D01*
X22761000Y1960000D02*
X22761000Y1099000D01*
X22801000Y4864000D02*
X22801000Y4040000D01*
X22801000Y1960000D02*
X22801000Y1136000D01*
X22841000Y4826000D02*
X22841000Y4040000D01*
X22841000Y1960000D02*
X22841000Y1174000D01*
X22881000Y4785000D02*
X22881000Y4040000D01*
X22881000Y1960000D02*
X22881000Y1215000D01*
X22921000Y4743000D02*
X22921000Y4040000D01*
X22921000Y1960000D02*
X22921000Y1257000D01*
X22961000Y4699000D02*
X22961000Y4040000D01*
X22961000Y1960000D02*
X22961000Y1301000D01*
X23001000Y4653000D02*
X23001000Y4040000D01*
X23001000Y1960000D02*
X23001000Y1347000D01*
X23041000Y4605000D02*
X23041000Y1395000D01*
X23081000Y4554000D02*
X23081000Y1446000D01*
X23121000Y4500000D02*
X23121000Y1500000D01*
X23161000Y4443000D02*
X23161000Y1557000D01*
X23201000Y4383000D02*
X23201000Y1617000D01*
X23241000Y4319000D02*
X23241000Y1681000D01*
X23281000Y4251000D02*
X23281000Y1749000D01*
X23321000Y4178000D02*
X23321000Y1822000D01*
X23361000Y4098000D02*
X23361000Y1902000D01*
X23401000Y4011000D02*
X23401000Y1989000D01*
X23441000Y3915000D02*
X23441000Y2085000D01*
X23481000Y3805000D02*
X23481000Y2195000D01*
X23521000Y3677000D02*
X23521000Y2323000D01*
X23561000Y3518000D02*
X23561000Y2482000D01*
X23601000Y3284000D02*
X23601000Y2716000D01*
X18195225Y4475000D02*
X18695225Y4475000D01*
X18445225Y4725000D02*
X18445225Y4225000D01*
G04 #@! TO.C,C7*
X32620000Y27000000D02*
G75*
G03X32620000Y27000000I-2620000J0D01*
G01*
X28960000Y27000000D02*
X27420000Y27000000D01*
X32580000Y27000000D02*
X31040000Y27000000D01*
X28960000Y26960000D02*
X27420000Y26960000D01*
X32580000Y26960000D02*
X31040000Y26960000D01*
X32579000Y26920000D02*
X31040000Y26920000D01*
X28960000Y26920000D02*
X27421000Y26920000D01*
X32578000Y26880000D02*
X31040000Y26880000D01*
X28960000Y26880000D02*
X27422000Y26880000D01*
X32576000Y26840000D02*
X31040000Y26840000D01*
X28960000Y26840000D02*
X27424000Y26840000D01*
X32573000Y26800000D02*
X31040000Y26800000D01*
X28960000Y26800000D02*
X27427000Y26800000D01*
X32569000Y26760000D02*
X31040000Y26760000D01*
X28960000Y26760000D02*
X27431000Y26760000D01*
X32565000Y26720000D02*
X31040000Y26720000D01*
X28960000Y26720000D02*
X27435000Y26720000D01*
X32561000Y26680000D02*
X31040000Y26680000D01*
X28960000Y26680000D02*
X27439000Y26680000D01*
X32556000Y26640000D02*
X31040000Y26640000D01*
X28960000Y26640000D02*
X27444000Y26640000D01*
X32550000Y26600000D02*
X31040000Y26600000D01*
X28960000Y26600000D02*
X27450000Y26600000D01*
X32543000Y26560000D02*
X31040000Y26560000D01*
X28960000Y26560000D02*
X27457000Y26560000D01*
X32536000Y26520000D02*
X31040000Y26520000D01*
X28960000Y26520000D02*
X27464000Y26520000D01*
X32528000Y26480000D02*
X31040000Y26480000D01*
X28960000Y26480000D02*
X27472000Y26480000D01*
X32520000Y26440000D02*
X31040000Y26440000D01*
X28960000Y26440000D02*
X27480000Y26440000D01*
X32511000Y26400000D02*
X31040000Y26400000D01*
X28960000Y26400000D02*
X27489000Y26400000D01*
X32501000Y26360000D02*
X31040000Y26360000D01*
X28960000Y26360000D02*
X27499000Y26360000D01*
X32491000Y26320000D02*
X31040000Y26320000D01*
X28960000Y26320000D02*
X27509000Y26320000D01*
X32480000Y26279000D02*
X31040000Y26279000D01*
X28960000Y26279000D02*
X27520000Y26279000D01*
X32468000Y26239000D02*
X31040000Y26239000D01*
X28960000Y26239000D02*
X27532000Y26239000D01*
X32455000Y26199000D02*
X31040000Y26199000D01*
X28960000Y26199000D02*
X27545000Y26199000D01*
X32442000Y26159000D02*
X31040000Y26159000D01*
X28960000Y26159000D02*
X27558000Y26159000D01*
X32428000Y26119000D02*
X31040000Y26119000D01*
X28960000Y26119000D02*
X27572000Y26119000D01*
X32414000Y26079000D02*
X31040000Y26079000D01*
X28960000Y26079000D02*
X27586000Y26079000D01*
X32398000Y26039000D02*
X31040000Y26039000D01*
X28960000Y26039000D02*
X27602000Y26039000D01*
X32382000Y25999000D02*
X31040000Y25999000D01*
X28960000Y25999000D02*
X27618000Y25999000D01*
X32365000Y25959000D02*
X31040000Y25959000D01*
X28960000Y25959000D02*
X27635000Y25959000D01*
X32348000Y25919000D02*
X31040000Y25919000D01*
X28960000Y25919000D02*
X27652000Y25919000D01*
X32329000Y25879000D02*
X31040000Y25879000D01*
X28960000Y25879000D02*
X27671000Y25879000D01*
X32310000Y25839000D02*
X31040000Y25839000D01*
X28960000Y25839000D02*
X27690000Y25839000D01*
X32290000Y25799000D02*
X31040000Y25799000D01*
X28960000Y25799000D02*
X27710000Y25799000D01*
X32268000Y25759000D02*
X31040000Y25759000D01*
X28960000Y25759000D02*
X27732000Y25759000D01*
X32247000Y25719000D02*
X31040000Y25719000D01*
X28960000Y25719000D02*
X27753000Y25719000D01*
X32224000Y25679000D02*
X31040000Y25679000D01*
X28960000Y25679000D02*
X27776000Y25679000D01*
X32200000Y25639000D02*
X31040000Y25639000D01*
X28960000Y25639000D02*
X27800000Y25639000D01*
X32175000Y25599000D02*
X31040000Y25599000D01*
X28960000Y25599000D02*
X27825000Y25599000D01*
X32149000Y25559000D02*
X31040000Y25559000D01*
X28960000Y25559000D02*
X27851000Y25559000D01*
X32122000Y25519000D02*
X31040000Y25519000D01*
X28960000Y25519000D02*
X27878000Y25519000D01*
X32095000Y25479000D02*
X31040000Y25479000D01*
X28960000Y25479000D02*
X27905000Y25479000D01*
X32065000Y25439000D02*
X31040000Y25439000D01*
X28960000Y25439000D02*
X27935000Y25439000D01*
X32035000Y25399000D02*
X31040000Y25399000D01*
X28960000Y25399000D02*
X27965000Y25399000D01*
X32004000Y25359000D02*
X31040000Y25359000D01*
X28960000Y25359000D02*
X27996000Y25359000D01*
X31971000Y25319000D02*
X31040000Y25319000D01*
X28960000Y25319000D02*
X28029000Y25319000D01*
X31937000Y25279000D02*
X31040000Y25279000D01*
X28960000Y25279000D02*
X28063000Y25279000D01*
X31901000Y25239000D02*
X31040000Y25239000D01*
X28960000Y25239000D02*
X28099000Y25239000D01*
X31864000Y25199000D02*
X31040000Y25199000D01*
X28960000Y25199000D02*
X28136000Y25199000D01*
X31826000Y25159000D02*
X31040000Y25159000D01*
X28960000Y25159000D02*
X28174000Y25159000D01*
X31785000Y25119000D02*
X31040000Y25119000D01*
X28960000Y25119000D02*
X28215000Y25119000D01*
X31743000Y25079000D02*
X31040000Y25079000D01*
X28960000Y25079000D02*
X28257000Y25079000D01*
X31699000Y25039000D02*
X31040000Y25039000D01*
X28960000Y25039000D02*
X28301000Y25039000D01*
X31653000Y24999000D02*
X31040000Y24999000D01*
X28960000Y24999000D02*
X28347000Y24999000D01*
X31605000Y24959000D02*
X28395000Y24959000D01*
X31554000Y24919000D02*
X28446000Y24919000D01*
X31500000Y24879000D02*
X28500000Y24879000D01*
X31443000Y24839000D02*
X28557000Y24839000D01*
X31383000Y24799000D02*
X28617000Y24799000D01*
X31319000Y24759000D02*
X28681000Y24759000D01*
X31251000Y24719000D02*
X28749000Y24719000D01*
X31178000Y24679000D02*
X28822000Y24679000D01*
X31098000Y24639000D02*
X28902000Y24639000D01*
X31011000Y24599000D02*
X28989000Y24599000D01*
X30915000Y24559000D02*
X29085000Y24559000D01*
X30805000Y24519000D02*
X29195000Y24519000D01*
X30677000Y24479000D02*
X29323000Y24479000D01*
X30518000Y24439000D02*
X29482000Y24439000D01*
X30284000Y24399000D02*
X29716000Y24399000D01*
X31475000Y29804775D02*
X31475000Y29304775D01*
X31725000Y29554775D02*
X31225000Y29554775D01*
G04 #@! TO.C,C10*
X19725000Y20554775D02*
X19225000Y20554775D01*
X19475000Y20804775D02*
X19475000Y20304775D01*
X18284000Y15399000D02*
X17716000Y15399000D01*
X18518000Y15439000D02*
X17482000Y15439000D01*
X18677000Y15479000D02*
X17323000Y15479000D01*
X18805000Y15519000D02*
X17195000Y15519000D01*
X18915000Y15559000D02*
X17085000Y15559000D01*
X19011000Y15599000D02*
X16989000Y15599000D01*
X19098000Y15639000D02*
X16902000Y15639000D01*
X19178000Y15679000D02*
X16822000Y15679000D01*
X19251000Y15719000D02*
X16749000Y15719000D01*
X19319000Y15759000D02*
X16681000Y15759000D01*
X19383000Y15799000D02*
X16617000Y15799000D01*
X19443000Y15839000D02*
X16557000Y15839000D01*
X19500000Y15879000D02*
X16500000Y15879000D01*
X19554000Y15919000D02*
X16446000Y15919000D01*
X19605000Y15959000D02*
X16395000Y15959000D01*
X16960000Y15999000D02*
X16347000Y15999000D01*
X19653000Y15999000D02*
X19040000Y15999000D01*
X16960000Y16039000D02*
X16301000Y16039000D01*
X19699000Y16039000D02*
X19040000Y16039000D01*
X16960000Y16079000D02*
X16257000Y16079000D01*
X19743000Y16079000D02*
X19040000Y16079000D01*
X16960000Y16119000D02*
X16215000Y16119000D01*
X19785000Y16119000D02*
X19040000Y16119000D01*
X16960000Y16159000D02*
X16174000Y16159000D01*
X19826000Y16159000D02*
X19040000Y16159000D01*
X16960000Y16199000D02*
X16136000Y16199000D01*
X19864000Y16199000D02*
X19040000Y16199000D01*
X16960000Y16239000D02*
X16099000Y16239000D01*
X19901000Y16239000D02*
X19040000Y16239000D01*
X16960000Y16279000D02*
X16063000Y16279000D01*
X19937000Y16279000D02*
X19040000Y16279000D01*
X16960000Y16319000D02*
X16029000Y16319000D01*
X19971000Y16319000D02*
X19040000Y16319000D01*
X16960000Y16359000D02*
X15996000Y16359000D01*
X20004000Y16359000D02*
X19040000Y16359000D01*
X16960000Y16399000D02*
X15965000Y16399000D01*
X20035000Y16399000D02*
X19040000Y16399000D01*
X16960000Y16439000D02*
X15935000Y16439000D01*
X20065000Y16439000D02*
X19040000Y16439000D01*
X16960000Y16479000D02*
X15905000Y16479000D01*
X20095000Y16479000D02*
X19040000Y16479000D01*
X16960000Y16519000D02*
X15878000Y16519000D01*
X20122000Y16519000D02*
X19040000Y16519000D01*
X16960000Y16559000D02*
X15851000Y16559000D01*
X20149000Y16559000D02*
X19040000Y16559000D01*
X16960000Y16599000D02*
X15825000Y16599000D01*
X20175000Y16599000D02*
X19040000Y16599000D01*
X16960000Y16639000D02*
X15800000Y16639000D01*
X20200000Y16639000D02*
X19040000Y16639000D01*
X16960000Y16679000D02*
X15776000Y16679000D01*
X20224000Y16679000D02*
X19040000Y16679000D01*
X16960000Y16719000D02*
X15753000Y16719000D01*
X20247000Y16719000D02*
X19040000Y16719000D01*
X16960000Y16759000D02*
X15732000Y16759000D01*
X20268000Y16759000D02*
X19040000Y16759000D01*
X16960000Y16799000D02*
X15710000Y16799000D01*
X20290000Y16799000D02*
X19040000Y16799000D01*
X16960000Y16839000D02*
X15690000Y16839000D01*
X20310000Y16839000D02*
X19040000Y16839000D01*
X16960000Y16879000D02*
X15671000Y16879000D01*
X20329000Y16879000D02*
X19040000Y16879000D01*
X16960000Y16919000D02*
X15652000Y16919000D01*
X20348000Y16919000D02*
X19040000Y16919000D01*
X16960000Y16959000D02*
X15635000Y16959000D01*
X20365000Y16959000D02*
X19040000Y16959000D01*
X16960000Y16999000D02*
X15618000Y16999000D01*
X20382000Y16999000D02*
X19040000Y16999000D01*
X16960000Y17039000D02*
X15602000Y17039000D01*
X20398000Y17039000D02*
X19040000Y17039000D01*
X16960000Y17079000D02*
X15586000Y17079000D01*
X20414000Y17079000D02*
X19040000Y17079000D01*
X16960000Y17119000D02*
X15572000Y17119000D01*
X20428000Y17119000D02*
X19040000Y17119000D01*
X16960000Y17159000D02*
X15558000Y17159000D01*
X20442000Y17159000D02*
X19040000Y17159000D01*
X16960000Y17199000D02*
X15545000Y17199000D01*
X20455000Y17199000D02*
X19040000Y17199000D01*
X16960000Y17239000D02*
X15532000Y17239000D01*
X20468000Y17239000D02*
X19040000Y17239000D01*
X16960000Y17279000D02*
X15520000Y17279000D01*
X20480000Y17279000D02*
X19040000Y17279000D01*
X16960000Y17320000D02*
X15509000Y17320000D01*
X20491000Y17320000D02*
X19040000Y17320000D01*
X16960000Y17360000D02*
X15499000Y17360000D01*
X20501000Y17360000D02*
X19040000Y17360000D01*
X16960000Y17400000D02*
X15489000Y17400000D01*
X20511000Y17400000D02*
X19040000Y17400000D01*
X16960000Y17440000D02*
X15480000Y17440000D01*
X20520000Y17440000D02*
X19040000Y17440000D01*
X16960000Y17480000D02*
X15472000Y17480000D01*
X20528000Y17480000D02*
X19040000Y17480000D01*
X16960000Y17520000D02*
X15464000Y17520000D01*
X20536000Y17520000D02*
X19040000Y17520000D01*
X16960000Y17560000D02*
X15457000Y17560000D01*
X20543000Y17560000D02*
X19040000Y17560000D01*
X16960000Y17600000D02*
X15450000Y17600000D01*
X20550000Y17600000D02*
X19040000Y17600000D01*
X16960000Y17640000D02*
X15444000Y17640000D01*
X20556000Y17640000D02*
X19040000Y17640000D01*
X16960000Y17680000D02*
X15439000Y17680000D01*
X20561000Y17680000D02*
X19040000Y17680000D01*
X16960000Y17720000D02*
X15435000Y17720000D01*
X20565000Y17720000D02*
X19040000Y17720000D01*
X16960000Y17760000D02*
X15431000Y17760000D01*
X20569000Y17760000D02*
X19040000Y17760000D01*
X16960000Y17800000D02*
X15427000Y17800000D01*
X20573000Y17800000D02*
X19040000Y17800000D01*
X16960000Y17840000D02*
X15424000Y17840000D01*
X20576000Y17840000D02*
X19040000Y17840000D01*
X16960000Y17880000D02*
X15422000Y17880000D01*
X20578000Y17880000D02*
X19040000Y17880000D01*
X16960000Y17920000D02*
X15421000Y17920000D01*
X20579000Y17920000D02*
X19040000Y17920000D01*
X20580000Y17960000D02*
X19040000Y17960000D01*
X16960000Y17960000D02*
X15420000Y17960000D01*
X20580000Y18000000D02*
X19040000Y18000000D01*
X16960000Y18000000D02*
X15420000Y18000000D01*
X20620000Y18000000D02*
G75*
G03X20620000Y18000000I-2620000J0D01*
G01*
G04 #@! TO.C,C11*
X59290000Y7258578D02*
X59290000Y6741422D01*
X60710000Y7258578D02*
X60710000Y6741422D01*
G04 #@! TO.C,C15*
X16758578Y26290000D02*
X16241422Y26290000D01*
X16758578Y27710000D02*
X16241422Y27710000D01*
G04 #@! TO.C,C17*
X35620000Y37000000D02*
G75*
G03X35620000Y37000000I-2620000J0D01*
G01*
X34040000Y37000000D02*
X35580000Y37000000D01*
X30420000Y37000000D02*
X31960000Y37000000D01*
X34040000Y37040000D02*
X35580000Y37040000D01*
X30420000Y37040000D02*
X31960000Y37040000D01*
X30421000Y37080000D02*
X31960000Y37080000D01*
X34040000Y37080000D02*
X35579000Y37080000D01*
X30422000Y37120000D02*
X31960000Y37120000D01*
X34040000Y37120000D02*
X35578000Y37120000D01*
X30424000Y37160000D02*
X31960000Y37160000D01*
X34040000Y37160000D02*
X35576000Y37160000D01*
X30427000Y37200000D02*
X31960000Y37200000D01*
X34040000Y37200000D02*
X35573000Y37200000D01*
X30431000Y37240000D02*
X31960000Y37240000D01*
X34040000Y37240000D02*
X35569000Y37240000D01*
X30435000Y37280000D02*
X31960000Y37280000D01*
X34040000Y37280000D02*
X35565000Y37280000D01*
X30439000Y37320000D02*
X31960000Y37320000D01*
X34040000Y37320000D02*
X35561000Y37320000D01*
X30444000Y37360000D02*
X31960000Y37360000D01*
X34040000Y37360000D02*
X35556000Y37360000D01*
X30450000Y37400000D02*
X31960000Y37400000D01*
X34040000Y37400000D02*
X35550000Y37400000D01*
X30457000Y37440000D02*
X31960000Y37440000D01*
X34040000Y37440000D02*
X35543000Y37440000D01*
X30464000Y37480000D02*
X31960000Y37480000D01*
X34040000Y37480000D02*
X35536000Y37480000D01*
X30472000Y37520000D02*
X31960000Y37520000D01*
X34040000Y37520000D02*
X35528000Y37520000D01*
X30480000Y37560000D02*
X31960000Y37560000D01*
X34040000Y37560000D02*
X35520000Y37560000D01*
X30489000Y37600000D02*
X31960000Y37600000D01*
X34040000Y37600000D02*
X35511000Y37600000D01*
X30499000Y37640000D02*
X31960000Y37640000D01*
X34040000Y37640000D02*
X35501000Y37640000D01*
X30509000Y37680000D02*
X31960000Y37680000D01*
X34040000Y37680000D02*
X35491000Y37680000D01*
X30520000Y37721000D02*
X31960000Y37721000D01*
X34040000Y37721000D02*
X35480000Y37721000D01*
X30532000Y37761000D02*
X31960000Y37761000D01*
X34040000Y37761000D02*
X35468000Y37761000D01*
X30545000Y37801000D02*
X31960000Y37801000D01*
X34040000Y37801000D02*
X35455000Y37801000D01*
X30558000Y37841000D02*
X31960000Y37841000D01*
X34040000Y37841000D02*
X35442000Y37841000D01*
X30572000Y37881000D02*
X31960000Y37881000D01*
X34040000Y37881000D02*
X35428000Y37881000D01*
X30586000Y37921000D02*
X31960000Y37921000D01*
X34040000Y37921000D02*
X35414000Y37921000D01*
X30602000Y37961000D02*
X31960000Y37961000D01*
X34040000Y37961000D02*
X35398000Y37961000D01*
X30618000Y38001000D02*
X31960000Y38001000D01*
X34040000Y38001000D02*
X35382000Y38001000D01*
X30635000Y38041000D02*
X31960000Y38041000D01*
X34040000Y38041000D02*
X35365000Y38041000D01*
X30652000Y38081000D02*
X31960000Y38081000D01*
X34040000Y38081000D02*
X35348000Y38081000D01*
X30671000Y38121000D02*
X31960000Y38121000D01*
X34040000Y38121000D02*
X35329000Y38121000D01*
X30690000Y38161000D02*
X31960000Y38161000D01*
X34040000Y38161000D02*
X35310000Y38161000D01*
X30710000Y38201000D02*
X31960000Y38201000D01*
X34040000Y38201000D02*
X35290000Y38201000D01*
X30732000Y38241000D02*
X31960000Y38241000D01*
X34040000Y38241000D02*
X35268000Y38241000D01*
X30753000Y38281000D02*
X31960000Y38281000D01*
X34040000Y38281000D02*
X35247000Y38281000D01*
X30776000Y38321000D02*
X31960000Y38321000D01*
X34040000Y38321000D02*
X35224000Y38321000D01*
X30800000Y38361000D02*
X31960000Y38361000D01*
X34040000Y38361000D02*
X35200000Y38361000D01*
X30825000Y38401000D02*
X31960000Y38401000D01*
X34040000Y38401000D02*
X35175000Y38401000D01*
X30851000Y38441000D02*
X31960000Y38441000D01*
X34040000Y38441000D02*
X35149000Y38441000D01*
X30878000Y38481000D02*
X31960000Y38481000D01*
X34040000Y38481000D02*
X35122000Y38481000D01*
X30905000Y38521000D02*
X31960000Y38521000D01*
X34040000Y38521000D02*
X35095000Y38521000D01*
X30935000Y38561000D02*
X31960000Y38561000D01*
X34040000Y38561000D02*
X35065000Y38561000D01*
X30965000Y38601000D02*
X31960000Y38601000D01*
X34040000Y38601000D02*
X35035000Y38601000D01*
X30996000Y38641000D02*
X31960000Y38641000D01*
X34040000Y38641000D02*
X35004000Y38641000D01*
X31029000Y38681000D02*
X31960000Y38681000D01*
X34040000Y38681000D02*
X34971000Y38681000D01*
X31063000Y38721000D02*
X31960000Y38721000D01*
X34040000Y38721000D02*
X34937000Y38721000D01*
X31099000Y38761000D02*
X31960000Y38761000D01*
X34040000Y38761000D02*
X34901000Y38761000D01*
X31136000Y38801000D02*
X31960000Y38801000D01*
X34040000Y38801000D02*
X34864000Y38801000D01*
X31174000Y38841000D02*
X31960000Y38841000D01*
X34040000Y38841000D02*
X34826000Y38841000D01*
X31215000Y38881000D02*
X31960000Y38881000D01*
X34040000Y38881000D02*
X34785000Y38881000D01*
X31257000Y38921000D02*
X31960000Y38921000D01*
X34040000Y38921000D02*
X34743000Y38921000D01*
X31301000Y38961000D02*
X31960000Y38961000D01*
X34040000Y38961000D02*
X34699000Y38961000D01*
X31347000Y39001000D02*
X31960000Y39001000D01*
X34040000Y39001000D02*
X34653000Y39001000D01*
X31395000Y39041000D02*
X34605000Y39041000D01*
X31446000Y39081000D02*
X34554000Y39081000D01*
X31500000Y39121000D02*
X34500000Y39121000D01*
X31557000Y39161000D02*
X34443000Y39161000D01*
X31617000Y39201000D02*
X34383000Y39201000D01*
X31681000Y39241000D02*
X34319000Y39241000D01*
X31749000Y39281000D02*
X34251000Y39281000D01*
X31822000Y39321000D02*
X34178000Y39321000D01*
X31902000Y39361000D02*
X34098000Y39361000D01*
X31989000Y39401000D02*
X34011000Y39401000D01*
X32085000Y39441000D02*
X33915000Y39441000D01*
X32195000Y39481000D02*
X33805000Y39481000D01*
X32323000Y39521000D02*
X33677000Y39521000D01*
X32482000Y39561000D02*
X33518000Y39561000D01*
X32716000Y39601000D02*
X33284000Y39601000D01*
X31525000Y34195225D02*
X31525000Y34695225D01*
X31275000Y34445225D02*
X31775000Y34445225D01*
G04 #@! TO.C,C18*
X89355000Y48139491D02*
X87755000Y48139491D01*
X88555000Y48939491D02*
X88555000Y47339491D01*
X84765000Y32169000D02*
X83235000Y32169000D01*
X85098000Y32209000D02*
X82902000Y32209000D01*
X85351000Y32249000D02*
X82649000Y32249000D01*
X85564000Y32289000D02*
X82436000Y32289000D01*
X85752000Y32329000D02*
X82248000Y32329000D01*
X85920000Y32369000D02*
X82080000Y32369000D01*
X86074000Y32409000D02*
X81926000Y32409000D01*
X86218000Y32449000D02*
X81782000Y32449000D01*
X86351000Y32489000D02*
X81649000Y32489000D01*
X86478000Y32529000D02*
X81522000Y32529000D01*
X86597000Y32569000D02*
X81403000Y32569000D01*
X86711000Y32609000D02*
X81289000Y32609000D01*
X86820000Y32649000D02*
X81180000Y32649000D01*
X86924000Y32689000D02*
X81076000Y32689000D01*
X87024000Y32729000D02*
X80976000Y32729000D01*
X87120000Y32769000D02*
X80880000Y32769000D01*
X87213000Y32809000D02*
X80787000Y32809000D01*
X87303000Y32849000D02*
X80697000Y32849000D01*
X87390000Y32889000D02*
X80610000Y32889000D01*
X87475000Y32929000D02*
X80525000Y32929000D01*
X87557000Y32969000D02*
X80443000Y32969000D01*
X87637000Y33009000D02*
X80363000Y33009000D01*
X87715000Y33049000D02*
X80285000Y33049000D01*
X87790000Y33089000D02*
X80210000Y33089000D01*
X87864000Y33129000D02*
X80136000Y33129000D01*
X87936000Y33169000D02*
X80064000Y33169000D01*
X88007000Y33209000D02*
X79993000Y33209000D01*
X88076000Y33249000D02*
X79924000Y33249000D01*
X88143000Y33289000D02*
X79857000Y33289000D01*
X88209000Y33329000D02*
X79791000Y33329000D01*
X88273000Y33369000D02*
X79727000Y33369000D01*
X88336000Y33409000D02*
X79664000Y33409000D01*
X88398000Y33449000D02*
X79602000Y33449000D01*
X88459000Y33489000D02*
X79541000Y33489000D01*
X88519000Y33529000D02*
X79481000Y33529000D01*
X88577000Y33569000D02*
X79423000Y33569000D01*
X88634000Y33609000D02*
X79366000Y33609000D01*
X88691000Y33649000D02*
X79309000Y33649000D01*
X88746000Y33689000D02*
X79254000Y33689000D01*
X88800000Y33729000D02*
X79200000Y33729000D01*
X88854000Y33769000D02*
X79146000Y33769000D01*
X88906000Y33809000D02*
X79094000Y33809000D01*
X88958000Y33849000D02*
X79042000Y33849000D01*
X89009000Y33889000D02*
X78991000Y33889000D01*
X89059000Y33929000D02*
X78941000Y33929000D01*
X89108000Y33969000D02*
X78892000Y33969000D01*
X89156000Y34009000D02*
X78844000Y34009000D01*
X89204000Y34049000D02*
X78796000Y34049000D01*
X89251000Y34089000D02*
X78749000Y34089000D01*
X89297000Y34129000D02*
X78703000Y34129000D01*
X89343000Y34169000D02*
X78657000Y34169000D01*
X89388000Y34209000D02*
X78612000Y34209000D01*
X89432000Y34249000D02*
X78568000Y34249000D01*
X89475000Y34289000D02*
X78525000Y34289000D01*
X89518000Y34329000D02*
X78482000Y34329000D01*
X89560000Y34369000D02*
X78440000Y34369000D01*
X89602000Y34409000D02*
X78398000Y34409000D01*
X89643000Y34449000D02*
X78357000Y34449000D01*
X89684000Y34489000D02*
X78316000Y34489000D01*
X89724000Y34529000D02*
X78276000Y34529000D01*
X89763000Y34569000D02*
X78237000Y34569000D01*
X89802000Y34609000D02*
X78198000Y34609000D01*
X89840000Y34649000D02*
X78160000Y34649000D01*
X89878000Y34689000D02*
X78122000Y34689000D01*
X89916000Y34729000D02*
X78084000Y34729000D01*
X89952000Y34769000D02*
X78048000Y34769000D01*
X89989000Y34809000D02*
X78011000Y34809000D01*
X90025000Y34849000D02*
X77975000Y34849000D01*
X90060000Y34889000D02*
X77940000Y34889000D01*
X90095000Y34929000D02*
X77905000Y34929000D01*
X90129000Y34969000D02*
X77871000Y34969000D01*
X90163000Y35009000D02*
X77837000Y35009000D01*
X90197000Y35049000D02*
X77803000Y35049000D01*
X82560000Y35089000D02*
X77770000Y35089000D01*
X90230000Y35089000D02*
X85440000Y35089000D01*
X82560000Y35129000D02*
X77737000Y35129000D01*
X90263000Y35129000D02*
X85440000Y35129000D01*
X82560000Y35169000D02*
X77705000Y35169000D01*
X90295000Y35169000D02*
X85440000Y35169000D01*
X82560000Y35209000D02*
X77673000Y35209000D01*
X90327000Y35209000D02*
X85440000Y35209000D01*
X82560000Y35249000D02*
X77642000Y35249000D01*
X90358000Y35249000D02*
X85440000Y35249000D01*
X82560000Y35289000D02*
X77610000Y35289000D01*
X90390000Y35289000D02*
X85440000Y35289000D01*
X82560000Y35329000D02*
X77580000Y35329000D01*
X90420000Y35329000D02*
X85440000Y35329000D01*
X82560000Y35369000D02*
X77550000Y35369000D01*
X90450000Y35369000D02*
X85440000Y35369000D01*
X82560000Y35409000D02*
X77520000Y35409000D01*
X90480000Y35409000D02*
X85440000Y35409000D01*
X82560000Y35449000D02*
X77490000Y35449000D01*
X90510000Y35449000D02*
X85440000Y35449000D01*
X82560000Y35489000D02*
X77461000Y35489000D01*
X90539000Y35489000D02*
X85440000Y35489000D01*
X82560000Y35529000D02*
X77432000Y35529000D01*
X90568000Y35529000D02*
X85440000Y35529000D01*
X82560000Y35569000D02*
X77404000Y35569000D01*
X90596000Y35569000D02*
X85440000Y35569000D01*
X82560000Y35609000D02*
X77376000Y35609000D01*
X90624000Y35609000D02*
X85440000Y35609000D01*
X82560000Y35649000D02*
X77348000Y35649000D01*
X90652000Y35649000D02*
X85440000Y35649000D01*
X82560000Y35689000D02*
X77321000Y35689000D01*
X90679000Y35689000D02*
X85440000Y35689000D01*
X82560000Y35729000D02*
X77294000Y35729000D01*
X90706000Y35729000D02*
X85440000Y35729000D01*
X82560000Y35769000D02*
X77267000Y35769000D01*
X90733000Y35769000D02*
X85440000Y35769000D01*
X82560000Y35809000D02*
X77241000Y35809000D01*
X90759000Y35809000D02*
X85440000Y35809000D01*
X82560000Y35849000D02*
X77215000Y35849000D01*
X90785000Y35849000D02*
X85440000Y35849000D01*
X82560000Y35889000D02*
X77189000Y35889000D01*
X90811000Y35889000D02*
X85440000Y35889000D01*
X82560000Y35929000D02*
X77164000Y35929000D01*
X90836000Y35929000D02*
X85440000Y35929000D01*
X82560000Y35969000D02*
X77139000Y35969000D01*
X90861000Y35969000D02*
X85440000Y35969000D01*
X82560000Y36009000D02*
X77114000Y36009000D01*
X90886000Y36009000D02*
X85440000Y36009000D01*
X82560000Y36049000D02*
X77090000Y36049000D01*
X90910000Y36049000D02*
X85440000Y36049000D01*
X82560000Y36089000D02*
X77066000Y36089000D01*
X90934000Y36089000D02*
X85440000Y36089000D01*
X82560000Y36129000D02*
X77042000Y36129000D01*
X90958000Y36129000D02*
X85440000Y36129000D01*
X82560000Y36169000D02*
X77019000Y36169000D01*
X90981000Y36169000D02*
X85440000Y36169000D01*
X82560000Y36209000D02*
X76996000Y36209000D01*
X91004000Y36209000D02*
X85440000Y36209000D01*
X82560000Y36249000D02*
X76973000Y36249000D01*
X91027000Y36249000D02*
X85440000Y36249000D01*
X82560000Y36289000D02*
X76951000Y36289000D01*
X91049000Y36289000D02*
X85440000Y36289000D01*
X82560000Y36329000D02*
X76928000Y36329000D01*
X91072000Y36329000D02*
X85440000Y36329000D01*
X82560000Y36369000D02*
X76906000Y36369000D01*
X91094000Y36369000D02*
X85440000Y36369000D01*
X82560000Y36409000D02*
X76885000Y36409000D01*
X91115000Y36409000D02*
X85440000Y36409000D01*
X82560000Y36449000D02*
X76864000Y36449000D01*
X91136000Y36449000D02*
X85440000Y36449000D01*
X82560000Y36489000D02*
X76843000Y36489000D01*
X91157000Y36489000D02*
X85440000Y36489000D01*
X82560000Y36529000D02*
X76822000Y36529000D01*
X91178000Y36529000D02*
X85440000Y36529000D01*
X82560000Y36569000D02*
X76801000Y36569000D01*
X91199000Y36569000D02*
X85440000Y36569000D01*
X82560000Y36609000D02*
X76781000Y36609000D01*
X91219000Y36609000D02*
X85440000Y36609000D01*
X82560000Y36649000D02*
X76761000Y36649000D01*
X91239000Y36649000D02*
X85440000Y36649000D01*
X82560000Y36689000D02*
X76742000Y36689000D01*
X91258000Y36689000D02*
X85440000Y36689000D01*
X82560000Y36729000D02*
X76722000Y36729000D01*
X91278000Y36729000D02*
X85440000Y36729000D01*
X82560000Y36769000D02*
X76703000Y36769000D01*
X91297000Y36769000D02*
X85440000Y36769000D01*
X82560000Y36809000D02*
X76684000Y36809000D01*
X91316000Y36809000D02*
X85440000Y36809000D01*
X82560000Y36849000D02*
X76666000Y36849000D01*
X91334000Y36849000D02*
X85440000Y36849000D01*
X82560000Y36889000D02*
X76647000Y36889000D01*
X91353000Y36889000D02*
X85440000Y36889000D01*
X82560000Y36929000D02*
X76629000Y36929000D01*
X91371000Y36929000D02*
X85440000Y36929000D01*
X82560000Y36969000D02*
X76611000Y36969000D01*
X91389000Y36969000D02*
X85440000Y36969000D01*
X82560000Y37009000D02*
X76594000Y37009000D01*
X91406000Y37009000D02*
X85440000Y37009000D01*
X82560000Y37049000D02*
X76577000Y37049000D01*
X91423000Y37049000D02*
X85440000Y37049000D01*
X82560000Y37089000D02*
X76560000Y37089000D01*
X91440000Y37089000D02*
X85440000Y37089000D01*
X82560000Y37129000D02*
X76543000Y37129000D01*
X91457000Y37129000D02*
X85440000Y37129000D01*
X82560000Y37169000D02*
X76526000Y37169000D01*
X91474000Y37169000D02*
X85440000Y37169000D01*
X82560000Y37209000D02*
X76510000Y37209000D01*
X91490000Y37209000D02*
X85440000Y37209000D01*
X82560000Y37249000D02*
X76494000Y37249000D01*
X91506000Y37249000D02*
X85440000Y37249000D01*
X82560000Y37289000D02*
X76478000Y37289000D01*
X91522000Y37289000D02*
X85440000Y37289000D01*
X82560000Y37329000D02*
X76463000Y37329000D01*
X91537000Y37329000D02*
X85440000Y37329000D01*
X82560000Y37369000D02*
X76447000Y37369000D01*
X91553000Y37369000D02*
X85440000Y37369000D01*
X82560000Y37409000D02*
X76432000Y37409000D01*
X91568000Y37409000D02*
X85440000Y37409000D01*
X82560000Y37449000D02*
X76418000Y37449000D01*
X91582000Y37449000D02*
X85440000Y37449000D01*
X82560000Y37489000D02*
X76403000Y37489000D01*
X91597000Y37489000D02*
X85440000Y37489000D01*
X82560000Y37529000D02*
X76389000Y37529000D01*
X91611000Y37529000D02*
X85440000Y37529000D01*
X82560000Y37569000D02*
X76375000Y37569000D01*
X91625000Y37569000D02*
X85440000Y37569000D01*
X82560000Y37609000D02*
X76361000Y37609000D01*
X91639000Y37609000D02*
X85440000Y37609000D01*
X82560000Y37649000D02*
X76347000Y37649000D01*
X91653000Y37649000D02*
X85440000Y37649000D01*
X82560000Y37689000D02*
X76334000Y37689000D01*
X91666000Y37689000D02*
X85440000Y37689000D01*
X82560000Y37729000D02*
X76320000Y37729000D01*
X91680000Y37729000D02*
X85440000Y37729000D01*
X82560000Y37769000D02*
X76307000Y37769000D01*
X91693000Y37769000D02*
X85440000Y37769000D01*
X82560000Y37809000D02*
X76295000Y37809000D01*
X91705000Y37809000D02*
X85440000Y37809000D01*
X82560000Y37849000D02*
X76282000Y37849000D01*
X91718000Y37849000D02*
X85440000Y37849000D01*
X82560000Y37889000D02*
X76270000Y37889000D01*
X91730000Y37889000D02*
X85440000Y37889000D01*
X82560000Y37929000D02*
X76258000Y37929000D01*
X91742000Y37929000D02*
X85440000Y37929000D01*
X91754000Y37969000D02*
X76246000Y37969000D01*
X91765000Y38009000D02*
X76235000Y38009000D01*
X91777000Y38049000D02*
X76223000Y38049000D01*
X91788000Y38089000D02*
X76212000Y38089000D01*
X91799000Y38129000D02*
X76201000Y38129000D01*
X91810000Y38169000D02*
X76190000Y38169000D01*
X91820000Y38209000D02*
X76180000Y38209000D01*
X91830000Y38249000D02*
X76170000Y38249000D01*
X91840000Y38289000D02*
X76160000Y38289000D01*
X91850000Y38329000D02*
X76150000Y38329000D01*
X91860000Y38369000D02*
X76140000Y38369000D01*
X91869000Y38409000D02*
X76131000Y38409000D01*
X91878000Y38449000D02*
X76122000Y38449000D01*
X91887000Y38489000D02*
X76113000Y38489000D01*
X91896000Y38529000D02*
X76104000Y38529000D01*
X91905000Y38569000D02*
X76095000Y38569000D01*
X91913000Y38609000D02*
X76087000Y38609000D01*
X91921000Y38649000D02*
X76079000Y38649000D01*
X91929000Y38689000D02*
X76071000Y38689000D01*
X91937000Y38729000D02*
X76063000Y38729000D01*
X91944000Y38769000D02*
X76056000Y38769000D01*
X91952000Y38809000D02*
X76048000Y38809000D01*
X91959000Y38849000D02*
X76041000Y38849000D01*
X91966000Y38889000D02*
X76034000Y38889000D01*
X91972000Y38929000D02*
X76028000Y38929000D01*
X91979000Y38969000D02*
X76021000Y38969000D01*
X91985000Y39009000D02*
X76015000Y39009000D01*
X91991000Y39049000D02*
X76009000Y39049000D01*
X91997000Y39089000D02*
X76003000Y39089000D01*
X92003000Y39129000D02*
X75997000Y39129000D01*
X92008000Y39169000D02*
X75992000Y39169000D01*
X92014000Y39209000D02*
X75986000Y39209000D01*
X92019000Y39249000D02*
X75981000Y39249000D01*
X92024000Y39289000D02*
X75976000Y39289000D01*
X92028000Y39329000D02*
X75972000Y39329000D01*
X92033000Y39369000D02*
X75967000Y39369000D01*
X92037000Y39409000D02*
X75963000Y39409000D01*
X92041000Y39449000D02*
X75959000Y39449000D01*
X92045000Y39489000D02*
X75955000Y39489000D01*
X92049000Y39529000D02*
X75951000Y39529000D01*
X92052000Y39570000D02*
X75948000Y39570000D01*
X92055000Y39610000D02*
X75945000Y39610000D01*
X92058000Y39650000D02*
X75942000Y39650000D01*
X92061000Y39690000D02*
X75939000Y39690000D01*
X92064000Y39730000D02*
X75936000Y39730000D01*
X92066000Y39770000D02*
X75934000Y39770000D01*
X92069000Y39810000D02*
X75931000Y39810000D01*
X92071000Y39850000D02*
X75929000Y39850000D01*
X92073000Y39890000D02*
X75927000Y39890000D01*
X92074000Y39930000D02*
X75926000Y39930000D01*
X92076000Y39970000D02*
X75924000Y39970000D01*
X92077000Y40010000D02*
X75923000Y40010000D01*
X92078000Y40050000D02*
X75922000Y40050000D01*
X92079000Y40090000D02*
X75921000Y40090000D01*
X92080000Y40130000D02*
X75920000Y40130000D01*
X92080000Y40170000D02*
X75920000Y40170000D01*
X92080000Y40210000D02*
X75920000Y40210000D01*
X92081000Y40250000D02*
X75919000Y40250000D01*
X92120000Y40250000D02*
G75*
G03X92120000Y40250000I-8120000J0D01*
G01*
G04 #@! TO.C,C19*
X28613748Y50710000D02*
X31386252Y50710000D01*
X28613748Y47290000D02*
X31386252Y47290000D01*
G04 #@! TO.C,C20*
X74120000Y40250000D02*
G75*
G03X74120000Y40250000I-8120000J0D01*
G01*
X74081000Y40250000D02*
X57919000Y40250000D01*
X74080000Y40210000D02*
X57920000Y40210000D01*
X74080000Y40170000D02*
X57920000Y40170000D01*
X74080000Y40130000D02*
X57920000Y40130000D01*
X74079000Y40090000D02*
X57921000Y40090000D01*
X74078000Y40050000D02*
X57922000Y40050000D01*
X74077000Y40010000D02*
X57923000Y40010000D01*
X74076000Y39970000D02*
X57924000Y39970000D01*
X74074000Y39930000D02*
X57926000Y39930000D01*
X74073000Y39890000D02*
X57927000Y39890000D01*
X74071000Y39850000D02*
X57929000Y39850000D01*
X74069000Y39810000D02*
X57931000Y39810000D01*
X74066000Y39770000D02*
X57934000Y39770000D01*
X74064000Y39730000D02*
X57936000Y39730000D01*
X74061000Y39690000D02*
X57939000Y39690000D01*
X74058000Y39650000D02*
X57942000Y39650000D01*
X74055000Y39610000D02*
X57945000Y39610000D01*
X74052000Y39570000D02*
X57948000Y39570000D01*
X74049000Y39529000D02*
X57951000Y39529000D01*
X74045000Y39489000D02*
X57955000Y39489000D01*
X74041000Y39449000D02*
X57959000Y39449000D01*
X74037000Y39409000D02*
X57963000Y39409000D01*
X74033000Y39369000D02*
X57967000Y39369000D01*
X74028000Y39329000D02*
X57972000Y39329000D01*
X74024000Y39289000D02*
X57976000Y39289000D01*
X74019000Y39249000D02*
X57981000Y39249000D01*
X74014000Y39209000D02*
X57986000Y39209000D01*
X74008000Y39169000D02*
X57992000Y39169000D01*
X74003000Y39129000D02*
X57997000Y39129000D01*
X73997000Y39089000D02*
X58003000Y39089000D01*
X73991000Y39049000D02*
X58009000Y39049000D01*
X73985000Y39009000D02*
X58015000Y39009000D01*
X73979000Y38969000D02*
X58021000Y38969000D01*
X73972000Y38929000D02*
X58028000Y38929000D01*
X73966000Y38889000D02*
X58034000Y38889000D01*
X73959000Y38849000D02*
X58041000Y38849000D01*
X73952000Y38809000D02*
X58048000Y38809000D01*
X73944000Y38769000D02*
X58056000Y38769000D01*
X73937000Y38729000D02*
X58063000Y38729000D01*
X73929000Y38689000D02*
X58071000Y38689000D01*
X73921000Y38649000D02*
X58079000Y38649000D01*
X73913000Y38609000D02*
X58087000Y38609000D01*
X73905000Y38569000D02*
X58095000Y38569000D01*
X73896000Y38529000D02*
X58104000Y38529000D01*
X73887000Y38489000D02*
X58113000Y38489000D01*
X73878000Y38449000D02*
X58122000Y38449000D01*
X73869000Y38409000D02*
X58131000Y38409000D01*
X73860000Y38369000D02*
X58140000Y38369000D01*
X73850000Y38329000D02*
X58150000Y38329000D01*
X73840000Y38289000D02*
X58160000Y38289000D01*
X73830000Y38249000D02*
X58170000Y38249000D01*
X73820000Y38209000D02*
X58180000Y38209000D01*
X73810000Y38169000D02*
X58190000Y38169000D01*
X73799000Y38129000D02*
X58201000Y38129000D01*
X73788000Y38089000D02*
X58212000Y38089000D01*
X73777000Y38049000D02*
X58223000Y38049000D01*
X73765000Y38009000D02*
X58235000Y38009000D01*
X73754000Y37969000D02*
X58246000Y37969000D01*
X73742000Y37929000D02*
X67440000Y37929000D01*
X64560000Y37929000D02*
X58258000Y37929000D01*
X73730000Y37889000D02*
X67440000Y37889000D01*
X64560000Y37889000D02*
X58270000Y37889000D01*
X73718000Y37849000D02*
X67440000Y37849000D01*
X64560000Y37849000D02*
X58282000Y37849000D01*
X73705000Y37809000D02*
X67440000Y37809000D01*
X64560000Y37809000D02*
X58295000Y37809000D01*
X73693000Y37769000D02*
X67440000Y37769000D01*
X64560000Y37769000D02*
X58307000Y37769000D01*
X73680000Y37729000D02*
X67440000Y37729000D01*
X64560000Y37729000D02*
X58320000Y37729000D01*
X73666000Y37689000D02*
X67440000Y37689000D01*
X64560000Y37689000D02*
X58334000Y37689000D01*
X73653000Y37649000D02*
X67440000Y37649000D01*
X64560000Y37649000D02*
X58347000Y37649000D01*
X73639000Y37609000D02*
X67440000Y37609000D01*
X64560000Y37609000D02*
X58361000Y37609000D01*
X73625000Y37569000D02*
X67440000Y37569000D01*
X64560000Y37569000D02*
X58375000Y37569000D01*
X73611000Y37529000D02*
X67440000Y37529000D01*
X64560000Y37529000D02*
X58389000Y37529000D01*
X73597000Y37489000D02*
X67440000Y37489000D01*
X64560000Y37489000D02*
X58403000Y37489000D01*
X73582000Y37449000D02*
X67440000Y37449000D01*
X64560000Y37449000D02*
X58418000Y37449000D01*
X73568000Y37409000D02*
X67440000Y37409000D01*
X64560000Y37409000D02*
X58432000Y37409000D01*
X73553000Y37369000D02*
X67440000Y37369000D01*
X64560000Y37369000D02*
X58447000Y37369000D01*
X73537000Y37329000D02*
X67440000Y37329000D01*
X64560000Y37329000D02*
X58463000Y37329000D01*
X73522000Y37289000D02*
X67440000Y37289000D01*
X64560000Y37289000D02*
X58478000Y37289000D01*
X73506000Y37249000D02*
X67440000Y37249000D01*
X64560000Y37249000D02*
X58494000Y37249000D01*
X73490000Y37209000D02*
X67440000Y37209000D01*
X64560000Y37209000D02*
X58510000Y37209000D01*
X73474000Y37169000D02*
X67440000Y37169000D01*
X64560000Y37169000D02*
X58526000Y37169000D01*
X73457000Y37129000D02*
X67440000Y37129000D01*
X64560000Y37129000D02*
X58543000Y37129000D01*
X73440000Y37089000D02*
X67440000Y37089000D01*
X64560000Y37089000D02*
X58560000Y37089000D01*
X73423000Y37049000D02*
X67440000Y37049000D01*
X64560000Y37049000D02*
X58577000Y37049000D01*
X73406000Y37009000D02*
X67440000Y37009000D01*
X64560000Y37009000D02*
X58594000Y37009000D01*
X73389000Y36969000D02*
X67440000Y36969000D01*
X64560000Y36969000D02*
X58611000Y36969000D01*
X73371000Y36929000D02*
X67440000Y36929000D01*
X64560000Y36929000D02*
X58629000Y36929000D01*
X73353000Y36889000D02*
X67440000Y36889000D01*
X64560000Y36889000D02*
X58647000Y36889000D01*
X73334000Y36849000D02*
X67440000Y36849000D01*
X64560000Y36849000D02*
X58666000Y36849000D01*
X73316000Y36809000D02*
X67440000Y36809000D01*
X64560000Y36809000D02*
X58684000Y36809000D01*
X73297000Y36769000D02*
X67440000Y36769000D01*
X64560000Y36769000D02*
X58703000Y36769000D01*
X73278000Y36729000D02*
X67440000Y36729000D01*
X64560000Y36729000D02*
X58722000Y36729000D01*
X73258000Y36689000D02*
X67440000Y36689000D01*
X64560000Y36689000D02*
X58742000Y36689000D01*
X73239000Y36649000D02*
X67440000Y36649000D01*
X64560000Y36649000D02*
X58761000Y36649000D01*
X73219000Y36609000D02*
X67440000Y36609000D01*
X64560000Y36609000D02*
X58781000Y36609000D01*
X73199000Y36569000D02*
X67440000Y36569000D01*
X64560000Y36569000D02*
X58801000Y36569000D01*
X73178000Y36529000D02*
X67440000Y36529000D01*
X64560000Y36529000D02*
X58822000Y36529000D01*
X73157000Y36489000D02*
X67440000Y36489000D01*
X64560000Y36489000D02*
X58843000Y36489000D01*
X73136000Y36449000D02*
X67440000Y36449000D01*
X64560000Y36449000D02*
X58864000Y36449000D01*
X73115000Y36409000D02*
X67440000Y36409000D01*
X64560000Y36409000D02*
X58885000Y36409000D01*
X73094000Y36369000D02*
X67440000Y36369000D01*
X64560000Y36369000D02*
X58906000Y36369000D01*
X73072000Y36329000D02*
X67440000Y36329000D01*
X64560000Y36329000D02*
X58928000Y36329000D01*
X73049000Y36289000D02*
X67440000Y36289000D01*
X64560000Y36289000D02*
X58951000Y36289000D01*
X73027000Y36249000D02*
X67440000Y36249000D01*
X64560000Y36249000D02*
X58973000Y36249000D01*
X73004000Y36209000D02*
X67440000Y36209000D01*
X64560000Y36209000D02*
X58996000Y36209000D01*
X72981000Y36169000D02*
X67440000Y36169000D01*
X64560000Y36169000D02*
X59019000Y36169000D01*
X72958000Y36129000D02*
X67440000Y36129000D01*
X64560000Y36129000D02*
X59042000Y36129000D01*
X72934000Y36089000D02*
X67440000Y36089000D01*
X64560000Y36089000D02*
X59066000Y36089000D01*
X72910000Y36049000D02*
X67440000Y36049000D01*
X64560000Y36049000D02*
X59090000Y36049000D01*
X72886000Y36009000D02*
X67440000Y36009000D01*
X64560000Y36009000D02*
X59114000Y36009000D01*
X72861000Y35969000D02*
X67440000Y35969000D01*
X64560000Y35969000D02*
X59139000Y35969000D01*
X72836000Y35929000D02*
X67440000Y35929000D01*
X64560000Y35929000D02*
X59164000Y35929000D01*
X72811000Y35889000D02*
X67440000Y35889000D01*
X64560000Y35889000D02*
X59189000Y35889000D01*
X72785000Y35849000D02*
X67440000Y35849000D01*
X64560000Y35849000D02*
X59215000Y35849000D01*
X72759000Y35809000D02*
X67440000Y35809000D01*
X64560000Y35809000D02*
X59241000Y35809000D01*
X72733000Y35769000D02*
X67440000Y35769000D01*
X64560000Y35769000D02*
X59267000Y35769000D01*
X72706000Y35729000D02*
X67440000Y35729000D01*
X64560000Y35729000D02*
X59294000Y35729000D01*
X72679000Y35689000D02*
X67440000Y35689000D01*
X64560000Y35689000D02*
X59321000Y35689000D01*
X72652000Y35649000D02*
X67440000Y35649000D01*
X64560000Y35649000D02*
X59348000Y35649000D01*
X72624000Y35609000D02*
X67440000Y35609000D01*
X64560000Y35609000D02*
X59376000Y35609000D01*
X72596000Y35569000D02*
X67440000Y35569000D01*
X64560000Y35569000D02*
X59404000Y35569000D01*
X72568000Y35529000D02*
X67440000Y35529000D01*
X64560000Y35529000D02*
X59432000Y35529000D01*
X72539000Y35489000D02*
X67440000Y35489000D01*
X64560000Y35489000D02*
X59461000Y35489000D01*
X72510000Y35449000D02*
X67440000Y35449000D01*
X64560000Y35449000D02*
X59490000Y35449000D01*
X72480000Y35409000D02*
X67440000Y35409000D01*
X64560000Y35409000D02*
X59520000Y35409000D01*
X72450000Y35369000D02*
X67440000Y35369000D01*
X64560000Y35369000D02*
X59550000Y35369000D01*
X72420000Y35329000D02*
X67440000Y35329000D01*
X64560000Y35329000D02*
X59580000Y35329000D01*
X72390000Y35289000D02*
X67440000Y35289000D01*
X64560000Y35289000D02*
X59610000Y35289000D01*
X72358000Y35249000D02*
X67440000Y35249000D01*
X64560000Y35249000D02*
X59642000Y35249000D01*
X72327000Y35209000D02*
X67440000Y35209000D01*
X64560000Y35209000D02*
X59673000Y35209000D01*
X72295000Y35169000D02*
X67440000Y35169000D01*
X64560000Y35169000D02*
X59705000Y35169000D01*
X72263000Y35129000D02*
X67440000Y35129000D01*
X64560000Y35129000D02*
X59737000Y35129000D01*
X72230000Y35089000D02*
X67440000Y35089000D01*
X64560000Y35089000D02*
X59770000Y35089000D01*
X72197000Y35049000D02*
X59803000Y35049000D01*
X72163000Y35009000D02*
X59837000Y35009000D01*
X72129000Y34969000D02*
X59871000Y34969000D01*
X72095000Y34929000D02*
X59905000Y34929000D01*
X72060000Y34889000D02*
X59940000Y34889000D01*
X72025000Y34849000D02*
X59975000Y34849000D01*
X71989000Y34809000D02*
X60011000Y34809000D01*
X71952000Y34769000D02*
X60048000Y34769000D01*
X71916000Y34729000D02*
X60084000Y34729000D01*
X71878000Y34689000D02*
X60122000Y34689000D01*
X71840000Y34649000D02*
X60160000Y34649000D01*
X71802000Y34609000D02*
X60198000Y34609000D01*
X71763000Y34569000D02*
X60237000Y34569000D01*
X71724000Y34529000D02*
X60276000Y34529000D01*
X71684000Y34489000D02*
X60316000Y34489000D01*
X71643000Y34449000D02*
X60357000Y34449000D01*
X71602000Y34409000D02*
X60398000Y34409000D01*
X71560000Y34369000D02*
X60440000Y34369000D01*
X71518000Y34329000D02*
X60482000Y34329000D01*
X71475000Y34289000D02*
X60525000Y34289000D01*
X71432000Y34249000D02*
X60568000Y34249000D01*
X71388000Y34209000D02*
X60612000Y34209000D01*
X71343000Y34169000D02*
X60657000Y34169000D01*
X71297000Y34129000D02*
X60703000Y34129000D01*
X71251000Y34089000D02*
X60749000Y34089000D01*
X71204000Y34049000D02*
X60796000Y34049000D01*
X71156000Y34009000D02*
X60844000Y34009000D01*
X71108000Y33969000D02*
X60892000Y33969000D01*
X71059000Y33929000D02*
X60941000Y33929000D01*
X71009000Y33889000D02*
X60991000Y33889000D01*
X70958000Y33849000D02*
X61042000Y33849000D01*
X70906000Y33809000D02*
X61094000Y33809000D01*
X70854000Y33769000D02*
X61146000Y33769000D01*
X70800000Y33729000D02*
X61200000Y33729000D01*
X70746000Y33689000D02*
X61254000Y33689000D01*
X70691000Y33649000D02*
X61309000Y33649000D01*
X70634000Y33609000D02*
X61366000Y33609000D01*
X70577000Y33569000D02*
X61423000Y33569000D01*
X70519000Y33529000D02*
X61481000Y33529000D01*
X70459000Y33489000D02*
X61541000Y33489000D01*
X70398000Y33449000D02*
X61602000Y33449000D01*
X70336000Y33409000D02*
X61664000Y33409000D01*
X70273000Y33369000D02*
X61727000Y33369000D01*
X70209000Y33329000D02*
X61791000Y33329000D01*
X70143000Y33289000D02*
X61857000Y33289000D01*
X70076000Y33249000D02*
X61924000Y33249000D01*
X70007000Y33209000D02*
X61993000Y33209000D01*
X69936000Y33169000D02*
X62064000Y33169000D01*
X69864000Y33129000D02*
X62136000Y33129000D01*
X69790000Y33089000D02*
X62210000Y33089000D01*
X69715000Y33049000D02*
X62285000Y33049000D01*
X69637000Y33009000D02*
X62363000Y33009000D01*
X69557000Y32969000D02*
X62443000Y32969000D01*
X69475000Y32929000D02*
X62525000Y32929000D01*
X69390000Y32889000D02*
X62610000Y32889000D01*
X69303000Y32849000D02*
X62697000Y32849000D01*
X69213000Y32809000D02*
X62787000Y32809000D01*
X69120000Y32769000D02*
X62880000Y32769000D01*
X69024000Y32729000D02*
X62976000Y32729000D01*
X68924000Y32689000D02*
X63076000Y32689000D01*
X68820000Y32649000D02*
X63180000Y32649000D01*
X68711000Y32609000D02*
X63289000Y32609000D01*
X68597000Y32569000D02*
X63403000Y32569000D01*
X68478000Y32529000D02*
X63522000Y32529000D01*
X68351000Y32489000D02*
X63649000Y32489000D01*
X68218000Y32449000D02*
X63782000Y32449000D01*
X68074000Y32409000D02*
X63926000Y32409000D01*
X67920000Y32369000D02*
X64080000Y32369000D01*
X67752000Y32329000D02*
X64248000Y32329000D01*
X67564000Y32289000D02*
X64436000Y32289000D01*
X67351000Y32249000D02*
X64649000Y32249000D01*
X67098000Y32209000D02*
X64902000Y32209000D01*
X66765000Y32169000D02*
X65235000Y32169000D01*
X70555000Y48939491D02*
X70555000Y47339491D01*
X71355000Y48139491D02*
X69755000Y48139491D01*
G04 #@! TO.C,D9*
X48040000Y13000000D02*
X48040000Y10315000D01*
X48040000Y10315000D02*
X49960000Y10315000D01*
X49960000Y10315000D02*
X49960000Y13000000D01*
G04 #@! TO.C,L1*
X12700000Y56300000D02*
X15900000Y56300000D01*
X12700000Y45700000D02*
X12700000Y56300000D01*
X15900000Y45700000D02*
X12700000Y45700000D01*
X23300000Y45700000D02*
X20100000Y45700000D01*
X23300000Y56300000D02*
X23300000Y45700000D01*
X20100000Y56300000D02*
X23300000Y56300000D01*
G04 #@! TO.C,L2*
X44100000Y56300000D02*
X47300000Y56300000D01*
X47300000Y56300000D02*
X47300000Y45700000D01*
X47300000Y45700000D02*
X44100000Y45700000D01*
X39900000Y45700000D02*
X36700000Y45700000D01*
X36700000Y45700000D02*
X36700000Y56300000D01*
X36700000Y56300000D02*
X39900000Y56300000D01*
G04 #@! TO.C,R17*
X48290000Y16196078D02*
X48290000Y15678922D01*
X49710000Y16196078D02*
X49710000Y15678922D01*
G04 #@! TO.C,U1*
X44560000Y15000000D02*
X44560000Y16950000D01*
X44560000Y15000000D02*
X44560000Y13050000D01*
X39440000Y15000000D02*
X39440000Y16950000D01*
X39440000Y15000000D02*
X39440000Y11550000D01*
G04 #@! TO.C,U2*
X10000000Y12740000D02*
X12385000Y12740000D01*
X12385000Y12740000D02*
X12385000Y12995000D01*
X10000000Y12740000D02*
X7615000Y12740000D01*
X7615000Y12740000D02*
X7615000Y12995000D01*
X10000000Y23260000D02*
X12385000Y23260000D01*
X12385000Y23260000D02*
X12385000Y23005000D01*
X10000000Y23260000D02*
X7615000Y23260000D01*
X7615000Y23260000D02*
X7615000Y23005000D01*
X7615000Y23005000D02*
X5950000Y23005000D01*
G04 #@! TO.C,U4*
X34435000Y16000000D02*
X34435000Y17950000D01*
X34435000Y16000000D02*
X34435000Y14050000D01*
X25565000Y16000000D02*
X25565000Y17950000D01*
X25565000Y16000000D02*
X25565000Y12550000D01*
G04 #@! TO.C,U6*
X25005000Y38360000D02*
X25005000Y40175000D01*
X25260000Y38360000D02*
X25005000Y38360000D01*
X25260000Y34500000D02*
X25260000Y38360000D01*
X25260000Y30640000D02*
X25005000Y30640000D01*
X25260000Y34500000D02*
X25260000Y30640000D01*
X14740000Y38360000D02*
X14995000Y38360000D01*
X14740000Y34500000D02*
X14740000Y38360000D01*
X14740000Y30640000D02*
X14995000Y30640000D01*
X14740000Y34500000D02*
X14740000Y30640000D01*
G04 #@! TO.C,U7*
X38740000Y34500000D02*
X38740000Y30640000D01*
X38740000Y30640000D02*
X38995000Y30640000D01*
X38740000Y34500000D02*
X38740000Y38360000D01*
X38740000Y38360000D02*
X38995000Y38360000D01*
X49260000Y34500000D02*
X49260000Y30640000D01*
X49260000Y30640000D02*
X49005000Y30640000D01*
X49260000Y34500000D02*
X49260000Y38360000D01*
X49260000Y38360000D02*
X49005000Y38360000D01*
X49005000Y38360000D02*
X49005000Y40175000D01*
G04 #@! TO.C,C23*
X32710000Y31741422D02*
X32710000Y32258578D01*
X31290000Y31741422D02*
X31290000Y32258578D01*
G04 #@! TO.C,C24*
X40758578Y26290000D02*
X40241422Y26290000D01*
X40758578Y27710000D02*
X40241422Y27710000D01*
G04 #@! TO.C,D10*
X21150000Y16100000D02*
X22850000Y16100000D01*
X22850000Y16100000D02*
X22850000Y19250000D01*
X21150000Y16100000D02*
X21150000Y19250000D01*
G04 #@! TO.C,C25*
X74120000Y22250000D02*
G75*
G03X74120000Y22250000I-8120000J0D01*
G01*
X74081000Y22250000D02*
X57919000Y22250000D01*
X74080000Y22210000D02*
X57920000Y22210000D01*
X74080000Y22170000D02*
X57920000Y22170000D01*
X74080000Y22130000D02*
X57920000Y22130000D01*
X74079000Y22090000D02*
X57921000Y22090000D01*
X74078000Y22050000D02*
X57922000Y22050000D01*
X74077000Y22010000D02*
X57923000Y22010000D01*
X74076000Y21970000D02*
X57924000Y21970000D01*
X74074000Y21930000D02*
X57926000Y21930000D01*
X74073000Y21890000D02*
X57927000Y21890000D01*
X74071000Y21850000D02*
X57929000Y21850000D01*
X74069000Y21810000D02*
X57931000Y21810000D01*
X74066000Y21770000D02*
X57934000Y21770000D01*
X74064000Y21730000D02*
X57936000Y21730000D01*
X74061000Y21690000D02*
X57939000Y21690000D01*
X74058000Y21650000D02*
X57942000Y21650000D01*
X74055000Y21610000D02*
X57945000Y21610000D01*
X74052000Y21570000D02*
X57948000Y21570000D01*
X74049000Y21529000D02*
X57951000Y21529000D01*
X74045000Y21489000D02*
X57955000Y21489000D01*
X74041000Y21449000D02*
X57959000Y21449000D01*
X74037000Y21409000D02*
X57963000Y21409000D01*
X74033000Y21369000D02*
X57967000Y21369000D01*
X74028000Y21329000D02*
X57972000Y21329000D01*
X74024000Y21289000D02*
X57976000Y21289000D01*
X74019000Y21249000D02*
X57981000Y21249000D01*
X74014000Y21209000D02*
X57986000Y21209000D01*
X74008000Y21169000D02*
X57992000Y21169000D01*
X74003000Y21129000D02*
X57997000Y21129000D01*
X73997000Y21089000D02*
X58003000Y21089000D01*
X73991000Y21049000D02*
X58009000Y21049000D01*
X73985000Y21009000D02*
X58015000Y21009000D01*
X73979000Y20969000D02*
X58021000Y20969000D01*
X73972000Y20929000D02*
X58028000Y20929000D01*
X73966000Y20889000D02*
X58034000Y20889000D01*
X73959000Y20849000D02*
X58041000Y20849000D01*
X73952000Y20809000D02*
X58048000Y20809000D01*
X73944000Y20769000D02*
X58056000Y20769000D01*
X73937000Y20729000D02*
X58063000Y20729000D01*
X73929000Y20689000D02*
X58071000Y20689000D01*
X73921000Y20649000D02*
X58079000Y20649000D01*
X73913000Y20609000D02*
X58087000Y20609000D01*
X73905000Y20569000D02*
X58095000Y20569000D01*
X73896000Y20529000D02*
X58104000Y20529000D01*
X73887000Y20489000D02*
X58113000Y20489000D01*
X73878000Y20449000D02*
X58122000Y20449000D01*
X73869000Y20409000D02*
X58131000Y20409000D01*
X73860000Y20369000D02*
X58140000Y20369000D01*
X73850000Y20329000D02*
X58150000Y20329000D01*
X73840000Y20289000D02*
X58160000Y20289000D01*
X73830000Y20249000D02*
X58170000Y20249000D01*
X73820000Y20209000D02*
X58180000Y20209000D01*
X73810000Y20169000D02*
X58190000Y20169000D01*
X73799000Y20129000D02*
X58201000Y20129000D01*
X73788000Y20089000D02*
X58212000Y20089000D01*
X73777000Y20049000D02*
X58223000Y20049000D01*
X73765000Y20009000D02*
X58235000Y20009000D01*
X73754000Y19969000D02*
X58246000Y19969000D01*
X73742000Y19929000D02*
X67440000Y19929000D01*
X64560000Y19929000D02*
X58258000Y19929000D01*
X73730000Y19889000D02*
X67440000Y19889000D01*
X64560000Y19889000D02*
X58270000Y19889000D01*
X73718000Y19849000D02*
X67440000Y19849000D01*
X64560000Y19849000D02*
X58282000Y19849000D01*
X73705000Y19809000D02*
X67440000Y19809000D01*
X64560000Y19809000D02*
X58295000Y19809000D01*
X73693000Y19769000D02*
X67440000Y19769000D01*
X64560000Y19769000D02*
X58307000Y19769000D01*
X73680000Y19729000D02*
X67440000Y19729000D01*
X64560000Y19729000D02*
X58320000Y19729000D01*
X73666000Y19689000D02*
X67440000Y19689000D01*
X64560000Y19689000D02*
X58334000Y19689000D01*
X73653000Y19649000D02*
X67440000Y19649000D01*
X64560000Y19649000D02*
X58347000Y19649000D01*
X73639000Y19609000D02*
X67440000Y19609000D01*
X64560000Y19609000D02*
X58361000Y19609000D01*
X73625000Y19569000D02*
X67440000Y19569000D01*
X64560000Y19569000D02*
X58375000Y19569000D01*
X73611000Y19529000D02*
X67440000Y19529000D01*
X64560000Y19529000D02*
X58389000Y19529000D01*
X73597000Y19489000D02*
X67440000Y19489000D01*
X64560000Y19489000D02*
X58403000Y19489000D01*
X73582000Y19449000D02*
X67440000Y19449000D01*
X64560000Y19449000D02*
X58418000Y19449000D01*
X73568000Y19409000D02*
X67440000Y19409000D01*
X64560000Y19409000D02*
X58432000Y19409000D01*
X73553000Y19369000D02*
X67440000Y19369000D01*
X64560000Y19369000D02*
X58447000Y19369000D01*
X73537000Y19329000D02*
X67440000Y19329000D01*
X64560000Y19329000D02*
X58463000Y19329000D01*
X73522000Y19289000D02*
X67440000Y19289000D01*
X64560000Y19289000D02*
X58478000Y19289000D01*
X73506000Y19249000D02*
X67440000Y19249000D01*
X64560000Y19249000D02*
X58494000Y19249000D01*
X73490000Y19209000D02*
X67440000Y19209000D01*
X64560000Y19209000D02*
X58510000Y19209000D01*
X73474000Y19169000D02*
X67440000Y19169000D01*
X64560000Y19169000D02*
X58526000Y19169000D01*
X73457000Y19129000D02*
X67440000Y19129000D01*
X64560000Y19129000D02*
X58543000Y19129000D01*
X73440000Y19089000D02*
X67440000Y19089000D01*
X64560000Y19089000D02*
X58560000Y19089000D01*
X73423000Y19049000D02*
X67440000Y19049000D01*
X64560000Y19049000D02*
X58577000Y19049000D01*
X73406000Y19009000D02*
X67440000Y19009000D01*
X64560000Y19009000D02*
X58594000Y19009000D01*
X73389000Y18969000D02*
X67440000Y18969000D01*
X64560000Y18969000D02*
X58611000Y18969000D01*
X73371000Y18929000D02*
X67440000Y18929000D01*
X64560000Y18929000D02*
X58629000Y18929000D01*
X73353000Y18889000D02*
X67440000Y18889000D01*
X64560000Y18889000D02*
X58647000Y18889000D01*
X73334000Y18849000D02*
X67440000Y18849000D01*
X64560000Y18849000D02*
X58666000Y18849000D01*
X73316000Y18809000D02*
X67440000Y18809000D01*
X64560000Y18809000D02*
X58684000Y18809000D01*
X73297000Y18769000D02*
X67440000Y18769000D01*
X64560000Y18769000D02*
X58703000Y18769000D01*
X73278000Y18729000D02*
X67440000Y18729000D01*
X64560000Y18729000D02*
X58722000Y18729000D01*
X73258000Y18689000D02*
X67440000Y18689000D01*
X64560000Y18689000D02*
X58742000Y18689000D01*
X73239000Y18649000D02*
X67440000Y18649000D01*
X64560000Y18649000D02*
X58761000Y18649000D01*
X73219000Y18609000D02*
X67440000Y18609000D01*
X64560000Y18609000D02*
X58781000Y18609000D01*
X73199000Y18569000D02*
X67440000Y18569000D01*
X64560000Y18569000D02*
X58801000Y18569000D01*
X73178000Y18529000D02*
X67440000Y18529000D01*
X64560000Y18529000D02*
X58822000Y18529000D01*
X73157000Y18489000D02*
X67440000Y18489000D01*
X64560000Y18489000D02*
X58843000Y18489000D01*
X73136000Y18449000D02*
X67440000Y18449000D01*
X64560000Y18449000D02*
X58864000Y18449000D01*
X73115000Y18409000D02*
X67440000Y18409000D01*
X64560000Y18409000D02*
X58885000Y18409000D01*
X73094000Y18369000D02*
X67440000Y18369000D01*
X64560000Y18369000D02*
X58906000Y18369000D01*
X73072000Y18329000D02*
X67440000Y18329000D01*
X64560000Y18329000D02*
X58928000Y18329000D01*
X73049000Y18289000D02*
X67440000Y18289000D01*
X64560000Y18289000D02*
X58951000Y18289000D01*
X73027000Y18249000D02*
X67440000Y18249000D01*
X64560000Y18249000D02*
X58973000Y18249000D01*
X73004000Y18209000D02*
X67440000Y18209000D01*
X64560000Y18209000D02*
X58996000Y18209000D01*
X72981000Y18169000D02*
X67440000Y18169000D01*
X64560000Y18169000D02*
X59019000Y18169000D01*
X72958000Y18129000D02*
X67440000Y18129000D01*
X64560000Y18129000D02*
X59042000Y18129000D01*
X72934000Y18089000D02*
X67440000Y18089000D01*
X64560000Y18089000D02*
X59066000Y18089000D01*
X72910000Y18049000D02*
X67440000Y18049000D01*
X64560000Y18049000D02*
X59090000Y18049000D01*
X72886000Y18009000D02*
X67440000Y18009000D01*
X64560000Y18009000D02*
X59114000Y18009000D01*
X72861000Y17969000D02*
X67440000Y17969000D01*
X64560000Y17969000D02*
X59139000Y17969000D01*
X72836000Y17929000D02*
X67440000Y17929000D01*
X64560000Y17929000D02*
X59164000Y17929000D01*
X72811000Y17889000D02*
X67440000Y17889000D01*
X64560000Y17889000D02*
X59189000Y17889000D01*
X72785000Y17849000D02*
X67440000Y17849000D01*
X64560000Y17849000D02*
X59215000Y17849000D01*
X72759000Y17809000D02*
X67440000Y17809000D01*
X64560000Y17809000D02*
X59241000Y17809000D01*
X72733000Y17769000D02*
X67440000Y17769000D01*
X64560000Y17769000D02*
X59267000Y17769000D01*
X72706000Y17729000D02*
X67440000Y17729000D01*
X64560000Y17729000D02*
X59294000Y17729000D01*
X72679000Y17689000D02*
X67440000Y17689000D01*
X64560000Y17689000D02*
X59321000Y17689000D01*
X72652000Y17649000D02*
X67440000Y17649000D01*
X64560000Y17649000D02*
X59348000Y17649000D01*
X72624000Y17609000D02*
X67440000Y17609000D01*
X64560000Y17609000D02*
X59376000Y17609000D01*
X72596000Y17569000D02*
X67440000Y17569000D01*
X64560000Y17569000D02*
X59404000Y17569000D01*
X72568000Y17529000D02*
X67440000Y17529000D01*
X64560000Y17529000D02*
X59432000Y17529000D01*
X72539000Y17489000D02*
X67440000Y17489000D01*
X64560000Y17489000D02*
X59461000Y17489000D01*
X72510000Y17449000D02*
X67440000Y17449000D01*
X64560000Y17449000D02*
X59490000Y17449000D01*
X72480000Y17409000D02*
X67440000Y17409000D01*
X64560000Y17409000D02*
X59520000Y17409000D01*
X72450000Y17369000D02*
X67440000Y17369000D01*
X64560000Y17369000D02*
X59550000Y17369000D01*
X72420000Y17329000D02*
X67440000Y17329000D01*
X64560000Y17329000D02*
X59580000Y17329000D01*
X72390000Y17289000D02*
X67440000Y17289000D01*
X64560000Y17289000D02*
X59610000Y17289000D01*
X72358000Y17249000D02*
X67440000Y17249000D01*
X64560000Y17249000D02*
X59642000Y17249000D01*
X72327000Y17209000D02*
X67440000Y17209000D01*
X64560000Y17209000D02*
X59673000Y17209000D01*
X72295000Y17169000D02*
X67440000Y17169000D01*
X64560000Y17169000D02*
X59705000Y17169000D01*
X72263000Y17129000D02*
X67440000Y17129000D01*
X64560000Y17129000D02*
X59737000Y17129000D01*
X72230000Y17089000D02*
X67440000Y17089000D01*
X64560000Y17089000D02*
X59770000Y17089000D01*
X72197000Y17049000D02*
X59803000Y17049000D01*
X72163000Y17009000D02*
X59837000Y17009000D01*
X72129000Y16969000D02*
X59871000Y16969000D01*
X72095000Y16929000D02*
X59905000Y16929000D01*
X72060000Y16889000D02*
X59940000Y16889000D01*
X72025000Y16849000D02*
X59975000Y16849000D01*
X71989000Y16809000D02*
X60011000Y16809000D01*
X71952000Y16769000D02*
X60048000Y16769000D01*
X71916000Y16729000D02*
X60084000Y16729000D01*
X71878000Y16689000D02*
X60122000Y16689000D01*
X71840000Y16649000D02*
X60160000Y16649000D01*
X71802000Y16609000D02*
X60198000Y16609000D01*
X71763000Y16569000D02*
X60237000Y16569000D01*
X71724000Y16529000D02*
X60276000Y16529000D01*
X71684000Y16489000D02*
X60316000Y16489000D01*
X71643000Y16449000D02*
X60357000Y16449000D01*
X71602000Y16409000D02*
X60398000Y16409000D01*
X71560000Y16369000D02*
X60440000Y16369000D01*
X71518000Y16329000D02*
X60482000Y16329000D01*
X71475000Y16289000D02*
X60525000Y16289000D01*
X71432000Y16249000D02*
X60568000Y16249000D01*
X71388000Y16209000D02*
X60612000Y16209000D01*
X71343000Y16169000D02*
X60657000Y16169000D01*
X71297000Y16129000D02*
X60703000Y16129000D01*
X71251000Y16089000D02*
X60749000Y16089000D01*
X71204000Y16049000D02*
X60796000Y16049000D01*
X71156000Y16009000D02*
X60844000Y16009000D01*
X71108000Y15969000D02*
X60892000Y15969000D01*
X71059000Y15929000D02*
X60941000Y15929000D01*
X71009000Y15889000D02*
X60991000Y15889000D01*
X70958000Y15849000D02*
X61042000Y15849000D01*
X70906000Y15809000D02*
X61094000Y15809000D01*
X70854000Y15769000D02*
X61146000Y15769000D01*
X70800000Y15729000D02*
X61200000Y15729000D01*
X70746000Y15689000D02*
X61254000Y15689000D01*
X70691000Y15649000D02*
X61309000Y15649000D01*
X70634000Y15609000D02*
X61366000Y15609000D01*
X70577000Y15569000D02*
X61423000Y15569000D01*
X70519000Y15529000D02*
X61481000Y15529000D01*
X70459000Y15489000D02*
X61541000Y15489000D01*
X70398000Y15449000D02*
X61602000Y15449000D01*
X70336000Y15409000D02*
X61664000Y15409000D01*
X70273000Y15369000D02*
X61727000Y15369000D01*
X70209000Y15329000D02*
X61791000Y15329000D01*
X70143000Y15289000D02*
X61857000Y15289000D01*
X70076000Y15249000D02*
X61924000Y15249000D01*
X70007000Y15209000D02*
X61993000Y15209000D01*
X69936000Y15169000D02*
X62064000Y15169000D01*
X69864000Y15129000D02*
X62136000Y15129000D01*
X69790000Y15089000D02*
X62210000Y15089000D01*
X69715000Y15049000D02*
X62285000Y15049000D01*
X69637000Y15009000D02*
X62363000Y15009000D01*
X69557000Y14969000D02*
X62443000Y14969000D01*
X69475000Y14929000D02*
X62525000Y14929000D01*
X69390000Y14889000D02*
X62610000Y14889000D01*
X69303000Y14849000D02*
X62697000Y14849000D01*
X69213000Y14809000D02*
X62787000Y14809000D01*
X69120000Y14769000D02*
X62880000Y14769000D01*
X69024000Y14729000D02*
X62976000Y14729000D01*
X68924000Y14689000D02*
X63076000Y14689000D01*
X68820000Y14649000D02*
X63180000Y14649000D01*
X68711000Y14609000D02*
X63289000Y14609000D01*
X68597000Y14569000D02*
X63403000Y14569000D01*
X68478000Y14529000D02*
X63522000Y14529000D01*
X68351000Y14489000D02*
X63649000Y14489000D01*
X68218000Y14449000D02*
X63782000Y14449000D01*
X68074000Y14409000D02*
X63926000Y14409000D01*
X67920000Y14369000D02*
X64080000Y14369000D01*
X67752000Y14329000D02*
X64248000Y14329000D01*
X67564000Y14289000D02*
X64436000Y14289000D01*
X67351000Y14249000D02*
X64649000Y14249000D01*
X67098000Y14209000D02*
X64902000Y14209000D01*
X66765000Y14169000D02*
X65235000Y14169000D01*
X70555000Y30939491D02*
X70555000Y29339491D01*
X71355000Y30139491D02*
X69755000Y30139491D01*
G04 #@! TO.C,C26*
X89355000Y30139491D02*
X87755000Y30139491D01*
X88555000Y30939491D02*
X88555000Y29339491D01*
X84765000Y14169000D02*
X83235000Y14169000D01*
X85098000Y14209000D02*
X82902000Y14209000D01*
X85351000Y14249000D02*
X82649000Y14249000D01*
X85564000Y14289000D02*
X82436000Y14289000D01*
X85752000Y14329000D02*
X82248000Y14329000D01*
X85920000Y14369000D02*
X82080000Y14369000D01*
X86074000Y14409000D02*
X81926000Y14409000D01*
X86218000Y14449000D02*
X81782000Y14449000D01*
X86351000Y14489000D02*
X81649000Y14489000D01*
X86478000Y14529000D02*
X81522000Y14529000D01*
X86597000Y14569000D02*
X81403000Y14569000D01*
X86711000Y14609000D02*
X81289000Y14609000D01*
X86820000Y14649000D02*
X81180000Y14649000D01*
X86924000Y14689000D02*
X81076000Y14689000D01*
X87024000Y14729000D02*
X80976000Y14729000D01*
X87120000Y14769000D02*
X80880000Y14769000D01*
X87213000Y14809000D02*
X80787000Y14809000D01*
X87303000Y14849000D02*
X80697000Y14849000D01*
X87390000Y14889000D02*
X80610000Y14889000D01*
X87475000Y14929000D02*
X80525000Y14929000D01*
X87557000Y14969000D02*
X80443000Y14969000D01*
X87637000Y15009000D02*
X80363000Y15009000D01*
X87715000Y15049000D02*
X80285000Y15049000D01*
X87790000Y15089000D02*
X80210000Y15089000D01*
X87864000Y15129000D02*
X80136000Y15129000D01*
X87936000Y15169000D02*
X80064000Y15169000D01*
X88007000Y15209000D02*
X79993000Y15209000D01*
X88076000Y15249000D02*
X79924000Y15249000D01*
X88143000Y15289000D02*
X79857000Y15289000D01*
X88209000Y15329000D02*
X79791000Y15329000D01*
X88273000Y15369000D02*
X79727000Y15369000D01*
X88336000Y15409000D02*
X79664000Y15409000D01*
X88398000Y15449000D02*
X79602000Y15449000D01*
X88459000Y15489000D02*
X79541000Y15489000D01*
X88519000Y15529000D02*
X79481000Y15529000D01*
X88577000Y15569000D02*
X79423000Y15569000D01*
X88634000Y15609000D02*
X79366000Y15609000D01*
X88691000Y15649000D02*
X79309000Y15649000D01*
X88746000Y15689000D02*
X79254000Y15689000D01*
X88800000Y15729000D02*
X79200000Y15729000D01*
X88854000Y15769000D02*
X79146000Y15769000D01*
X88906000Y15809000D02*
X79094000Y15809000D01*
X88958000Y15849000D02*
X79042000Y15849000D01*
X89009000Y15889000D02*
X78991000Y15889000D01*
X89059000Y15929000D02*
X78941000Y15929000D01*
X89108000Y15969000D02*
X78892000Y15969000D01*
X89156000Y16009000D02*
X78844000Y16009000D01*
X89204000Y16049000D02*
X78796000Y16049000D01*
X89251000Y16089000D02*
X78749000Y16089000D01*
X89297000Y16129000D02*
X78703000Y16129000D01*
X89343000Y16169000D02*
X78657000Y16169000D01*
X89388000Y16209000D02*
X78612000Y16209000D01*
X89432000Y16249000D02*
X78568000Y16249000D01*
X89475000Y16289000D02*
X78525000Y16289000D01*
X89518000Y16329000D02*
X78482000Y16329000D01*
X89560000Y16369000D02*
X78440000Y16369000D01*
X89602000Y16409000D02*
X78398000Y16409000D01*
X89643000Y16449000D02*
X78357000Y16449000D01*
X89684000Y16489000D02*
X78316000Y16489000D01*
X89724000Y16529000D02*
X78276000Y16529000D01*
X89763000Y16569000D02*
X78237000Y16569000D01*
X89802000Y16609000D02*
X78198000Y16609000D01*
X89840000Y16649000D02*
X78160000Y16649000D01*
X89878000Y16689000D02*
X78122000Y16689000D01*
X89916000Y16729000D02*
X78084000Y16729000D01*
X89952000Y16769000D02*
X78048000Y16769000D01*
X89989000Y16809000D02*
X78011000Y16809000D01*
X90025000Y16849000D02*
X77975000Y16849000D01*
X90060000Y16889000D02*
X77940000Y16889000D01*
X90095000Y16929000D02*
X77905000Y16929000D01*
X90129000Y16969000D02*
X77871000Y16969000D01*
X90163000Y17009000D02*
X77837000Y17009000D01*
X90197000Y17049000D02*
X77803000Y17049000D01*
X82560000Y17089000D02*
X77770000Y17089000D01*
X90230000Y17089000D02*
X85440000Y17089000D01*
X82560000Y17129000D02*
X77737000Y17129000D01*
X90263000Y17129000D02*
X85440000Y17129000D01*
X82560000Y17169000D02*
X77705000Y17169000D01*
X90295000Y17169000D02*
X85440000Y17169000D01*
X82560000Y17209000D02*
X77673000Y17209000D01*
X90327000Y17209000D02*
X85440000Y17209000D01*
X82560000Y17249000D02*
X77642000Y17249000D01*
X90358000Y17249000D02*
X85440000Y17249000D01*
X82560000Y17289000D02*
X77610000Y17289000D01*
X90390000Y17289000D02*
X85440000Y17289000D01*
X82560000Y17329000D02*
X77580000Y17329000D01*
X90420000Y17329000D02*
X85440000Y17329000D01*
X82560000Y17369000D02*
X77550000Y17369000D01*
X90450000Y17369000D02*
X85440000Y17369000D01*
X82560000Y17409000D02*
X77520000Y17409000D01*
X90480000Y17409000D02*
X85440000Y17409000D01*
X82560000Y17449000D02*
X77490000Y17449000D01*
X90510000Y17449000D02*
X85440000Y17449000D01*
X82560000Y17489000D02*
X77461000Y17489000D01*
X90539000Y17489000D02*
X85440000Y17489000D01*
X82560000Y17529000D02*
X77432000Y17529000D01*
X90568000Y17529000D02*
X85440000Y17529000D01*
X82560000Y17569000D02*
X77404000Y17569000D01*
X90596000Y17569000D02*
X85440000Y17569000D01*
X82560000Y17609000D02*
X77376000Y17609000D01*
X90624000Y17609000D02*
X85440000Y17609000D01*
X82560000Y17649000D02*
X77348000Y17649000D01*
X90652000Y17649000D02*
X85440000Y17649000D01*
X82560000Y17689000D02*
X77321000Y17689000D01*
X90679000Y17689000D02*
X85440000Y17689000D01*
X82560000Y17729000D02*
X77294000Y17729000D01*
X90706000Y17729000D02*
X85440000Y17729000D01*
X82560000Y17769000D02*
X77267000Y17769000D01*
X90733000Y17769000D02*
X85440000Y17769000D01*
X82560000Y17809000D02*
X77241000Y17809000D01*
X90759000Y17809000D02*
X85440000Y17809000D01*
X82560000Y17849000D02*
X77215000Y17849000D01*
X90785000Y17849000D02*
X85440000Y17849000D01*
X82560000Y17889000D02*
X77189000Y17889000D01*
X90811000Y17889000D02*
X85440000Y17889000D01*
X82560000Y17929000D02*
X77164000Y17929000D01*
X90836000Y17929000D02*
X85440000Y17929000D01*
X82560000Y17969000D02*
X77139000Y17969000D01*
X90861000Y17969000D02*
X85440000Y17969000D01*
X82560000Y18009000D02*
X77114000Y18009000D01*
X90886000Y18009000D02*
X85440000Y18009000D01*
X82560000Y18049000D02*
X77090000Y18049000D01*
X90910000Y18049000D02*
X85440000Y18049000D01*
X82560000Y18089000D02*
X77066000Y18089000D01*
X90934000Y18089000D02*
X85440000Y18089000D01*
X82560000Y18129000D02*
X77042000Y18129000D01*
X90958000Y18129000D02*
X85440000Y18129000D01*
X82560000Y18169000D02*
X77019000Y18169000D01*
X90981000Y18169000D02*
X85440000Y18169000D01*
X82560000Y18209000D02*
X76996000Y18209000D01*
X91004000Y18209000D02*
X85440000Y18209000D01*
X82560000Y18249000D02*
X76973000Y18249000D01*
X91027000Y18249000D02*
X85440000Y18249000D01*
X82560000Y18289000D02*
X76951000Y18289000D01*
X91049000Y18289000D02*
X85440000Y18289000D01*
X82560000Y18329000D02*
X76928000Y18329000D01*
X91072000Y18329000D02*
X85440000Y18329000D01*
X82560000Y18369000D02*
X76906000Y18369000D01*
X91094000Y18369000D02*
X85440000Y18369000D01*
X82560000Y18409000D02*
X76885000Y18409000D01*
X91115000Y18409000D02*
X85440000Y18409000D01*
X82560000Y18449000D02*
X76864000Y18449000D01*
X91136000Y18449000D02*
X85440000Y18449000D01*
X82560000Y18489000D02*
X76843000Y18489000D01*
X91157000Y18489000D02*
X85440000Y18489000D01*
X82560000Y18529000D02*
X76822000Y18529000D01*
X91178000Y18529000D02*
X85440000Y18529000D01*
X82560000Y18569000D02*
X76801000Y18569000D01*
X91199000Y18569000D02*
X85440000Y18569000D01*
X82560000Y18609000D02*
X76781000Y18609000D01*
X91219000Y18609000D02*
X85440000Y18609000D01*
X82560000Y18649000D02*
X76761000Y18649000D01*
X91239000Y18649000D02*
X85440000Y18649000D01*
X82560000Y18689000D02*
X76742000Y18689000D01*
X91258000Y18689000D02*
X85440000Y18689000D01*
X82560000Y18729000D02*
X76722000Y18729000D01*
X91278000Y18729000D02*
X85440000Y18729000D01*
X82560000Y18769000D02*
X76703000Y18769000D01*
X91297000Y18769000D02*
X85440000Y18769000D01*
X82560000Y18809000D02*
X76684000Y18809000D01*
X91316000Y18809000D02*
X85440000Y18809000D01*
X82560000Y18849000D02*
X76666000Y18849000D01*
X91334000Y18849000D02*
X85440000Y18849000D01*
X82560000Y18889000D02*
X76647000Y18889000D01*
X91353000Y18889000D02*
X85440000Y18889000D01*
X82560000Y18929000D02*
X76629000Y18929000D01*
X91371000Y18929000D02*
X85440000Y18929000D01*
X82560000Y18969000D02*
X76611000Y18969000D01*
X91389000Y18969000D02*
X85440000Y18969000D01*
X82560000Y19009000D02*
X76594000Y19009000D01*
X91406000Y19009000D02*
X85440000Y19009000D01*
X82560000Y19049000D02*
X76577000Y19049000D01*
X91423000Y19049000D02*
X85440000Y19049000D01*
X82560000Y19089000D02*
X76560000Y19089000D01*
X91440000Y19089000D02*
X85440000Y19089000D01*
X82560000Y19129000D02*
X76543000Y19129000D01*
X91457000Y19129000D02*
X85440000Y19129000D01*
X82560000Y19169000D02*
X76526000Y19169000D01*
X91474000Y19169000D02*
X85440000Y19169000D01*
X82560000Y19209000D02*
X76510000Y19209000D01*
X91490000Y19209000D02*
X85440000Y19209000D01*
X82560000Y19249000D02*
X76494000Y19249000D01*
X91506000Y19249000D02*
X85440000Y19249000D01*
X82560000Y19289000D02*
X76478000Y19289000D01*
X91522000Y19289000D02*
X85440000Y19289000D01*
X82560000Y19329000D02*
X76463000Y19329000D01*
X91537000Y19329000D02*
X85440000Y19329000D01*
X82560000Y19369000D02*
X76447000Y19369000D01*
X91553000Y19369000D02*
X85440000Y19369000D01*
X82560000Y19409000D02*
X76432000Y19409000D01*
X91568000Y19409000D02*
X85440000Y19409000D01*
X82560000Y19449000D02*
X76418000Y19449000D01*
X91582000Y19449000D02*
X85440000Y19449000D01*
X82560000Y19489000D02*
X76403000Y19489000D01*
X91597000Y19489000D02*
X85440000Y19489000D01*
X82560000Y19529000D02*
X76389000Y19529000D01*
X91611000Y19529000D02*
X85440000Y19529000D01*
X82560000Y19569000D02*
X76375000Y19569000D01*
X91625000Y19569000D02*
X85440000Y19569000D01*
X82560000Y19609000D02*
X76361000Y19609000D01*
X91639000Y19609000D02*
X85440000Y19609000D01*
X82560000Y19649000D02*
X76347000Y19649000D01*
X91653000Y19649000D02*
X85440000Y19649000D01*
X82560000Y19689000D02*
X76334000Y19689000D01*
X91666000Y19689000D02*
X85440000Y19689000D01*
X82560000Y19729000D02*
X76320000Y19729000D01*
X91680000Y19729000D02*
X85440000Y19729000D01*
X82560000Y19769000D02*
X76307000Y19769000D01*
X91693000Y19769000D02*
X85440000Y19769000D01*
X82560000Y19809000D02*
X76295000Y19809000D01*
X91705000Y19809000D02*
X85440000Y19809000D01*
X82560000Y19849000D02*
X76282000Y19849000D01*
X91718000Y19849000D02*
X85440000Y19849000D01*
X82560000Y19889000D02*
X76270000Y19889000D01*
X91730000Y19889000D02*
X85440000Y19889000D01*
X82560000Y19929000D02*
X76258000Y19929000D01*
X91742000Y19929000D02*
X85440000Y19929000D01*
X91754000Y19969000D02*
X76246000Y19969000D01*
X91765000Y20009000D02*
X76235000Y20009000D01*
X91777000Y20049000D02*
X76223000Y20049000D01*
X91788000Y20089000D02*
X76212000Y20089000D01*
X91799000Y20129000D02*
X76201000Y20129000D01*
X91810000Y20169000D02*
X76190000Y20169000D01*
X91820000Y20209000D02*
X76180000Y20209000D01*
X91830000Y20249000D02*
X76170000Y20249000D01*
X91840000Y20289000D02*
X76160000Y20289000D01*
X91850000Y20329000D02*
X76150000Y20329000D01*
X91860000Y20369000D02*
X76140000Y20369000D01*
X91869000Y20409000D02*
X76131000Y20409000D01*
X91878000Y20449000D02*
X76122000Y20449000D01*
X91887000Y20489000D02*
X76113000Y20489000D01*
X91896000Y20529000D02*
X76104000Y20529000D01*
X91905000Y20569000D02*
X76095000Y20569000D01*
X91913000Y20609000D02*
X76087000Y20609000D01*
X91921000Y20649000D02*
X76079000Y20649000D01*
X91929000Y20689000D02*
X76071000Y20689000D01*
X91937000Y20729000D02*
X76063000Y20729000D01*
X91944000Y20769000D02*
X76056000Y20769000D01*
X91952000Y20809000D02*
X76048000Y20809000D01*
X91959000Y20849000D02*
X76041000Y20849000D01*
X91966000Y20889000D02*
X76034000Y20889000D01*
X91972000Y20929000D02*
X76028000Y20929000D01*
X91979000Y20969000D02*
X76021000Y20969000D01*
X91985000Y21009000D02*
X76015000Y21009000D01*
X91991000Y21049000D02*
X76009000Y21049000D01*
X91997000Y21089000D02*
X76003000Y21089000D01*
X92003000Y21129000D02*
X75997000Y21129000D01*
X92008000Y21169000D02*
X75992000Y21169000D01*
X92014000Y21209000D02*
X75986000Y21209000D01*
X92019000Y21249000D02*
X75981000Y21249000D01*
X92024000Y21289000D02*
X75976000Y21289000D01*
X92028000Y21329000D02*
X75972000Y21329000D01*
X92033000Y21369000D02*
X75967000Y21369000D01*
X92037000Y21409000D02*
X75963000Y21409000D01*
X92041000Y21449000D02*
X75959000Y21449000D01*
X92045000Y21489000D02*
X75955000Y21489000D01*
X92049000Y21529000D02*
X75951000Y21529000D01*
X92052000Y21570000D02*
X75948000Y21570000D01*
X92055000Y21610000D02*
X75945000Y21610000D01*
X92058000Y21650000D02*
X75942000Y21650000D01*
X92061000Y21690000D02*
X75939000Y21690000D01*
X92064000Y21730000D02*
X75936000Y21730000D01*
X92066000Y21770000D02*
X75934000Y21770000D01*
X92069000Y21810000D02*
X75931000Y21810000D01*
X92071000Y21850000D02*
X75929000Y21850000D01*
X92073000Y21890000D02*
X75927000Y21890000D01*
X92074000Y21930000D02*
X75926000Y21930000D01*
X92076000Y21970000D02*
X75924000Y21970000D01*
X92077000Y22010000D02*
X75923000Y22010000D01*
X92078000Y22050000D02*
X75922000Y22050000D01*
X92079000Y22090000D02*
X75921000Y22090000D01*
X92080000Y22130000D02*
X75920000Y22130000D01*
X92080000Y22170000D02*
X75920000Y22170000D01*
X92080000Y22210000D02*
X75920000Y22210000D01*
X92081000Y22250000D02*
X75919000Y22250000D01*
X92120000Y22250000D02*
G75*
G03X92120000Y22250000I-8120000J0D01*
G01*
G04 #@! TO.C,C27*
X38710000Y17258578D02*
X38710000Y16741422D01*
X37290000Y17258578D02*
X37290000Y16741422D01*
G04 #@! TO.C,optional*
X9319204Y8315112D02*
X9684888Y8680796D01*
X8315112Y9319204D02*
X8680796Y9684888D01*
G04 #@! TO.C,C5*
D11*
X2833333Y19642858D02*
X2785714Y19595239D01*
X2642857Y19547620D01*
X2547619Y19547620D01*
X2404761Y19595239D01*
X2309523Y19690477D01*
X2261904Y19785715D01*
X2214285Y19976191D01*
X2214285Y20119048D01*
X2261904Y20309524D01*
X2309523Y20404762D01*
X2404761Y20500000D01*
X2547619Y20547620D01*
X2642857Y20547620D01*
X2785714Y20500000D01*
X2833333Y20452381D01*
X3738095Y20547620D02*
X3261904Y20547620D01*
X3214285Y20071429D01*
X3261904Y20119048D01*
X3357142Y20166667D01*
X3595238Y20166667D01*
X3690476Y20119048D01*
X3738095Y20071429D01*
X3785714Y19976191D01*
X3785714Y19738096D01*
X3738095Y19642858D01*
X3690476Y19595239D01*
X3595238Y19547620D01*
X3357142Y19547620D01*
X3261904Y19595239D01*
X3214285Y19642858D01*
G04 #@! TO.C,C6*
X63357142Y10833334D02*
X63404761Y10785715D01*
X63452380Y10642858D01*
X63452380Y10547620D01*
X63404761Y10404762D01*
X63309523Y10309524D01*
X63214285Y10261905D01*
X63023809Y10214286D01*
X62880952Y10214286D01*
X62690476Y10261905D01*
X62595238Y10309524D01*
X62500000Y10404762D01*
X62452380Y10547620D01*
X62452380Y10642858D01*
X62500000Y10785715D01*
X62547619Y10833334D01*
X62452380Y11690477D02*
X62452380Y11500000D01*
X62500000Y11404762D01*
X62547619Y11357143D01*
X62690476Y11261905D01*
X62880952Y11214286D01*
X63261904Y11214286D01*
X63357142Y11261905D01*
X63404761Y11309524D01*
X63452380Y11404762D01*
X63452380Y11595239D01*
X63404761Y11690477D01*
X63357142Y11738096D01*
X63261904Y11785715D01*
X63023809Y11785715D01*
X62928571Y11738096D01*
X62880952Y11690477D01*
X62833333Y11595239D01*
X62833333Y11404762D01*
X62880952Y11309524D01*
X62928571Y11261905D01*
X63023809Y11214286D01*
G04 #@! TO.C,C8*
X6707142Y31833334D02*
X6754761Y31785715D01*
X6802380Y31642858D01*
X6802380Y31547620D01*
X6754761Y31404762D01*
X6659523Y31309524D01*
X6564285Y31261905D01*
X6373809Y31214286D01*
X6230952Y31214286D01*
X6040476Y31261905D01*
X5945238Y31309524D01*
X5850000Y31404762D01*
X5802380Y31547620D01*
X5802380Y31642858D01*
X5850000Y31785715D01*
X5897619Y31833334D01*
X6230952Y32404762D02*
X6183333Y32309524D01*
X6135714Y32261905D01*
X6040476Y32214286D01*
X5992857Y32214286D01*
X5897619Y32261905D01*
X5850000Y32309524D01*
X5802380Y32404762D01*
X5802380Y32595239D01*
X5850000Y32690477D01*
X5897619Y32738096D01*
X5992857Y32785715D01*
X6040476Y32785715D01*
X6135714Y32738096D01*
X6183333Y32690477D01*
X6230952Y32595239D01*
X6230952Y32404762D01*
X6278571Y32309524D01*
X6326190Y32261905D01*
X6421428Y32214286D01*
X6611904Y32214286D01*
X6707142Y32261905D01*
X6754761Y32309524D01*
X6802380Y32404762D01*
X6802380Y32595239D01*
X6754761Y32690477D01*
X6707142Y32738096D01*
X6611904Y32785715D01*
X6421428Y32785715D01*
X6326190Y32738096D01*
X6278571Y32690477D01*
X6230952Y32595239D01*
G04 #@! TO.C,C14*
X24007142Y13357143D02*
X24054761Y13309524D01*
X24102380Y13166667D01*
X24102380Y13071429D01*
X24054761Y12928572D01*
X23959523Y12833334D01*
X23864285Y12785715D01*
X23673809Y12738096D01*
X23530952Y12738096D01*
X23340476Y12785715D01*
X23245238Y12833334D01*
X23150000Y12928572D01*
X23102380Y13071429D01*
X23102380Y13166667D01*
X23150000Y13309524D01*
X23197619Y13357143D01*
X24102380Y14309524D02*
X24102380Y13738096D01*
X24102380Y14023810D02*
X23102380Y14023810D01*
X23245238Y13928572D01*
X23340476Y13833334D01*
X23388095Y13738096D01*
X23435714Y15166667D02*
X24102380Y15166667D01*
X23054761Y14928572D02*
X23769047Y14690477D01*
X23769047Y15309524D01*
G04 #@! TO.C,D2*
X67302380Y5261905D02*
X66302380Y5261905D01*
X66302380Y5500000D01*
X66350000Y5642858D01*
X66445238Y5738096D01*
X66540476Y5785715D01*
X66730952Y5833334D01*
X66873809Y5833334D01*
X67064285Y5785715D01*
X67159523Y5738096D01*
X67254761Y5642858D01*
X67302380Y5500000D01*
X67302380Y5261905D01*
X66397619Y6214286D02*
X66350000Y6261905D01*
X66302380Y6357143D01*
X66302380Y6595239D01*
X66350000Y6690477D01*
X66397619Y6738096D01*
X66492857Y6785715D01*
X66588095Y6785715D01*
X66730952Y6738096D01*
X67302380Y6166667D01*
X67302380Y6785715D01*
G04 #@! TO.C,D3*
X58452380Y2261905D02*
X57452380Y2261905D01*
X57452380Y2500000D01*
X57500000Y2642858D01*
X57595238Y2738096D01*
X57690476Y2785715D01*
X57880952Y2833334D01*
X58023809Y2833334D01*
X58214285Y2785715D01*
X58309523Y2738096D01*
X58404761Y2642858D01*
X58452380Y2500000D01*
X58452380Y2261905D01*
X57452380Y3166667D02*
X57452380Y3785715D01*
X57833333Y3452381D01*
X57833333Y3595239D01*
X57880952Y3690477D01*
X57928571Y3738096D01*
X58023809Y3785715D01*
X58261904Y3785715D01*
X58357142Y3738096D01*
X58404761Y3690477D01*
X58452380Y3595239D01*
X58452380Y3309524D01*
X58404761Y3214286D01*
X58357142Y3166667D01*
G04 #@! TO.C,D7*
X13452380Y31261905D02*
X12452380Y31261905D01*
X12452380Y31500000D01*
X12500000Y31642858D01*
X12595238Y31738096D01*
X12690476Y31785715D01*
X12880952Y31833334D01*
X13023809Y31833334D01*
X13214285Y31785715D01*
X13309523Y31738096D01*
X13404761Y31642858D01*
X13452380Y31500000D01*
X13452380Y31261905D01*
X12452380Y32166667D02*
X12452380Y32833334D01*
X13452380Y32404762D01*
G04 #@! TO.C,J1*
X29666666Y10547620D02*
X29666666Y9833334D01*
X29619047Y9690477D01*
X29523809Y9595239D01*
X29380952Y9547620D01*
X29285714Y9547620D01*
X30666666Y9547620D02*
X30095238Y9547620D01*
X30380952Y9547620D02*
X30380952Y10547620D01*
X30285714Y10404762D01*
X30190476Y10309524D01*
X30095238Y10261905D01*
G04 #@! TO.C,J2*
X74706666Y10547620D02*
X74706666Y9833334D01*
X74659047Y9690477D01*
X74563809Y9595239D01*
X74420952Y9547620D01*
X74325714Y9547620D01*
X75135238Y10452381D02*
X75182857Y10500000D01*
X75278095Y10547620D01*
X75516190Y10547620D01*
X75611428Y10500000D01*
X75659047Y10452381D01*
X75706666Y10357143D01*
X75706666Y10261905D01*
X75659047Y10119048D01*
X75087619Y9547620D01*
X75706666Y9547620D01*
G04 #@! TO.C,J3*
X74706666Y56547620D02*
X74706666Y55833334D01*
X74659047Y55690477D01*
X74563809Y55595239D01*
X74420952Y55547620D01*
X74325714Y55547620D01*
X75087619Y56547620D02*
X75706666Y56547620D01*
X75373333Y56166667D01*
X75516190Y56166667D01*
X75611428Y56119048D01*
X75659047Y56071429D01*
X75706666Y55976191D01*
X75706666Y55738096D01*
X75659047Y55642858D01*
X75611428Y55595239D01*
X75516190Y55547620D01*
X75230476Y55547620D01*
X75135238Y55595239D01*
X75087619Y55642858D01*
G04 #@! TO.C,J4*
X29166666Y58547620D02*
X29166666Y57833334D01*
X29119047Y57690477D01*
X29023809Y57595239D01*
X28880952Y57547620D01*
X28785714Y57547620D01*
X30071428Y58214286D02*
X30071428Y57547620D01*
X29833333Y58595239D02*
X29595238Y57880953D01*
X30214285Y57880953D01*
G04 #@! TO.C,R3*
X42833333Y7547620D02*
X42500000Y8023810D01*
X42261904Y7547620D02*
X42261904Y8547620D01*
X42642857Y8547620D01*
X42738095Y8500000D01*
X42785714Y8452381D01*
X42833333Y8357143D01*
X42833333Y8214286D01*
X42785714Y8119048D01*
X42738095Y8071429D01*
X42642857Y8023810D01*
X42261904Y8023810D01*
X43166666Y8547620D02*
X43785714Y8547620D01*
X43452380Y8166667D01*
X43595238Y8166667D01*
X43690476Y8119048D01*
X43738095Y8071429D01*
X43785714Y7976191D01*
X43785714Y7738096D01*
X43738095Y7642858D01*
X43690476Y7595239D01*
X43595238Y7547620D01*
X43309523Y7547620D01*
X43214285Y7595239D01*
X43166666Y7642858D01*
G04 #@! TO.C,R4*
X42833333Y9547620D02*
X42500000Y10023810D01*
X42261904Y9547620D02*
X42261904Y10547620D01*
X42642857Y10547620D01*
X42738095Y10500000D01*
X42785714Y10452381D01*
X42833333Y10357143D01*
X42833333Y10214286D01*
X42785714Y10119048D01*
X42738095Y10071429D01*
X42642857Y10023810D01*
X42261904Y10023810D01*
X43690476Y10214286D02*
X43690476Y9547620D01*
X43452380Y10595239D02*
X43214285Y9880953D01*
X43833333Y9880953D01*
G04 #@! TO.C,R5*
X36452380Y12833334D02*
X35976190Y12500000D01*
X36452380Y12261905D02*
X35452380Y12261905D01*
X35452380Y12642858D01*
X35500000Y12738096D01*
X35547619Y12785715D01*
X35642857Y12833334D01*
X35785714Y12833334D01*
X35880952Y12785715D01*
X35928571Y12738096D01*
X35976190Y12642858D01*
X35976190Y12261905D01*
X35452380Y13738096D02*
X35452380Y13261905D01*
X35928571Y13214286D01*
X35880952Y13261905D01*
X35833333Y13357143D01*
X35833333Y13595239D01*
X35880952Y13690477D01*
X35928571Y13738096D01*
X36023809Y13785715D01*
X36261904Y13785715D01*
X36357142Y13738096D01*
X36404761Y13690477D01*
X36452380Y13595239D01*
X36452380Y13357143D01*
X36404761Y13261905D01*
X36357142Y13214286D01*
G04 #@! TO.C,R6*
X2833333Y13897620D02*
X2500000Y14373810D01*
X2261904Y13897620D02*
X2261904Y14897620D01*
X2642857Y14897620D01*
X2738095Y14850000D01*
X2785714Y14802381D01*
X2833333Y14707143D01*
X2833333Y14564286D01*
X2785714Y14469048D01*
X2738095Y14421429D01*
X2642857Y14373810D01*
X2261904Y14373810D01*
X3690476Y14897620D02*
X3500000Y14897620D01*
X3404761Y14850000D01*
X3357142Y14802381D01*
X3261904Y14659524D01*
X3214285Y14469048D01*
X3214285Y14088096D01*
X3261904Y13992858D01*
X3309523Y13945239D01*
X3404761Y13897620D01*
X3595238Y13897620D01*
X3690476Y13945239D01*
X3738095Y13992858D01*
X3785714Y14088096D01*
X3785714Y14326191D01*
X3738095Y14421429D01*
X3690476Y14469048D01*
X3595238Y14516667D01*
X3404761Y14516667D01*
X3309523Y14469048D01*
X3261904Y14421429D01*
X3214285Y14326191D01*
G04 #@! TO.C,R7*
X26102380Y13833334D02*
X25626190Y13500000D01*
X26102380Y13261905D02*
X25102380Y13261905D01*
X25102380Y13642858D01*
X25150000Y13738096D01*
X25197619Y13785715D01*
X25292857Y13833334D01*
X25435714Y13833334D01*
X25530952Y13785715D01*
X25578571Y13738096D01*
X25626190Y13642858D01*
X25626190Y13261905D01*
X25102380Y14166667D02*
X25102380Y14833334D01*
X26102380Y14404762D01*
G04 #@! TO.C,R10*
X22802380Y17357143D02*
X22326190Y17023810D01*
X22802380Y16785715D02*
X21802380Y16785715D01*
X21802380Y17166667D01*
X21850000Y17261905D01*
X21897619Y17309524D01*
X21992857Y17357143D01*
X22135714Y17357143D01*
X22230952Y17309524D01*
X22278571Y17261905D01*
X22326190Y17166667D01*
X22326190Y16785715D01*
X22802380Y18309524D02*
X22802380Y17738096D01*
X22802380Y18023810D02*
X21802380Y18023810D01*
X21945238Y17928572D01*
X22040476Y17833334D01*
X22088095Y17738096D01*
X21802380Y18928572D02*
X21802380Y19023810D01*
X21850000Y19119048D01*
X21897619Y19166667D01*
X21992857Y19214286D01*
X22183333Y19261905D01*
X22421428Y19261905D01*
X22611904Y19214286D01*
X22707142Y19166667D01*
X22754761Y19119048D01*
X22802380Y19023810D01*
X22802380Y18928572D01*
X22754761Y18833334D01*
X22707142Y18785715D01*
X22611904Y18738096D01*
X22421428Y18690477D01*
X22183333Y18690477D01*
X21992857Y18738096D01*
X21897619Y18785715D01*
X21850000Y18833334D01*
X21802380Y18928572D01*
G04 #@! TO.C,R11*
X12102380Y31357143D02*
X11626190Y31023810D01*
X12102380Y30785715D02*
X11102380Y30785715D01*
X11102380Y31166667D01*
X11150000Y31261905D01*
X11197619Y31309524D01*
X11292857Y31357143D01*
X11435714Y31357143D01*
X11530952Y31309524D01*
X11578571Y31261905D01*
X11626190Y31166667D01*
X11626190Y30785715D01*
X12102380Y32309524D02*
X12102380Y31738096D01*
X12102380Y32023810D02*
X11102380Y32023810D01*
X11245238Y31928572D01*
X11340476Y31833334D01*
X11388095Y31738096D01*
X12102380Y33261905D02*
X12102380Y32690477D01*
X12102380Y32976191D02*
X11102380Y32976191D01*
X11245238Y32880953D01*
X11340476Y32785715D01*
X11388095Y32690477D01*
G04 #@! TO.C,R12*
X34452380Y28357143D02*
X33976190Y28023810D01*
X34452380Y27785715D02*
X33452380Y27785715D01*
X33452380Y28166667D01*
X33500000Y28261905D01*
X33547619Y28309524D01*
X33642857Y28357143D01*
X33785714Y28357143D01*
X33880952Y28309524D01*
X33928571Y28261905D01*
X33976190Y28166667D01*
X33976190Y27785715D01*
X34452380Y29309524D02*
X34452380Y28738096D01*
X34452380Y29023810D02*
X33452380Y29023810D01*
X33595238Y28928572D01*
X33690476Y28833334D01*
X33738095Y28738096D01*
X33547619Y29690477D02*
X33500000Y29738096D01*
X33452380Y29833334D01*
X33452380Y30071429D01*
X33500000Y30166667D01*
X33547619Y30214286D01*
X33642857Y30261905D01*
X33738095Y30261905D01*
X33880952Y30214286D01*
X34452380Y29642858D01*
X34452380Y30261905D01*
G04 #@! TO.C,R13*
X11452380Y39357143D02*
X10976190Y39023810D01*
X11452380Y38785715D02*
X10452380Y38785715D01*
X10452380Y39166667D01*
X10500000Y39261905D01*
X10547619Y39309524D01*
X10642857Y39357143D01*
X10785714Y39357143D01*
X10880952Y39309524D01*
X10928571Y39261905D01*
X10976190Y39166667D01*
X10976190Y38785715D01*
X11452380Y40309524D02*
X11452380Y39738096D01*
X11452380Y40023810D02*
X10452380Y40023810D01*
X10595238Y39928572D01*
X10690476Y39833334D01*
X10738095Y39738096D01*
X10452380Y40642858D02*
X10452380Y41261905D01*
X10833333Y40928572D01*
X10833333Y41071429D01*
X10880952Y41166667D01*
X10928571Y41214286D01*
X11023809Y41261905D01*
X11261904Y41261905D01*
X11357142Y41214286D01*
X11404761Y41166667D01*
X11452380Y41071429D01*
X11452380Y40785715D01*
X11404761Y40690477D01*
X11357142Y40642858D01*
G04 #@! TO.C,R14*
X27452380Y35357143D02*
X26976190Y35023810D01*
X27452380Y34785715D02*
X26452380Y34785715D01*
X26452380Y35166667D01*
X26500000Y35261905D01*
X26547619Y35309524D01*
X26642857Y35357143D01*
X26785714Y35357143D01*
X26880952Y35309524D01*
X26928571Y35261905D01*
X26976190Y35166667D01*
X26976190Y34785715D01*
X27452380Y36309524D02*
X27452380Y35738096D01*
X27452380Y36023810D02*
X26452380Y36023810D01*
X26595238Y35928572D01*
X26690476Y35833334D01*
X26738095Y35738096D01*
X26785714Y37166667D02*
X27452380Y37166667D01*
X26404761Y36928572D02*
X27119047Y36690477D01*
X27119047Y37309524D01*
G04 #@! TO.C,R15*
X35452380Y39357143D02*
X34976190Y39023810D01*
X35452380Y38785715D02*
X34452380Y38785715D01*
X34452380Y39166667D01*
X34500000Y39261905D01*
X34547619Y39309524D01*
X34642857Y39357143D01*
X34785714Y39357143D01*
X34880952Y39309524D01*
X34928571Y39261905D01*
X34976190Y39166667D01*
X34976190Y38785715D01*
X35452380Y40309524D02*
X35452380Y39738096D01*
X35452380Y40023810D02*
X34452380Y40023810D01*
X34595238Y39928572D01*
X34690476Y39833334D01*
X34738095Y39738096D01*
X34452380Y41214286D02*
X34452380Y40738096D01*
X34928571Y40690477D01*
X34880952Y40738096D01*
X34833333Y40833334D01*
X34833333Y41071429D01*
X34880952Y41166667D01*
X34928571Y41214286D01*
X35023809Y41261905D01*
X35261904Y41261905D01*
X35357142Y41214286D01*
X35404761Y41166667D01*
X35452380Y41071429D01*
X35452380Y40833334D01*
X35404761Y40738096D01*
X35357142Y40690477D01*
G04 #@! TO.C,RV1*
X15944761Y10547620D02*
X15611428Y11023810D01*
X15373333Y10547620D02*
X15373333Y11547620D01*
X15754285Y11547620D01*
X15849523Y11500000D01*
X15897142Y11452381D01*
X15944761Y11357143D01*
X15944761Y11214286D01*
X15897142Y11119048D01*
X15849523Y11071429D01*
X15754285Y11023810D01*
X15373333Y11023810D01*
X16230476Y11547620D02*
X16563809Y10547620D01*
X16897142Y11547620D01*
X17754285Y10547620D02*
X17182857Y10547620D01*
X17468571Y10547620D02*
X17468571Y11547620D01*
X17373333Y11404762D01*
X17278095Y11309524D01*
X17182857Y11261905D01*
G04 #@! TO.C,C3*
X9833333Y642858D02*
X9785714Y595239D01*
X9642857Y547620D01*
X9547619Y547620D01*
X9404761Y595239D01*
X9309523Y690477D01*
X9261904Y785715D01*
X9214285Y976191D01*
X9214285Y1119048D01*
X9261904Y1309524D01*
X9309523Y1404762D01*
X9404761Y1500000D01*
X9547619Y1547620D01*
X9642857Y1547620D01*
X9785714Y1500000D01*
X9833333Y1452381D01*
X10166666Y1547620D02*
X10785714Y1547620D01*
X10452380Y1166667D01*
X10595238Y1166667D01*
X10690476Y1119048D01*
X10738095Y1071429D01*
X10785714Y976191D01*
X10785714Y738096D01*
X10738095Y642858D01*
X10690476Y595239D01*
X10595238Y547620D01*
X10309523Y547620D01*
X10214285Y595239D01*
X10166666Y642858D01*
G04 #@! TO.C,C16*
X5607142Y36357143D02*
X5654761Y36309524D01*
X5702380Y36166667D01*
X5702380Y36071429D01*
X5654761Y35928572D01*
X5559523Y35833334D01*
X5464285Y35785715D01*
X5273809Y35738096D01*
X5130952Y35738096D01*
X4940476Y35785715D01*
X4845238Y35833334D01*
X4750000Y35928572D01*
X4702380Y36071429D01*
X4702380Y36166667D01*
X4750000Y36309524D01*
X4797619Y36357143D01*
X5702380Y37309524D02*
X5702380Y36738096D01*
X5702380Y37023810D02*
X4702380Y37023810D01*
X4845238Y36928572D01*
X4940476Y36833334D01*
X4988095Y36738096D01*
X4702380Y38166667D02*
X4702380Y37976191D01*
X4750000Y37880953D01*
X4797619Y37833334D01*
X4940476Y37738096D01*
X5130952Y37690477D01*
X5511904Y37690477D01*
X5607142Y37738096D01*
X5654761Y37785715D01*
X5702380Y37880953D01*
X5702380Y38071429D01*
X5654761Y38166667D01*
X5607142Y38214286D01*
X5511904Y38261905D01*
X5273809Y38261905D01*
X5178571Y38214286D01*
X5130952Y38166667D01*
X5083333Y38071429D01*
X5083333Y37880953D01*
X5130952Y37785715D01*
X5178571Y37738096D01*
X5273809Y37690477D01*
G04 #@! TO.C,D8*
X37452380Y31261905D02*
X36452380Y31261905D01*
X36452380Y31500000D01*
X36500000Y31642858D01*
X36595238Y31738096D01*
X36690476Y31785715D01*
X36880952Y31833334D01*
X37023809Y31833334D01*
X37214285Y31785715D01*
X37309523Y31738096D01*
X37404761Y31642858D01*
X37452380Y31500000D01*
X37452380Y31261905D01*
X36880952Y32404762D02*
X36833333Y32309524D01*
X36785714Y32261905D01*
X36690476Y32214286D01*
X36642857Y32214286D01*
X36547619Y32261905D01*
X36500000Y32309524D01*
X36452380Y32404762D01*
X36452380Y32595239D01*
X36500000Y32690477D01*
X36547619Y32738096D01*
X36642857Y32785715D01*
X36690476Y32785715D01*
X36785714Y32738096D01*
X36833333Y32690477D01*
X36880952Y32595239D01*
X36880952Y32404762D01*
X36928571Y32309524D01*
X36976190Y32261905D01*
X37071428Y32214286D01*
X37261904Y32214286D01*
X37357142Y32261905D01*
X37404761Y32309524D01*
X37452380Y32404762D01*
X37452380Y32595239D01*
X37404761Y32690477D01*
X37357142Y32738096D01*
X37261904Y32785715D01*
X37071428Y32785715D01*
X36976190Y32738096D01*
X36928571Y32690477D01*
X36880952Y32595239D01*
G04 #@! TO.C,R16*
X53102380Y38357143D02*
X52626190Y38023810D01*
X53102380Y37785715D02*
X52102380Y37785715D01*
X52102380Y38166667D01*
X52150000Y38261905D01*
X52197619Y38309524D01*
X52292857Y38357143D01*
X52435714Y38357143D01*
X52530952Y38309524D01*
X52578571Y38261905D01*
X52626190Y38166667D01*
X52626190Y37785715D01*
X53102380Y39309524D02*
X53102380Y38738096D01*
X53102380Y39023810D02*
X52102380Y39023810D01*
X52245238Y38928572D01*
X52340476Y38833334D01*
X52388095Y38738096D01*
X52102380Y40166667D02*
X52102380Y39976191D01*
X52150000Y39880953D01*
X52197619Y39833334D01*
X52340476Y39738096D01*
X52530952Y39690477D01*
X52911904Y39690477D01*
X53007142Y39738096D01*
X53054761Y39785715D01*
X53102380Y39880953D01*
X53102380Y40071429D01*
X53054761Y40166667D01*
X53007142Y40214286D01*
X52911904Y40261905D01*
X52673809Y40261905D01*
X52578571Y40214286D01*
X52530952Y40166667D01*
X52483333Y40071429D01*
X52483333Y39880953D01*
X52530952Y39785715D01*
X52578571Y39738096D01*
X52673809Y39690477D01*
G04 #@! TO.C,C2*
X43833333Y642858D02*
X43785714Y595239D01*
X43642857Y547620D01*
X43547619Y547620D01*
X43404761Y595239D01*
X43309523Y690477D01*
X43261904Y785715D01*
X43214285Y976191D01*
X43214285Y1119048D01*
X43261904Y1309524D01*
X43309523Y1404762D01*
X43404761Y1500000D01*
X43547619Y1547620D01*
X43642857Y1547620D01*
X43785714Y1500000D01*
X43833333Y1452381D01*
X44214285Y1452381D02*
X44261904Y1500000D01*
X44357142Y1547620D01*
X44595238Y1547620D01*
X44690476Y1500000D01*
X44738095Y1452381D01*
X44785714Y1357143D01*
X44785714Y1261905D01*
X44738095Y1119048D01*
X44166666Y547620D01*
X44785714Y547620D01*
G04 #@! TO.C,C4*
X23833333Y642858D02*
X23785714Y595239D01*
X23642857Y547620D01*
X23547619Y547620D01*
X23404761Y595239D01*
X23309523Y690477D01*
X23261904Y785715D01*
X23214285Y976191D01*
X23214285Y1119048D01*
X23261904Y1309524D01*
X23309523Y1404762D01*
X23404761Y1500000D01*
X23547619Y1547620D01*
X23642857Y1547620D01*
X23785714Y1500000D01*
X23833333Y1452381D01*
X24690476Y1214286D02*
X24690476Y547620D01*
X24452380Y1595239D02*
X24214285Y880953D01*
X24833333Y880953D01*
G04 #@! TO.C,C7*
X32833333Y23642858D02*
X32785714Y23595239D01*
X32642857Y23547620D01*
X32547619Y23547620D01*
X32404761Y23595239D01*
X32309523Y23690477D01*
X32261904Y23785715D01*
X32214285Y23976191D01*
X32214285Y24119048D01*
X32261904Y24309524D01*
X32309523Y24404762D01*
X32404761Y24500000D01*
X32547619Y24547620D01*
X32642857Y24547620D01*
X32785714Y24500000D01*
X32833333Y24452381D01*
X33166666Y24547620D02*
X33833333Y24547620D01*
X33404761Y23547620D01*
G04 #@! TO.C,C10*
X22107142Y17357143D02*
X22154761Y17309524D01*
X22202380Y17166667D01*
X22202380Y17071429D01*
X22154761Y16928572D01*
X22059523Y16833334D01*
X21964285Y16785715D01*
X21773809Y16738096D01*
X21630952Y16738096D01*
X21440476Y16785715D01*
X21345238Y16833334D01*
X21250000Y16928572D01*
X21202380Y17071429D01*
X21202380Y17166667D01*
X21250000Y17309524D01*
X21297619Y17357143D01*
X22202380Y18309524D02*
X22202380Y17738096D01*
X22202380Y18023810D02*
X21202380Y18023810D01*
X21345238Y17928572D01*
X21440476Y17833334D01*
X21488095Y17738096D01*
X21202380Y18928572D02*
X21202380Y19023810D01*
X21250000Y19119048D01*
X21297619Y19166667D01*
X21392857Y19214286D01*
X21583333Y19261905D01*
X21821428Y19261905D01*
X22011904Y19214286D01*
X22107142Y19166667D01*
X22154761Y19119048D01*
X22202380Y19023810D01*
X22202380Y18928572D01*
X22154761Y18833334D01*
X22107142Y18785715D01*
X22011904Y18738096D01*
X21821428Y18690477D01*
X21583333Y18690477D01*
X21392857Y18738096D01*
X21297619Y18785715D01*
X21250000Y18833334D01*
X21202380Y18928572D01*
G04 #@! TO.C,C11*
X60357142Y3357143D02*
X60404761Y3309524D01*
X60452380Y3166667D01*
X60452380Y3071429D01*
X60404761Y2928572D01*
X60309523Y2833334D01*
X60214285Y2785715D01*
X60023809Y2738096D01*
X59880952Y2738096D01*
X59690476Y2785715D01*
X59595238Y2833334D01*
X59500000Y2928572D01*
X59452380Y3071429D01*
X59452380Y3166667D01*
X59500000Y3309524D01*
X59547619Y3357143D01*
X60452380Y4309524D02*
X60452380Y3738096D01*
X60452380Y4023810D02*
X59452380Y4023810D01*
X59595238Y3928572D01*
X59690476Y3833334D01*
X59738095Y3738096D01*
X60452380Y5261905D02*
X60452380Y4690477D01*
X60452380Y4976191D02*
X59452380Y4976191D01*
X59595238Y4880953D01*
X59690476Y4785715D01*
X59738095Y4690477D01*
G04 #@! TO.C,C15*
X15857142Y24992858D02*
X15809523Y24945239D01*
X15666666Y24897620D01*
X15571428Y24897620D01*
X15428571Y24945239D01*
X15333333Y25040477D01*
X15285714Y25135715D01*
X15238095Y25326191D01*
X15238095Y25469048D01*
X15285714Y25659524D01*
X15333333Y25754762D01*
X15428571Y25850000D01*
X15571428Y25897620D01*
X15666666Y25897620D01*
X15809523Y25850000D01*
X15857142Y25802381D01*
X16809523Y24897620D02*
X16238095Y24897620D01*
X16523809Y24897620D02*
X16523809Y25897620D01*
X16428571Y25754762D01*
X16333333Y25659524D01*
X16238095Y25611905D01*
X17714285Y25897620D02*
X17238095Y25897620D01*
X17190476Y25421429D01*
X17238095Y25469048D01*
X17333333Y25516667D01*
X17571428Y25516667D01*
X17666666Y25469048D01*
X17714285Y25421429D01*
X17761904Y25326191D01*
X17761904Y25088096D01*
X17714285Y24992858D01*
X17666666Y24945239D01*
X17571428Y24897620D01*
X17333333Y24897620D01*
X17238095Y24945239D01*
X17190476Y24992858D01*
G04 #@! TO.C,C17*
X29607142Y36357143D02*
X29654761Y36309524D01*
X29702380Y36166667D01*
X29702380Y36071429D01*
X29654761Y35928572D01*
X29559523Y35833334D01*
X29464285Y35785715D01*
X29273809Y35738096D01*
X29130952Y35738096D01*
X28940476Y35785715D01*
X28845238Y35833334D01*
X28750000Y35928572D01*
X28702380Y36071429D01*
X28702380Y36166667D01*
X28750000Y36309524D01*
X28797619Y36357143D01*
X29702380Y37309524D02*
X29702380Y36738096D01*
X29702380Y37023810D02*
X28702380Y37023810D01*
X28845238Y36928572D01*
X28940476Y36833334D01*
X28988095Y36738096D01*
X28702380Y37642858D02*
X28702380Y38309524D01*
X29702380Y37880953D01*
G04 #@! TO.C,C18*
X83357142Y40642858D02*
X83309523Y40595239D01*
X83166666Y40547620D01*
X83071428Y40547620D01*
X82928571Y40595239D01*
X82833333Y40690477D01*
X82785714Y40785715D01*
X82738095Y40976191D01*
X82738095Y41119048D01*
X82785714Y41309524D01*
X82833333Y41404762D01*
X82928571Y41500000D01*
X83071428Y41547620D01*
X83166666Y41547620D01*
X83309523Y41500000D01*
X83357142Y41452381D01*
X84309523Y40547620D02*
X83738095Y40547620D01*
X84023809Y40547620D02*
X84023809Y41547620D01*
X83928571Y41404762D01*
X83833333Y41309524D01*
X83738095Y41261905D01*
X84880952Y41119048D02*
X84785714Y41166667D01*
X84738095Y41214286D01*
X84690476Y41309524D01*
X84690476Y41357143D01*
X84738095Y41452381D01*
X84785714Y41500000D01*
X84880952Y41547620D01*
X85071428Y41547620D01*
X85166666Y41500000D01*
X85214285Y41452381D01*
X85261904Y41357143D01*
X85261904Y41309524D01*
X85214285Y41214286D01*
X85166666Y41166667D01*
X85071428Y41119048D01*
X84880952Y41119048D01*
X84785714Y41071429D01*
X84738095Y41023810D01*
X84690476Y40928572D01*
X84690476Y40738096D01*
X84738095Y40642858D01*
X84785714Y40595239D01*
X84880952Y40547620D01*
X85071428Y40547620D01*
X85166666Y40595239D01*
X85214285Y40642858D01*
X85261904Y40738096D01*
X85261904Y40928572D01*
X85214285Y41023810D01*
X85166666Y41071429D01*
X85071428Y41119048D01*
G04 #@! TO.C,C19*
X30357142Y48357143D02*
X30404761Y48309524D01*
X30452380Y48166667D01*
X30452380Y48071429D01*
X30404761Y47928572D01*
X30309523Y47833334D01*
X30214285Y47785715D01*
X30023809Y47738096D01*
X29880952Y47738096D01*
X29690476Y47785715D01*
X29595238Y47833334D01*
X29500000Y47928572D01*
X29452380Y48071429D01*
X29452380Y48166667D01*
X29500000Y48309524D01*
X29547619Y48357143D01*
X30452380Y49309524D02*
X30452380Y48738096D01*
X30452380Y49023810D02*
X29452380Y49023810D01*
X29595238Y48928572D01*
X29690476Y48833334D01*
X29738095Y48738096D01*
X30452380Y49785715D02*
X30452380Y49976191D01*
X30404761Y50071429D01*
X30357142Y50119048D01*
X30214285Y50214286D01*
X30023809Y50261905D01*
X29642857Y50261905D01*
X29547619Y50214286D01*
X29500000Y50166667D01*
X29452380Y50071429D01*
X29452380Y49880953D01*
X29500000Y49785715D01*
X29547619Y49738096D01*
X29642857Y49690477D01*
X29880952Y49690477D01*
X29976190Y49738096D01*
X30023809Y49785715D01*
X30071428Y49880953D01*
X30071428Y50071429D01*
X30023809Y50166667D01*
X29976190Y50214286D01*
X29880952Y50261905D01*
G04 #@! TO.C,C20*
X65357142Y40642858D02*
X65309523Y40595239D01*
X65166666Y40547620D01*
X65071428Y40547620D01*
X64928571Y40595239D01*
X64833333Y40690477D01*
X64785714Y40785715D01*
X64738095Y40976191D01*
X64738095Y41119048D01*
X64785714Y41309524D01*
X64833333Y41404762D01*
X64928571Y41500000D01*
X65071428Y41547620D01*
X65166666Y41547620D01*
X65309523Y41500000D01*
X65357142Y41452381D01*
X65738095Y41452381D02*
X65785714Y41500000D01*
X65880952Y41547620D01*
X66119047Y41547620D01*
X66214285Y41500000D01*
X66261904Y41452381D01*
X66309523Y41357143D01*
X66309523Y41261905D01*
X66261904Y41119048D01*
X65690476Y40547620D01*
X66309523Y40547620D01*
X66928571Y41547620D02*
X67023809Y41547620D01*
X67119047Y41500000D01*
X67166666Y41452381D01*
X67214285Y41357143D01*
X67261904Y41166667D01*
X67261904Y40928572D01*
X67214285Y40738096D01*
X67166666Y40642858D01*
X67119047Y40595239D01*
X67023809Y40547620D01*
X66928571Y40547620D01*
X66833333Y40595239D01*
X66785714Y40642858D01*
X66738095Y40738096D01*
X66690476Y40928572D01*
X66690476Y41166667D01*
X66738095Y41357143D01*
X66785714Y41452381D01*
X66833333Y41500000D01*
X66928571Y41547620D01*
G04 #@! TO.C,D9*
X51452380Y11261905D02*
X50452380Y11261905D01*
X50452380Y11500000D01*
X50500000Y11642858D01*
X50595238Y11738096D01*
X50690476Y11785715D01*
X50880952Y11833334D01*
X51023809Y11833334D01*
X51214285Y11785715D01*
X51309523Y11738096D01*
X51404761Y11642858D01*
X51452380Y11500000D01*
X51452380Y11261905D01*
X51452380Y12309524D02*
X51452380Y12500000D01*
X51404761Y12595239D01*
X51357142Y12642858D01*
X51214285Y12738096D01*
X51023809Y12785715D01*
X50642857Y12785715D01*
X50547619Y12738096D01*
X50500000Y12690477D01*
X50452380Y12595239D01*
X50452380Y12404762D01*
X50500000Y12309524D01*
X50547619Y12261905D01*
X50642857Y12214286D01*
X50880952Y12214286D01*
X50976190Y12261905D01*
X51023809Y12309524D01*
X51071428Y12404762D01*
X51071428Y12595239D01*
X51023809Y12690477D01*
X50976190Y12738096D01*
X50880952Y12785715D01*
G04 #@! TO.C,L1*
X17833333Y51547620D02*
X17357142Y51547620D01*
X17357142Y52547620D01*
X18690476Y51547620D02*
X18119047Y51547620D01*
X18404761Y51547620D02*
X18404761Y52547620D01*
X18309523Y52404762D01*
X18214285Y52309524D01*
X18119047Y52261905D01*
G04 #@! TO.C,L2*
X41833333Y51547620D02*
X41357142Y51547620D01*
X41357142Y52547620D01*
X42119047Y52452381D02*
X42166666Y52500000D01*
X42261904Y52547620D01*
X42500000Y52547620D01*
X42595238Y52500000D01*
X42642857Y52452381D01*
X42690476Y52357143D01*
X42690476Y52261905D01*
X42642857Y52119048D01*
X42071428Y51547620D01*
X42690476Y51547620D01*
G04 #@! TO.C,R17*
X51452380Y15294643D02*
X50976190Y14961310D01*
X51452380Y14723215D02*
X50452380Y14723215D01*
X50452380Y15104167D01*
X50500000Y15199405D01*
X50547619Y15247024D01*
X50642857Y15294643D01*
X50785714Y15294643D01*
X50880952Y15247024D01*
X50928571Y15199405D01*
X50976190Y15104167D01*
X50976190Y14723215D01*
X51452380Y16247024D02*
X51452380Y15675596D01*
X51452380Y15961310D02*
X50452380Y15961310D01*
X50595238Y15866072D01*
X50690476Y15770834D01*
X50738095Y15675596D01*
X50452380Y16580358D02*
X50452380Y17247024D01*
X51452380Y16818453D01*
G04 #@! TO.C,U1*
X41238095Y15547620D02*
X41238095Y14738096D01*
X41285714Y14642858D01*
X41333333Y14595239D01*
X41428571Y14547620D01*
X41619047Y14547620D01*
X41714285Y14595239D01*
X41761904Y14642858D01*
X41809523Y14738096D01*
X41809523Y15547620D01*
X42809523Y14547620D02*
X42238095Y14547620D01*
X42523809Y14547620D02*
X42523809Y15547620D01*
X42428571Y15404762D01*
X42333333Y15309524D01*
X42238095Y15261905D01*
G04 #@! TO.C,U2*
X9238095Y18547620D02*
X9238095Y17738096D01*
X9285714Y17642858D01*
X9333333Y17595239D01*
X9428571Y17547620D01*
X9619047Y17547620D01*
X9714285Y17595239D01*
X9761904Y17642858D01*
X9809523Y17738096D01*
X9809523Y18547620D01*
X10238095Y18452381D02*
X10285714Y18500000D01*
X10380952Y18547620D01*
X10619047Y18547620D01*
X10714285Y18500000D01*
X10761904Y18452381D01*
X10809523Y18357143D01*
X10809523Y18261905D01*
X10761904Y18119048D01*
X10190476Y17547620D01*
X10809523Y17547620D01*
G04 #@! TO.C,U4*
X24172380Y15238096D02*
X24981904Y15238096D01*
X25077142Y15285715D01*
X25124761Y15333334D01*
X25172380Y15428572D01*
X25172380Y15619048D01*
X25124761Y15714286D01*
X25077142Y15761905D01*
X24981904Y15809524D01*
X24172380Y15809524D01*
X24505714Y16714286D02*
X25172380Y16714286D01*
X24124761Y16476191D02*
X24839047Y16238096D01*
X24839047Y16857143D01*
G04 #@! TO.C,U6*
X19238095Y35047620D02*
X19238095Y34238096D01*
X19285714Y34142858D01*
X19333333Y34095239D01*
X19428571Y34047620D01*
X19619047Y34047620D01*
X19714285Y34095239D01*
X19761904Y34142858D01*
X19809523Y34238096D01*
X19809523Y35047620D01*
X20714285Y35047620D02*
X20523809Y35047620D01*
X20428571Y35000000D01*
X20380952Y34952381D01*
X20285714Y34809524D01*
X20238095Y34619048D01*
X20238095Y34238096D01*
X20285714Y34142858D01*
X20333333Y34095239D01*
X20428571Y34047620D01*
X20619047Y34047620D01*
X20714285Y34095239D01*
X20761904Y34142858D01*
X20809523Y34238096D01*
X20809523Y34476191D01*
X20761904Y34571429D01*
X20714285Y34619048D01*
X20619047Y34666667D01*
X20428571Y34666667D01*
X20333333Y34619048D01*
X20285714Y34571429D01*
X20238095Y34476191D01*
G04 #@! TO.C,U7*
X43238095Y35047620D02*
X43238095Y34238096D01*
X43285714Y34142858D01*
X43333333Y34095239D01*
X43428571Y34047620D01*
X43619047Y34047620D01*
X43714285Y34095239D01*
X43761904Y34142858D01*
X43809523Y34238096D01*
X43809523Y35047620D01*
X44190476Y35047620D02*
X44857142Y35047620D01*
X44428571Y34047620D01*
G04 #@! TO.C,C23*
X30707142Y31357143D02*
X30754761Y31309524D01*
X30802380Y31166667D01*
X30802380Y31071429D01*
X30754761Y30928572D01*
X30659523Y30833334D01*
X30564285Y30785715D01*
X30373809Y30738096D01*
X30230952Y30738096D01*
X30040476Y30785715D01*
X29945238Y30833334D01*
X29850000Y30928572D01*
X29802380Y31071429D01*
X29802380Y31166667D01*
X29850000Y31309524D01*
X29897619Y31357143D01*
X29897619Y31738096D02*
X29850000Y31785715D01*
X29802380Y31880953D01*
X29802380Y32119048D01*
X29850000Y32214286D01*
X29897619Y32261905D01*
X29992857Y32309524D01*
X30088095Y32309524D01*
X30230952Y32261905D01*
X30802380Y31690477D01*
X30802380Y32309524D01*
X29802380Y32642858D02*
X29802380Y33261905D01*
X30183333Y32928572D01*
X30183333Y33071429D01*
X30230952Y33166667D01*
X30278571Y33214286D01*
X30373809Y33261905D01*
X30611904Y33261905D01*
X30707142Y33214286D01*
X30754761Y33166667D01*
X30802380Y33071429D01*
X30802380Y32785715D01*
X30754761Y32690477D01*
X30707142Y32642858D01*
G04 #@! TO.C,C24*
X39857142Y24992858D02*
X39809523Y24945239D01*
X39666666Y24897620D01*
X39571428Y24897620D01*
X39428571Y24945239D01*
X39333333Y25040477D01*
X39285714Y25135715D01*
X39238095Y25326191D01*
X39238095Y25469048D01*
X39285714Y25659524D01*
X39333333Y25754762D01*
X39428571Y25850000D01*
X39571428Y25897620D01*
X39666666Y25897620D01*
X39809523Y25850000D01*
X39857142Y25802381D01*
X40238095Y25802381D02*
X40285714Y25850000D01*
X40380952Y25897620D01*
X40619047Y25897620D01*
X40714285Y25850000D01*
X40761904Y25802381D01*
X40809523Y25707143D01*
X40809523Y25611905D01*
X40761904Y25469048D01*
X40190476Y24897620D01*
X40809523Y24897620D01*
X41666666Y25564286D02*
X41666666Y24897620D01*
X41428571Y25945239D02*
X41190476Y25230953D01*
X41809523Y25230953D01*
G04 #@! TO.C,D10*
X20602380Y16785715D02*
X19602380Y16785715D01*
X19602380Y17023810D01*
X19650000Y17166667D01*
X19745238Y17261905D01*
X19840476Y17309524D01*
X20030952Y17357143D01*
X20173809Y17357143D01*
X20364285Y17309524D01*
X20459523Y17261905D01*
X20554761Y17166667D01*
X20602380Y17023810D01*
X20602380Y16785715D01*
X20602380Y18309524D02*
X20602380Y17738096D01*
X20602380Y18023810D02*
X19602380Y18023810D01*
X19745238Y17928572D01*
X19840476Y17833334D01*
X19888095Y17738096D01*
X19602380Y18928572D02*
X19602380Y19023810D01*
X19650000Y19119048D01*
X19697619Y19166667D01*
X19792857Y19214286D01*
X19983333Y19261905D01*
X20221428Y19261905D01*
X20411904Y19214286D01*
X20507142Y19166667D01*
X20554761Y19119048D01*
X20602380Y19023810D01*
X20602380Y18928572D01*
X20554761Y18833334D01*
X20507142Y18785715D01*
X20411904Y18738096D01*
X20221428Y18690477D01*
X19983333Y18690477D01*
X19792857Y18738096D01*
X19697619Y18785715D01*
X19650000Y18833334D01*
X19602380Y18928572D01*
G04 #@! TO.C,C25*
X65357142Y22642858D02*
X65309523Y22595239D01*
X65166666Y22547620D01*
X65071428Y22547620D01*
X64928571Y22595239D01*
X64833333Y22690477D01*
X64785714Y22785715D01*
X64738095Y22976191D01*
X64738095Y23119048D01*
X64785714Y23309524D01*
X64833333Y23404762D01*
X64928571Y23500000D01*
X65071428Y23547620D01*
X65166666Y23547620D01*
X65309523Y23500000D01*
X65357142Y23452381D01*
X65738095Y23452381D02*
X65785714Y23500000D01*
X65880952Y23547620D01*
X66119047Y23547620D01*
X66214285Y23500000D01*
X66261904Y23452381D01*
X66309523Y23357143D01*
X66309523Y23261905D01*
X66261904Y23119048D01*
X65690476Y22547620D01*
X66309523Y22547620D01*
X67214285Y23547620D02*
X66738095Y23547620D01*
X66690476Y23071429D01*
X66738095Y23119048D01*
X66833333Y23166667D01*
X67071428Y23166667D01*
X67166666Y23119048D01*
X67214285Y23071429D01*
X67261904Y22976191D01*
X67261904Y22738096D01*
X67214285Y22642858D01*
X67166666Y22595239D01*
X67071428Y22547620D01*
X66833333Y22547620D01*
X66738095Y22595239D01*
X66690476Y22642858D01*
G04 #@! TO.C,C26*
X83357142Y22642858D02*
X83309523Y22595239D01*
X83166666Y22547620D01*
X83071428Y22547620D01*
X82928571Y22595239D01*
X82833333Y22690477D01*
X82785714Y22785715D01*
X82738095Y22976191D01*
X82738095Y23119048D01*
X82785714Y23309524D01*
X82833333Y23404762D01*
X82928571Y23500000D01*
X83071428Y23547620D01*
X83166666Y23547620D01*
X83309523Y23500000D01*
X83357142Y23452381D01*
X83738095Y23452381D02*
X83785714Y23500000D01*
X83880952Y23547620D01*
X84119047Y23547620D01*
X84214285Y23500000D01*
X84261904Y23452381D01*
X84309523Y23357143D01*
X84309523Y23261905D01*
X84261904Y23119048D01*
X83690476Y22547620D01*
X84309523Y22547620D01*
X85166666Y23547620D02*
X84976190Y23547620D01*
X84880952Y23500000D01*
X84833333Y23452381D01*
X84738095Y23309524D01*
X84690476Y23119048D01*
X84690476Y22738096D01*
X84738095Y22642858D01*
X84785714Y22595239D01*
X84880952Y22547620D01*
X85071428Y22547620D01*
X85166666Y22595239D01*
X85214285Y22642858D01*
X85261904Y22738096D01*
X85261904Y22976191D01*
X85214285Y23071429D01*
X85166666Y23119048D01*
X85071428Y23166667D01*
X84880952Y23166667D01*
X84785714Y23119048D01*
X84738095Y23071429D01*
X84690476Y22976191D01*
G04 #@! TO.C,C27*
X36357142Y16357143D02*
X36404761Y16309524D01*
X36452380Y16166667D01*
X36452380Y16071429D01*
X36404761Y15928572D01*
X36309523Y15833334D01*
X36214285Y15785715D01*
X36023809Y15738096D01*
X35880952Y15738096D01*
X35690476Y15785715D01*
X35595238Y15833334D01*
X35500000Y15928572D01*
X35452380Y16071429D01*
X35452380Y16166667D01*
X35500000Y16309524D01*
X35547619Y16357143D01*
X35547619Y16738096D02*
X35500000Y16785715D01*
X35452380Y16880953D01*
X35452380Y17119048D01*
X35500000Y17214286D01*
X35547619Y17261905D01*
X35642857Y17309524D01*
X35738095Y17309524D01*
X35880952Y17261905D01*
X36452380Y16690477D01*
X36452380Y17309524D01*
X35452380Y17642858D02*
X35452380Y18309524D01*
X36452380Y17880953D01*
G04 #@! TO.C,optional*
D12*
X7050405Y9063977D02*
X6999898Y9047141D01*
X6966226Y9047141D01*
X6915718Y9063977D01*
X6814703Y9164992D01*
X6797867Y9215500D01*
X6797867Y9249171D01*
X6814703Y9299679D01*
X6865211Y9350187D01*
X6915718Y9367022D01*
X6949390Y9367022D01*
X6999898Y9350187D01*
X7100913Y9249171D01*
X7117749Y9198664D01*
X7117749Y9164992D01*
X7100913Y9114484D01*
X7050405Y9063977D01*
X7084077Y9569053D02*
X7437630Y9215500D01*
X7100913Y9552217D02*
X7117749Y9602725D01*
X7185092Y9670068D01*
X7235600Y9686904D01*
X7269272Y9686904D01*
X7319779Y9670068D01*
X7420795Y9569053D01*
X7437630Y9518545D01*
X7437630Y9484874D01*
X7420795Y9434366D01*
X7353451Y9367022D01*
X7302943Y9350187D01*
X7353451Y9838427D02*
X7488138Y9973114D01*
X7286108Y10006786D02*
X7589153Y9703740D01*
X7639661Y9686904D01*
X7690169Y9703740D01*
X7723840Y9737412D01*
X7841691Y9855263D02*
X7605989Y10090965D01*
X7488138Y10208816D02*
X7488138Y10175144D01*
X7521810Y10175144D01*
X7521810Y10208816D01*
X7488138Y10208816D01*
X7521810Y10175144D01*
X8060558Y10074129D02*
X8010050Y10057293D01*
X7976378Y10057293D01*
X7925871Y10074129D01*
X7824856Y10175144D01*
X7808020Y10225652D01*
X7808020Y10259324D01*
X7824856Y10309831D01*
X7875363Y10360339D01*
X7925871Y10377175D01*
X7959543Y10377175D01*
X8010050Y10360339D01*
X8111065Y10259324D01*
X8127901Y10208816D01*
X8127901Y10175144D01*
X8111065Y10124637D01*
X8060558Y10074129D01*
X8094230Y10579205D02*
X8329932Y10343503D01*
X8127901Y10545534D02*
X8127901Y10579205D01*
X8144737Y10629713D01*
X8195245Y10680221D01*
X8245752Y10697057D01*
X8296260Y10680221D01*
X8481455Y10495026D01*
X8801336Y10814908D02*
X8616142Y11000102D01*
X8565634Y11016938D01*
X8515126Y11000102D01*
X8447783Y10932759D01*
X8430947Y10882251D01*
X8784500Y10831744D02*
X8767665Y10781236D01*
X8683485Y10697057D01*
X8632978Y10680221D01*
X8582470Y10697057D01*
X8548798Y10730728D01*
X8531962Y10781236D01*
X8548798Y10831744D01*
X8632978Y10915923D01*
X8649813Y10966431D01*
X9020203Y11033774D02*
X8969695Y11016938D01*
X8919187Y11033774D01*
X8616142Y11336820D01*
G04 #@! TD*
M02*
